<svg width="68" height="72" viewBox="0 0 68 72" fill="none" xmlns="http://www.w3.org/2000/svg">
<path d="M35.7343 11.5272C36.3021 12.3173 35.7836 14.8355 36.4255 14.7614C37.0427 14.6874 39.166 10.5644 38.4747 9.13242C37.7587 7.70048 32.7469 6.04634 31.8828 5.99697C28.4758 5.79946 27.4883 8.51521 27.0932 10.6878C26.9204 11.6753 23.6862 18.7363 23.8343 18.5141L30.525 10.9347C31.6606 9.79901 34.8948 10.3669 35.7343 11.5272ZM3.0959 67.8667C2.84901 68.4839 2.00961 67.4963 2.2565 66.805C2.33056 66.6075 3.3428 64.3609 5.58946 64.83C6.23136 64.9781 3.91063 65.8669 3.0959 67.8667ZM38.4747 34.3642C40.0054 33.4754 44.4493 26.4885 44.6222 26.8589C44.7703 27.2292 45.0172 29.1549 44.5481 30.5128C43.9062 32.315 38.4747 34.3642 38.4747 34.3642ZM47.2885 19.1066C47.1404 18.761 51.214 26.4391 50.3993 29.8215C49.1155 35.2036 44.3012 38.9069 44.3012 38.9069C44.3012 38.9069 46.5973 34.5123 46.9429 33.7223C47.2885 32.9323 49.5846 24.9331 47.2885 19.1066ZM58.7194 23.5506C61.1389 27.6983 57.8059 32.4138 57.0899 33.0804C56.4974 33.6482 55.2877 34.2901 54.4729 34.7098C55.9296 33.3767 57.2627 31.6978 57.6577 29.7227C58.0281 27.723 57.4109 25.7232 56.374 23.5012C56.1764 23.0815 52.4978 17.65 52.1769 17.3537C52.7694 17.4278 57.4849 20.7854 58.7194 23.5506ZM60.25 33.3026C63.2868 30.2659 63.7559 27.0564 63.904 25.7232C64.4718 28.6117 62.8424 32.7347 61.5092 34.6358C60.3735 34.6851 59.2872 34.8333 58.275 35.0061C59.0403 34.5864 59.5341 34.0186 60.25 33.3026ZM46.7454 53.1275C42.2767 58.8553 34.7467 58.6084 29.6115 60.6823C23.6121 63.0771 19.5138 67.3235 18.4522 68.3851C16.6006 70.2121 14.2798 69.743 13.0207 69.6689C11.7616 69.5949 10.5519 68.953 10.0334 68.8542C9.51495 68.7554 8.32989 68.8789 8.32989 68.8789C8.32989 68.8789 8.37927 68.3111 8.79898 68.0148C9.24337 67.7432 10.1322 67.6445 11.7122 67.3235C13.2923 67.0026 14.502 66.1631 15.1193 65.7434C15.7612 65.3237 15.3415 65.2003 14.9217 65.299C14.5267 65.3978 13.2429 65.8916 11.0456 66.2125C8.84835 66.5335 8.13238 66.3607 7.29297 66.9532C6.42887 67.521 6.62638 68.9776 6.42887 69.3727C6.23136 69.7924 6.08322 69.8911 5.78696 69.6195C5.51539 69.3727 5.39195 68.3851 5.58946 67.5704C5.81166 66.7557 7.09546 66.0891 8.3052 65.8175C9.51495 65.5459 12.0826 65.3731 14.8724 63.8918C23.1184 59.5219 26.7476 56.2383 34.0307 50.6093C41.783 44.6347 48.6958 41.3264 54.152 38.6847C57.5096 37.0553 67.4591 35.8455 67.4591 35.8455C67.4591 35.8455 66.0272 34.8827 64.5459 34.7098C63.6571 34.6111 62.793 34.5864 61.9536 34.6111C63.3115 33.8704 66.7678 31.204 67.2863 27.7723C67.9529 23.1802 61.8548 19.3782 61.7807 15.2058C61.5832 5.4785 51.8066 4.09594 52.2509 4.36752C54.0779 5.50319 55.9789 7.70048 56.3246 8.9596C56.9665 11.2556 55.0161 13.7492 52.1769 14.712C50.819 15.1564 43.3137 16.8106 42.3261 17.8228C41.3139 18.835 43.3877 24.1431 42.0545 26.291C40.7214 28.4389 33.2654 32.1175 32.3766 33.1545C31.4878 34.1914 30.5496 33.8704 30.2287 33.8457C29.9077 33.821 30.1793 34.2161 31.0928 34.4136C32.0063 34.6111 33.5863 34.0679 34.4998 33.5742C35.4133 33.0557 36.6971 34.142 36.6477 34.858C36.5737 35.5492 35.7096 35.7468 34.0307 36.8084C32.6976 37.6478 28.8955 35.2777 28.5746 34.4876C28.2536 33.6976 29.3646 33.9692 30.0559 33.1051C30.7472 32.2657 29.5374 32.1175 29.1177 32.2657C28.6733 32.3891 28.4264 32.1669 27.982 32.0435C27.5376 31.92 26.9698 32.0435 26.6982 32.3644C26.4267 32.6854 26.6982 32.9323 25.6613 33.0557C24.6244 33.1791 25.0935 31.92 25.3157 30.5621C25.5379 29.2043 26.402 25.5997 26.2291 25.1553C26.0563 24.6863 26.0316 24.8591 25.6613 24.4147C25.291 23.9703 25.2663 23.1802 25.2169 21.8964C25.1922 20.6126 25.291 18.2178 25.291 18.2178C25.291 18.2178 24.5009 19.3782 24.1553 21.4274C23.8097 23.4765 25.2416 24.6122 25.2663 24.9331C25.291 25.2541 25.2169 25.9947 24.5997 29.624C23.9578 33.2532 24.7478 33.9445 25.5379 34.5864C26.3279 35.2283 29.8584 37.0553 29.8584 37.0553L29.7843 38.6847C29.7843 38.6847 28.0314 39.2525 26.3773 40.3388C24.7231 41.4004 24.1059 43.3262 23.9825 43.9681C23.859 44.61 24.2047 44.5112 24.2047 44.5112C24.2047 44.5112 24.575 44.1162 25.8835 43.104C27.1673 42.0917 30.0065 41.5486 30.3521 41.5239C30.6978 41.4992 30.7225 41.6227 30.2781 41.9436C29.8337 42.2646 28.6733 43.104 26.1798 44.9556C23.6862 46.832 23.3406 49.1527 23.3406 49.6958C23.3406 50.2143 23.6862 49.7946 23.6862 49.7946C23.6862 49.7946 24.0318 49.0045 24.896 48.2145C25.7354 47.4245 27.6611 46.9554 29.809 46.6097C31.9569 46.2641 32.3025 45.721 32.9691 44.7334C33.6357 43.7706 35.438 41.9436 35.8083 41.6967C36.1786 41.4745 36.2774 41.598 36.0552 41.7708C35.833 41.9436 35.7096 42.067 34.5739 43.2768C33.4382 44.5112 33.2407 45.9678 33.2407 45.9678C33.2407 45.9678 33.8579 45.1037 35.2652 44.1409C36.6477 43.1533 40.0301 42.067 40.9189 41.8448C41.783 41.6227 41.7336 41.7461 41.5855 41.8695C41.4373 41.993 41.3386 42.0177 40.351 42.5361C39.3882 43.0299 35.9318 45.0791 31.4137 48.4367C26.797 51.8684 23.0196 55.8186 19.2916 58.5837C15.5883 61.3242 12.7985 62.5586 11.3419 62.8055C9.88527 63.0524 8.18176 62.213 6.03385 62.1142C3.88594 62.0155 2.454 63.4721 2.2318 63.793C2.00961 64.114 2.0096 64.3856 2.20711 64.3609C2.40462 64.3362 2.75026 63.9412 3.07122 63.9412C3.39217 63.9412 3.36748 64.1387 3.36748 64.1387C3.36748 64.1387 3.21935 64.2127 2.60213 64.509C2.00961 64.83 1.09613 65.7188 0.65173 67.0766C0.207335 68.4098 1.24425 70.4343 1.24425 70.4343C1.24425 70.4343 1.91085 70.4343 2.82433 70.8293C3.73781 71.1996 4.33033 71.4465 4.77472 71.7181C5.21912 71.965 5.66352 72.039 6.577 71.7921C7.49048 71.5206 9.36682 71.5206 10.6506 71.5946C11.9344 71.644 16.9709 72.8785 20.2051 70.7799C30.3028 61.9167 40.8695 62.682 44.6715 61.3242C52.4485 58.485 51.1646 47.9676 64.8668 49.5724C64.2002 47.9923 53.4854 44.5359 46.7454 53.1275ZM16.9956 31.3769C17.5141 31.7719 18.5016 33.5988 18.3782 33.3026C18.2547 33.0063 18.7732 31.3275 17.6622 29.2536C16.5265 27.1798 16.1809 26.4145 15.6871 24.3406C15.1933 22.2421 14.3045 20.5386 15.7859 19.2548C17.2919 17.9709 18.4522 16.1193 18.9213 14.1442C19.3904 12.1691 20.9951 10.6137 22.7727 8.46583C24.5503 6.31792 24.896 5.99697 24.896 5.99697C24.4762 6.5648 23.6368 8.86085 23.2665 10.0706C22.8715 11.2803 20.9458 13.922 20.057 15.3293C19.1929 16.7365 17.1931 19.4523 17.0203 21.9952C16.8722 24.5381 18.946 27.5501 19.267 28.6611C19.5632 29.7721 18.8472 32.9076 19.6126 35.1542C20.3533 37.4009 22.4765 39.4747 22.8715 39.7463C23.2418 40.0179 23.1677 39.7463 23.0443 39.5982C22.9209 39.45 22.674 39.2279 22.1555 38.1416C21.6371 37.0799 21.8839 35.8702 22.2296 34.2407C22.5999 32.6113 22.7727 31.3028 22.6246 29.6734C22.4765 28.0439 21.168 25.2788 20.773 23.6C20.3779 21.9211 21.3902 20.267 23.0937 17.4031C24.7725 14.5145 25.0194 12.0951 25.2416 10.3175C25.4638 8.53989 26.4513 5.99697 29.1177 4.88598C30.6731 4.24407 34.9936 5.13286 37.2403 6.54012C38.8203 7.60173 39.6104 8.58927 39.8326 9.72495C40.1041 11.0581 39.2894 11.9716 38.7957 13.2554C38.3019 14.5639 37.9562 16.0699 38.5241 15.9959C39.0178 15.9465 44.8197 11.0581 46.1282 9.65088C46.7701 8.93491 47.6342 7.13264 46.3997 5.52788C45.3381 4.12063 37.7834 3.50341 36.3268 1.47895C35.043 -0.323322 31.6853 -0.224567 30.6978 0.442026C29.7843 1.05924 27.7845 2.73807 25.8341 3.40466C23.8837 4.07125 21.8839 4.39221 19.2423 5.72539C16.6006 7.08327 16.724 8.63865 16.4278 9.77432C16.1315 10.91 15.934 13.9714 13.7861 17.255C11.6135 20.5386 12.8726 22.7852 13.9342 26.1182C14.9711 29.3771 16.4771 30.9819 16.9956 31.3769ZM31.2903 29.698C31.2409 30.0684 31.6113 29.7227 31.9075 29.303C32.2038 28.8586 33.3888 26.9082 35.3145 23.6C37.2403 20.2917 38.3759 17.4525 38.2772 17.3784C38.1537 17.3044 37.8822 17.5759 37.5859 17.7981C37.2649 18.0203 36.6477 18.6375 36.1293 19.3041C35.6108 19.9707 35.1664 19.8967 34.4998 20.0448C33.8332 20.1929 32.6235 21.5014 31.9322 22.0693C31.2409 22.6124 30.3028 23.1802 29.4387 23.3037C28.5005 23.4518 28.3524 23.0321 27.9573 23.1062C27.5623 23.1802 27.587 23.8222 27.7105 24.2912C27.8586 24.7356 27.7351 24.9578 27.6611 25.7479C27.587 26.5626 28.1549 27.3279 28.6239 27.797C29.093 28.2414 28.9449 28.9574 29.2658 29.2043C29.5868 29.4512 29.6855 27.8217 29.6855 26.8095C29.6855 25.8219 29.4633 24.8344 29.488 24.6863C29.5374 24.5381 30.3275 24.3159 30.6978 24.069C31.0928 23.8222 32.0063 23.1556 32.4507 22.9334C32.9198 22.7112 32.9198 22.884 32.7963 23.1309C32.6729 23.4024 32.426 23.7975 31.9322 24.2172C31.4138 24.6616 30.204 24.9825 29.9324 25.0072C29.6609 25.0319 29.6856 25.2541 29.9571 25.4763C30.2287 25.6738 30.8953 25.6738 31.4878 25.5257C32.0803 25.3528 32.0063 26.1429 31.9322 26.9823C31.8581 27.8217 31.3644 29.3277 31.2903 29.698ZM44.3259 2.46649C48.8439 3.92312 49.8314 7.82392 48.2761 9.6015C47.412 10.589 46.4244 11.1816 44.1531 12.5888C41.8817 13.9961 40.9929 14.7367 40.277 15.2799C39.561 15.8477 39.166 16.6131 40.7214 16.1934C40.8695 16.144 50.424 14.0948 51.6584 13.4529C53.7323 12.3666 54.3248 11.626 54.6457 10.2187C54.9667 8.81147 52.8188 6.49074 51.8066 5.35506C49.7821 3.00964 44.9184 0.590158 44.6962 0.565469C42.252 -0.249256 39.2647 0.417337 36.8206 0.54078C36.549 0.54078 36.6477 0.960487 36.7959 1.05924C38.9931 2.56525 41.6595 1.84928 44.3259 2.46649Z" fill="#101010"/>
</svg>
