<svg width="400" height="400" viewBox="0 0 400 400" fill="none" xmlns="http://www.w3.org/2000/svg">
<rect width="400" height="400" fill="white"/>
<path d="M201.734 175.527C202.302 176.317 201.784 178.835 202.426 178.761C203.043 178.687 205.166 174.564 204.475 173.132C203.759 171.7 198.747 170.046 197.883 169.997C194.476 169.799 193.488 172.515 193.093 174.688C192.92 175.675 189.686 182.736 189.834 182.514L196.525 174.935C197.661 173.799 200.895 174.367 201.734 175.527ZM169.096 231.867C168.849 232.484 168.01 231.496 168.256 230.805C168.331 230.608 169.343 228.361 171.589 228.83C172.231 228.978 169.911 229.867 169.096 231.867ZM204.475 198.364C206.005 197.475 210.449 190.489 210.622 190.859C210.77 191.229 211.017 193.155 210.548 194.513C209.906 196.315 204.475 198.364 204.475 198.364ZM213.289 183.107C213.14 182.761 217.214 190.439 216.399 193.821C215.116 199.204 210.301 202.907 210.301 202.907C210.301 202.907 212.597 198.512 212.943 197.722C213.289 196.932 215.585 188.933 213.289 183.107ZM224.719 187.551C227.139 191.698 223.806 196.414 223.09 197.08C222.497 197.648 221.288 198.29 220.473 198.71C221.93 197.377 223.263 195.698 223.658 193.723C224.028 191.723 223.411 189.723 222.374 187.501C222.176 187.081 218.498 181.65 218.177 181.354C218.769 181.428 223.485 184.785 224.719 187.551ZM226.25 197.303C229.287 194.266 229.756 191.056 229.904 189.723C230.472 192.612 228.842 196.735 227.509 198.636C226.374 198.685 225.287 198.833 224.275 199.006C225.04 198.586 225.534 198.019 226.25 197.303ZM212.745 217.128C208.277 222.855 200.747 222.608 195.611 224.682C189.612 227.077 185.514 231.324 184.452 232.385C182.601 234.212 180.28 233.743 179.021 233.669C177.762 233.595 176.552 232.953 176.033 232.854C175.515 232.755 174.33 232.879 174.33 232.879C174.33 232.879 174.379 232.311 174.799 232.015C175.243 231.743 176.132 231.644 177.712 231.324C179.292 231.003 180.502 230.163 181.119 229.743C181.761 229.324 181.341 229.2 180.922 229.299C180.527 229.398 179.243 229.892 177.046 230.213C174.848 230.533 174.132 230.361 173.293 230.953C172.429 231.521 172.626 232.978 172.429 233.373C172.231 233.792 172.083 233.891 171.787 233.62C171.515 233.373 171.392 232.385 171.589 231.57C171.812 230.756 173.095 230.089 174.305 229.818C175.515 229.546 178.083 229.373 180.872 227.892C189.118 223.522 192.748 220.238 200.031 214.609C207.783 208.635 214.696 205.326 220.152 202.685C223.51 201.055 233.459 199.846 233.459 199.846C233.459 199.846 232.027 198.883 230.546 198.71C229.657 198.611 228.793 198.586 227.954 198.611C229.311 197.87 232.768 195.204 233.286 191.772C233.953 187.18 227.855 183.378 227.781 179.206C227.583 169.479 217.807 168.096 218.251 168.368C220.078 169.503 221.979 171.7 222.325 172.96C222.966 175.256 221.016 177.749 218.177 178.712C216.819 179.156 209.314 180.811 208.326 181.823C207.314 182.835 209.388 188.143 208.055 190.291C206.721 192.439 199.265 196.118 198.377 197.154C197.488 198.191 196.55 197.87 196.229 197.846C195.908 197.821 196.179 198.216 197.093 198.414C198.006 198.611 199.586 198.068 200.5 197.574C201.413 197.056 202.697 198.142 202.648 198.858C202.574 199.549 201.71 199.747 200.031 200.808C198.698 201.648 194.896 199.278 194.575 198.488C194.254 197.698 195.365 197.969 196.056 197.105C196.747 196.266 195.537 196.118 195.118 196.266C194.673 196.389 194.426 196.167 193.982 196.043C193.538 195.92 192.97 196.043 192.698 196.364C192.427 196.685 192.698 196.932 191.661 197.056C190.624 197.179 191.093 195.92 191.316 194.562C191.538 193.204 192.402 189.6 192.229 189.155C192.056 188.686 192.032 188.859 191.661 188.415C191.291 187.97 191.266 187.18 191.217 185.896C191.192 184.613 191.291 182.218 191.291 182.218C191.291 182.218 190.501 183.378 190.155 185.427C189.81 187.477 191.242 188.612 191.266 188.933C191.291 189.254 191.217 189.995 190.6 193.624C189.958 197.253 190.748 197.944 191.538 198.586C192.328 199.228 195.858 201.055 195.858 201.055L195.784 202.685C195.784 202.685 194.031 203.253 192.377 204.339C190.723 205.4 190.106 207.326 189.982 207.968C189.859 208.61 190.205 208.511 190.205 208.511C190.205 208.511 190.575 208.116 191.883 207.104C193.167 206.092 196.006 205.549 196.352 205.524C196.698 205.499 196.722 205.623 196.278 205.944C195.834 206.265 194.673 207.104 192.18 208.956C189.686 210.832 189.341 213.153 189.341 213.696C189.341 214.214 189.686 213.795 189.686 213.795C189.686 213.795 190.032 213.005 190.896 212.215C191.735 211.424 193.661 210.955 195.809 210.61C197.957 210.264 198.303 209.721 198.969 208.733C199.636 207.771 201.438 205.944 201.808 205.697C202.179 205.475 202.277 205.598 202.055 205.771C201.833 205.944 201.71 206.067 200.574 207.277C199.438 208.511 199.241 209.968 199.241 209.968C199.241 209.968 199.858 209.104 201.265 208.141C202.648 207.153 206.03 206.067 206.919 205.845C207.783 205.623 207.734 205.746 207.585 205.87C207.437 205.993 207.339 206.018 206.351 206.536C205.388 207.03 201.932 209.079 197.414 212.437C192.797 215.868 189.02 219.819 185.292 222.584C181.588 225.324 178.799 226.559 177.342 226.805C175.885 227.052 174.182 226.213 172.034 226.114C169.886 226.015 168.454 227.472 168.232 227.793C168.01 228.114 168.01 228.386 168.207 228.361C168.405 228.336 168.75 227.941 169.071 227.941C169.392 227.941 169.367 228.139 169.367 228.139C169.367 228.139 169.219 228.213 168.602 228.509C168.01 228.83 167.096 229.719 166.652 231.077C166.207 232.41 167.244 234.434 167.244 234.434C167.244 234.434 167.911 234.434 168.824 234.829C169.738 235.2 170.33 235.447 170.775 235.718C171.219 235.965 171.664 236.039 172.577 235.792C173.49 235.521 175.367 235.521 176.651 235.595C177.934 235.644 182.971 236.878 186.205 234.78C196.303 225.917 206.869 226.682 210.672 225.324C218.448 222.485 217.165 211.968 230.867 213.572C230.2 211.992 219.485 208.536 212.745 217.128ZM182.996 195.377C183.514 195.772 184.502 197.599 184.378 197.303C184.255 197.006 184.773 195.327 183.662 193.254C182.527 191.18 182.181 190.414 181.687 188.341C181.193 186.242 180.305 184.539 181.786 183.255C183.292 181.971 184.452 180.119 184.921 178.144C185.39 176.169 186.995 174.614 188.773 172.466C190.55 170.318 190.896 169.997 190.896 169.997C190.476 170.565 189.637 172.861 189.267 174.071C188.871 175.28 186.946 177.922 186.057 179.329C185.193 180.737 183.193 183.452 183.02 185.995C182.872 188.538 184.946 191.55 185.267 192.661C185.563 193.772 184.847 196.908 185.613 199.154C186.353 201.401 188.476 203.475 188.871 203.746C189.242 204.018 189.168 203.746 189.044 203.598C188.921 203.45 188.674 203.228 188.156 202.142C187.637 201.08 187.884 199.87 188.23 198.241C188.6 196.611 188.773 195.303 188.625 193.673C188.476 192.044 187.168 189.279 186.773 187.6C186.378 185.921 187.39 184.267 189.094 181.403C190.773 178.515 191.019 176.095 191.242 174.317C191.464 172.54 192.451 169.997 195.118 168.886C196.673 168.244 200.994 169.133 203.24 170.54C204.82 171.602 205.61 172.589 205.833 173.725C206.104 175.058 205.289 175.972 204.796 177.255C204.302 178.564 203.956 180.07 204.524 179.996C205.018 179.946 210.82 175.058 212.128 173.651C212.77 172.935 213.634 171.133 212.4 169.528C211.338 168.121 203.783 167.503 202.327 165.479C201.043 163.677 197.685 163.775 196.698 164.442C195.784 165.059 193.785 166.738 191.834 167.405C189.884 168.071 187.884 168.392 185.242 169.725C182.601 171.083 182.724 172.639 182.428 173.774C182.131 174.91 181.934 177.971 179.786 181.255C177.613 184.539 178.873 186.785 179.934 190.118C180.971 193.377 182.477 194.982 182.996 195.377ZM197.29 193.698C197.241 194.068 197.611 193.723 197.908 193.303C198.204 192.859 199.389 190.908 201.315 187.6C203.24 184.292 204.376 181.452 204.277 181.378C204.154 181.304 203.882 181.576 203.586 181.798C203.265 182.02 202.648 182.638 202.129 183.304C201.611 183.971 201.166 183.897 200.5 184.045C199.833 184.193 198.623 185.501 197.932 186.069C197.241 186.612 196.303 187.18 195.439 187.304C194.5 187.452 194.352 187.032 193.957 187.106C193.562 187.18 193.587 187.822 193.71 188.291C193.859 188.736 193.735 188.958 193.661 189.748C193.587 190.563 194.155 191.328 194.624 191.797C195.093 192.241 194.945 192.957 195.266 193.204C195.587 193.451 195.686 191.822 195.686 190.809C195.686 189.822 195.463 188.834 195.488 188.686C195.537 188.538 196.327 188.316 196.698 188.069C197.093 187.822 198.006 187.156 198.451 186.933C198.92 186.711 198.92 186.884 198.796 187.131C198.673 187.402 198.426 187.797 197.932 188.217C197.414 188.662 196.204 188.983 195.932 189.007C195.661 189.032 195.686 189.254 195.957 189.476C196.229 189.674 196.895 189.674 197.488 189.526C198.08 189.353 198.006 190.143 197.932 190.982C197.858 191.822 197.364 193.328 197.29 193.698ZM210.326 166.466C214.844 167.923 215.831 171.824 214.276 173.602C213.412 174.589 212.424 175.182 210.153 176.589C207.882 177.996 206.993 178.737 206.277 179.28C205.561 179.848 205.166 180.613 206.721 180.193C206.869 180.144 216.424 178.095 217.658 177.453C219.732 176.367 220.325 175.626 220.646 174.219C220.967 172.811 218.819 170.491 217.807 169.355C215.782 167.01 210.918 164.59 210.696 164.565C208.252 163.751 205.265 164.417 202.821 164.541C202.549 164.541 202.648 164.96 202.796 165.059C204.993 166.565 207.66 165.849 210.326 166.466Z" fill="#101010"/>
</svg>
