<svg width="62" height="72" viewBox="0 0 62 72" fill="none" xmlns="http://www.w3.org/2000/svg">
<path d="M39.1423 40.8265C40.172 42.265 42.3734 42.5107 44.0422 41.3528C45.7109 40.1949 46.208 38.0546 45.1428 36.616C44.7523 36.0546 44.1487 35.6686 43.5096 35.4932C43.5096 35.4932 43.332 37.844 42.2669 39.6335C41.4147 37.9142 41.1662 35.6335 41.1662 35.6335C41.1662 35.6335 41.1662 35.6335 41.1662 35.5984C40.8466 35.7037 40.5271 35.8791 40.243 36.0896C38.6098 37.2475 38.1127 39.3528 39.1423 40.8265ZM39.6394 39.7738C40.2075 40.3002 40.9176 40.5458 41.6988 40.5458C42.6574 40.5458 44.0421 39.8089 44.8233 38.5458C44.8233 40.0195 43.0835 41.2475 41.7343 41.2475C40.314 41.2475 39.6394 40.4054 39.6394 39.7738Z" fill="#FFD246"/>
<path d="M21.7326 36.0896C21.4486 35.8791 21.129 35.7388 20.8095 35.5984V35.6335C20.8095 35.6335 20.5964 37.9142 19.7088 39.6335C18.6436 37.844 18.4661 35.4932 18.4661 35.4932C17.7915 35.6686 17.2234 36.0546 16.8328 36.616C15.8031 38.0546 16.3002 40.1949 17.9335 41.3528C19.6023 42.5107 21.7681 42.265 22.8333 40.8265C23.8985 39.3528 23.4014 37.2475 21.7326 36.0896ZM20.2769 41.2475C18.9277 41.2475 17.1879 40.0195 17.1879 38.5458C17.969 39.8089 19.3537 40.5458 20.3124 40.5458C21.129 40.5458 21.8036 40.3002 22.3717 39.7738C22.3717 40.4054 21.6971 41.2475 20.2769 41.2475Z" fill="#3C7DFF"/>
<path d="M60.9831 41.6276C59.0902 41.1237 57.1634 39.5782 56.0141 37.9319C57.3324 38.2006 60.0705 39.9141 60.9831 41.6276Z" fill="white"/>
<path d="M59.6981 38.0662C59.6981 38.0662 58.5826 38.0662 57.4333 37.6295C56.3178 37.1927 55.7432 36.7223 54.9319 36.1176C56.3178 36.0504 58.346 36.6215 59.6981 38.0662Z" fill="white"/>
<path d="M36.6786 52.3117C36.0025 51.3038 35.4616 50.5646 35.4616 48.9183C35.8673 49.5231 36.2729 50.2286 36.78 50.9006C37.2532 51.5389 37.9631 52.6813 37.7941 53.8908C37.625 53.6892 36.8814 52.6141 36.6786 52.3117Z" fill="white"/>
<path d="M37.3549 56.0411C36.5098 54.7308 35.3605 53.5884 35.4281 51.6733C35.8337 52.3117 36.2394 52.9837 36.7464 53.6556C37.0168 54.0252 37.5915 54.798 37.3549 56.0411Z" fill="white"/>
<path d="M37.3211 50.5311C36.1718 48.8176 35.3267 47.6417 35.4619 46.2306C35.8338 46.9025 36.2732 47.5409 36.7803 48.2128C37.5239 49.2544 38.6732 50.9007 38.369 52.043C37.9972 51.5054 37.6591 51.0351 37.3211 50.5311Z" fill="white"/>
<path d="M37.3212 47.8096C36.3747 46.4657 35.2254 44.9202 35.462 43.4755C35.9352 44.5842 36.4423 44.9874 36.9831 45.7937C37.9296 47.104 39.2479 48.8847 38.9099 50.363C38.5043 49.4895 37.8958 48.6495 37.3212 47.8096Z" fill="white"/>
<path d="M36.6111 30.07C37.5914 27.4157 38.5041 26.139 39.5858 25.635C39.1126 26.8446 38.5717 27.8861 37.5238 30.4395C37.0506 31.5819 35.9689 34.2697 35.3942 35.412C35.3942 34.2697 35.6308 32.7242 36.6111 30.07Z" fill="white"/>
<path d="M34.4816 33.833C34.1436 30.9771 35.4281 28.0541 36.4422 27.0462C36.4422 27.0462 36.307 28.5581 35.7323 30.406C35.2929 31.9179 34.4816 33.833 34.4816 33.833Z" fill="white"/>
<path d="M38.3014 23.1823C39.3493 21.7376 40.3972 21.2673 40.3972 21.2673C39.9578 22.3424 39.2141 24.0223 37.2535 26.4749C37.3549 25.1982 37.7944 23.8543 38.3014 23.1823Z" fill="white"/>
<path d="M38.0304 21.5698C38.3347 18.3108 39.2135 17.9412 40.9375 16.2949C40.329 18.5124 39.2811 19.8899 38.0304 21.5698Z" fill="white"/>
<path d="M43.7771 28.054C42.2222 28.6924 40.8701 30.0027 39.4841 31.6826C38.5038 32.8921 37.3883 34.4712 36.3404 37.0583C36.2052 35.3448 37.5912 31.9514 38.0982 30.7755C39.1123 28.39 40.2954 26.4749 42.2222 26.6765C40.9038 27.5165 39.5517 29.1628 38.9771 31.0442C41.0391 28.1548 42.4588 27.6845 43.7771 28.054Z" fill="white"/>
<path d="M48.3405 31.481C44.318 30.8762 39.5517 33.3289 37.2193 38.0662C37.1179 35.9831 38.9433 33.3625 39.8898 32.2202C41.4109 30.3723 43.9461 28.222 46.2785 29.5995C43.8109 29.6667 41.8165 31.313 41.1743 32.2202C44.5208 30.1707 47.1574 30.2379 48.3405 31.481Z" fill="white"/>
<path d="M45.2982 34.0008C46.3123 33.7992 47.5292 33.6985 49.2193 34.0344C51.2813 34.404 52.4644 35.244 53.0053 35.8151C51.5855 35.5127 50.1996 35.244 49.5912 35.1096C48.7123 34.8744 46.8531 34.572 45.2982 34.0008Z" fill="white"/>
<path d="M46.4141 33.1609C44.3521 33.2952 42.9324 33.6984 41.1746 34.3368C42.2225 33.2952 43.9465 32.4889 45.4 32.2201C48.2057 31.6826 50.2 32.9593 50.8085 33.6648C49.0845 33.2281 47.5296 33.0937 46.4141 33.1609Z" fill="white"/>
<path d="M37.5574 45.3907C36.5433 43.946 35.4616 42.3669 35.4616 40.7878C35.4616 40.0487 35.5631 39.4439 35.9349 38.9063C35.9349 41.023 36.7462 42.6693 37.8955 44.3156C38.8081 45.5923 39.4842 46.6002 39.3828 48.2801C38.9096 47.3058 38.2335 46.3315 37.5574 45.3907Z" fill="white"/>
<path d="M39.0108 43.8115C40.9038 43.4755 42.6278 44.9874 43.3038 45.6258C41.5123 45.693 39.8897 44.2147 39.0108 43.8115Z" fill="white"/>
<path d="M42.6614 44.2146C42.0192 43.7779 41.1741 43.3075 40.2276 43.1395C42.0868 42.5347 43.9121 43.8115 44.9262 44.7858C44.0136 44.9874 43.0333 44.4834 42.6614 44.2146Z" fill="white"/>
<path d="M43.0337 42.7699C44.2506 42.3667 45.5689 43.0387 46.3464 43.7442C45.0957 44.0802 43.9802 43.2402 43.0337 42.7699Z" fill="white"/>
<path d="M44.6902 42.0309C45.6705 41.527 47.3945 42.0309 48.3748 42.9381C46.9888 43.2404 45.6029 42.3333 44.6902 42.0309Z" fill="white"/>
<path d="M45.8053 40.9894C46.6165 40.3175 49.2532 40.6534 49.8278 42.0309C48.2391 42.0645 47.2926 41.2582 45.8053 40.9894Z" fill="white"/>
<path d="M46.6165 39.7464C48.0025 38.9064 50.5377 39.5112 50.8081 40.7543C49.456 40.7543 47.7996 39.78 46.6165 39.7464Z" fill="white"/>
<path d="M47.6987 37.8645C48.1382 36.9574 49.4565 36.5542 49.4565 36.5542C49.4565 36.5542 49.0508 36.0838 48.341 35.5462C51.6537 35.7814 53.141 37.3605 53.3776 38.0325C52.2283 37.6629 49.6931 37.2597 47.6987 37.8645Z" fill="white"/>
<path d="M55.0678 40.7542C53.9185 40.5526 52.5664 40.351 51.5861 39.3431C53.0396 39.1415 54.2227 39.8806 55.0678 40.7542Z" fill="white"/>
<path d="M58.0083 35.3449C58.0083 35.3449 56.9942 35.6809 55.8449 35.3449C54.797 35.0425 53.8167 34.5049 53.0392 33.833C54.628 33.9002 56.2505 34.0346 58.0083 35.3449Z" fill="white"/>
<path d="M56.3858 32.8251C56.3858 32.8251 55.5407 33.4635 54.1548 33.2283C53.2083 33.0603 52.059 32.5227 51.3153 31.918C52.7351 31.7836 54.7294 31.918 56.3858 32.8251Z" fill="white"/>
<path d="M55.7438 27.3487L56.3523 26.4751C58.5495 23.3505 59.5974 19.7891 59.5974 15.623C59.5974 13.0024 58.8875 10.8521 58.8875 10.8185L58.8537 10.7513V10.6841C58.8537 3.49418 57.6368 0 55.1692 0C52.8706 0 49.4565 3.86375 46.1438 7.59312C43.6085 10.4825 40.9381 13.3384 38.5381 15.0854C36.4761 16.5973 36.5099 18.546 36.8817 19.386C37.3888 17.3029 38.4028 16.4966 39.8226 15.455C42.2226 13.6743 44.5212 11.0537 46.6846 8.53386C50.2001 4.43492 53.3776 1.00794 55.203 1.00794C56.4537 1.00794 57.434 2.95661 57.4678 4.8045C56.8593 3.49418 56.2171 2.11667 55.1692 2.11667C52.9382 2.11667 47.5297 10.6505 44.8592 13.9095C43.0001 16.1942 41.4451 17.3701 40.5662 20.0243C41.5127 19.9235 42.3916 20.0915 42.3916 20.0915C41.6817 20.8307 41.3099 21.6034 41.3099 21.6034C42.2226 21.5698 43.0677 21.7378 43.0677 21.7378C42.324 22.3762 41.7494 23.0817 41.7494 23.0817C42.5606 23.0145 43.4395 23.2497 43.4395 23.2497C42.7972 23.8545 42.2564 24.4257 42.2564 24.4257C43.5071 24.3921 44.2508 24.6608 44.2508 24.6608C43.5747 25.064 43.0677 25.6016 43.0677 25.6016C44.5212 25.736 45.5015 25.9376 45.5015 25.9376C44.893 26.3743 44.048 26.7103 44.048 26.7103C45.0283 27.1135 47.0564 27.1471 47.0564 27.1471C46.3466 27.6846 45.3325 27.9198 45.3325 27.9198C46.5832 28.323 48.7128 28.3902 48.7128 28.3902C48.0705 28.8942 47.0902 29.1965 47.0902 29.1965C47.9015 29.5997 50.3353 29.9021 50.3353 29.9021C49.8283 30.2045 48.9832 30.4397 48.9832 30.4397C49.7269 30.8093 51.0452 31.1788 52.1607 31.1788C53.2762 31.1788 53.9185 30.8764 54.3579 30.7085C53.1072 30.1373 51.2818 29.7677 51.2818 29.7677L52.0931 29.0958C52.0931 29.0958 50.7748 28.7598 49.8621 28.3902L50.9438 27.7854C50.9438 27.7854 49.3213 27.4495 48.2396 27.0463L49.186 26.2735C49.186 26.2735 47.8677 26.1055 46.5494 25.568L47.6649 24.8288C47.6649 24.8288 46.6508 24.6608 45.5353 24.1905L46.5494 23.3505C46.5494 23.3505 45.5015 23.1489 44.5212 22.8802L45.3663 21.6706C45.3663 21.6706 44.7578 21.5026 44.0142 21.3682L45.2987 19.9235C45.2987 19.9235 44.5212 19.7891 43.6085 19.8227C43.6085 19.8227 44.1832 18.6132 45.2649 16.9669C45.2649 16.9669 44.555 17.1685 44.0142 17.4037C44.0818 16.2614 46.6508 13.7415 48.5776 10.4825C48.51 12.6328 46.3128 15.7574 46.3128 15.7574L47.6987 15.791C47.6987 15.791 46.0761 17.8741 45.8057 18.7476C45.8057 18.7476 47.0564 18.7812 48.2057 18.4788C48.2057 18.4788 47.6649 19.2852 46.3804 20.2595C46.3804 20.2595 47.2255 20.5955 48.4086 20.4611C48.4086 20.4611 47.8001 21.2003 46.5494 21.9058C47.4621 22.2418 50.5381 22.309 52.8706 19.8227C52.8706 19.8227 51.0452 20.2931 49.5917 20.0243C49.5917 20.0243 51.7889 19.0164 52.6677 18.0085C52.6677 18.0085 50.4367 18.3444 49.4902 18.0085C49.4902 18.0085 51.7551 17.3365 52.6001 16.4294C52.6001 16.4294 50.8424 16.3958 50.0987 15.9926C50.0987 15.9926 55.5072 14.3799 57.1974 13.6071C57.1974 13.6071 56.2171 14.9175 54.5269 16.0262C55.541 16.0262 57.5016 15.119 57.5016 15.119C57.5016 15.119 56.8255 16.3286 54.9663 17.7061C54.9663 17.7061 56.6903 17.6389 57.7044 16.7317C57.7044 16.7317 57.434 18.2436 55.203 19.4532C55.203 19.4532 56.6227 19.4532 57.603 18.9492C57.7044 20.0579 57.1973 22.5778 55.9804 23.8881C55.9804 23.8881 56.1833 22.0738 55.4734 21.2675C55.372 22.141 55.3382 23.8881 54.0875 24.896C54.3579 23.0481 53.7156 22.477 53.7156 22.477C53.7156 22.477 53.31 25.2992 51.8227 25.6688C52.1945 24.6272 51.9917 23.8881 51.9917 23.8881C51.9917 23.8881 50.9438 25.4 49.9297 26.072C49.9297 26.072 51.1466 27.4495 53.0396 26.3743C53.1072 26.7103 52.3973 27.7854 52.3973 27.7854C52.3973 27.7854 53.9861 27.4831 55.1692 25.6352C55.1354 27.0799 54.0537 28.2894 53.2762 28.7262C54.0537 29.2637 54.8311 29.9693 55.203 30.3053C55.6762 30.0365 56.1495 29.7341 56.5213 29.4653C56.1833 29.3309 55.9466 29.2638 55.9466 29.2638L54.7973 28.8942L55.8452 28.323C56.5551 27.9534 57.0621 27.4831 57.4002 27.1135C56.9607 27.1471 56.6565 27.1471 56.6565 27.1471L55.7438 27.3487ZM55.0002 6.04762C54.5945 6.82037 53.6142 7.12275 52.6339 6.61878C53.4452 6.14841 53.8847 6.04762 55.0002 6.04762ZM55.4058 7.52592C54.9663 8.13069 54.3579 8.60106 53.6142 8.70185C53.1748 8.76904 52.4987 8.56746 51.9917 8.16428C53.2086 8.02989 53.9523 7.8955 55.4058 7.52592ZM55.9804 8.76904C55.8452 9.30661 54.9326 10.2474 53.648 10.5833C52.9382 10.7849 52.1269 10.7513 51.2818 10.3817C53.0058 9.94497 54.4593 9.5418 55.9804 8.76904ZM56.3523 10.1466C56.2847 10.6169 55.2368 12.028 53.7156 12.4312C51.9579 12.9352 51.1804 12.1288 51.1804 12.1288C51.1804 12.1288 54.3917 11.6249 56.3523 10.1466ZM54.0537 14.1447C51.9917 14.7159 50.7748 14.0775 50.7748 14.0775C50.7748 14.0775 53.3776 13.2376 53.9861 13.036C54.4593 12.868 56.8593 12.028 56.8593 12.028C56.8593 12.028 56.1157 13.5735 54.0537 14.1447Z" fill="white"/>
<path d="M47.6987 23.3839C49.1523 23.1487 50.4706 22.7792 52.1269 22.0736C50.8762 23.9215 49.3213 24.2911 47.6987 23.3839Z" fill="white"/>
<path d="M34.7185 17.4372C34.9213 15.9589 35.6311 15.4213 36.2058 15.0517C36.2058 15.0517 35.3607 19.3859 35.1917 20.0914C35.2255 20.125 34.5156 18.9155 34.7185 17.4372Z" fill="white"/>
<path d="M35.6308 21.3346C35.6646 22.4769 35.7322 23.72 35.7322 23.72C35.7322 23.72 36.2054 21.8385 37.0167 20.3266C37.4561 23.1824 36.3744 25.4671 34.8871 27.0798C34.211 24.3248 34.9547 22.2753 35.6308 21.3346Z" fill="white"/>
<path d="M29.411 17.6388C29.6476 16.7316 29.7152 15.6901 29.2757 14.3126C29.7828 14.7493 30.5941 15.8581 30.9997 16.9332C31.4053 15.8581 32.1828 14.7493 32.7237 14.3126C32.318 15.7237 32.3518 16.7316 32.5884 17.6388C32.9265 16.4628 33.3659 15.4885 34.4814 14.8165C33.8054 17.2692 33.7039 19.2515 33.7715 20.8978C33.7715 20.8978 33.1631 20.3938 32.6899 18.9491C32.0476 20.125 31.9462 21.6033 31.9462 21.6033L30.9997 19.7554L30.0532 21.6033C30.0532 21.6033 29.9518 20.125 29.3095 18.9491C28.8363 20.3938 28.2278 20.8978 28.2278 20.8978C28.2955 19.2851 28.1602 17.3028 27.518 14.8165C28.6335 15.4885 29.1067 16.4964 29.411 17.6388Z" fill="white"/>
<path d="M33.1972 26.2398C32.6563 24.0895 33.3324 23.0144 33.8732 21.9392C34.5831 24.3919 33.1972 26.2398 33.1972 26.2398Z" fill="white"/>
<path d="M33.0284 32.0187C32.7241 31.2795 32.5551 28.9613 33.3664 27.7518C33.8734 28.9949 33.5354 30.742 33.0284 32.0187Z" fill="white"/>
<path d="M31.7436 25.5679C31.3041 24.3583 31.2365 23.6192 32.014 22.4769C32.352 23.2832 32.521 24.5599 31.7436 25.5679Z" fill="white"/>
<path d="M30.9995 31.078C30.7291 30.406 30.391 29.2637 30.9995 28.4237C31.6417 29.2637 31.2699 30.406 30.9995 31.078Z" fill="white"/>
<path d="M30.29 25.5679C29.5126 24.5599 29.6816 23.2832 30.0196 22.4769C30.7633 23.5856 30.7295 24.3583 30.29 25.5679Z" fill="white"/>
<path d="M28.6673 27.7518C29.4786 28.9613 29.3096 31.2795 29.0054 32.0187C28.4983 30.742 28.1603 28.9949 28.6673 27.7518Z" fill="white"/>
<path d="M28.1606 21.9392C28.7014 23.0144 29.3775 24.0895 28.8366 26.2398C28.8366 26.2398 27.4169 24.3919 28.1606 21.9392Z" fill="white"/>
<path d="M25.3546 52.3117C25.1518 52.6141 24.4082 53.6892 24.2392 53.8908C24.0701 52.6477 24.78 51.5389 25.2532 50.9006C25.7265 50.2286 26.1659 49.5567 26.5716 48.9183C26.5716 50.5646 26.0307 51.3038 25.3546 52.3117Z" fill="white"/>
<path d="M26.572 51.6398C26.6396 53.5548 25.5241 54.6972 24.6452 56.0075C24.4086 54.7644 24.9832 53.9916 25.2537 53.5884C25.7607 52.9501 26.1663 52.2781 26.572 51.6398Z" fill="white"/>
<path d="M24.7125 50.5311C24.3745 51.0351 24.0026 51.539 23.6984 52.043C23.3942 50.8671 24.5435 49.2544 25.2871 48.2128C25.7604 47.5409 26.1998 46.9361 26.6055 46.2306C26.7069 47.6417 25.8618 48.8176 24.7125 50.5311Z" fill="white"/>
<path d="M24.7126 47.8096C24.1042 48.6495 23.5295 49.4895 23.0901 50.363C22.7521 48.8847 24.1042 47.104 25.0169 45.7937C25.5915 44.9874 26.0986 44.5842 26.538 43.4755C26.8084 44.9202 25.6591 46.4657 24.7126 47.8096Z" fill="white"/>
<path d="M8.6218 38.0325C8.85842 37.3605 10.3457 35.7814 13.6584 35.5462C12.9486 36.0838 12.5429 36.5542 12.5429 36.5542C12.5429 36.5542 13.8613 36.9574 14.3007 37.8645C12.3401 37.2597 9.80491 37.6629 8.6218 38.0325Z" fill="white"/>
<path d="M10.4134 39.3431C9.43314 40.351 8.04721 40.5526 6.93171 40.7542C7.81059 39.8806 8.9937 39.1415 10.4134 39.3431Z" fill="white"/>
<path d="M15.7543 29.5995C18.0529 28.2556 20.622 30.3722 22.1431 32.2201C23.0896 33.3624 24.8811 35.9495 24.8135 38.0661C22.5149 33.3288 17.7149 30.8426 13.6923 31.481C14.9093 30.2378 17.5121 30.1706 20.8586 32.2537C20.2163 31.313 18.1881 29.7003 15.7543 29.5995Z" fill="white"/>
<path d="M19.8107 26.7101C21.7037 26.5085 22.9206 28.4236 23.9347 30.809C24.4079 31.9514 25.7939 35.3784 25.6924 37.0918C24.6446 34.5048 23.5629 32.9257 22.5488 31.7162C21.1966 30.0699 19.8107 28.7596 18.2558 28.0876C19.5741 27.718 20.9938 28.1884 23.0896 31.0778C22.4812 29.1963 21.129 27.55 19.8107 26.7101Z" fill="white"/>
<path d="M23.7318 23.1823C24.205 23.8543 24.6783 25.1646 24.7797 26.4749C22.8191 24.0223 22.1093 22.3424 21.636 21.2673C21.636 21.2673 22.6839 21.7712 23.7318 23.1823Z" fill="white"/>
<path d="M21.0953 16.3285C22.8192 17.9748 23.6981 18.3444 24.0024 21.6034C22.7517 19.8899 21.7037 18.5124 21.0953 16.3285Z" fill="white"/>
<path d="M16.6 32.2201C18.0535 32.4889 19.7775 33.2952 20.8254 34.3368C19.1014 33.6984 17.6479 33.2952 15.5859 33.1609C14.4704 33.0937 12.9155 33.2281 11.1915 33.6648C11.8 32.9593 13.7944 31.6826 16.6 32.2201Z" fill="white"/>
<path d="M12.7802 34.001C14.4704 33.6986 15.6873 33.7658 16.7014 33.9674C15.1464 34.5385 13.2873 34.8745 12.4084 35.0425C11.7662 35.1769 10.3802 35.4793 8.99429 35.748C9.53514 35.2105 10.7182 34.4041 12.7802 34.001Z" fill="white"/>
<path d="M15.3831 39.7464C14.2338 39.78 12.5436 40.7543 11.1915 40.7543C11.4619 39.5112 13.9972 38.9064 15.3831 39.7464Z" fill="white"/>
<path d="M16.1938 40.9894C14.7064 41.2582 13.7937 42.0645 12.1712 42.0309C12.7458 40.6534 15.3825 40.3175 16.1938 40.9894Z" fill="white"/>
<path d="M17.3095 42.0309C16.4306 42.3333 15.0109 43.2404 13.6249 42.9381C14.639 42.0309 16.3292 41.527 17.3095 42.0309Z" fill="white"/>
<path d="M18.9995 42.7699C18.053 43.2402 16.9375 44.0802 15.6868 43.7442C16.4643 43.0387 17.7826 42.3667 18.9995 42.7699Z" fill="white"/>
<path d="M21.8056 43.1397C20.8591 43.3077 20.014 43.778 19.3717 44.2148C18.9999 44.4836 17.9858 44.9876 17.1069 44.8196C18.121 43.8116 19.9464 42.5349 21.8056 43.1397Z" fill="white"/>
<path d="M22.9885 43.8115C22.1096 44.2147 20.487 45.693 18.6955 45.6258C19.3715 44.9874 21.0955 43.4755 22.9885 43.8115Z" fill="white"/>
<path d="M24.1376 44.282C25.2869 42.6357 26.132 40.9894 26.0982 38.8727C26.47 39.4103 26.5714 40.0151 26.5714 40.7542C26.5714 42.3333 25.5235 43.946 24.4756 45.3571C23.7996 46.2979 23.0897 47.2722 22.6164 48.213C22.5488 46.5667 23.2249 45.5923 24.1376 44.282Z" fill="white"/>
<path d="M24.5095 30.4395C23.4954 27.8861 22.9207 26.8446 22.4475 25.635C23.5292 26.139 24.4419 27.4157 25.4221 30.07C26.4024 32.7242 26.639 34.2697 26.639 35.412C26.0644 34.2697 24.9827 31.5819 24.5095 30.4395Z" fill="white"/>
<path d="M26.2676 30.406C25.7267 28.5581 25.5577 27.0462 25.5577 27.0462C26.5718 28.0205 27.8563 30.9435 27.5183 33.833C27.5183 33.833 26.707 31.9179 26.2676 30.406Z" fill="white"/>
<path d="M27.1466 27.0798C25.6592 25.5007 24.5437 23.216 25.017 20.3266C25.8283 21.8385 26.3015 23.72 26.3015 23.72C26.3015 23.72 26.3691 22.4769 26.4029 21.3346C27.0452 22.2753 27.8226 24.3248 27.1466 27.0798Z" fill="white"/>
<path d="M27.3152 17.4372C27.518 18.9155 26.8081 20.0914 26.8081 20.0914C26.6391 19.3859 25.7941 15.0517 25.7941 15.0517C26.3687 15.4549 27.1124 15.9589 27.3152 17.4372Z" fill="white"/>
<path d="M23.4955 15.0854C21.0955 13.3384 18.4251 10.4825 15.8899 7.59312C12.5772 3.86375 9.16304 0 6.86444 0C4.36301 0 3.17989 3.49418 3.17989 10.6841V10.7513L3.1461 10.8185C3.1461 10.8521 2.43624 13.0024 2.43624 15.623C2.43624 19.7891 3.48413 23.3505 5.68133 26.4751L6.28978 27.3487L5.24189 27.2815C5.24189 27.2815 4.93766 27.2479 4.49822 27.2479C4.83625 27.6174 5.34329 28.0542 6.05315 28.4574L7.10106 29.0286L5.95175 29.3981C5.95175 29.3981 5.71512 29.4653 5.37709 29.5997C5.74893 29.8685 6.18837 30.1709 6.69542 30.4397C7.06725 30.0701 7.84473 29.3645 8.6222 28.8606C7.84473 28.4574 6.76302 27.2143 6.72921 25.7696C7.91232 27.6174 9.50107 27.9198 9.50107 27.9198C9.50107 27.9198 8.79122 26.8447 8.85882 26.5087C10.7518 27.6174 11.9687 26.2063 11.9687 26.2063C10.9546 25.5344 9.90671 24.0225 9.90671 24.0225C9.90671 24.0225 9.70389 24.7616 10.0757 25.8032C8.58839 25.4336 8.18276 22.6114 8.18276 22.6114C8.18276 22.6114 7.54049 23.1825 7.81092 25.0304C6.5602 24.0225 6.49261 22.2754 6.425 21.4018C5.74894 22.2082 5.91795 24.0225 5.91795 24.0225C4.66724 22.7122 4.1602 20.1923 4.29541 19.0836C5.2757 19.554 6.69542 19.5876 6.69542 19.5876C4.46442 18.378 4.19398 16.8661 4.19398 16.8661C5.20808 17.7733 6.93205 17.8405 6.93205 17.8405C5.07288 16.463 4.39682 15.2534 4.39682 15.2534C4.39682 15.2534 6.35739 16.127 7.37148 16.1606C5.68133 15.0182 4.70103 13.7415 4.70103 13.7415C6.42499 14.4807 11.7997 16.127 11.7997 16.127C11.0222 16.5301 9.29826 16.5637 9.29826 16.5637C10.1433 17.4709 12.4081 18.1428 12.4081 18.1428C11.4617 18.5124 9.23065 18.1428 9.23065 18.1428C10.1095 19.1844 12.3067 20.1587 12.3067 20.1587C10.8194 20.4275 9.02784 19.9571 9.02784 19.9571C11.3603 22.4434 14.4363 22.3426 15.349 22.0402C14.0983 21.3346 13.4898 20.5955 13.4898 20.5955C14.6391 20.7299 15.518 20.3939 15.518 20.3939C14.2335 19.4196 13.6927 18.6132 13.6927 18.6132C14.842 18.9156 16.0927 18.882 16.0927 18.882C15.8222 18.0085 14.1997 15.9254 14.1997 15.9254L15.5856 15.8918C15.5856 15.8918 13.3884 12.7672 13.3208 10.6169C15.2476 13.9095 17.8504 16.3958 17.8842 17.5381C17.3434 17.3029 16.6335 17.1013 16.6335 17.1013C17.7152 18.7476 18.2899 19.9571 18.2899 19.9571C17.3772 19.9235 16.5997 20.0579 16.5997 20.0579L17.8842 21.5026C17.1068 21.6706 16.5321 21.805 16.5321 21.805L17.3772 23.0145C16.3969 23.2833 15.349 23.4849 15.349 23.4849L16.3631 24.3249C15.2476 24.7616 14.2335 24.9632 14.2335 24.9632L15.349 25.7024C14.0645 26.2063 12.7124 26.4079 12.7124 26.4079L13.6588 27.1807C12.5771 27.5838 10.9546 27.9198 10.9546 27.9198L12.0363 28.5246C11.1236 28.8606 9.80531 29.2301 9.80531 29.2301L10.6166 29.9021C10.6166 29.9021 8.79121 30.2717 7.5405 30.8428C7.97994 31.0108 8.6222 31.3132 9.7377 31.3132C10.8532 31.3132 12.2053 30.9436 12.9152 30.5741C12.9152 30.5741 12.0701 30.3725 11.5631 30.0365C11.5631 30.0365 13.9969 29.7341 14.8082 29.3309C14.8082 29.3309 13.8279 29.0286 13.1856 28.5246C13.1856 28.5246 15.3152 28.491 16.5659 28.0542C16.5659 28.0542 15.5856 27.819 14.842 27.2815C14.842 27.2815 16.8701 27.2479 17.8504 26.8447C17.8504 26.8447 17.0054 26.5423 16.3969 26.0719C16.3969 26.0719 17.3772 25.8704 18.8307 25.736C18.8307 25.736 18.3575 25.1984 17.6476 24.7952C17.6476 24.7952 18.3913 24.5264 19.642 24.56C19.642 24.56 19.1349 23.9553 18.4589 23.3841C18.4589 23.3841 19.3378 23.1489 20.149 23.2161C20.149 23.2161 19.6082 22.5106 18.8307 21.8722C18.8307 21.8722 19.6758 21.7042 20.5885 21.7378C20.5885 21.7378 20.2167 20.9651 19.5068 20.2259C19.5068 20.2259 20.3857 20.0579 21.3321 20.1587C20.4871 17.4709 18.8983 16.3286 17.0392 14.0439C14.3687 10.7849 8.96022 2.25106 6.72921 2.25106C5.68132 2.25106 5.07287 3.59497 4.43061 4.93889C4.46441 3.0574 5.44471 1.14233 6.69542 1.14233C8.52079 1.14233 11.6983 4.56931 15.2476 8.66825C17.411 11.1545 19.7096 13.7751 22.1096 15.5894C23.5293 16.6645 24.5434 17.4709 25.0505 19.5204C25.5575 18.546 25.5575 16.5973 23.4955 15.0854ZM9.39967 6.61878C8.41938 7.15634 7.43909 6.82037 7.03345 6.04762C8.11515 6.04762 8.58839 6.14841 9.39967 6.61878ZM10.0081 8.16428C9.50107 8.56746 8.82501 8.76904 8.38557 8.70185C7.64191 8.60105 7.03345 8.13068 6.59402 7.52592C8.08135 7.8955 8.79121 8.02989 10.0081 8.16428ZM10.718 10.3817C9.87292 10.7849 9.06164 10.7849 8.35178 10.5833C7.10107 10.2473 6.18837 9.27301 6.01936 8.76904C7.5743 9.54179 9.02784 9.94497 10.718 10.3817ZM10.8194 12.1624C10.8194 12.1624 10.0419 12.9352 8.28417 12.4648C6.79683 12.0616 5.71514 10.6169 5.64753 10.1802C7.64191 11.6249 10.8194 12.1624 10.8194 12.1624ZM8.04754 13.036C8.6898 13.2376 11.2588 14.0775 11.2588 14.0775C11.2588 14.0775 10.0419 14.6823 7.97993 14.1447C5.91795 13.5735 5.14049 12.0616 5.14049 12.0616C5.14049 12.0616 7.5743 12.9016 8.04754 13.036Z" fill="white"/>
<path d="M9.90675 22.0736C11.5631 22.7792 12.9152 23.1487 14.3349 23.3839C12.7124 24.2911 11.1237 23.9215 9.90675 22.0736Z" fill="white"/>
<path d="M10.718 31.918C9.9743 32.4891 8.82498 33.0603 7.8785 33.2283C6.49257 33.4635 5.6475 32.8251 5.6475 32.8251C7.30385 31.918 9.26443 31.7836 10.718 31.918Z" fill="white"/>
<path d="M8.96024 33.833C8.18277 34.5049 7.20248 35.0425 6.15458 35.3449C5.00528 35.6809 3.99118 35.3449 3.99118 35.3449C5.78274 34.0346 7.40529 33.9002 8.96024 33.833Z" fill="white"/>
<path d="M7.06729 36.1176C6.25601 36.7223 5.68137 37.1927 4.56587 37.6295C3.45037 38.0662 2.30106 38.0662 2.30106 38.0662C3.68699 36.6215 5.71516 36.0504 7.06729 36.1176Z" fill="white"/>
<path d="M5.98517 37.9319C4.83586 39.5782 2.94289 41.1237 1.01611 41.6276C1.92879 39.9141 4.70065 38.2006 5.98517 37.9319Z" fill="white"/>
<path d="M0.577148 47.7089C0.81377 47.3394 1.3546 45.5923 3.01095 43.8788C4.90393 41.9301 6.93212 41.5941 7.94621 41.6949C6.15465 42.6021 4.76872 43.5428 3.82224 44.5508C2.50392 45.9283 1.55744 47.5074 0.577148 47.7089Z" fill="white"/>
<path d="M1.42221 49.1536C2.26728 48.0448 2.60531 46.7681 4.49828 44.853C5.57998 43.7443 8.14901 42.5012 9.39972 42.5012C8.62225 43.0723 6.15462 44.7858 5.20813 45.7266C3.58559 47.3393 2.60532 48.8848 1.42221 49.1536Z" fill="white"/>
<path d="M2.23366 50.3968C3.11254 49.2881 3.95762 47.8098 5.85059 46.0291C6.96609 44.9876 9.12949 43.5093 11.3267 43.3749C9.53513 44.4836 7.98018 45.6259 6.69567 46.8019C4.53227 48.7505 3.68719 50.0609 2.23366 50.3968Z" fill="white"/>
<path d="M30.9997 72.0002C29.9518 72.0002 27.9236 71.4962 27.349 69.7155C28.2279 70.3203 29.4786 70.5218 30.9997 70.5218C32.5209 70.5218 33.7716 70.3203 34.6505 69.7155C34.0758 71.4962 32.0814 72.0002 30.9997 72.0002Z" fill="white"/>
<path d="M27.9913 62.0888C27.9913 62.0888 28.2955 60.5097 31.0336 60.5097C33.7716 60.5097 34.0758 62.0888 34.0758 62.0888C34.0758 62.0888 33.2308 61.4504 31.0336 61.4504C28.8364 61.4504 27.9913 62.0888 27.9913 62.0888Z" fill="white"/>
<path d="M29.5124 64.3735C28.7688 64.3735 27.9913 63.3655 27.9913 62.66C28.4307 63.1975 28.9716 63.2983 29.5124 63.2983C30.2223 63.2983 30.2561 64.3735 29.5124 64.3735Z" fill="white"/>
<path d="M34.0422 62.66C34.0422 63.3655 33.2647 64.3735 32.5211 64.3735C31.7774 64.3735 31.7774 63.2983 32.5211 63.2983C33.0619 63.2983 33.6028 63.1975 34.0422 62.66Z" fill="white"/>
<path d="M52.431 47.4738C54.9324 47.9778 56.893 51.472 58.6845 51.6064C58.3803 51.2368 56.7239 48.8177 54.5944 47.1043C52.6 45.4916 50.538 44.4164 48.7802 44.7188C49.9633 45.29 50.707 46.1299 50.707 46.1299C49.2535 45.8275 47.2591 46.1299 47.2591 46.1299C48.307 46.6675 49.2197 47.4402 49.2197 47.4402C47.3605 47.4402 45.5013 47.541 45.5013 47.541C45.5013 47.541 46.3464 48.2466 46.9887 48.6162C46.076 48.9185 43.6422 48.8513 43.6422 48.8513C43.6422 48.8513 44.4196 49.5569 45.1295 49.8593C43.8112 50.4304 41.7492 50.1953 41.7492 50.1953C41.7492 50.1953 42.2562 50.8672 42.9661 51.2032C41.5802 51.7744 40.0252 51.808 40.0252 51.808C40.0252 51.808 40.5661 52.2783 41.2759 52.6815C39.721 53.7566 38.4365 55.2685 37.5238 57.5196C37.2196 57.0828 35.8336 54.9662 35.4618 54.4286C35.4618 55.9741 36.2731 57.486 37.0168 59.0651C35.9351 58.5275 34.7857 56.646 34.7857 54.5966V36.2185C34.7857 36.2185 34.1097 36.6553 34.1097 38.1V41.2246C34.1097 43.8117 33.9745 46.6003 33.7717 47.3058C33.5688 46.6339 33.4336 43.8789 33.4336 41.2246V34.4043C33.4336 34.4043 32.7238 35.0426 32.7238 35.9498V45.9955C32.7238 49.2881 32.5886 51.5392 32.3857 52.4127C32.1829 51.472 32.0477 49.2545 32.0477 46.0291V34.1691C32.0477 34.1691 31.3378 34.5386 31.3378 36.2521V48.045C31.3378 51.5056 31.2702 53.7566 30.9998 54.6638C30.7294 53.723 30.6618 51.472 30.6618 48.045V36.2185C30.6618 34.5051 29.9519 34.1355 29.9519 34.1355V46.0291C29.9519 49.2545 29.8167 51.472 29.6139 52.4127C29.4111 51.5056 29.2758 49.2545 29.2758 45.9955V35.9498C29.2758 35.0426 28.566 34.4043 28.566 34.4043V41.2246C28.566 43.8789 28.4308 46.6339 28.228 47.3058C28.0251 46.6003 27.8899 43.8117 27.8899 41.2246V38.1C27.8899 36.6553 27.2139 36.2185 27.2139 36.2185V54.5966C27.2139 56.646 26.0308 58.4939 24.9829 59.0651C25.7603 57.486 26.5378 56.0077 26.5378 54.4286C26.1998 54.9662 24.78 57.0828 24.4758 57.5196C23.5631 55.2685 22.3124 53.7566 20.7237 52.6815C21.4335 52.2783 21.9744 51.808 21.9744 51.808C21.9744 51.808 20.4194 51.7744 19.0335 51.2032C19.7434 50.8672 20.2504 50.1953 20.2504 50.1953C20.2504 50.1953 18.1884 50.4304 16.8701 49.8593C17.58 49.5569 18.3575 48.8513 18.3575 48.8513C18.3575 48.8513 15.9236 48.9185 15.0109 48.6162C15.6194 48.2802 16.4983 47.541 16.4983 47.541C16.4983 47.541 14.6391 47.4066 12.78 47.4402C12.78 47.4402 13.6926 46.6675 14.7405 46.1299C14.7405 46.1299 12.7461 45.8275 11.2926 46.1299C11.2926 46.1299 12.0363 45.29 13.2194 44.7188C11.4616 44.4164 9.39964 45.5252 7.40526 47.1043C5.27567 48.8177 3.58552 51.2368 3.3151 51.6064C5.10666 51.472 7.03343 47.9778 9.56866 47.4738C6.79681 49.7921 6.6278 50.8336 4.56581 52.6479C6.08695 52.5807 8.92641 49.2545 10.6504 49.1201C9.19683 50.1617 7.60809 52.2783 6.08695 53.555C7.37147 53.555 10.4137 50.4976 12.4081 50.5312C10.6504 51.6064 8.8588 53.0511 7.64188 54.4622C9.36584 54.0926 12.4757 51.4384 15.0448 51.64C12.8138 52.5807 11.056 53.7902 10.6842 54.8318C13.2194 53.2191 16.8701 52.6143 18.6279 53.5886C15.8222 53.4878 13.3884 53.9918 11.056 55.4029C13.0842 55.6045 15.5518 54.1262 18.3575 54.9662C20.7575 55.7053 22.1096 57.7548 22.3124 59.3675C20.8251 57.0156 19.6758 56.0749 18.087 55.6381C16.7687 55.2685 14.7067 55.5709 13.7264 56.6124C15.856 56.8812 18.1208 55.8733 20.2842 58.1915C21.0617 59.0315 21.5688 60.409 22.1434 61.9881C23.1237 64.6087 24.2054 67.5318 26.6392 68.7413C27.7209 69.2117 28.4646 69.3796 29.2421 69.3796C30.0195 69.3796 30.5266 68.8757 30.5266 67.6997C30.5266 66.8262 30.1547 66.255 29.6139 65.8855C27.9575 64.8103 26.9096 63.668 26.9096 62.4249C26.9096 60.6106 28.566 59.1323 30.9998 59.1323C33.4336 59.1323 35.09 60.6106 35.09 62.4249C35.09 63.668 34.0083 64.8103 32.3857 65.8855C31.8449 66.2214 31.473 66.8262 31.473 67.6997C31.473 68.8757 32.0139 69.3796 32.7576 69.3796C33.5688 69.3796 34.2787 69.2117 35.3604 68.7413C37.7942 67.5318 38.9097 64.6087 39.8562 61.9881C40.4647 60.409 40.9379 58.9979 41.7154 58.1915C43.8788 55.8733 46.1098 56.8812 48.2732 56.6124C47.2929 55.5709 45.2309 55.2685 43.9126 55.6381C42.3238 56.0749 41.1745 57.0156 39.6872 59.3675C39.89 57.7548 41.2421 55.7053 43.6422 54.9662C46.4478 54.0926 48.9154 55.5709 50.9436 55.4029C48.6112 53.9918 46.1774 53.4878 43.3717 53.5886C45.1295 52.6479 48.7802 53.2191 51.3155 54.8318C50.9436 53.7902 49.1859 52.5807 46.9548 51.64C49.5239 51.472 52.6338 54.0926 54.3577 54.4622C53.1408 53.0511 51.3493 51.6064 49.5915 50.5312C51.5859 50.4976 54.6281 53.555 55.9127 53.555C54.3577 52.2783 52.8028 50.1617 51.3492 49.1201C53.0732 49.2209 55.9127 52.5807 57.4338 52.6479C55.3718 50.8336 55.2366 49.7585 52.431 47.4738ZM21.8054 55.9069C21.3321 55.3021 20.5209 54.563 19.6758 53.9582C20.7237 54.0254 21.6702 54.6638 22.3124 55.4701C23.2589 56.646 23.4955 57.7548 23.5293 58.5275C23.0561 57.6204 22.7181 57.0492 21.8054 55.9069ZM29.7153 67.263C30.5604 69.5812 25.6589 68.3381 25.1857 66.0871C26.6054 67.6662 28.8364 67.8341 29.7153 67.263ZM27.6533 59.1323C27.2139 59.4683 26.335 60.3082 25.9294 60.7114C26.0646 59.8714 26.7406 58.9979 27.2139 58.5947C27.7547 58.1915 28.6674 57.7212 29.5801 57.8892C28.735 58.3259 28.1265 58.7627 27.6533 59.1323ZM34.3801 59.1323C33.9069 58.7627 33.2984 58.3259 32.4533 57.9228C33.366 57.7212 34.2787 58.1915 34.8196 58.6283C35.3266 59.0315 36.0027 59.905 36.1041 60.745C35.6984 60.3082 34.8196 59.4683 34.3801 59.1323ZM32.2843 67.263C33.197 67.8341 35.3942 67.6662 36.8139 66.0871C36.3407 68.3717 31.4393 69.6148 32.2843 67.263ZM40.1942 55.9069C39.2816 57.0156 38.9435 57.6204 38.4703 58.5275C38.5041 57.7548 38.7407 56.646 39.6872 55.4701C40.3294 54.6638 41.276 54.059 42.3238 53.9582C41.4788 54.5966 40.7013 55.3021 40.1942 55.9069Z" fill="white"/>
<path d="M55.3041 46.8019C54.0196 45.6595 52.4308 44.4836 50.673 43.3749C52.8702 43.5093 55.0336 44.9876 56.1491 46.0291C58.0421 47.8098 58.8872 49.2545 59.7661 50.3968C58.3464 50.0609 57.5013 48.7505 55.3041 46.8019Z" fill="white"/>
<path d="M56.7919 45.693C55.8454 44.7522 53.3778 43.0388 52.6003 42.4676C53.851 42.4676 56.42 43.7443 57.5017 44.8194C59.3947 46.7345 59.7666 48.0112 60.5778 49.12C59.4285 48.8848 58.4482 47.3393 56.7919 45.693Z" fill="white"/>
<path d="M58.1772 44.5507C57.2307 43.5763 55.8448 42.602 54.0533 41.6949C55.0673 41.5605 57.0955 41.93 58.9885 43.8787C60.6787 45.6258 61.1857 47.3393 61.4223 47.7089C60.4759 47.5073 59.4955 45.9282 58.1772 44.5507Z" fill="white"/>
<path d="M24.1041 65.6836L24.2394 66.3556C21.9069 66.8931 20.69 67.5651 19.5069 68.5058C19.6759 67.1955 22.245 66.1204 24.1041 65.6836Z" fill="white"/>
<path d="M23.732 62.2232L23.6306 62.8951C20.0475 62.5255 17.9179 62.9287 16.0249 63.9703C17.7827 61.7528 21.9405 61.988 23.732 62.2232Z" fill="white"/>
<path d="M23.6309 64.6085C20.8929 64.6757 18.3239 65.6501 16.2619 66.8932C17.1746 65.4821 20.4197 64.071 23.9352 63.9366L23.6309 64.6085Z" fill="white"/>
<path d="M37.9295 65.6836L37.7942 66.3556C40.1266 66.8931 41.3436 67.5651 42.5267 68.5058C42.3238 67.1955 39.7886 66.1204 37.9295 65.6836Z" fill="white"/>
<path d="M38.3012 62.2232L38.4026 62.8951C41.9857 62.5255 44.1153 62.9287 46.0083 63.9703C44.2167 61.7528 40.0927 61.988 38.3012 62.2232Z" fill="white"/>
<path d="M38.4028 64.6085C41.1408 64.6757 43.7099 65.6501 45.7719 66.8932C44.8592 65.4821 41.6141 64.071 38.0986 63.9366L38.4028 64.6085Z" fill="white"/>
</svg>
