<svg width="16" height="16" fill="none" xmlns="http://www.w3.org/2000/svg">
  <path fill-rule="evenodd" clip-rule="evenodd" d="M.54 2.73C0 3.8 0 5.2 0 8c0 2.8 0 4.2.54 5.27a5 5 0 0 0 2.19 2.19C3.8 16 5.2 16 8 16c2.8 0 4.2 0 5.27-.54a5 5 0 0 0 2.19-2.19C16 12.2 16 10.8 16 8c0-2.8 0-4.2-.54-5.27A5 5 0 0 0 13.27.54C12.2 0 10.8 0 8 0 5.2 0 3.8 0 2.73.54A5 5 0 0 0 .54 2.73ZM14 3.5a1.5 1.5 0 1 1-3 0 1.5 1.5 0 0 1 3 0ZM8 10a2 2 0 1 0 0-4 2 2 0 0 0 0 4Zm0 2a4 4 0 1 0 0-8 4 4 0 0 0 0 8Z" fill="#fff"/>
</svg>
