<svg width="200" height="200" viewBox="0 0 200 200" fill="none" xmlns="http://www.w3.org/2000/svg">
<g clip-path="url(#clip0_211_1982)">
<path d="M568.689 331.995L575.125 327.641C575.125 327.641 563.2 326.316 554.115 319.691L561.308 314.392C561.308 314.392 550.14 313.256 540.865 305.685C545.408 305.117 549.004 302.467 549.004 302.467C549.004 302.467 540.297 299.438 530.644 284.675L537.458 286C537.458 286 530.834 274.832 521.37 264.99L526.669 265.179C526.669 265.179 518.72 253.065 507.552 243.412L512.852 243.79C512.852 243.79 507.552 232.623 491.085 217.67L500.549 219.184C500.549 219.184 487.489 204.609 465.911 190.981L477.078 190.035C477.078 190.035 467.803 181.328 436.572 170.918L446.226 165.239C446.226 165.239 435.247 160.886 419.727 160.129L425.594 156.154C425.594 156.154 412.723 152.936 397.959 153.693L404.206 145.176C404.206 145.176 384.52 149.34 380.546 150.476L382.817 141.39C382.817 141.39 362.753 154.64 338.336 154.64C330.576 154.64 323.005 153.504 316.191 151.233C318.462 149.151 319.976 146.122 319.976 146.122C319.976 146.122 304.645 142.526 297.073 138.551C301.995 135.712 305.591 131.737 305.591 131.737C305.591 131.737 293.099 130.223 280.228 123.03C280.228 123.03 284.392 120.569 287.609 116.595C287.609 116.595 276.631 115.648 266.599 111.105C266.599 111.105 272.656 107.509 273.603 105.238C273.603 105.238 261.489 104.67 248.996 100.127C248.996 100.127 253.918 97.8559 257.135 95.0167C244.643 94.2596 232.529 90.0954 223.065 85.5527C213.412 80.8207 179.909 66.0569 145.461 64.9213L146.786 60C146.786 60 131.075 61.7035 121.611 64.732L122.179 60.1893C122.179 60.1893 107.983 63.407 97.9514 67.0033L97.3836 62.6499C97.3836 62.6499 84.134 67.3819 74.4807 73.8174L73.5343 70.4104C73.5343 70.4104 61.9883 77.0352 55.9313 82.9028L55.1742 77.603C55.1742 77.603 43.8175 84.2278 36.2463 93.1239L35.8677 85.742C35.8677 85.742 24.7002 91.7989 18.2647 104.102L16.3719 96.9095C16.3719 96.9095 7.66507 102.588 3.31165 115.08L0.472454 106.373C0.472454 106.373 -8.23439 116.027 -10.695 129.087C-12.02 124.734 -18.6448 115.837 -18.6448 115.837C-18.6448 115.837 -19.5912 130.601 -22.6196 138.93C-23.9446 131.169 -30.3801 120.002 -30.3801 120.002C-30.3801 120.002 -31.1372 130.791 -35.6799 139.308C-36.437 131.737 -42.3047 122.084 -42.3047 122.084C-42.3047 122.084 -43.0618 131.358 -46.4688 137.226C-48.7402 131.548 -56.1221 124.355 -56.1221 124.355C-56.1221 124.355 -54.9864 134.387 -57.6363 139.308C-61.0434 134.576 -69.5609 130.412 -69.5609 130.412C-69.5609 130.412 -65.7754 144.04 -76.1857 152.936C-86.7854 151.801 -98.71 150.476 -105.713 148.204C-114.609 145.365 -123.127 148.204 -122.748 157.1C-127.102 156.533 -131.266 155.965 -135.241 155.208C-142.812 153.693 -145.841 157.1 -146.787 158.615C-148.869 161.832 -148.301 166.564 -145.083 170.728C-138.837 178.868 -126.345 189.278 -117.07 200.635C-118.774 206.692 -118.395 215.209 -117.827 221.455L-124.641 214.452C-124.641 214.452 -125.209 226.566 -122.37 237.355L-128.805 233.001C-128.805 233.001 -127.859 245.115 -123.884 253.254C-123.884 253.254 -126.913 252.497 -130.509 250.604C-129.752 256.472 -128.238 261.583 -124.073 268.586C-121.234 273.318 -120.477 278.428 -125.398 287.514C-130.698 296.978 -134.862 302.467 -140.351 316.852C-142.434 322.72 -146.598 326.316 -149.626 328.777C-154.547 333.13 -153.98 339.755 -149.626 342.973C-144.516 346.569 -135.619 351.49 -129.941 352.437C-123.884 353.572 -115.177 351.49 -107.228 347.137C-100.792 350.733 -88.1103 352.247 -79.4035 347.326C-83.9462 342.405 -88.6782 335.969 -90.9495 332.562C-86.0282 324.613 -80.5391 320.449 -73.7251 317.231C-71.4537 316.095 -68.236 319.313 -70.6966 322.531C-73.5358 326.505 -74.8608 330.291 -75.6179 334.455C-75.9964 337.294 -75.2393 344.108 -74.1036 348.651C-73.5358 351.112 -74.2929 352.626 -75.9964 353.383C-79.0249 354.33 -83.1891 355.276 -91.1388 355.465C-88.1103 361.333 -83.7569 365.876 -76.9428 368.715C-75.4286 371.554 -71.643 375.529 -64.0718 375.529C-52.3365 375.529 -45.1439 369.093 -42.494 357.926C-40.2226 348.273 -36.6263 335.78 -35.3013 331.427C-34.1657 328.02 -32.4622 326.316 -30.3801 324.234C-29.0551 322.909 -27.5409 321.395 -26.2159 319.502C-25.2696 318.177 -24.7017 316.852 -24.1339 315.717C-22.4304 312.499 -19.9697 308.524 -14.8592 309.092C-16.1841 305.495 -18.4555 303.413 -20.5376 302.278C-12.5878 300.953 -3.88096 304.36 -1.23105 313.256C-0.095373 309.281 1.22957 302.656 0.283177 297.924C2.55453 298.681 7.28651 301.142 10.8828 306.442C11.6399 302.846 11.8292 295.274 9.74715 289.785C12.2078 290.542 17.1291 292.435 20.9146 296.599C21.4825 290.921 20.9146 284.485 16.7505 278.618C18.8326 278.618 22.8074 279.186 27.7287 281.078C27.3501 276.914 24.8895 271.425 21.2932 266.882C22.9967 266.882 26.9716 267.072 31.325 268.018C30.5679 264.422 29.2429 260.447 27.1609 256.851C38.5176 263.665 45.1424 271.236 45.1424 271.236C42.8711 282.403 35.1106 308.335 33.4071 314.959C31.5143 321.584 30.9465 325.37 34.732 332.941C40.2212 343.919 49.8744 348.083 58.7705 345.244C68.2345 342.405 71.263 340.701 81.8626 335.591C93.9765 329.723 97.3836 321.963 96.2479 315.717C100.412 304.738 94.7337 293.382 94.7337 293.382C94.7337 293.382 90.7588 299.06 87.9196 300.953C86.4053 297.167 82.2412 293.571 82.2412 293.571C86.9732 285.81 91.7052 277.104 94.3551 268.586C98.7085 268.775 102.305 267.45 102.305 267.45C102.305 267.45 97.7621 263.665 95.8693 260.636C102.494 261.393 111.769 261.583 118.394 258.176C115.365 268.018 112.904 280.7 111.58 292.246C108.551 319.691 99.6549 337.294 98.3299 345.055C96.4372 355.844 99.4656 363.604 108.93 373.636C119.908 385.371 129.75 386.318 137.511 380.45C147.921 372.5 157.007 369.661 167.606 368.715C178.963 367.768 189.941 365.497 191.077 352.058C201.677 344.298 198.27 331.995 198.27 331.995C198.27 331.995 193.727 333.887 187.102 336.159C187.859 327.83 185.02 321.016 185.02 321.016C185.02 321.016 181.802 324.423 177.827 327.452C175.935 323.477 170.256 317.609 170.256 317.609C170.256 317.609 168.363 323.856 163.442 329.912C158.332 329.912 151.328 332.184 145.65 335.78C150.571 319.313 157.385 300.574 167.606 284.864C171.203 279.564 182.938 262.34 185.588 258.176C193.916 264.043 197.512 264.422 206.219 267.261C214.926 269.911 217.008 275.589 213.601 292.435C211.898 301.331 208.491 317.799 208.491 317.799C208.491 317.799 214.169 314.959 215.115 314.392C209.816 338.241 213.601 348.84 213.601 348.84C213.601 348.84 218.333 343.351 218.712 342.973C219.847 357.926 226.094 370.608 226.094 370.608C226.094 370.608 230.447 363.983 231.204 363.226C240.29 378.936 257.325 378.368 257.325 378.368L255.81 371.175C267.167 373.825 278.524 371.365 278.524 371.365L276.631 367.201C280.417 366.633 284.392 365.497 288.934 363.604C289.313 378.557 279.66 409.031 276.253 419.631C269.628 440.262 273.603 453.701 280.795 458.433C284.392 469.033 292.341 472.061 298.588 471.304C301.805 473.954 308.809 476.983 314.487 473.197C318.841 470.547 320.923 465.058 319.976 459.758C323.383 455.405 323.573 448.401 317.705 437.802C311.08 425.688 308.809 420.388 317.894 379.693C325.655 385.939 338.336 392.375 338.336 392.375L337.201 386.886C348.747 392.564 358.778 400.135 359.725 413.385C361.996 444.237 356.129 470.926 352.722 486.825C351.586 491.746 350.829 495.532 350.639 497.993C349.315 510.296 353.1 515.217 357.075 519.76C358.589 525.627 360.861 533.766 372.974 534.334C377.517 539.823 385.467 541.148 390.388 539.066C395.688 536.606 398.149 532.252 398.338 525.06C404.016 521.653 404.773 513.514 400.799 502.346C394.363 485.122 388.874 470.169 394.931 432.881C396.634 421.902 398.906 413.385 400.609 406.571C405.152 388.778 407.423 379.882 393.417 365.876C398.716 364.551 404.016 361.522 404.016 361.522C404.016 361.522 387.549 356.79 376.381 344.676C383.196 347.326 391.713 347.515 391.713 347.515C391.713 347.515 383.574 339.376 378.842 329.345C380.356 330.291 389.063 333.698 389.063 333.698C389.063 333.698 383.196 317.988 380.924 309.66L388.117 315.717C388.117 315.717 386.224 299.06 384.142 292.057L388.874 294.328C388.874 294.328 385.656 281.078 382.817 273.507L386.792 274.264C386.792 274.264 383.006 259.879 377.896 252.119H381.871C381.871 252.119 379.221 242.655 373.353 235.651L376.381 235.273C376.381 235.273 371.649 224.862 362.185 216.913L364.646 215.588C364.646 215.588 355.561 209.152 350.072 198.931C378.464 206.692 385.845 231.109 385.845 231.109L388.874 227.323C395.688 239.058 399.852 256.472 399.852 256.472L403.259 253.254C406.477 262.718 415.562 281.646 415.562 281.646L418.591 276.536C422.944 289.028 431.651 306.442 431.651 306.442L433.922 302.088C440.169 315.338 452.472 328.777 452.472 328.777L452.661 324.045C460.043 334.644 472.346 346.001 472.346 346.001L472.157 339.566C477.457 344.676 483.324 349.408 492.221 354.519L491.842 347.894C502.82 354.897 516.638 360.576 516.638 360.576L514.745 356.033C522.694 359.44 535.376 362.469 535.376 362.469L533.862 357.926C541.055 360.197 553.547 360.197 553.547 360.197L551.276 355.276C585.725 352.626 593.106 331.616 593.106 331.616C593.106 331.616 581.56 336.159 568.689 331.995Z" fill="#101010"/>
<path d="M447.928 313.634C439.032 302.277 435.247 287.514 435.247 287.514L432.218 293.76C425.972 281.646 420.672 262.529 420.672 262.529L416.697 269.532C411.587 258.743 407.044 243.033 407.044 243.033L403.258 246.44C396.255 225.43 390.009 217.859 390.009 217.859L387.737 220.698C383.195 213.127 370.513 197.038 345.907 191.928C362.563 191.17 381.302 201.959 388.305 211.613C390.009 209.72 390.766 207.827 390.766 207.827C398.526 215.02 405.719 233.38 405.719 233.38L410.262 227.134L418.022 253.633L422.754 247.197L431.84 279.375L436.761 272.182L445.279 298.681L447.361 290.921C447.361 290.921 453.796 306.82 462.314 318.745L463.639 314.391C463.639 314.391 474.238 329.155 485.406 341.837C477.835 338.241 465.721 325.748 465.721 325.748V330.48C456.257 321.016 448.686 306.252 448.686 306.252L447.928 313.634Z" fill="white"/>
<path d="M395.5 404.678C393.797 411.681 391.525 420.388 389.822 431.556C383.576 470.358 389.633 486.636 396.068 503.86C397.204 507.078 400.232 517.678 393.418 520.895C394.175 526.763 393.04 531.684 388.875 533.388C385.468 534.902 379.601 533.009 376.004 528.277C365.026 527.899 363.89 520.895 363.133 516.542C359.537 511.999 356.13 507.457 357.076 498.182C358.212 487.961 368.622 444.427 366.351 412.817C365.026 394.646 348.37 383.668 330.388 376.854L331.334 381.396C318.463 374.015 307.485 360.008 307.485 360.008L307.107 367.011C295.939 358.494 292.154 347.326 292.154 347.326L289.504 351.68C281.554 338.43 281.554 323.098 281.554 323.098L276.633 328.02C275.497 311.931 277.958 295.274 277.958 295.274L272.847 298.871C272.469 284.485 279.093 264.232 279.093 264.232L273.604 267.072C273.036 256.472 278.336 240.005 278.336 240.005L273.415 241.519C277.579 227.323 278.336 216.534 276.065 209.72C271.711 196.66 258.273 195.713 250.701 195.335C262.437 190.603 279.661 196.092 281.554 213.506C281.554 213.506 285.529 209.909 287.043 203.474C291.207 215.209 281.932 217.48 280.229 233.569C284.772 228.459 290.261 228.648 290.261 228.648C290.261 228.648 279.85 247.387 280.608 257.418C286.475 248.712 293.1 247.765 293.1 247.765C289.125 253.822 282.5 269.722 280.608 282.214C280.797 282.214 290.071 269.532 294.236 267.261C286.097 284.296 280.986 302.088 282.69 311.742C282.879 311.742 287.989 294.517 296.318 288.65C285.34 312.499 287.043 330.67 290.639 337.862C291.207 318.745 297.075 313.256 297.075 313.256C297.075 313.256 293.1 344.298 304.078 356.412C301.996 349.03 302.753 339.755 304.457 335.212C307.296 351.869 316.76 364.929 323.953 368.904C323.953 368.904 316.381 356.79 316.949 347.894C323.195 360.386 330.199 369.093 339.663 375.34C339.663 375.34 338.149 370.797 335.499 365.497C342.123 370.418 352.912 378.936 361.43 389.535L360.105 379.882C360.105 379.882 369.569 387.643 371.651 408.085C373.544 426.445 368.055 462.03 364.837 483.418C362.566 498.56 361.43 507.835 370.137 513.324C370.137 513.324 367.298 500.453 371.272 493.071C371.272 493.071 373.922 519.76 386.604 526.006C386.604 526.006 377.329 507.457 379.601 492.314C379.601 492.314 386.415 510.674 392.661 513.135C386.415 495.153 383.386 477.929 383.386 455.215C383.386 437.613 388.875 414.142 386.793 406.76C381.683 420.199 378.086 447.455 377.708 473.576C372.976 466.194 376.951 419.631 381.494 405.056C377.519 403.164 372.597 398.621 372.787 390.103C379.979 402.974 391.715 400.514 392.85 390.103C394.364 377.232 377.708 375.34 372.597 365.308C383.765 373.068 399.286 372.879 399.286 386.696C398.718 391.618 397.393 397.107 395.5 404.678Z" fill="white"/>
<path d="M314.109 457.866C315.056 460.326 316.191 466.194 312.027 468.465C307.295 470.737 302.374 466.762 300.67 465.247C297.074 466.194 289.124 465.247 286.096 454.459C280.039 450.294 275.875 440.83 282.121 421.145C287.989 402.785 295.371 378.179 295.181 363.794C296.317 364.929 297.453 366.065 298.588 367.201C298.778 378.179 291.585 406.192 287.232 420.199C282.878 434.395 284.014 445.373 289.882 451.051C288.367 444.427 288.178 431.934 291.396 427.202C290.071 446.698 298.967 457.866 308.242 462.219C300.86 451.43 295.371 441.02 297.453 427.959C299.346 438.559 305.024 447.834 311.459 449.916C305.781 440.073 301.049 429.663 302.185 416.413C303.51 399.378 308.431 375.718 308.431 375.718L312.974 379.315C303.699 421.145 306.917 428.149 313.352 440.263C319.598 452.376 316.759 456.541 314.109 457.866Z" fill="white"/>
<path d="M233.288 352.815C231.584 345.811 233.666 337.672 237.452 333.698C235.938 349.976 242.373 360.575 250.702 371.932C242.184 369.85 234.991 359.818 233.288 352.815Z" fill="white"/>
<path d="M217.955 335.781C217.955 328.21 220.037 318.557 221.929 310.985C224.011 303.414 228.743 294.329 231.393 291.679C231.015 296.979 226.661 310.985 225.904 313.825C224.011 320.26 220.794 329.156 217.955 335.781Z" fill="white"/>
<path d="M192.023 247.198C192.78 250.984 194.294 254.58 196.187 257.798C190.698 256.094 188.616 251.93 192.023 247.198Z" fill="white"/>
<path d="M170.257 270.856C173.664 257.796 169.689 239.436 173.285 231.676C174.043 235.083 177.26 245.872 178.775 249.657C182.371 241.329 174.8 227.701 177.639 218.615C179.721 222.969 183.507 229.404 186.914 235.84C189.563 226.754 180.289 215.587 182.182 205.176C184.831 209.341 188.239 215.587 191.835 221.076C192.403 211.423 189.753 195.713 184.453 186.059C181.235 180.002 169.689 162.589 143.001 161.642C153.79 158.235 167.796 161.074 180.667 171.863C193.538 182.842 197.324 199.498 209.059 203.284C204.327 206.88 199.027 205.555 194.674 200.634C194.674 205.934 197.892 210.098 203.002 211.801C199.027 214.64 196.378 219.94 195.431 223.347C191.267 236.408 183.507 253.253 170.257 270.856Z" fill="white"/>
<path d="M155.303 295.085C154.167 290.164 150.571 269.911 158.331 259.69C157.574 273.129 159.467 286.189 155.303 295.085Z" fill="white"/>
<path d="M153.602 337.863C160.037 335.592 166.662 338.809 171.205 344.298C171.016 340.513 169.312 337.295 166.662 334.645C166.662 334.645 169.312 332.374 170.826 328.21C173.287 331.995 173.287 338.62 173.287 338.62C173.287 338.62 178.019 335.97 180.669 332.374C181.615 338.809 179.912 343.163 179.912 343.163C179.912 343.163 185.401 343.352 191.268 339.756C191.079 343.92 188.24 347.327 185.401 348.084C185.969 358.305 181.047 360.766 167.041 362.469C138.649 365.687 135.052 380.451 124.642 377.612C134.106 372.69 137.702 367.012 150.763 361.523C160.984 357.169 179.722 359.63 175.748 347.895C172.341 356.223 156.252 350.734 137.892 359.441C142.245 344.109 147.166 340.134 153.602 337.863Z" fill="white"/>
<path d="M104.766 357.925C102.495 353.004 103.063 347.136 104.577 343.161C111.769 324.612 115.366 308.523 117.259 293.002C119.151 279.374 121.423 257.607 131.644 252.307C131.644 252.307 131.265 262.15 133.726 268.775C130.13 267.639 128.426 261.771 128.426 261.771C128.426 261.771 125.208 269.532 128.426 281.835C125.776 280.889 124.262 278.428 124.262 278.428C124.262 278.428 121.991 288.081 124.64 298.492C122.369 297.924 120.666 295.463 120.666 295.463C120.666 295.463 118.016 308.713 121.044 318.177C118.205 317.419 116.501 314.77 116.501 314.77C116.501 314.77 114.609 326.694 116.691 336.158C114.041 335.401 112.148 332.562 112.148 332.562C111.202 336.915 110.823 344.297 114.609 351.868C111.959 351.49 110.255 349.408 108.93 348.083C105.902 356.032 115.555 367.389 119.151 374.96C112.905 371.364 106.28 361.332 104.766 357.925Z" fill="white"/>
<path d="M94.1675 246.442C98.5209 252.309 109.121 255.149 109.121 255.149C104.956 255.716 95.1139 256.663 80.5394 248.524C82.0536 252.877 89.057 261.206 90.3819 262.72C81.1072 261.584 67.1005 247.01 67.1005 247.01C67.1005 247.01 69.5612 254.959 73.9146 262.72C67.8577 259.124 58.3937 247.767 50.2547 238.681C40.7907 227.892 30.1911 217.293 26.4055 206.882C33.4088 214.264 57.0687 239.438 62.3686 240.763C57.4473 233.382 45.1441 218.428 42.4942 208.207C56.1223 224.675 67.4791 236.41 74.2932 240.574C70.6969 234.896 61.0436 222.025 56.8795 209.154C68.0469 222.971 82.2429 235.842 85.65 236.031C81.1072 231.489 72.0218 218.996 68.0469 208.775C79.593 220.321 89.2462 228.082 94.5461 229.974C88.1106 222.214 83.7571 217.482 79.2144 208.018C87.1642 215.4 95.4925 221.457 102.117 222.593C102.117 222.593 92.0854 212.939 88.4891 205.557C98.1424 213.129 106.471 215.968 107.985 215.779C105.524 213.696 100.224 209.154 97.0067 203.475C108.931 210.857 115.556 210.857 119.91 210.857C131.834 210.857 141.109 205.936 147.923 204.99C141.487 214.075 132.781 218.239 128.995 220.321C135.998 221.646 145.084 219.564 145.084 219.564C139.973 226.189 133.916 229.974 122.37 233.382C128.427 235.653 139.405 235.085 139.405 235.085C133.538 240.385 124.642 242.467 109.499 242.088C115.935 246.82 127.291 248.335 127.291 248.335C121.424 250.417 109.31 250.227 94.1675 246.442Z" fill="white"/>
<path d="M90.569 315.149C92.2725 321.395 87.9191 326.127 79.78 330.481C66.3412 337.484 56.8772 341.08 51.5774 339.566C59.3378 337.484 88.4869 324.802 85.837 317.042C84.1335 321.963 69.1804 328.588 60.8521 329.913C61.7985 327.641 66.5305 318.556 68.8018 315.717C71.8303 311.931 75.9944 310.228 82.2407 314.392C81.8621 311.742 79.9693 309.849 78.0765 308.524C78.0765 308.524 80.5371 305.496 82.2407 301.71C84.3227 305.496 84.3227 310.606 84.3227 310.606C84.3227 310.606 88.6762 308.714 92.2725 304.739C93.2189 310.228 91.8939 313.067 90.569 315.149Z" fill="white"/>
<path d="M38.8982 316.663C41.3589 307.767 50.4443 276.536 52.1478 264.422C53.8513 268.586 54.987 272.372 52.7156 281.268C50.255 290.164 46.4694 304.171 44.0088 313.256C40.6017 325.749 42.116 331.048 46.2801 338.809C40.0339 335.78 36.4376 325.37 38.8982 316.663Z" fill="white"/>
<path d="M-65.9636 352.058C-66.91 351.301 -68.6135 348.083 -68.9921 346.758C-66.5315 345.244 -65.0172 343.919 -65.0172 343.919C-65.0172 343.919 -68.4243 342.215 -69.9385 338.24C-67.4779 338.051 -64.2601 337.673 -61.7995 336.537C-61.7995 339.187 -62.178 341.837 -62.7459 344.297C-63.3137 347.326 -64.2601 349.219 -65.9636 352.058Z" fill="white"/>
<path d="M-61.2303 331.995C-63.6909 329.724 -65.0159 327.263 -65.5837 325.56C-63.8802 325.181 -61.6089 324.803 -59.5268 323.856C-60.2839 326.695 -60.8517 329.345 -61.2303 331.995Z" fill="white"/>
<path d="M-68.236 357.358C-68.4253 358.304 -68.6145 359.44 -68.9931 361.332C-69.3717 363.225 -71.0752 363.982 -73.5358 363.604C-75.9964 363.225 -78.2678 362.468 -80.1606 360.575C-78.0785 360.197 -72.7787 358.872 -68.236 357.358Z" fill="white"/>
<path d="M-101.17 343.163C-98.7093 341.46 -96.438 339.378 -94.3559 337.106C-92.6524 339.378 -90.5703 342.028 -89.056 344.11C-93.5988 345.056 -97.9522 344.11 -101.17 343.163Z" fill="white"/>
<path d="M-140.539 167.323C-142.432 164.862 -143.379 162.97 -141.864 161.645C-140.539 160.32 -138.268 161.266 -136.375 162.97C-125.586 172.812 -109.119 193.065 -109.119 201.393C-118.583 190.415 -136.754 172.244 -140.539 167.323Z" fill="white"/>
<path d="M-116.31 153.882C-114.039 151.232 -108.55 152.178 -104.197 154.449C-99.6538 156.721 -82.0508 167.32 -81.2937 167.699C-73.7225 172.81 -68.0441 176.974 -64.0693 182.841C-60.0944 188.709 -57.823 194.198 -56.1195 200.634C-53.6589 193.82 -57.4445 179.624 -66.9085 169.403C-58.3909 171.485 -49.3055 187.195 -48.1698 198.93C-45.7092 191.927 -47.2234 178.109 -57.6338 167.32C-49.8733 169.403 -41.9236 180.949 -40.5986 197.037C-37.1916 190.791 -39.4629 174.135 -49.1162 164.292C-41.7343 166.753 -34.5417 177.163 -33.406 189.655C-33.0274 193.441 -34.1631 197.227 -36.4345 200.255C-40.2201 205.176 -46.0877 209.34 -52.3339 211.801C-49.3055 219.94 -39.4629 221.076 -30.1882 218.615C-38.7058 226.944 -56.6874 224.483 -61.4194 208.205C-64.4478 197.605 -65.3942 190.602 -69.9369 184.923C-74.2904 179.056 -78.2652 176.595 -84.7007 172.052C-90.5684 167.888 -98.8967 162.778 -104.386 159.749C-109.118 157.099 -113.282 160.506 -107.793 166.942C-107.604 162.967 -104.575 162.778 -101.357 165.049C-98.1396 167.131 -90.1898 172.81 -86.4042 175.27C-86.4042 175.27 -90.3791 176.406 -93.4076 176.784C-92.0826 177.92 -85.8364 179.813 -80.158 180.002C-84.7007 182.463 -91.3255 183.977 -91.3255 183.977C-85.8364 186.816 -75.0475 185.681 -75.0475 185.681C-79.0224 188.898 -88.8649 190.98 -88.8649 190.98C-83.3758 193.82 -71.8297 191.927 -71.8297 191.927C-74.6689 195.523 -84.7007 197.605 -84.7007 197.605C-80.5366 199.877 -73.5333 199.498 -68.9905 197.794C-70.8833 206.312 -85.6471 208.394 -96.0575 193.441C-100.032 187.573 -111.957 168.456 -114.607 163.724C-117.257 159.181 -117.825 155.774 -116.31 153.882Z" fill="white"/>
<path d="M-41.3559 139.686C-37.1918 148.961 -44.9522 158.046 -50.4414 156.722C-47.6022 152.368 -43.438 145.365 -41.3559 139.686Z" fill="white"/>
<path d="M-28.6744 137.793C-24.3209 149.15 -35.2992 162.778 -42.8703 160.507C-35.867 153.125 -31.3243 144.229 -28.6744 137.793Z" fill="white"/>
<path d="M-7.09649 139.687C-6.1501 134.387 -4.2573 125.491 -1.22882 119.056C-1.22882 119.056 1.42109 127.195 -1.03954 141.769C-2.3645 150.098 -6.9072 158.426 -12.5856 161.833C-9.17856 154.262 -8.42145 147.637 -7.09649 139.687Z" fill="white"/>
<path d="M13.3443 107.699C13.3443 107.699 12.0193 124.166 10.6944 135.334C8.99084 149.151 2.74463 166.944 -5.58367 169.404C2.55535 154.83 3.69103 138.552 5.01598 130.223C6.15166 121.895 9.55868 113.188 13.3443 107.699Z" fill="white"/>
<path d="M30.758 96.721C30.758 96.721 25.6474 111.296 23.7547 119.624C21.8619 127.574 19.2119 135.523 15.9942 141.77C14.8585 137.416 15.0478 124.734 17.3191 118.299C19.5905 112.053 24.3225 103.157 30.758 96.721Z" fill="white"/>
<path d="M50.632 87.0684C50.632 87.0684 42.493 102.589 38.8967 108.836C35.6789 114.703 34.1647 116.217 29.8112 123.599C28.6756 119.435 30.0005 109.593 33.2183 104.861C36.6253 100.129 45.3322 91.4218 50.632 87.0684Z" fill="white"/>
<path d="M165.334 72.8718C162.306 74.1967 156.627 78.9287 146.217 76.8466C153.599 71.1682 159.656 71.9254 165.334 72.8718Z" fill="white"/>
<path d="M184.264 77.0366C179.91 77.4151 172.15 82.5257 161.929 78.5508C167.039 74.7652 176.693 74.7652 184.264 77.0366Z" fill="white"/>
<path d="M205.843 84.4175C201.868 84.2282 192.215 87.446 179.533 81.7676C186.158 78.5498 198.84 81.1998 205.843 84.4175Z" fill="white"/>
<path d="M220.795 90.8523C227.231 93.5022 237.641 97.4771 241.048 98.6128C234.802 98.802 225.338 97.2878 218.524 95.2057C211.71 93.1237 208.303 91.7987 201.489 88.0131C207.546 87.256 214.36 88.0131 220.795 90.8523Z" fill="white"/>
<path d="M512.854 286.189C506.04 281.268 499.605 276.915 492.791 271.425C498.658 272.75 508.312 276.536 515.315 280.889C522.318 285.054 532.35 296.41 535.757 300.007C529.322 296.978 521.94 292.814 512.854 286.189Z" fill="white"/>
<path d="M525.724 278.049C517.963 276.914 507.742 271.992 502.064 268.964C495.061 265.178 486.354 259.5 480.865 252.307C489.004 255.525 497.143 257.607 505.282 262.718C513.988 268.018 522.506 275.21 525.724 278.049Z" fill="white"/>
<path d="M426.921 191.172C420.485 189.657 414.996 188.333 404.964 187.575C412.725 183.411 422.567 185.872 426.921 191.172Z" fill="white"/>
<path d="M438.089 204.042C430.518 201.96 426.164 201.203 416.133 199.5C422.947 195.525 433.736 198.553 438.089 204.042Z" fill="white"/>
<path d="M450.392 216.155C443.389 213.695 437.899 213.127 428.436 211.613C434.114 207.449 445.471 210.098 450.392 216.155Z" fill="white"/>
<path d="M463.072 228.838C455.69 226.945 450.58 225.62 441.116 224.295C446.416 220.131 457.205 222.591 463.072 228.838Z" fill="white"/>
<path d="M452.85 236.788C458.717 234.138 469.696 238.113 473.67 244.738C467.046 241.899 461.178 239.249 452.85 236.788Z" fill="white"/>
<path d="M462.883 253.445C470.644 250.985 478.783 254.77 481.622 260.449C476.701 257.799 471.211 255.906 462.883 253.445Z" fill="white"/>
<path d="M490.516 250.226C484.46 246.819 476.32 239.627 471.778 235.463C478.592 236.598 484.838 237.923 492.22 241.898C499.413 245.873 507.362 251.93 513.419 257.798C506.794 256.283 496.573 253.634 490.516 250.226Z" fill="white"/>
<path d="M500.927 236.597C500.927 236.597 488.245 235.461 478.592 231.486C472.346 229.026 462.125 221.455 460.421 219.183C465.153 219.751 476.321 221.833 481.053 224.294C487.299 227.701 500.738 236.408 500.927 236.597Z" fill="white"/>
<path d="M460.612 212.559C452.284 208.773 445.47 203.095 442.82 201.202C449.066 201.77 460.423 204.798 467.805 208.773C475.187 212.748 484.651 219.373 490.329 224.862C482.001 219.751 469.509 216.533 460.612 212.559Z" fill="white"/>
<path d="M448.496 197.607C439.789 195.335 432.029 189.468 427.297 186.25C433.543 186.25 443.196 188.332 451.903 191.739C460.61 195.146 477.835 204.231 484.27 210.667C470.831 204.799 459.474 200.257 448.496 197.607Z" fill="white"/>
<path d="M429.003 181.708C421.432 180.951 407.803 178.869 407.803 178.869C407.803 178.869 414.05 174.894 427.11 176.219C437.52 177.355 455.691 183.601 459.666 185.873C447.741 184.548 436.574 182.466 429.003 181.708Z" fill="white"/>
<path d="M411.966 170.919C401.556 172.811 399.095 173.379 393.038 174.515C395.688 170.919 404.017 167.133 411.209 166.187C418.402 165.24 428.055 165.24 432.787 166.565C425.594 168.269 422.377 169.026 411.966 170.919Z" fill="white"/>
<path d="M393.797 165.43C388.497 166.944 382.819 168.08 377.519 168.269C381.683 165.051 387.361 161.834 392.283 160.509C397.204 159.373 401.179 158.805 410.075 159.373C410.075 159.562 400.8 163.537 393.797 165.43Z" fill="white"/>
<path d="M375.627 158.047C379.98 155.965 388.876 153.883 391.148 153.694C386.794 157.479 381.495 161.265 375.816 163.915C370.138 166.565 367.299 166.943 363.134 167.89C364.838 165.24 371.273 160.129 375.627 158.047Z" fill="white"/>
<path d="M339.284 164.672C329.82 164.672 316.759 162.212 310.513 155.019C316.002 157.48 328.495 160.13 338.526 160.13C352.533 160.13 365.783 155.965 374.49 152.18C370.893 158.426 357.833 164.672 339.284 164.672Z" fill="white"/>
<path d="M346.287 211.236C342.123 208.964 337.012 203.475 337.012 203.475C337.012 203.475 344.773 205.368 348.369 207.45C351.965 209.532 354.994 214.075 354.994 214.075C354.994 214.075 349.315 212.939 346.287 211.236Z" fill="white"/>
<path d="M370.325 250.982C374.868 256.661 376.761 260.825 377.897 265.557C374.111 262.15 370.515 258.743 366.54 254.768C362.565 250.793 358.022 245.304 352.155 238.111C361.051 241.708 365.972 245.115 370.325 250.982Z" fill="white"/>
<path d="M367.108 268.397C365.026 265.936 355.751 255.715 351.208 249.279C356.129 251.551 365.783 257.986 371.083 263.854C376.382 269.722 379.222 278.618 380.547 284.107C377.14 280.889 371.461 273.507 367.108 268.397Z" fill="white"/>
<path d="M371.27 321.017C367.485 318.557 360.86 311.175 357.642 306.064C354.803 301.711 350.639 291.3 349.692 284.676C353.478 288.461 357.074 294.139 361.238 300.386C363.321 303.603 370.135 317.232 371.27 321.017Z" fill="white"/>
<path d="M367.864 339.376C364.457 338.43 360.104 335.969 356.318 333.319C352.533 330.669 348.368 326.695 346.665 323.288C350.64 324.423 354.804 326.316 358.779 329.534C362.754 332.752 366.35 337.105 367.864 339.376Z" fill="white"/>
<path d="M341.743 286.947C338.714 280.511 333.793 274.265 329.818 270.101C335.496 270.669 343.068 278.429 341.743 286.947Z" fill="white"/>
<path d="M330.199 254.391C337.013 254.959 344.395 262.34 344.016 270.48C340.042 264.233 336.634 260.826 330.199 254.391Z" fill="white"/>
<path d="M344.773 254.391C340.609 250.984 336.634 247.577 330.199 242.845C336.067 242.655 343.638 247.955 344.773 254.391Z" fill="white"/>
<path d="M342.501 240.951C339.661 237.733 337.579 236.03 332.469 231.298C338.147 231.487 342.69 236.03 342.501 240.951Z" fill="white"/>
<path d="M330.199 285.431C333.795 287.513 338.717 293.949 339.095 298.302C334.742 295.842 331.145 290.353 330.199 285.431Z" fill="white"/>
<path d="M334.173 305.305C337.769 307.388 339.851 310.795 340.041 314.391C336.066 312.877 334.551 309.848 334.173 305.305Z" fill="white"/>
<path d="M217.008 304.55C218.333 298.493 219.658 293.572 220.226 286.569C220.794 280.133 220.226 275.401 219.28 271.805C223.444 273.698 225.715 281.647 225.147 287.136C224.579 292.815 222.119 299.061 217.008 304.55Z" fill="white"/>
<path d="M138.08 156.722C145.462 152.936 158.901 151.801 166.661 153.315C174.422 154.64 181.425 158.236 185.968 163.536C185.968 163.536 179.154 162.211 166.093 158.426C158.712 156.344 151.708 155.776 138.08 156.722Z" fill="white"/>
<path d="M164.956 180.95C161.359 173.947 155.87 170.54 141.485 169.593C145.46 167.701 151.327 166.944 157.384 168.836C162.306 170.161 165.902 174.325 164.956 180.95Z" fill="white"/>
<path d="M172.908 215.587C171.015 207.827 168.365 202.716 162.686 196.47C168.743 195.902 177.261 206.312 172.908 215.587Z" fill="white"/>
<path d="M160.036 210.289C166.85 211.046 171.771 221.835 167.607 229.974C166.093 220.699 163.254 215.021 160.036 210.289Z" fill="white"/>
<path d="M160.224 244.927C160.224 236.788 157.764 227.892 155.492 224.485C162.117 225.431 165.335 237.924 160.224 244.927Z" fill="white"/>
<path d="M142.624 326.506C139.406 319.502 135.999 308.145 138.46 298.492C142.435 304.171 145.652 317.988 142.624 326.506Z" fill="white"/>
<path d="M74.6708 148.584C69.1817 144.61 69.7496 137.228 73.1566 134.389C73.5352 139.12 74.103 144.42 74.6708 148.584Z" fill="white"/>
<path d="M28.4868 178.868C32.2723 175.84 36.2472 172.811 39.8435 168.647C40.6006 173.758 34.9223 180.193 28.4868 178.868Z" fill="white"/>
<path d="M27.3518 160.509C30.7588 156.345 32.6516 153.127 34.923 147.638C37.3836 153.695 32.4624 160.698 27.3518 160.509Z" fill="white"/>
<path d="M59.5293 263.286C52.3367 256.094 40.0335 240.573 36.0587 235.652C29.4339 227.513 15.2379 214.831 6.53109 208.963C16.7522 210.288 34.1659 225.052 40.6014 232.813C48.9297 243.034 57.8258 255.147 59.5293 263.286Z" fill="white"/>
<path d="M71.4538 300.197C65.7754 307.957 60.6648 317.611 57.0685 325.182C55.365 318.557 60.097 310.797 60.097 310.797L55.7435 310.607C59.7184 305.307 65.2075 301.9 71.4538 300.197Z" fill="white"/>
<path d="M-111.58 297.924C-107.416 291.3 -96.4379 293.382 -89.2453 294.139C-93.2202 298.682 -104.766 295.275 -111.58 297.924Z" fill="white"/>
<path d="M-120.286 307.767C-115.554 300.385 -105.522 300.196 -95.6799 300.953C-98.5191 305.306 -107.605 302.846 -120.286 307.767Z" fill="white"/>
<path d="M-16.3709 164.673C-17.1281 172.244 -25.6456 176.219 -31.5133 172.623C-25.8349 170.73 -20.1565 167.702 -16.3709 164.673Z" fill="white"/>
<path d="M-2.17523 234.326C4.07099 229.215 17.1313 230.54 22.9989 239.247C14.2921 236.219 5.58523 234.704 -2.17523 234.326Z" fill="white"/>
<path d="M-13.5319 224.107C-6.52858 218.996 4.07106 222.403 9.18161 227.703C1.42115 225.999 -6.71786 224.864 -13.5319 224.107Z" fill="white"/>
<path d="M-23.9423 201.014C-16.9389 197.229 -8.79992 198.932 -4.63577 204.421C-10.1249 202.907 -14.6676 201.771 -23.9423 201.014Z" fill="white"/>
<path d="M-25.8349 180.951C-18.2638 179.437 -14.0996 178.68 -8.04269 176.03C-10.1248 183.223 -20.9137 184.548 -25.8349 180.951Z" fill="white"/>
<path d="M-80.9154 271.047C-71.83 270.479 -68.8015 266.126 -67.2873 263.287C-66.7194 270.101 -72.7764 275.022 -80.3476 275.022C-86.9723 275.022 -92.6507 274.076 -95.8685 274.454C-92.6507 270.669 -86.9723 271.426 -80.9154 271.047Z" fill="white"/>
<path d="M-97.9518 220.32C-102.873 215.588 -107.226 210.288 -105.902 202.906C-102.684 209.531 -99.6553 212.181 -94.5447 216.913C-88.8664 222.212 -86.2164 227.512 -87.3521 231.866C-90.3806 226.377 -93.2198 225.052 -97.9518 220.32Z" fill="white"/>
<path d="M-91.7077 213.128C-97.7647 208.396 -102.875 203.664 -101.55 195.335C-97.9539 202.906 -93.9791 205.935 -90.9506 208.396C-84.7044 213.128 -80.3509 218.238 -81.4866 225.241C-84.1365 219.942 -86.4079 217.481 -91.7077 213.128Z" fill="white"/>
<path d="M-104.386 289.407C-100.222 283.161 -82.9976 287.325 -81.8619 287.514C-85.8368 291.3 -96.6257 288.082 -104.386 289.407Z" fill="white"/>
<path d="M-82.0534 283.349C-87.164 283.349 -93.4102 281.078 -100.035 282.024C-96.628 276.724 -88.2997 278.996 -81.8642 278.996C-75.6179 278.996 -72.7787 277.481 -68.6146 275.021C-69.9396 279.185 -75.6179 283.349 -82.0534 283.349Z" fill="white"/>
<path d="M13.9135 244.737C21.2954 241.14 30.57 245.683 34.9235 254.958C30.1915 251.74 22.8096 247.387 13.9135 244.737Z" fill="white"/>
<path d="M45.331 262.529C39.6526 252.118 27.9173 239.247 21.1032 232.244C11.2607 222.023 -2.93526 215.777 -12.7778 213.884C0.282488 212.18 12.9642 218.427 24.321 228.648C33.0279 236.787 46.2774 253.065 45.331 262.529Z" fill="white"/>
<path d="M2.93402 184.547C7.09817 183.033 17.8871 175.841 21.6727 171.298C21.6727 179.437 10.1266 186.44 2.93402 184.547Z" fill="white"/>
<path d="M5.96164 192.496C13.3435 192.496 18.8326 191.549 24.1325 190.035C21.6718 195.524 11.0722 196.66 5.96164 192.496Z" fill="white"/>
<path d="M-4.06926 190.413C-10.3155 193.063 -17.8867 193.063 -23.565 190.602C-17.8867 188.52 -9.93692 188.331 -4.06926 190.413Z" fill="white"/>
<path d="M15.8063 151.233C19.2133 162.59 8.23508 177.354 -1.2289 177.354C4.44949 171.865 11.4528 163.158 15.8063 151.233Z" fill="white"/>
<path d="M26.404 131.738C30.3789 135.523 28.8646 145.177 23.9434 147.448C25.2683 141.959 26.0254 136.848 26.404 131.738Z" fill="white"/>
<path d="M43.817 118.3C40.9778 124.167 38.1386 130.603 36.2458 135.524C34.1638 128.521 39.085 120.193 43.817 118.3Z" fill="white"/>
<path d="M119.34 71.5478C124.64 69.8443 129.94 68.1407 136.375 67.1943C131.454 70.2228 125.397 74.7655 120.665 76.469C115.933 78.1725 107.226 78.5511 107.226 78.5511C107.226 78.5511 113.283 73.6298 119.34 71.5478Z" fill="white"/>
<path d="M158.334 148.962C148.87 148.962 136.756 151.233 128.428 153.315C131.267 150.098 145.463 144.987 158.145 144.608C168.366 144.23 176.315 146.501 180.669 150.476C172.151 150.665 166.852 148.962 158.334 148.962Z" fill="white"/>
<path d="M133.158 193.822C126.154 197.797 115.365 199.689 111.012 194.39C121.233 194.011 124.451 192.497 130.129 189.468C135.05 187.008 145.082 181.329 151.896 184.926C147.732 186.061 140.918 189.468 133.158 193.822Z" fill="white"/>
<path d="M105.335 123.598C110.445 119.245 117.449 117.163 121.045 117.352C116.124 121.705 113.095 122.841 108.174 126.248C103.631 129.466 101.171 131.737 95.4923 137.226C96.8173 133.252 100.224 127.952 105.335 123.598Z" fill="white"/>
<path d="M95.6817 126.248C93.7889 128.898 91.139 132.873 88.8676 137.984C88.8676 134.198 90.5712 127.384 92.6532 124.166C95.1139 120.002 98.3316 118.109 102.496 116.784C100.792 120.191 98.7102 121.895 95.6817 126.248Z" fill="white"/>
<path d="M118.396 126.626C126.156 122.462 133.728 120.948 137.702 120.758C133.16 125.112 124.264 128.519 119.721 130.412C114.989 132.494 110.257 134.765 102.875 140.065C105.336 135.333 110.635 130.79 118.396 126.626Z" fill="white"/>
<path d="M129.941 132.495C137.513 129.656 153.98 126.438 159.28 127.952C151.141 132.306 138.459 134.198 130.509 136.848C122.559 139.309 119.72 140.634 108.742 145.177C113.095 140.823 122.37 135.334 129.941 132.495Z" fill="white"/>
<path d="M145.652 137.037C160.605 134.198 169.88 136.28 174.423 138.93C164.391 140.633 155.116 140.065 146.031 141.769C136.756 143.472 129.942 145.555 118.017 150.097C122.182 145.176 137.324 138.74 145.652 137.037Z" fill="white"/>
<path d="M84.5115 122.841C84.3223 126.059 83.7544 128.519 82.9973 132.684C82.6187 134.955 81.8616 138.551 81.2938 142.337C79.5902 139.308 79.0224 134.009 79.401 131.359C79.9688 127.573 81.6723 125.112 84.5115 122.841Z" fill="white"/>
<path d="M152.842 176.596C149.056 177.543 142.999 178.679 133.535 182.464C127.857 184.546 125.396 185.871 118.772 188.521C121.989 184.168 125.586 179.814 133.346 177.164C140.728 174.514 150.76 175.65 152.842 176.596Z" fill="white"/>
<path d="M130.32 199.5C139.216 195.525 144.326 191.55 150.194 194.01C144.137 196.282 138.648 201.392 132.591 204.232C125.02 207.828 111.013 207.828 104.956 200.635C117.638 204.042 127.102 201.014 130.32 199.5Z" fill="white"/>
<path d="M126.532 340.322C129.56 344.486 132.778 354.14 130.317 360.197C126.532 355.465 124.26 348.083 126.532 340.322Z" fill="white"/>
<path d="M136.753 343.161C133.346 338.997 129.939 329.912 131.264 319.502C136.185 324.233 138.646 334.833 136.753 343.161Z" fill="white"/>
<path d="M152.842 243.224C157.006 246.063 156.438 257.231 150.949 259.502C152.274 253.445 153.031 249.281 152.842 243.224Z" fill="white"/>
<path d="M176.125 200.635C174.8 196.093 172.339 189.657 169.5 184.736C174.232 185.304 179.153 193.253 176.125 200.635Z" fill="white"/>
<path d="M204.328 217.86C206.789 231.867 211.899 245.116 217.956 249.091C214.928 240.006 213.792 228.838 215.496 218.996C219.66 233.381 222.877 246.063 231.963 253.066C231.963 253.066 224.77 234.895 228.745 222.213C232.152 237.545 235.37 244.738 239.913 250.984C244.645 257.419 253.541 264.612 256.191 272.183C251.459 268.587 244.834 264.233 239.723 262.53C239.723 262.53 241.995 267.83 241.805 271.237C236.127 265.937 227.231 262.719 227.231 262.719C227.231 262.719 229.313 266.694 228.745 270.858C221.931 263.098 212.467 264.612 206.221 248.334C203.192 239.816 201.867 228.081 204.328 217.86Z" fill="white"/>
<path d="M240.482 225.431C245.592 241.331 251.271 245.684 254.489 248.902C261.87 255.716 264.899 262.53 267.17 268.776C261.303 266.316 254.867 261.205 249.189 255.148C242.185 247.766 238.021 234.706 240.482 225.431Z" fill="white"/>
<path d="M263.383 246.631C260.354 245.117 256.758 242.088 255.433 239.249C253.351 234.707 253.351 229.217 253.73 227.135C255.622 229.975 257.326 232.435 259.408 236.599C260.544 239.06 262.247 243.224 263.383 246.631Z" fill="white"/>
<path d="M240.858 103.157C246.915 104.293 254.486 107.889 259.597 109.214C255.433 109.971 246.347 109.403 240.48 107.889C234.612 106.375 230.259 105.239 224.391 101.832C227.419 101.454 234.801 102.022 240.858 103.157Z" fill="white"/>
<path d="M289.123 147.257C280.984 144.04 273.981 138.74 273.981 138.74C273.981 138.74 284.58 138.929 289.312 140.632C294.233 142.336 301.426 147.068 310.322 149.529C303.697 151.8 293.666 148.961 289.123 147.257Z" fill="white"/>
<path d="M273.037 132.685C266.79 130.792 261.869 128.521 256.38 124.924C261.112 125.114 268.115 125.303 273.226 126.628C278.337 127.953 283.068 131.549 292.154 134.578C288.368 135.713 279.283 134.578 273.037 132.685Z" fill="white"/>
<path d="M259.406 120.192C252.971 119.435 246.914 116.785 240.857 114.135C244.832 113.946 249.942 113.946 256.378 114.703C262.813 115.46 269.817 118.299 274.927 120.002C271.142 120.949 264.706 120.76 259.406 120.192Z" fill="white"/>
<path d="M129.563 76.4669C134.484 73.2491 138.08 70.4099 148.112 70.7885C142.055 76.0883 138.459 77.6025 129.563 76.4669Z" fill="white"/>
<path d="M115.745 67.383C106.849 73.2506 102.685 77.4148 98.5207 79.8754C94.3565 82.1468 86.9746 84.4181 86.9746 84.4181C86.9746 84.4181 90.9495 77.6041 95.8708 74.3863C99.6564 71.7364 111.96 68.1401 115.745 67.383Z" fill="white"/>
<path d="M74.8603 80.8215C78.6459 77.4145 82.81 75.3324 91.7062 71.1683C87.542 75.9003 83.7565 81.2001 79.9709 84.9857C75.4282 89.5284 68.2355 95.0175 68.2355 95.0175C68.2355 95.0175 70.1283 85.175 74.8603 80.8215Z" fill="white"/>
<path d="M70.1274 78.9283C70.1274 79.1175 63.8812 91.7993 59.717 97.4777C55.5529 103.156 50.4423 106.185 46.6567 109.97C47.4139 104.292 49.4959 97.6669 53.2815 92.935C57.0671 88.3922 63.124 83.471 70.1274 78.9283Z" fill="white"/>
<path d="M-18.8319 157.101C-23.7532 162.401 -31.7029 165.808 -37.192 165.618C-34.3528 163.536 -27.9173 159.183 -23.5639 153.315C-19.2104 147.447 -16.7498 140.066 -15.6141 132.305C-11.8285 139.687 -12.775 150.665 -18.8319 157.101Z" fill="white"/>
<path d="M-59.3399 154.641C-56.1221 150.666 -52.9044 144.42 -51.5794 139.309C-47.9831 144.42 -51.3901 154.83 -59.3399 154.641Z" fill="white"/>
<path d="M-69.3694 153.506C-66.5302 149.72 -64.2589 145.556 -63.5018 141.013C-59.9054 144.42 -62.7446 154.263 -69.3694 153.506Z" fill="white"/>
<path d="M-109.307 238.491C-109.307 238.491 -113.661 216.534 -112.714 208.963C-106.279 221.077 -92.6506 226.945 -93.7862 236.977C-93.7862 236.977 -98.1397 234.705 -103.25 229.027C-103.25 229.027 -102.115 237.923 -97.7611 244.169C-90.7578 242.655 -84.5115 243.223 -79.0224 247.387C-82.0509 249.28 -98.7075 244.359 -103.061 255.147C-112.146 250.037 -118.582 239.437 -118.582 229.027L-109.307 238.491Z" fill="white"/>
<path d="M-104.008 260.827C-114.04 261.395 -119.151 254.77 -121.233 245.117C-116.501 250.795 -110.065 256.663 -104.008 260.827Z" fill="white"/>
<path d="M61.9877 296.032C68.9911 289.785 76.373 289.407 79.78 287.135C77.1301 293.003 68.9911 297.167 61.9877 296.032Z" fill="white"/>
<path d="M71.4518 282.783C74.291 278.429 82.6193 275.969 86.9727 272.751C85.4585 279.754 76.9409 283.161 71.4518 282.783Z" fill="white"/>
<path d="M148.302 310.796C146.031 303.414 143.949 287.515 147.924 277.104C150.574 287.136 152.277 301.9 148.302 310.796Z" fill="white"/>
<path d="M161.74 283.54C162.308 272.94 160.794 257.608 167.04 244.927C168.176 254.58 168.554 273.886 161.74 283.54Z" fill="white"/>
<path d="M197.701 233.949C199.215 243.981 202.812 254.769 209.815 262.341C203.001 260.826 198.837 255.527 197.133 250.605C195.998 246.63 194.483 240.384 197.701 233.949Z" fill="white"/>
<path d="M224.391 333.509C225.148 324.992 228.744 317.61 233.097 312.121C232.53 321.774 230.448 329.345 229.69 335.592C228.365 345.434 228.933 351.87 227.987 358.494C225.148 349.977 223.823 339.756 224.391 333.509Z" fill="white"/>
<path d="M251.269 363.037C245.78 359.062 244.455 352.059 246.158 347.138C248.24 351.68 252.215 356.791 256.001 359.63C260.543 363.037 263.761 364.362 270.954 367.012C265.843 367.958 256.19 366.444 251.269 363.037Z" fill="white"/>
<path d="M269.061 361.713C263.383 360.388 259.786 357.17 258.461 352.06C267.736 358.117 276.254 359.063 285.15 359.063C282.878 360.767 276.064 363.416 269.061 361.713Z" fill="white"/>
<path d="M389.254 360.387C386.036 360.955 380.169 360.955 375.058 360.009C369.948 359.062 365.783 357.548 362.376 354.709C362.376 354.709 369.947 353.952 374.869 354.898C379.79 356.034 384.143 358.305 389.254 360.387Z" fill="white"/>
<path d="M349.692 336.537C353.478 337.673 357.642 339.187 362.563 341.647C365.213 343.162 374.488 349.029 376.381 351.49C372.027 350.544 366.538 349.219 363.131 347.515C358.399 345.244 354.424 341.458 349.692 336.537Z" fill="white"/>
<path d="M356.319 321.395C350.262 314.959 346.476 304.17 346.476 299.627C350.83 303.981 354.426 308.902 359.915 315.338C365.404 321.773 377.14 335.78 378.843 338.43C371.461 335.591 362.186 327.83 356.319 321.395Z" fill="white"/>
<path d="M363.889 297.547C359.347 289.597 353.1 279.376 351.397 273.319C356.697 277.483 366.161 288.84 368.432 292.815C373.164 300.575 377.896 314.014 379.221 321.585C375.435 318.367 368.432 305.875 363.889 297.547Z" fill="white"/>
<path d="M365.215 281.08C359.915 274.645 356.319 269.156 351.208 262.152C355.372 264.234 366.54 272.941 370.515 278.43C374.49 283.73 379.222 294.33 380.736 301.333C376.382 296.412 370.515 287.516 365.215 281.08Z" fill="white"/>
<path d="M362.944 239.627C360.673 238.302 353.48 232.813 349.127 226.945C353.48 228.46 360.105 231.11 365.405 235.463C370.705 239.816 373.166 243.223 374.301 245.873C370.137 244.548 366.162 241.52 362.944 239.627Z" fill="white"/>
<path d="M354.235 224.675C349.692 221.835 345.15 218.05 341.175 214.832C345.717 215.778 351.585 217.671 356.885 221.078C361.995 224.485 365.592 227.703 367.295 230.353C362.942 229.028 358.778 227.514 354.235 224.675Z" fill="white"/>
<path d="M490.14 328.777C490.14 328.777 509.257 340.891 516.828 342.216C516.828 342.216 501.497 332.184 496.386 319.692C496.386 319.692 512.854 332.563 523.075 335.591C523.075 335.591 507.743 322.531 503.39 312.121C503.39 312.121 523.832 328.967 531.024 330.291C531.024 330.291 516.071 318.178 511.907 305.496C511.907 305.496 528.753 320.638 537.649 322.72C537.649 322.72 520.614 308.903 517.775 299.06C517.775 299.06 507.364 292.246 503.011 288.082C511.529 290.164 517.207 293.95 522.317 297.925C522.317 297.925 533.296 310.606 548.438 316.663L544.652 319.313C544.652 319.313 552.413 326.506 561.688 329.913L556.199 333.698C556.199 333.698 566.987 338.809 578.534 338.998C568.88 351.491 542.949 349.409 542.949 349.409L545.031 353.762C535.756 353.384 524.778 346.191 524.778 346.191L527.428 353.951C512.286 351.491 493.358 338.241 490.14 328.777Z" fill="white"/>
<path d="M8.04447 263.286C8.04447 263.286 15.6157 261.204 23.1868 261.204C21.1048 257.039 16.9406 250.793 9.55872 249.468C10.1266 251.172 11.2622 255.147 9.93727 257.986C2.93393 245.683 -4.63724 246.061 -4.63724 246.061C-1.60877 250.415 -1.04094 255.147 -1.41949 258.554C-3.69085 254.389 -12.9655 244.736 -23.1866 247.386C-15.994 250.604 -13.7227 254.579 -13.1548 259.689C-18.4546 255.147 -33.597 249.657 -40.2218 257.229C-31.7042 256.282 -26.7829 259.689 -24.8901 262.907C-32.4613 263.096 -33.7863 266.125 -38.1397 268.396C-49.1179 274.075 -59.339 270.289 -63.3139 276.724C-60.664 276.346 -45.1431 277.86 -38.5183 275.21C-42.1146 279.942 -50.0643 279.564 -54.9856 279.753C-59.7176 279.942 -66.5316 280.321 -71.0743 284.106C-64.2603 284.296 -56.4998 285.431 -50.6322 285.431C-55.932 290.92 -75.2385 285.242 -80.5383 290.92C-76.1849 291.299 -71.6422 292.813 -67.6673 293.381C-72.5886 296.977 -83.3775 292.624 -88.1095 297.734C-86.0274 297.924 -82.6204 299.627 -79.7812 300.574C-83.9453 302.656 -90.7594 300.384 -94.545 304.738C-92.8415 304.927 -89.6237 305.873 -87.7309 307.956C-91.5165 308.334 -97.3842 309.091 -99.4662 312.688C-92.4629 314.77 -93.7879 324.991 -101.548 329.533C-96.8163 321.773 -98.1413 316.662 -104.009 316.095C-111.391 315.337 -123.694 318.934 -132.59 324.801C-125.019 312.12 -103.82 313.255 -101.17 308.145C-111.769 308.145 -122.937 311.552 -127.29 315.716C-125.776 308.902 -121.801 303.413 -119.151 299.438C-116.312 295.463 -109.12 286.378 -106.47 278.996C-111.202 275.967 -111.959 272.371 -111.959 272.371C-104.577 270.857 -103.063 266.882 -103.063 266.882C-110.823 265.936 -115.744 264.232 -122.369 259.689C-120.476 265.746 -109.877 272.939 -120.855 289.785C-128.237 301.141 -131.644 308.334 -135.429 318.555C-138.458 326.505 -143.947 330.858 -147.165 333.698C-148.3 334.833 -148.3 336.726 -146.975 337.672C-144.704 339.565 -141.108 341.647 -137.511 343.351C-136.565 340.701 -134.862 336.915 -139.026 331.615C-135.429 331.805 -132.022 335.212 -132.59 340.322C-133.158 344.297 -131.644 346.001 -128.994 346.379C-122.748 347.515 -104.388 342.972 -95.4914 328.966C-89.0559 318.934 -78.8348 311.552 -66.1531 308.334C-59.1497 306.631 -55.3641 307.577 -53.4714 309.848C-51.3893 312.498 -52.7142 316.284 -54.0392 318.934C-57.0677 325.748 -57.8248 331.994 -58.2033 338.43C-58.7712 349.218 -63.6924 366.443 -71.2636 367.2C-67.8566 369.282 -64.071 366.821 -61.6104 362.847C-59.339 359.25 -55.7427 351.301 -54.607 337.862C-54.0392 329.533 -53.0928 325.559 -50.0643 318.555C-47.793 313.445 -47.6037 309.091 -49.4965 306.252C-51.2 303.981 -53.6606 301.709 -59.9068 301.899C-55.7427 299.438 -48.9286 300.763 -46.468 304.17C-43.6288 307.956 -43.6288 313.823 -46.468 320.259C-49.3072 326.505 -49.875 329.723 -50.6322 338.24C-52.3357 357.357 -56.3105 364.55 -61.4211 369.661C-54.2285 369.471 -49.4965 363.604 -47.793 356.411C-45.3323 346.569 -41.9253 333.887 -40.4111 329.533C-38.8968 324.801 -36.4362 321.962 -33.9756 320.069C-28.2972 315.716 -29.8114 311.173 -24.133 306.82C-32.2721 306.063 -33.2184 316.473 -40.6003 317.987C-34.1648 311.173 -34.5434 302.656 -25.8365 298.681C-17.1297 294.706 -8.23355 297.167 -4.82652 299.817C-6.15148 293.192 -15.0476 289.028 -25.8365 290.353C-19.9689 284.674 -3.88012 288.27 5.39457 293.57C3.3125 287.703 -2.55516 282.403 -16.1833 280.51C-7.47643 277.103 5.9624 281.078 14.1014 284.674C11.4515 278.996 1.41969 273.885 -7.28716 272.371C0.473294 269.721 12.0194 270.289 18.8334 272.56C16.7513 267.828 8.04447 263.286 8.04447 263.286ZM-39.8432 306.631C-40.6003 299.438 -36.0576 294.327 -30.3792 294.138C-33.7863 296.977 -37.1933 302.088 -39.8432 306.631Z" fill="white"/>
<path d="M257.703 206.315C267.167 206.693 273.035 218.05 270.196 228.65C268.492 220.321 265.842 212.75 257.703 206.315Z" fill="white"/>
</g>
<defs>
<clipPath id="clip0_211_1982">
<rect width="200" height="200" fill="white"/>
</clipPath>
</defs>
</svg>
