<svg width="200" height="200" viewBox="0 0 200 200" fill="none" xmlns="http://www.w3.org/2000/svg">
<g clip-path="url(#clip0_1443_743)">
<path d="M168.689 131.995L175.125 127.641C175.125 127.641 163.2 126.316 154.115 119.691L161.307 114.392C161.307 114.392 150.14 113.256 140.865 105.685C145.408 105.117 149.004 102.467 149.004 102.467C149.004 102.467 140.297 99.4385 130.644 84.6747L137.458 85.9996C137.458 85.9996 130.833 74.8322 121.37 64.9897L126.669 65.1789C126.669 65.1789 118.72 53.065 107.552 43.4118L112.852 43.7903C112.852 43.7903 107.552 32.6229 91.0848 17.6698L100.549 19.184C100.549 19.184 87.4885 4.6095 65.9107 -9.01863L77.0782 -9.96503C77.0782 -9.96503 67.8035 -18.6719 36.5724 -29.0822L46.2256 -34.7606C46.2256 -34.7606 35.2474 -39.1141 19.7265 -39.8712L25.5941 -43.846C25.5941 -43.846 12.7231 -47.0638 -2.04065 -46.3067L4.20557 -54.8242C4.20557 -54.8242 -15.4795 -50.6601 -19.4543 -49.5244L-17.183 -58.6098C-17.183 -58.6098 -37.2466 -45.3603 -61.6637 -45.3603C-69.4241 -45.3603 -76.9953 -46.4959 -83.8094 -48.7673C-81.538 -50.8494 -80.0238 -53.8778 -80.0238 -53.8778C-80.0238 -53.8778 -95.3554 -57.4742 -102.927 -61.449C-98.0053 -64.2882 -94.409 -68.2631 -94.409 -68.2631C-94.409 -68.2631 -106.901 -69.7773 -119.772 -76.9699C-119.772 -76.9699 -115.608 -79.4306 -112.391 -83.4054C-112.391 -83.4054 -123.369 -84.3518 -133.401 -88.8945C-133.401 -88.8945 -127.344 -92.4909 -126.397 -94.7622C-126.397 -94.7622 -138.511 -95.33 -151.004 -99.8728C-151.004 -99.8728 -146.082 -102.144 -142.865 -104.983C-155.357 -105.74 -167.471 -109.905 -176.935 -114.447C-186.588 -119.179 -220.091 -133.943 -254.539 -135.079L-253.215 -140C-253.215 -140 -268.925 -138.296 -278.389 -135.268L-277.821 -139.811C-277.821 -139.811 -292.017 -136.593 -302.049 -132.997L-302.616 -137.35C-302.616 -137.35 -315.866 -132.618 -325.519 -126.183L-326.466 -129.59C-326.466 -129.59 -338.012 -122.965 -344.069 -117.097L-344.826 -122.397C-344.826 -122.397 -356.183 -115.772 -363.754 -106.876L-364.132 -114.258C-364.132 -114.258 -375.3 -108.201 -381.735 -95.8979L-383.628 -103.091C-383.628 -103.091 -392.335 -97.4121 -396.688 -84.9197L-399.528 -93.6265C-399.528 -93.6265 -408.234 -83.9733 -410.695 -70.913C-412.02 -75.2664 -418.645 -84.1626 -418.645 -84.1626C-418.645 -84.1626 -419.591 -69.3988 -422.62 -61.0705C-423.945 -68.8309 -430.38 -79.9984 -430.38 -79.9984C-430.38 -79.9984 -431.137 -69.2095 -435.68 -60.6919C-436.437 -68.2631 -442.305 -77.9163 -442.305 -77.9163C-442.305 -77.9163 -443.062 -68.6416 -446.469 -62.774C-448.74 -68.4524 -456.122 -75.645 -456.122 -75.645C-456.122 -75.645 -454.986 -65.6132 -457.636 -60.6919C-461.043 -65.4239 -469.561 -69.588 -469.561 -69.588C-469.561 -69.588 -465.775 -55.9599 -476.186 -47.0638C-486.785 -48.1995 -498.71 -49.5244 -505.713 -51.7958C-514.609 -54.635 -523.127 -51.7958 -522.748 -42.8996C-527.102 -43.4675 -531.266 -44.0353 -535.241 -44.7924C-542.812 -46.3067 -545.841 -42.8996 -546.787 -41.3854C-548.869 -38.1676 -548.301 -33.4357 -545.083 -29.2715C-538.837 -21.1325 -526.345 -10.7221 -517.07 0.634644C-518.774 6.69157 -518.395 15.2092 -517.827 21.4554L-524.641 14.452C-524.641 14.452 -525.209 26.5659 -522.37 37.3548L-528.805 33.0014C-528.805 33.0014 -527.859 45.1153 -523.884 53.2543C-523.884 53.2543 -526.913 52.4972 -530.509 50.6044C-529.752 56.4721 -528.238 61.5826 -524.073 68.586C-521.234 73.3179 -520.477 78.4285 -525.398 87.5139C-530.698 96.9779 -534.862 102.467 -540.351 116.852C-542.434 122.72 -546.598 126.316 -549.626 128.777C-554.547 133.13 -553.98 139.755 -549.626 142.973C-544.516 146.569 -535.619 151.49 -529.941 152.437C-523.884 153.572 -515.177 151.49 -507.228 147.137C-500.792 150.733 -488.11 152.247 -479.403 147.326C-483.946 142.405 -488.678 135.969 -490.95 132.562C-486.028 124.613 -480.539 120.449 -473.725 117.231C-471.454 116.095 -468.236 119.313 -470.697 122.531C-473.536 126.505 -474.861 130.291 -475.618 134.455C-475.996 137.294 -475.239 144.108 -474.104 148.651C-473.536 151.112 -474.293 152.626 -475.996 153.383C-479.025 154.33 -483.189 155.276 -491.139 155.465C-488.11 161.333 -483.757 165.876 -476.943 168.715C-475.429 171.554 -471.643 175.529 -464.072 175.529C-452.337 175.529 -445.144 169.093 -442.494 157.926C-440.223 148.273 -436.626 135.78 -435.301 131.427C-434.166 128.02 -432.462 126.316 -430.38 124.234C-429.055 122.909 -427.541 121.395 -426.216 119.502C-425.27 118.177 -424.702 116.852 -424.134 115.717C-422.43 112.499 -419.97 108.524 -414.859 109.092C-416.184 105.495 -418.455 103.413 -420.538 102.278C-412.588 100.953 -403.881 104.36 -401.231 113.256C-400.095 109.281 -398.77 102.656 -399.717 97.9243C-397.445 98.6814 -392.713 101.142 -389.117 106.442C-388.36 102.846 -388.171 95.2743 -390.253 89.7852C-387.792 90.5424 -382.871 92.4352 -379.085 96.5993C-378.518 90.9209 -379.085 84.4854 -383.249 78.6178C-381.167 78.6178 -377.193 79.1856 -372.271 81.0784C-372.65 76.9143 -375.11 71.4252 -378.707 66.8824C-377.003 66.8824 -373.028 67.0717 -368.675 68.0181C-369.432 64.4218 -370.757 60.4469 -372.839 56.8506C-361.482 63.6647 -354.858 71.2359 -354.858 71.2359C-357.129 82.4033 -364.889 108.335 -366.593 114.959C-368.486 121.584 -369.054 125.37 -365.268 132.941C-359.779 143.919 -350.126 148.083 -341.229 145.244C-331.765 142.405 -328.737 140.701 -318.137 135.591C-306.023 129.723 -302.616 121.963 -303.752 115.717C-299.588 104.738 -305.266 93.3816 -305.266 93.3816C-305.266 93.3816 -309.241 99.06 -312.08 100.953C-313.595 97.1672 -317.759 93.5708 -317.759 93.5708C-313.027 85.8104 -308.295 77.1035 -305.645 68.586C-301.291 68.7752 -297.695 67.4503 -297.695 67.4503C-297.695 67.4503 -302.238 63.6647 -304.131 60.6362C-297.506 61.3933 -288.231 61.5826 -281.606 58.1756C-284.635 68.0181 -287.096 80.6998 -288.421 92.2459C-291.449 119.691 -300.345 137.294 -301.67 145.055C-303.563 155.844 -300.534 163.604 -291.07 173.636C-280.092 185.371 -270.25 186.318 -262.489 180.45C-252.079 172.5 -242.993 169.661 -232.394 168.715C-221.037 167.768 -210.059 165.497 -208.923 152.058C-198.323 144.298 -201.73 131.995 -201.73 131.995C-201.73 131.995 -206.273 133.887 -212.898 136.159C-212.141 127.83 -214.98 121.016 -214.98 121.016C-214.98 121.016 -218.198 124.423 -222.173 127.452C-224.065 123.477 -229.744 117.609 -229.744 117.609C-229.744 117.609 -231.637 123.856 -236.558 129.912C-241.668 129.912 -248.672 132.184 -254.35 135.78C-249.429 119.313 -242.615 100.574 -232.394 84.864C-228.797 79.5642 -217.062 62.3397 -214.412 58.1756C-206.084 64.0432 -202.488 64.4218 -193.781 67.261C-185.074 69.9109 -182.992 75.5893 -186.399 92.4352C-188.102 101.331 -191.509 117.799 -191.509 117.799C-191.509 117.799 -185.831 114.959 -184.885 114.392C-190.184 138.241 -186.399 148.84 -186.399 148.84C-186.399 148.84 -181.667 143.351 -181.288 142.973C-180.153 157.926 -173.906 170.608 -173.906 170.608C-173.906 170.608 -169.553 163.983 -168.796 163.226C-159.71 178.936 -142.675 178.368 -142.675 178.368L-144.19 171.175C-132.833 173.825 -121.476 171.365 -121.476 171.365L-123.369 167.201C-119.583 166.633 -115.608 165.497 -111.066 163.604C-110.687 178.557 -120.34 209.031 -123.747 219.631C-130.372 240.262 -126.397 253.701 -119.205 258.433C-115.608 269.033 -107.659 272.061 -101.412 271.304C-98.1946 273.954 -91.1913 276.983 -85.5129 273.197C-81.1595 270.547 -79.0774 265.058 -80.0238 259.758C-76.6168 255.405 -76.4275 248.401 -82.2952 237.802C-88.9199 225.688 -91.1913 220.388 -82.1059 179.693C-74.3454 185.939 -61.6637 192.375 -61.6637 192.375L-62.7993 186.886C-51.2533 192.564 -41.2215 200.135 -40.2751 213.385C-38.0038 244.237 -43.8715 270.926 -47.2785 286.825C-48.4142 291.746 -49.1712 295.532 -49.3605 297.993C-50.6855 310.296 -46.8999 315.217 -42.925 319.76C-41.4108 325.627 -39.1395 333.766 -27.0256 334.334C-22.4828 339.823 -14.5331 341.148 -9.61182 339.066C-4.31201 336.606 -1.85138 332.252 -1.66211 325.06C4.0163 321.653 4.77344 313.514 0.798523 302.346C-5.63696 285.122 -11.126 270.169 -5.06909 232.881C-3.3656 221.902 -1.09424 213.385 0.609253 206.571C5.15198 188.778 7.42328 179.882 -6.58337 165.876C-1.28357 164.551 4.0163 161.522 4.0163 161.522C4.0163 161.522 -12.451 156.79 -23.6185 144.676C-16.8045 147.326 -8.28693 147.515 -8.28693 147.515C-8.28693 147.515 -16.4259 139.376 -21.1579 129.345C-19.6436 130.291 -10.9368 133.698 -10.9368 133.698C-10.9368 133.698 -16.8044 117.988 -19.0758 109.66L-11.8832 115.717C-11.8832 115.717 -13.776 99.0599 -15.8581 92.0566L-11.1261 94.328C-11.1261 94.328 -14.3438 81.0784 -17.183 73.5072L-13.2082 74.2643C-13.2082 74.2643 -16.9937 59.8791 -22.1042 52.1186H-18.1294C-18.1294 52.1186 -20.7793 42.6547 -26.647 35.6513L-23.6185 35.2728C-23.6185 35.2728 -28.3505 24.8624 -37.8145 16.9127L-35.3538 15.5877C-35.3538 15.5877 -44.4393 9.15219 -49.9284 -1.06889C-21.5364 6.69156 -14.1545 31.1086 -14.1545 31.1086L-11.1261 27.323C-4.31201 39.0583 -0.147827 56.4721 -0.147827 56.4721L3.25916 53.2543C6.47693 62.7183 15.5623 81.6462 15.5623 81.6462L18.5908 76.5357C22.9442 89.0281 31.6511 106.442 31.6511 106.442L33.9225 102.088C40.1687 115.338 52.4718 128.777 52.4718 128.777L52.6611 124.045C60.043 134.644 72.3462 146.001 72.3462 146.001L72.1569 139.566C77.4567 144.676 83.3244 149.408 92.2205 154.519L91.8419 147.894C102.82 154.897 116.638 160.576 116.638 160.576L114.745 156.033C122.695 159.44 135.376 162.469 135.376 162.469L133.862 157.926C141.055 160.197 153.547 160.197 153.547 160.197L151.276 155.276C185.725 152.626 193.106 131.616 193.106 131.616C193.106 131.616 181.56 136.159 168.689 131.995Z" fill="#101010"/>
<path d="M47.9284 113.634C39.0322 102.277 35.2466 87.5137 35.2466 87.5137L32.2181 93.7599C25.9719 81.646 20.6721 62.5288 20.6721 62.5288L16.6973 69.5321C11.5867 58.7432 7.04401 43.033 7.04401 43.033L3.25842 46.44C-3.74493 25.43 -9.99115 17.8588 -9.99115 17.8588L-12.2625 20.698C-16.8052 13.1268 -29.4869 -2.96188 -54.0932 -8.07243C-37.4366 -8.82955 -18.698 1.95938 -11.6946 11.6126C-9.99115 9.71983 -9.23407 7.82704 -9.23407 7.82704C-1.47357 15.0197 5.71906 33.3797 5.71906 33.3797L10.2618 27.1336L18.0222 53.6327L22.7542 47.1972L31.8396 79.3747L36.7609 72.182L45.2785 98.6812L47.3605 90.9207C47.3605 90.9207 53.796 106.82 62.3136 118.745L63.6385 114.391C63.6385 114.391 74.2382 129.155 85.4057 141.837C77.8345 138.241 65.7206 125.748 65.7206 125.748V130.48C56.2567 121.016 48.6855 106.252 48.6855 106.252L47.9284 113.634Z" fill="white"/>
<path d="M-4.49982 204.678C-6.20331 211.681 -8.47467 220.388 -10.1782 231.556C-16.4244 270.358 -10.3674 286.636 -3.93195 303.86C-2.79626 307.078 0.232117 317.678 -6.58191 320.895C-5.82483 326.763 -6.96051 331.684 -11.1246 333.388C-14.5317 334.902 -20.3993 333.009 -23.9956 328.277C-34.9738 327.899 -36.1095 320.895 -36.8666 316.542C-40.463 311.999 -43.8699 307.457 -42.9236 298.182C-41.7879 287.961 -31.3775 244.427 -33.6489 212.817C-34.9738 194.646 -51.6304 183.668 -69.612 176.854L-68.6656 181.396C-81.5366 174.015 -92.5148 160.008 -92.5148 160.008L-92.8933 167.011C-104.061 158.494 -107.846 147.326 -107.846 147.326L-110.496 151.68C-118.446 138.43 -118.446 123.098 -118.446 123.098L-123.367 128.02C-124.503 111.931 -122.042 95.2743 -122.042 95.2743L-127.153 98.8706C-127.531 84.4854 -120.907 64.2325 -120.907 64.2325L-126.396 67.0717C-126.964 56.472 -121.664 40.0047 -121.664 40.0047L-126.585 41.5189C-122.421 27.323 -121.664 16.5341 -123.935 9.71999C-128.289 -3.34029 -141.727 -4.2867 -149.299 -4.66525C-137.563 -9.39723 -120.339 -3.90813 -118.446 13.5056C-118.446 13.5056 -114.471 9.90926 -112.957 3.47375C-108.793 15.2091 -118.068 17.4805 -119.771 33.5692C-115.228 28.4587 -109.739 28.6479 -109.739 28.6479C-109.739 28.6479 -120.15 47.3866 -119.392 57.4184C-113.525 48.7116 -106.9 47.7652 -106.9 47.7652C-110.875 53.8221 -117.5 69.7216 -119.392 82.214C-119.203 82.214 -109.929 69.5323 -105.764 67.261C-113.903 84.2961 -119.014 102.088 -117.31 111.742C-117.121 111.742 -112.011 94.5172 -103.682 88.6496C-114.66 112.499 -112.957 130.67 -109.361 137.862C-108.793 118.745 -102.925 113.256 -102.925 113.256C-102.925 113.256 -106.9 144.298 -95.9218 156.412C-98.0039 149.03 -97.2468 139.755 -95.5433 135.212C-92.7041 151.869 -83.2401 164.929 -76.0475 168.904C-76.0475 168.904 -83.6187 156.79 -83.0508 147.894C-76.8046 160.386 -69.8012 169.093 -60.3373 175.34C-60.3373 175.34 -61.8515 170.797 -64.5014 165.497C-57.8766 170.418 -47.0877 178.936 -38.5702 189.535L-39.8951 179.882C-39.8951 179.882 -30.4312 187.643 -28.3491 208.085C-26.4562 226.445 -31.9453 262.03 -35.1631 283.418C-37.4344 298.56 -38.5701 307.835 -29.8633 313.324C-29.8633 313.324 -32.7025 300.453 -28.7276 293.071C-28.7276 293.071 -26.0776 319.76 -13.3959 326.006C-13.3959 326.006 -22.6707 307.457 -20.3993 292.314C-20.3993 292.314 -13.5852 310.674 -7.33899 313.135C-13.5852 295.154 -16.6137 277.929 -16.6137 255.215C-16.6137 237.613 -11.1246 214.142 -13.2067 206.76C-18.3173 220.199 -21.9136 247.455 -22.2921 273.576C-27.0241 266.194 -23.0492 219.631 -18.5065 205.056C-22.4813 203.164 -27.4026 198.621 -27.2134 190.103C-20.0208 202.974 -8.28546 200.514 -7.14978 190.103C-5.6355 177.232 -22.2921 175.34 -27.4026 165.308C-16.2352 173.068 -0.714233 172.879 -0.714233 186.696C-1.2821 191.618 -2.60699 197.107 -4.49982 204.678Z" fill="white"/>
<path d="M-85.8907 257.866C-84.9443 260.326 -83.8086 266.194 -87.9728 268.465C-92.7048 270.737 -97.626 266.762 -99.3296 265.247C-102.926 266.194 -110.876 265.247 -113.904 254.459C-119.961 250.294 -124.125 240.83 -117.879 221.145C-112.011 202.785 -104.629 178.179 -104.819 163.794C-103.683 164.929 -102.547 166.065 -101.412 167.201C-101.222 178.179 -108.415 206.192 -112.768 220.199C-117.122 234.395 -115.986 245.373 -110.118 251.051C-111.633 244.427 -111.822 231.934 -108.604 227.202C-109.929 246.698 -101.033 257.866 -91.7584 262.219C-99.1403 251.43 -104.629 241.02 -102.547 227.959C-100.654 238.559 -94.9761 247.834 -88.5406 249.916C-94.219 240.073 -98.951 229.663 -97.8153 216.413C-96.4904 199.378 -91.5691 175.718 -91.5691 175.718L-87.0264 179.315C-96.3011 221.145 -93.0833 228.149 -86.6478 240.263C-80.4016 252.376 -83.2408 256.541 -85.8907 257.866Z" fill="white"/>
<path d="M-166.712 152.815C-168.416 145.811 -166.334 137.672 -162.548 133.698C-164.062 149.976 -157.627 160.575 -149.298 171.932C-157.816 169.85 -165.009 159.818 -166.712 152.815Z" fill="white"/>
<path d="M-182.046 135.781C-182.046 128.21 -179.963 118.557 -178.071 110.985C-175.989 103.414 -171.257 94.3288 -168.607 91.6788C-168.985 96.9787 -173.339 110.985 -174.096 113.825C-175.989 120.26 -179.206 129.156 -182.046 135.781Z" fill="white"/>
<path d="M-207.977 47.1981C-207.22 50.9837 -205.706 54.58 -203.813 57.7977C-209.302 56.0942 -211.384 51.9301 -207.977 47.1981Z" fill="white"/>
<path d="M-229.743 70.8565C-226.336 57.7962 -230.311 39.4361 -226.715 31.6756C-225.957 35.0827 -222.74 45.8716 -221.225 49.6572C-217.629 41.3289 -225.2 27.7008 -222.361 18.6154C-220.279 22.9688 -216.493 29.4043 -213.086 35.8398C-210.437 26.7543 -219.711 15.5869 -217.818 5.1765C-215.169 9.34065 -211.761 15.5869 -208.165 21.076C-207.597 11.4227 -210.247 -4.28748 -215.547 -13.9407C-218.765 -19.9977 -230.311 -37.4114 -256.999 -38.3578C-246.21 -41.7648 -232.204 -38.9256 -219.333 -28.1367C-206.462 -17.1585 -202.676 -0.501892 -190.941 3.28369C-195.673 6.88 -200.973 5.55505 -205.326 0.633789C-205.326 5.93361 -202.108 10.0978 -196.998 11.8013C-200.973 14.6405 -203.622 19.9403 -204.569 23.3473C-208.733 36.4076 -216.493 53.2535 -229.743 70.8565Z" fill="white"/>
<path d="M-244.697 95.0853C-245.833 90.164 -249.429 69.9111 -241.669 59.6901C-242.426 73.1289 -240.533 86.1892 -244.697 95.0853Z" fill="white"/>
<path d="M-246.398 137.863C-239.963 135.592 -233.338 138.809 -228.795 144.298C-228.984 140.513 -230.688 137.295 -233.338 134.645C-233.338 134.645 -230.688 132.374 -229.174 128.21C-226.713 131.995 -226.713 138.62 -226.713 138.62C-226.713 138.62 -221.981 135.97 -219.331 132.374C-218.385 138.809 -220.088 143.163 -220.088 143.163C-220.088 143.163 -214.599 143.352 -208.732 139.756C-208.921 143.92 -211.76 147.327 -214.599 148.084C-214.031 158.305 -218.953 160.766 -232.959 162.469C-261.351 165.687 -264.948 180.451 -275.358 177.612C-265.894 172.69 -262.298 167.012 -249.237 161.523C-239.016 157.169 -220.278 159.63 -224.252 147.895C-227.659 156.223 -243.748 150.734 -262.108 159.441C-257.755 144.109 -252.834 140.134 -246.398 137.863Z" fill="white"/>
<path d="M-295.234 157.925C-297.505 153.004 -296.937 147.136 -295.423 143.161C-288.231 124.612 -284.634 108.523 -282.741 93.0024C-280.849 79.3743 -278.577 57.6071 -268.356 52.3073C-268.356 52.3073 -268.735 62.1499 -266.274 68.7747C-269.87 67.639 -271.574 61.7713 -271.574 61.7713C-271.574 61.7713 -274.792 69.5318 -271.574 81.8349C-274.224 80.8885 -275.738 78.4279 -275.738 78.4279C-275.738 78.4279 -278.009 88.0812 -275.36 98.4915C-277.631 97.9237 -279.334 95.4631 -279.334 95.4631C-279.334 95.4631 -281.984 108.713 -278.956 118.177C-281.795 117.419 -283.499 114.77 -283.499 114.77C-283.499 114.77 -285.391 126.694 -283.309 136.158C-285.959 135.401 -287.852 132.562 -287.852 132.562C-288.798 136.915 -289.177 144.297 -285.391 151.868C-288.041 151.49 -289.745 149.408 -291.07 148.083C-294.098 156.033 -284.445 167.389 -280.849 174.96C-287.095 171.364 -293.72 161.332 -295.234 157.925Z" fill="white"/>
<path d="M-305.832 46.4418C-301.479 52.3095 -290.879 55.1486 -290.879 55.1486C-295.044 55.7165 -304.886 56.6629 -319.461 48.5238C-317.946 52.8773 -310.943 61.2056 -309.618 62.7198C-318.893 61.5841 -332.899 47.0096 -332.899 47.0096C-332.899 47.0096 -330.439 54.9594 -326.085 62.7198C-332.142 59.1235 -341.606 47.7667 -349.745 38.6813C-359.209 27.8924 -369.809 17.2928 -373.595 6.88239C-366.591 14.2643 -342.931 39.4384 -337.631 40.7634C-342.553 33.3815 -354.856 18.4284 -357.506 8.20734C-343.878 24.6747 -332.521 36.41 -325.707 40.5741C-329.303 34.8957 -338.956 22.0247 -343.121 9.15373C-331.953 22.9711 -317.757 35.8421 -314.35 36.0314C-318.893 31.4887 -327.978 18.9963 -331.953 8.77519C-320.407 20.3212 -310.754 28.0817 -305.454 29.9745C-311.889 22.214 -316.243 17.482 -320.786 8.01807C-312.836 15.4 -304.508 21.4569 -297.883 22.5926C-297.883 22.5926 -307.915 12.9393 -311.511 5.55742C-301.858 13.1286 -293.529 15.9678 -292.015 15.7785C-294.476 13.6964 -299.776 9.15373 -302.993 3.47534C-291.069 10.8572 -284.444 10.8573 -280.09 10.8573C-268.166 10.8573 -258.891 5.93599 -252.077 4.98958C-258.513 14.075 -267.219 18.2392 -271.005 20.3212C-264.002 21.6462 -254.916 19.5641 -254.916 19.5641C-260.027 26.1889 -266.084 29.9745 -277.63 33.3815C-271.573 35.6529 -260.595 35.085 -260.595 35.085C-266.462 40.3849 -275.358 42.4669 -290.501 42.0884C-284.065 46.8204 -272.709 48.3346 -272.709 48.3346C-278.576 50.4167 -290.69 50.2274 -305.832 46.4418Z" fill="white"/>
<path d="M-309.431 115.149C-307.728 121.395 -312.081 126.127 -320.22 130.481C-333.659 137.484 -343.123 141.08 -348.423 139.566C-340.662 137.484 -311.513 124.802 -314.163 117.042C-315.867 121.963 -330.82 128.588 -339.148 129.913C-338.202 127.641 -333.47 118.556 -331.198 115.717C-328.17 111.931 -324.006 110.228 -317.759 114.392C-318.138 111.742 -320.031 109.849 -321.923 108.524C-321.923 108.524 -319.463 105.496 -317.759 101.71C-315.677 105.496 -315.677 110.606 -315.677 110.606C-315.677 110.606 -311.324 108.714 -307.728 104.739C-306.781 110.228 -308.106 113.067 -309.431 115.149Z" fill="white"/>
<path d="M-361.102 116.663C-358.641 107.767 -349.556 76.536 -347.852 64.4221C-346.149 68.5862 -345.013 72.3718 -347.284 81.2679C-349.745 90.1641 -353.531 104.171 -355.991 113.256C-359.398 125.749 -357.884 131.048 -353.72 138.809C-359.966 135.78 -363.562 125.37 -361.102 116.663Z" fill="white"/>
<path d="M-465.964 152.058C-466.91 151.301 -468.614 148.083 -468.992 146.758C-466.531 145.244 -465.017 143.919 -465.017 143.919C-465.017 143.919 -468.424 142.215 -469.938 138.24C-467.478 138.051 -464.26 137.673 -461.799 136.537C-461.799 139.187 -462.178 141.837 -462.746 144.297C-463.314 147.326 -464.26 149.219 -465.964 152.058Z" fill="white"/>
<path d="M-461.23 131.995C-463.691 129.724 -465.016 127.263 -465.584 125.56C-463.88 125.181 -461.609 124.803 -459.527 123.856C-460.284 126.695 -460.852 129.345 -461.23 131.995Z" fill="white"/>
<path d="M-468.236 157.358C-468.425 158.304 -468.615 159.44 -468.993 161.332C-469.372 163.225 -471.075 163.982 -473.536 163.604C-475.996 163.225 -478.268 162.468 -480.161 160.575C-478.079 160.197 -472.779 158.872 -468.236 157.358Z" fill="white"/>
<path d="M-501.17 143.163C-498.709 141.46 -496.438 139.378 -494.356 137.106C-492.652 139.378 -490.57 142.028 -489.056 144.11C-493.599 145.056 -497.952 144.11 -501.17 143.163Z" fill="white"/>
<path d="M-540.539 -32.6769C-542.432 -35.1375 -543.379 -37.0303 -541.864 -38.3553C-540.539 -39.6802 -538.268 -38.7338 -536.375 -37.0303C-525.586 -27.1878 -509.119 -6.93488 -509.119 1.39342C-518.583 -9.58479 -536.754 -27.7556 -540.539 -32.6769Z" fill="white"/>
<path d="M-516.31 -46.1184C-514.039 -48.7683 -508.55 -47.8219 -504.197 -45.5506C-499.654 -43.2792 -482.051 -32.6796 -481.294 -32.301C-473.723 -27.1904 -468.044 -23.0263 -464.069 -17.1586C-460.094 -11.291 -457.823 -5.80186 -456.12 0.633652C-453.659 -6.18041 -457.444 -20.3764 -466.908 -30.5975C-458.391 -28.5154 -449.305 -12.8052 -448.17 -1.06987C-445.709 -8.07321 -447.223 -21.8906 -457.634 -32.6795C-449.873 -30.5975 -441.924 -19.0514 -440.599 -2.96268C-437.192 -9.20889 -439.463 -25.8655 -449.116 -35.708C-441.734 -33.2474 -434.542 -22.837 -433.406 -10.3446C-433.027 -6.55897 -434.163 -2.77339 -436.434 0.255081C-440.22 5.17635 -446.088 9.3405 -452.334 11.8011C-449.305 19.9402 -439.463 21.0758 -430.188 18.6152C-438.706 26.9435 -456.687 24.4829 -461.419 8.20482C-464.448 -2.39482 -465.394 -9.39816 -469.937 -15.0766C-474.29 -20.9442 -478.265 -23.4048 -484.701 -27.9475C-490.568 -32.1117 -498.897 -37.2223 -504.386 -40.2507C-509.118 -42.9006 -513.282 -39.4936 -507.793 -33.0581C-507.604 -37.033 -504.575 -37.2222 -501.357 -34.9509C-498.14 -32.8688 -490.19 -27.1904 -486.404 -24.7298C-486.404 -24.7298 -490.379 -23.5941 -493.408 -23.2156C-492.083 -22.0799 -485.836 -20.1871 -480.158 -19.9978C-484.701 -17.5372 -491.326 -16.0229 -491.326 -16.0229C-485.836 -13.1838 -475.047 -14.3194 -475.047 -14.3194C-479.022 -11.1017 -488.865 -9.01961 -488.865 -9.01961C-483.376 -6.18042 -471.83 -8.07322 -471.83 -8.07322C-474.669 -4.47691 -484.701 -2.39484 -484.701 -2.39484C-480.537 -0.123474 -473.533 -0.502029 -468.991 -2.20555C-470.883 6.31203 -485.647 8.39412 -496.058 -6.55897C-500.032 -12.4266 -511.957 -31.5439 -514.607 -36.2759C-517.257 -40.8186 -517.825 -44.2256 -516.31 -46.1184Z" fill="white"/>
<path d="M-441.356 -60.3136C-437.192 -51.0389 -444.952 -41.9535 -450.441 -43.2785C-447.602 -47.6319 -443.438 -54.6352 -441.356 -60.3136Z" fill="white"/>
<path d="M-428.674 -62.207C-424.321 -50.8502 -435.299 -37.2221 -442.87 -39.4935C-435.867 -46.8754 -431.324 -55.7715 -428.674 -62.207Z" fill="white"/>
<path d="M-407.096 -60.3128C-406.15 -65.6126 -404.257 -74.5088 -401.229 -80.9443C-401.229 -80.9443 -398.579 -72.8053 -401.04 -58.2307C-402.365 -49.9024 -406.907 -41.5742 -412.586 -38.1671C-409.179 -45.7383 -408.421 -52.3631 -407.096 -60.3128Z" fill="white"/>
<path d="M-386.656 -92.301C-386.656 -92.301 -387.981 -75.8337 -389.306 -64.6662C-391.009 -50.8488 -397.255 -33.0565 -405.584 -30.5959C-397.445 -45.1704 -396.309 -61.4484 -394.984 -69.7767C-393.848 -78.105 -390.441 -86.8119 -386.656 -92.301Z" fill="white"/>
<path d="M-369.242 -103.279C-369.242 -103.279 -374.353 -88.7045 -376.245 -80.3762C-378.138 -72.4264 -380.788 -64.4767 -384.006 -58.2305C-385.141 -62.5839 -384.952 -75.2656 -382.681 -81.7011C-380.41 -87.9473 -375.678 -96.8435 -369.242 -103.279Z" fill="white"/>
<path d="M-349.368 -112.932C-349.368 -112.932 -357.507 -97.4107 -361.103 -91.1645C-364.321 -85.2968 -365.835 -83.7826 -370.189 -76.4007C-371.324 -80.5648 -369.999 -90.4074 -366.782 -95.1394C-363.375 -99.8713 -354.668 -108.578 -349.368 -112.932Z" fill="white"/>
<path d="M-234.666 -127.128C-237.694 -125.803 -243.373 -121.071 -253.783 -123.153C-246.401 -128.832 -240.344 -128.075 -234.666 -127.128Z" fill="white"/>
<path d="M-215.736 -122.963C-220.09 -122.585 -227.85 -117.474 -238.071 -121.449C-232.961 -125.235 -223.307 -125.235 -215.736 -122.963Z" fill="white"/>
<path d="M-194.157 -115.582C-198.132 -115.772 -207.785 -112.554 -220.467 -118.232C-213.842 -121.45 -201.16 -118.8 -194.157 -115.582Z" fill="white"/>
<path d="M-179.205 -109.148C-172.769 -106.498 -162.359 -102.523 -158.952 -101.387C-165.198 -101.198 -174.662 -102.712 -181.476 -104.794C-188.29 -106.876 -191.697 -108.201 -198.511 -111.987C-192.454 -112.744 -185.64 -111.987 -179.205 -109.148Z" fill="white"/>
<path d="M112.854 86.1892C106.04 81.268 99.6047 76.9145 92.7907 71.4254C98.6584 72.7504 108.312 76.536 115.315 80.8894C122.318 85.0535 132.35 96.4103 135.757 100.007C129.322 96.9782 121.94 92.814 112.854 86.1892Z" fill="white"/>
<path d="M125.724 78.0493C117.963 76.9137 107.742 71.9924 102.064 68.9639C95.0606 65.1783 86.3537 59.4999 80.8646 52.3073C89.0036 55.5251 97.1426 57.6071 105.282 62.7177C113.988 68.0175 122.506 75.2102 125.724 78.0493Z" fill="white"/>
<path d="M26.9209 -8.82829C20.4854 -10.3425 14.9963 -11.6675 4.96442 -12.4246C12.7249 -16.5888 22.5674 -14.1281 26.9209 -8.82829Z" fill="white"/>
<path d="M38.0889 4.04245C30.5178 1.96037 26.1643 1.20325 16.1325 -0.500259C22.9466 -4.47514 33.7355 -1.44666 38.0889 4.04245Z" fill="white"/>
<path d="M50.392 16.1554C43.3886 13.6947 37.8995 13.1269 28.4355 11.6127C34.1139 7.44852 45.4707 10.0984 50.392 16.1554Z" fill="white"/>
<path d="M63.0722 28.8377C55.6903 26.9449 50.5798 25.6199 41.1158 24.295C46.4156 20.1308 57.2046 22.5915 63.0722 28.8377Z" fill="white"/>
<path d="M52.8497 36.7883C58.7173 34.1384 69.6956 38.1133 73.6705 44.738C67.0457 41.8988 61.178 39.2489 52.8497 36.7883Z" fill="white"/>
<path d="M62.8832 53.4452C70.6436 50.9846 78.7827 54.7702 81.6218 60.4486C76.7006 57.7987 71.2115 55.9059 62.8832 53.4452Z" fill="white"/>
<path d="M90.5165 50.2265C84.4595 46.8195 76.3205 39.6268 71.7778 35.4627C78.5919 36.5984 84.8381 37.9233 92.22 41.8982C99.4126 45.873 107.362 51.93 113.419 57.7977C106.794 56.2834 96.5734 53.6335 90.5165 50.2265Z" fill="white"/>
<path d="M100.927 36.597C100.927 36.597 88.2452 35.4613 78.5919 31.4864C72.3457 29.0258 62.1246 21.4546 60.4211 19.1832C65.1531 19.7511 76.3206 21.8332 81.0526 24.2938C87.2988 27.7008 100.738 36.4077 100.927 36.597Z" fill="white"/>
<path d="M60.6125 12.5586C52.2842 8.77303 45.4701 3.09465 42.8202 1.20184C49.0664 1.76968 60.4232 4.79816 67.8051 8.77303C75.187 12.7479 84.651 19.3727 90.3294 24.8618C82.0011 19.7512 69.5086 16.5335 60.6125 12.5586Z" fill="white"/>
<path d="M48.4963 -2.39333C39.7894 -4.66469 32.029 -10.5324 27.297 -13.7501C33.5432 -13.7501 43.1965 -11.668 51.9033 -8.26099C60.6102 -4.85397 77.8346 4.23146 84.2701 10.667C70.8312 4.79929 59.4745 0.256592 48.4963 -2.39333Z" fill="white"/>
<path d="M29.0028 -18.2916C21.4316 -19.0487 7.80347 -21.1308 7.80347 -21.1308C7.80347 -21.1308 14.0497 -25.1057 27.11 -23.7807C37.5203 -22.645 55.6912 -16.3988 59.666 -14.1274C47.7414 -15.4524 36.574 -17.5345 29.0028 -18.2916Z" fill="white"/>
<path d="M11.9663 -29.0815C1.55591 -27.1887 -0.904724 -26.6208 -6.96167 -25.4852C-4.31177 -29.0815 4.01654 -32.8671 11.2092 -33.8135C18.4018 -34.7599 28.0551 -34.7599 32.787 -33.4349C25.5944 -31.7314 22.3766 -30.9743 11.9663 -29.0815Z" fill="white"/>
<path d="M-6.20325 -34.5701C-11.5031 -33.0559 -17.1815 -31.9202 -22.4813 -31.7309C-18.3171 -34.9487 -12.6387 -38.1664 -7.71747 -39.4914C-2.7962 -40.6271 1.17865 -41.1949 10.0748 -40.6271C10.0748 -40.4378 0.800049 -36.4629 -6.20325 -34.5701Z" fill="white"/>
<path d="M-24.3732 -41.9528C-20.0198 -44.0349 -11.1236 -46.1169 -8.85223 -46.3062C-13.2056 -42.5206 -18.5055 -38.735 -24.1839 -36.0851C-29.8622 -33.4352 -32.7015 -33.0566 -36.8657 -32.1102C-35.1621 -34.7601 -28.7266 -39.8707 -24.3732 -41.9528Z" fill="white"/>
<path d="M-60.7164 -35.3277C-70.1804 -35.3277 -83.2407 -37.7884 -89.4869 -44.981C-83.9978 -42.5204 -71.5054 -39.8704 -61.4735 -39.8704C-47.4669 -39.8704 -34.2173 -44.0346 -25.5104 -47.8202C-29.1068 -41.574 -42.167 -35.3277 -60.7164 -35.3277Z" fill="white"/>
<path d="M-53.7131 11.2358C-57.8773 8.96445 -62.9878 3.47534 -62.9878 3.47534C-62.9878 3.47534 -55.2273 5.36815 -51.631 7.45021C-48.0347 9.53229 -45.0063 14.075 -45.0063 14.075C-45.0063 14.075 -50.6846 12.9393 -53.7131 11.2358Z" fill="white"/>
<path d="M-29.6746 50.9823C-25.1319 56.6607 -23.2391 60.8248 -22.1034 65.5568C-25.889 62.1498 -29.4853 58.7428 -33.4601 54.7679C-37.435 50.793 -41.9778 45.3039 -47.8455 38.1113C-38.9493 41.7076 -34.028 45.1146 -29.6746 50.9823Z" fill="white"/>
<path d="M-32.8923 68.3965C-34.9744 65.9359 -44.2491 55.7148 -48.7918 49.2793C-43.8705 51.5507 -34.2172 57.9862 -28.9174 63.8539C-23.6176 69.7215 -20.7784 78.6176 -19.4534 84.1068C-22.8605 80.889 -28.5389 73.5071 -32.8923 68.3965Z" fill="white"/>
<path d="M-28.7297 121.017C-32.5153 118.557 -39.1401 111.175 -42.3578 106.064C-45.1971 101.711 -49.3612 91.3003 -50.3076 84.6755C-46.522 88.4611 -42.9257 94.1395 -38.7615 100.386C-36.6795 103.603 -29.8654 117.232 -28.7297 121.017Z" fill="white"/>
<path d="M-32.1359 139.376C-35.543 138.43 -39.8963 135.969 -43.6819 133.319C-47.4675 130.669 -51.6317 126.695 -53.3352 123.288C-49.3603 124.423 -45.1961 126.316 -41.2213 129.534C-37.2464 132.751 -33.6501 137.105 -32.1359 139.376Z" fill="white"/>
<path d="M-58.2573 86.9466C-61.2858 80.5111 -66.2071 74.2649 -70.1819 70.1008C-64.5035 70.6686 -56.9324 78.4291 -58.2573 86.9466Z" fill="white"/>
<path d="M-69.8011 54.3907C-62.987 54.9586 -55.6051 62.3405 -55.9836 70.4795C-59.9585 64.2333 -63.3656 60.8263 -69.8011 54.3907Z" fill="white"/>
<path d="M-55.2266 54.3907C-59.3907 50.9837 -63.3656 47.5766 -69.8011 42.8446C-63.9334 42.6553 -56.3622 47.9552 -55.2266 54.3907Z" fill="white"/>
<path d="M-57.4994 40.9512C-60.3386 37.7335 -62.4207 36.03 -67.5312 31.298C-61.8528 31.4873 -57.3102 36.03 -57.4994 40.9512Z" fill="white"/>
<path d="M-69.8011 85.4314C-66.2048 87.5135 -61.2835 93.949 -60.9049 98.3024C-65.2584 95.8418 -68.8547 90.3527 -69.8011 85.4314Z" fill="white"/>
<path d="M-65.8271 105.305C-62.2308 107.388 -60.1487 110.795 -59.9594 114.391C-63.9343 112.877 -65.4486 109.848 -65.8271 105.305Z" fill="white"/>
<path d="M-182.992 104.55C-181.667 98.4932 -180.342 93.572 -179.774 86.5686C-179.206 80.1331 -179.774 75.4011 -180.72 71.8048C-176.556 73.6976 -174.285 81.6474 -174.853 87.1365C-175.421 92.8149 -177.881 99.0611 -182.992 104.55Z" fill="white"/>
<path d="M-261.92 -43.2779C-254.538 -47.0635 -241.099 -48.1992 -233.339 -46.685C-225.578 -45.36 -218.575 -41.7637 -214.032 -36.4639C-214.032 -36.4639 -220.846 -37.7888 -233.907 -41.5744C-241.288 -43.6565 -248.292 -44.2243 -261.92 -43.2779Z" fill="white"/>
<path d="M-235.044 -19.0498C-238.641 -26.0531 -244.13 -29.4601 -258.515 -30.4065C-254.54 -32.2993 -248.673 -33.0564 -242.616 -31.1636C-237.694 -29.8387 -234.098 -25.6746 -235.044 -19.0498Z" fill="white"/>
<path d="M-227.092 15.5871C-228.985 7.82661 -231.635 2.71606 -237.314 -3.53015C-231.257 -4.09799 -222.739 6.31238 -227.092 15.5871Z" fill="white"/>
<path d="M-239.964 10.2886C-233.15 11.0458 -228.229 21.8347 -232.393 29.9737C-233.907 20.699 -236.746 15.0206 -239.964 10.2886Z" fill="white"/>
<path d="M-239.776 44.9269C-239.776 36.7879 -242.236 27.8917 -244.508 24.4847C-237.883 25.4311 -234.665 37.9235 -239.776 44.9269Z" fill="white"/>
<path d="M-257.376 126.506C-260.594 119.502 -264.001 108.145 -261.54 98.4921C-257.565 104.171 -254.348 117.988 -257.376 126.506Z" fill="white"/>
<path d="M-325.329 -51.4155C-330.818 -55.3904 -330.25 -62.7723 -326.843 -65.6115C-326.465 -60.8795 -325.897 -55.5797 -325.329 -51.4155Z" fill="white"/>
<path d="M-371.513 -21.1317C-367.728 -24.1602 -363.753 -27.1887 -360.156 -31.3528C-359.399 -26.2423 -365.078 -19.8067 -371.513 -21.1317Z" fill="white"/>
<path d="M-372.648 -39.4911C-369.241 -43.6553 -367.348 -46.873 -365.077 -52.3621C-362.616 -46.3052 -367.538 -39.3018 -372.648 -39.4911Z" fill="white"/>
<path d="M-340.471 63.2865C-347.663 56.0939 -359.966 40.573 -363.941 35.6517C-370.566 27.5127 -384.762 14.8309 -393.469 8.96327C-383.248 10.2882 -365.834 25.052 -359.399 32.8125C-351.07 43.0336 -342.174 55.1475 -340.471 63.2865Z" fill="white"/>
<path d="M-328.546 100.197C-334.225 107.957 -339.335 117.611 -342.931 125.182C-344.635 118.557 -339.903 110.797 -339.903 110.797L-344.256 110.607C-340.282 105.307 -334.792 101.9 -328.546 100.197Z" fill="white"/>
<path d="M-511.58 97.9245C-507.416 91.2997 -496.438 93.3818 -489.245 94.1389C-493.22 98.6816 -504.766 95.2745 -511.58 97.9245Z" fill="white"/>
<path d="M-520.286 107.767C-515.554 100.385 -505.522 100.196 -495.68 100.953C-498.519 105.306 -507.605 102.846 -520.286 107.767Z" fill="white"/>
<path d="M-416.371 -35.3267C-417.128 -27.7556 -425.646 -23.7807 -431.513 -27.377C-425.835 -29.2698 -420.157 -32.2983 -416.371 -35.3267Z" fill="white"/>
<path d="M-402.175 34.3259C-395.929 29.2153 -382.869 30.5403 -377.001 39.2471C-385.708 36.2187 -394.415 34.7044 -402.175 34.3259Z" fill="white"/>
<path d="M-413.532 24.1066C-406.529 18.9961 -395.929 22.4031 -390.818 27.7029C-398.579 25.9994 -406.718 24.8637 -413.532 24.1066Z" fill="white"/>
<path d="M-423.942 1.01421C-416.939 -2.77138 -408.8 -1.06787 -404.636 4.42123C-410.125 2.907 -414.668 1.77133 -423.942 1.01421Z" fill="white"/>
<path d="M-425.835 -19.0488C-418.264 -20.563 -414.1 -21.3201 -408.043 -23.9701C-410.125 -16.7774 -420.914 -15.4525 -425.835 -19.0488Z" fill="white"/>
<path d="M-480.915 71.0472C-471.83 70.4794 -468.801 66.126 -467.287 63.2868C-466.719 70.1008 -472.776 75.0221 -480.348 75.0221C-486.972 75.0221 -492.651 74.0757 -495.868 74.4543C-492.651 70.6687 -486.972 71.4258 -480.915 71.0472Z" fill="white"/>
<path d="M-497.952 20.3196C-502.873 15.5876 -507.226 10.2878 -505.902 2.90588C-502.684 9.53067 -499.655 12.1806 -494.545 16.9126C-488.866 22.2124 -486.216 27.5122 -487.352 31.8657C-490.381 26.3766 -493.22 25.0516 -497.952 20.3196Z" fill="white"/>
<path d="M-491.708 13.1275C-497.765 8.39552 -502.875 3.66354 -501.55 -4.66475C-497.954 2.90643 -493.979 5.93489 -490.951 8.39552C-484.704 13.1275 -480.351 18.2381 -481.487 25.2414C-484.137 19.9416 -486.408 17.4809 -491.708 13.1275Z" fill="white"/>
<path d="M-504.386 89.4072C-500.222 83.1609 -482.998 87.3251 -481.862 87.5144C-485.837 91.3 -496.626 88.0822 -504.386 89.4072Z" fill="white"/>
<path d="M-482.053 83.349C-487.164 83.349 -493.41 81.0777 -500.035 82.0241C-496.628 76.7242 -488.3 78.9956 -481.864 78.9956C-475.618 78.9956 -472.779 77.4813 -468.615 75.0207C-469.94 79.1848 -475.618 83.349 -482.053 83.349Z" fill="white"/>
<path d="M-386.087 44.7366C-378.705 41.1403 -369.43 45.683 -365.077 54.9577C-369.809 51.74 -377.19 47.3865 -386.087 44.7366Z" fill="white"/>
<path d="M-354.669 62.5286C-360.347 52.1183 -372.083 39.2473 -378.897 32.2439C-388.739 22.0228 -402.935 15.7766 -412.778 13.8838C-399.718 12.1803 -387.036 18.4265 -375.679 28.6476C-366.972 36.7866 -353.723 53.0647 -354.669 62.5286Z" fill="white"/>
<path d="M-397.066 -15.4525C-392.902 -16.9667 -382.113 -24.1594 -378.327 -28.7021C-378.327 -20.563 -389.873 -13.5597 -397.066 -15.4525Z" fill="white"/>
<path d="M-394.038 -7.50414C-386.656 -7.50414 -381.167 -8.45055 -375.868 -9.96479C-378.328 -4.47568 -388.928 -3.34 -394.038 -7.50414Z" fill="white"/>
<path d="M-404.069 -9.58692C-410.315 -6.93701 -417.887 -6.937 -423.565 -9.39763C-417.887 -11.4797 -409.937 -11.669 -404.069 -9.58692Z" fill="white"/>
<path d="M-384.194 -48.7669C-380.787 -37.4101 -391.765 -22.6463 -401.229 -22.6463C-395.551 -28.1354 -388.547 -36.8423 -384.194 -48.7669Z" fill="white"/>
<path d="M-373.596 -68.2622C-369.621 -64.4766 -371.135 -54.8234 -376.057 -52.552C-374.732 -58.0411 -373.975 -63.1517 -373.596 -68.2622Z" fill="white"/>
<path d="M-356.183 -81.7002C-359.022 -75.8325 -361.861 -69.397 -363.754 -64.4758C-365.836 -71.4791 -360.915 -79.8074 -356.183 -81.7002Z" fill="white"/>
<path d="M-280.66 -128.452C-275.36 -130.156 -270.06 -131.859 -263.625 -132.806C-268.546 -129.777 -274.603 -125.234 -279.335 -123.531C-284.067 -121.827 -292.774 -121.449 -292.774 -121.449C-292.774 -121.449 -286.717 -126.37 -280.66 -128.452Z" fill="white"/>
<path d="M-241.666 -51.0381C-251.13 -51.0381 -263.244 -48.7667 -271.572 -46.6847C-268.733 -49.9024 -254.537 -55.013 -241.855 -55.3915C-231.634 -55.7701 -223.685 -53.4987 -219.331 -49.5238C-227.849 -49.3346 -233.148 -51.0381 -241.666 -51.0381Z" fill="white"/>
<path d="M-266.842 -6.17818C-273.846 -2.20331 -284.635 -0.310516 -288.988 -5.61034C-278.767 -5.9889 -275.549 -7.50314 -269.871 -10.5316C-264.95 -12.9922 -254.918 -18.6706 -248.104 -15.0743C-252.268 -13.9386 -259.082 -10.5316 -266.842 -6.17818Z" fill="white"/>
<path d="M-294.665 -76.4017C-289.555 -80.7552 -282.551 -82.8372 -278.955 -82.648C-283.876 -78.2945 -286.905 -77.1589 -291.826 -73.7518C-296.369 -70.5341 -298.829 -68.2627 -304.508 -62.7736C-303.183 -66.7485 -299.776 -72.0483 -294.665 -76.4017Z" fill="white"/>
<path d="M-304.318 -73.7516C-306.211 -71.1017 -308.861 -67.1269 -311.132 -62.0163C-311.132 -65.8019 -309.429 -72.616 -307.347 -75.8337C-304.886 -79.9979 -301.668 -81.8907 -297.504 -83.2156C-299.208 -79.8086 -301.29 -78.1051 -304.318 -73.7516Z" fill="white"/>
<path d="M-281.604 -73.374C-273.844 -77.5382 -266.272 -79.0524 -262.298 -79.2417C-266.84 -74.8882 -275.736 -71.4812 -280.279 -69.5884C-285.011 -67.5063 -289.743 -65.235 -297.125 -59.9352C-294.664 -64.6672 -289.365 -69.2099 -281.604 -73.374Z" fill="white"/>
<path d="M-270.059 -67.5052C-262.487 -70.3444 -246.02 -73.5621 -240.72 -72.0479C-248.859 -67.6945 -261.541 -65.8017 -269.491 -63.1517C-277.441 -60.6911 -280.28 -59.3662 -291.258 -54.8234C-286.905 -59.1769 -277.63 -64.666 -270.059 -67.5052Z" fill="white"/>
<path d="M-254.348 -62.963C-239.395 -65.8022 -230.12 -63.7201 -225.577 -61.0702C-235.609 -59.3667 -244.884 -59.9346 -253.969 -58.231C-263.244 -56.5275 -270.058 -54.4454 -281.983 -49.9027C-277.818 -54.824 -262.676 -61.2595 -254.348 -62.963Z" fill="white"/>
<path d="M-315.488 -77.159C-315.678 -73.9412 -316.246 -71.4806 -317.003 -67.3164C-317.381 -65.0451 -318.138 -61.4488 -318.706 -57.6632C-320.41 -60.6916 -320.978 -65.9915 -320.599 -68.6414C-320.031 -72.427 -318.328 -74.8876 -315.488 -77.159Z" fill="white"/>
<path d="M-247.158 -23.4035C-250.944 -22.4571 -257.001 -21.3214 -266.465 -17.5359C-272.143 -15.4538 -274.604 -14.1288 -281.228 -11.4789C-278.011 -15.8323 -274.414 -20.1858 -266.654 -22.8357C-259.272 -25.4856 -249.24 -24.3499 -247.158 -23.4035Z" fill="white"/>
<path d="M-269.68 -0.500443C-260.784 -4.47531 -255.674 -8.45018 -249.806 -5.98955C-255.863 -3.7182 -261.352 1.39235 -267.409 4.23154C-274.98 7.82785 -288.987 7.82785 -295.044 0.635239C-282.362 4.04227 -272.898 1.01379 -269.68 -0.500443Z" fill="white"/>
<path d="M-273.468 140.322C-270.44 144.486 -267.222 154.14 -269.683 160.197C-273.468 155.465 -275.74 148.083 -273.468 140.322Z" fill="white"/>
<path d="M-263.247 143.161C-266.654 138.997 -270.061 129.912 -268.736 119.501C-263.815 124.233 -261.354 134.833 -263.247 143.161Z" fill="white"/>
<path d="M-247.158 43.2241C-242.994 46.0633 -243.562 57.2308 -249.051 59.5021C-247.726 53.4452 -246.969 49.2811 -247.158 43.2241Z" fill="white"/>
<path d="M-223.875 0.635376C-225.2 -3.90732 -227.661 -10.3428 -230.5 -15.2641C-225.768 -14.6963 -220.847 -6.74651 -223.875 0.635376Z" fill="white"/>
<path d="M-195.672 17.86C-193.211 31.8667 -188.101 45.1162 -182.044 49.0911C-185.072 40.0057 -186.208 28.8382 -184.504 18.9957C-180.34 33.3809 -177.123 46.0627 -168.037 53.066C-168.037 53.066 -175.23 34.8952 -171.255 22.2134C-167.848 37.5451 -164.63 44.7377 -160.087 50.9839C-155.355 57.4194 -146.459 64.612 -143.809 72.1832C-148.541 68.5869 -155.166 64.2335 -160.277 62.53C-160.277 62.53 -158.005 67.8298 -158.195 71.2368C-163.873 65.937 -172.769 62.7192 -172.769 62.7192C-172.769 62.7192 -170.687 66.6941 -171.255 70.8582C-178.069 63.0978 -187.533 64.612 -193.779 48.334C-196.808 39.8164 -198.133 28.0811 -195.672 17.86Z" fill="white"/>
<path d="M-159.518 25.4314C-154.408 41.3308 -148.729 45.6843 -145.511 48.902C-138.13 55.7161 -135.101 62.5302 -132.83 68.7764C-138.697 66.3158 -145.133 61.2052 -150.811 55.1482C-157.815 47.7663 -161.979 34.7061 -159.518 25.4314Z" fill="white"/>
<path d="M-136.617 46.6312C-139.646 45.1169 -143.242 42.0885 -144.567 39.2493C-146.649 34.7066 -146.649 29.2175 -146.27 27.1354C-144.378 29.9746 -142.674 32.4352 -140.592 36.5994C-139.456 39.06 -137.753 43.2242 -136.617 46.6312Z" fill="white"/>
<path d="M-159.142 -96.8427C-153.085 -95.7071 -145.514 -92.1107 -140.403 -90.7858C-144.567 -90.0287 -153.653 -90.5965 -159.52 -92.1107C-165.388 -93.625 -169.741 -94.7607 -175.609 -98.1677C-172.581 -98.5462 -165.199 -97.9784 -159.142 -96.8427Z" fill="white"/>
<path d="M-110.877 -52.7427C-119.016 -55.9605 -126.019 -61.2603 -126.019 -61.2603C-126.019 -61.2603 -115.42 -61.071 -110.688 -59.3675C-105.767 -57.664 -98.5739 -52.932 -89.6778 -50.4714C-96.3026 -48.2 -106.334 -51.0392 -110.877 -52.7427Z" fill="white"/>
<path d="M-126.963 -67.3151C-133.21 -69.2079 -138.131 -71.4792 -143.62 -75.0755C-138.888 -74.8862 -131.885 -74.697 -126.774 -73.372C-121.663 -72.047 -116.932 -68.4507 -107.846 -65.4223C-111.632 -64.2866 -120.717 -65.4223 -126.963 -67.3151Z" fill="white"/>
<path d="M-140.594 -79.8082C-147.029 -80.5654 -153.086 -83.2153 -159.143 -85.8652C-155.168 -86.0545 -150.058 -86.0545 -143.622 -85.2974C-137.187 -84.5402 -130.183 -81.701 -125.073 -79.9975C-128.858 -79.0511 -135.294 -79.2404 -140.594 -79.8082Z" fill="white"/>
<path d="M-270.437 -123.533C-265.516 -126.751 -261.92 -129.59 -251.888 -129.212C-257.945 -123.912 -261.541 -122.397 -270.437 -123.533Z" fill="white"/>
<path d="M-284.255 -132.617C-293.151 -126.749 -297.315 -122.585 -301.479 -120.125C-305.643 -117.853 -313.025 -115.582 -313.025 -115.582C-313.025 -115.582 -309.051 -122.396 -304.129 -125.614C-300.344 -128.264 -288.04 -131.86 -284.255 -132.617Z" fill="white"/>
<path d="M-325.14 -119.178C-321.354 -122.585 -317.19 -124.668 -308.294 -128.832C-312.458 -124.1 -316.244 -118.8 -320.029 -115.014C-324.572 -110.472 -331.764 -104.983 -331.764 -104.983C-331.764 -104.983 -329.872 -114.825 -325.14 -119.178Z" fill="white"/>
<path d="M-329.873 -121.072C-329.873 -120.882 -336.119 -108.201 -340.283 -102.522C-344.447 -96.844 -349.558 -93.8155 -353.343 -90.0299C-352.586 -95.7083 -350.504 -102.333 -346.718 -107.065C-342.933 -111.608 -336.876 -116.529 -329.873 -121.072Z" fill="white"/>
<path d="M-418.832 -42.8993C-423.753 -37.5995 -431.703 -34.1925 -437.192 -34.3817C-434.353 -36.4638 -427.917 -40.8172 -423.564 -46.6849C-419.21 -52.5526 -416.75 -59.9345 -415.614 -67.6949C-411.829 -60.313 -412.775 -49.3348 -418.832 -42.8993Z" fill="white"/>
<path d="M-459.34 -45.3592C-456.122 -49.3341 -452.904 -55.5803 -451.579 -60.6909C-447.983 -55.5803 -451.39 -45.1699 -459.34 -45.3592Z" fill="white"/>
<path d="M-469.369 -46.4944C-466.53 -50.28 -464.259 -54.4441 -463.502 -58.9868C-459.905 -55.5798 -462.745 -45.7373 -469.369 -46.4944Z" fill="white"/>
<path d="M-509.307 38.4909C-509.307 38.4909 -513.661 16.5345 -512.714 8.96327C-506.279 21.0772 -492.651 26.9448 -493.786 36.9766C-493.786 36.9766 -498.14 34.7053 -503.25 29.0269C-503.25 29.0269 -502.115 37.923 -497.761 44.1693C-490.758 42.655 -484.512 43.2229 -479.022 47.387C-482.051 49.2798 -498.708 44.3585 -503.061 55.1475C-512.146 50.0369 -518.582 39.4373 -518.582 29.0269L-509.307 38.4909Z" fill="white"/>
<path d="M-504.008 60.827C-514.04 61.3948 -519.151 54.77 -521.233 45.1168C-516.501 50.7952 -510.065 56.6628 -504.008 60.827Z" fill="white"/>
<path d="M-338.012 96.0316C-331.009 89.7854 -323.627 89.4068 -320.22 87.1355C-322.87 93.0031 -331.009 97.1673 -338.012 96.0316Z" fill="white"/>
<path d="M-328.548 82.7826C-325.709 78.4292 -317.381 75.9685 -313.027 72.7508C-314.542 79.7541 -323.059 83.1612 -328.548 82.7826Z" fill="white"/>
<path d="M-251.698 110.796C-253.969 103.414 -256.051 87.5145 -252.076 77.1041C-249.426 87.1359 -247.723 101.9 -251.698 110.796Z" fill="white"/>
<path d="M-238.26 83.5397C-237.692 72.9401 -239.206 57.6085 -232.96 44.9267C-231.824 54.58 -231.446 73.8865 -238.26 83.5397Z" fill="white"/>
<path d="M-202.299 33.9487C-200.785 43.9805 -197.188 54.7695 -190.185 62.3406C-196.999 60.8264 -201.163 55.5266 -202.867 50.6053C-204.002 46.6304 -205.517 40.3842 -202.299 33.9487Z" fill="white"/>
<path d="M-175.609 133.509C-174.852 124.992 -171.256 117.61 -166.903 112.121C-167.47 121.774 -169.552 129.345 -170.31 135.592C-171.635 145.434 -171.067 151.87 -172.013 158.494C-174.852 149.977 -176.177 139.756 -175.609 133.509Z" fill="white"/>
<path d="M-148.731 163.037C-154.22 159.062 -155.545 152.059 -153.842 147.138C-151.76 151.68 -147.785 156.791 -143.999 159.63C-139.457 163.037 -136.239 164.362 -129.046 167.012C-134.157 167.958 -143.81 166.444 -148.731 163.037Z" fill="white"/>
<path d="M-130.939 161.713C-136.617 160.388 -140.214 157.17 -141.539 152.06C-132.264 158.117 -123.746 159.063 -114.85 159.063C-117.122 160.767 -123.936 163.417 -130.939 161.713Z" fill="white"/>
<path d="M-10.746 160.387C-13.9637 160.955 -19.8314 160.955 -24.942 160.009C-30.0525 159.062 -34.2167 157.548 -37.6237 154.709C-37.6237 154.709 -30.0525 153.952 -25.1312 154.898C-20.21 156.034 -15.8565 158.305 -10.746 160.387Z" fill="white"/>
<path d="M-50.3076 136.537C-46.522 137.673 -42.3578 139.187 -37.4366 141.647C-34.7867 143.162 -25.512 149.029 -23.6192 151.49C-27.9726 150.544 -33.4617 149.219 -36.8688 147.515C-41.6008 145.244 -45.5756 141.458 -50.3076 136.537Z" fill="white"/>
<path d="M-43.6812 121.395C-49.7382 114.959 -53.5238 104.17 -53.5238 99.6275C-49.1703 103.981 -45.574 108.902 -40.0849 115.338C-34.5958 121.773 -22.8605 135.78 -21.157 138.43C-28.5389 135.591 -37.8135 127.83 -43.6812 121.395Z" fill="white"/>
<path d="M-36.1107 97.5466C-40.6534 89.5968 -46.8996 79.3757 -48.6031 73.3188C-43.3033 77.483 -33.8393 88.8397 -31.5679 92.8146C-26.836 100.575 -22.104 114.014 -20.7791 121.585C-24.5646 118.367 -31.5679 105.875 -36.1107 97.5466Z" fill="white"/>
<path d="M-34.7851 81.0801C-40.0849 74.6446 -43.6812 69.1555 -48.7918 62.1522C-44.6276 64.2343 -33.4601 72.9411 -29.4852 78.4302C-25.5104 83.73 -20.7784 94.3297 -19.2642 101.333C-23.6176 96.4118 -29.4853 87.5156 -34.7851 81.0801Z" fill="white"/>
<path d="M-37.0556 39.6271C-39.327 38.3021 -46.5196 32.813 -50.873 26.9454C-46.5196 28.4596 -39.8948 31.1095 -34.595 35.4629C-29.2952 39.8164 -26.8345 43.2234 -25.6989 45.8733C-29.863 44.5484 -33.8378 41.5199 -37.0556 39.6271Z" fill="white"/>
<path d="M-45.765 24.6746C-50.3077 21.8354 -54.8504 18.0498 -58.8253 14.832C-54.2825 15.7784 -48.4149 17.6712 -43.1151 21.0783C-38.0045 24.4853 -34.4082 27.703 -32.7047 30.353C-37.0581 29.028 -41.2223 27.5138 -45.765 24.6746Z" fill="white"/>
<path d="M90.14 128.777C90.14 128.777 109.257 140.891 116.828 142.216C116.828 142.216 101.497 132.184 96.3862 119.692C96.3862 119.692 112.854 132.563 123.075 135.591C123.075 135.591 107.743 122.531 103.39 112.121C103.39 112.121 123.832 128.967 131.024 130.291C131.024 130.291 116.071 118.178 111.907 105.496C111.907 105.496 128.753 120.638 137.649 122.72C137.649 122.72 120.614 108.903 117.775 99.0604C117.775 99.0604 107.364 92.2463 103.011 88.0822C111.529 90.1642 117.207 93.9498 122.318 97.9247C122.318 97.9247 133.296 110.606 148.438 116.663L144.652 119.313C144.652 119.313 152.413 126.506 161.688 129.913L156.198 133.698C156.198 133.698 166.987 138.809 178.534 138.998C168.88 151.491 142.949 149.409 142.949 149.409L145.031 153.762C135.756 153.384 124.778 146.191 124.778 146.191L127.428 153.951C112.286 151.491 93.3577 138.241 90.14 128.777Z" fill="white"/>
<path d="M-391.956 63.2856C-391.956 63.2856 -384.384 61.2035 -376.813 61.2035C-378.895 57.0394 -383.059 50.7931 -390.441 49.4682C-389.873 51.1717 -388.738 55.1466 -390.063 57.9857C-397.066 45.6826 -404.637 46.0612 -404.637 46.0612C-401.609 50.4146 -401.041 55.1466 -401.419 58.5536C-403.691 54.3894 -412.966 44.7362 -423.187 47.3861C-415.994 50.6039 -413.723 54.5787 -413.155 59.6893C-418.455 55.1466 -433.597 49.6575 -440.222 57.2286C-431.704 56.2822 -426.783 59.6893 -424.89 62.907C-432.461 63.0963 -433.786 66.1248 -438.14 68.3961C-449.118 74.0745 -459.339 70.2889 -463.314 76.7244C-460.664 76.3459 -445.143 77.8601 -438.518 75.2102C-442.115 79.9422 -450.064 79.5636 -454.986 79.7529C-459.718 79.9422 -466.532 80.3207 -471.074 84.1063C-464.26 84.2956 -456.5 85.4313 -450.632 85.4313C-455.932 90.9204 -475.238 85.242 -480.538 90.9204C-476.185 91.2989 -471.642 92.8132 -467.667 93.381C-472.589 96.9773 -483.377 92.6239 -488.109 97.7344C-486.027 97.9237 -482.62 99.6272 -479.781 100.574C-483.945 102.656 -490.759 100.384 -494.545 104.738C-492.841 104.927 -489.624 105.873 -487.731 107.956C-491.517 108.334 -497.384 109.091 -499.466 112.688C-492.463 114.77 -493.788 124.991 -501.548 129.533C-496.816 121.773 -498.141 116.662 -504.009 116.095C-511.391 115.337 -523.694 118.934 -532.59 124.801C-525.019 112.12 -503.82 113.255 -501.17 108.145C-511.769 108.145 -522.937 111.552 -527.29 115.716C-525.776 108.902 -521.801 103.413 -519.151 99.438C-516.312 95.4631 -509.12 86.3777 -506.47 78.9958C-511.202 75.9673 -511.959 72.371 -511.959 72.371C-504.577 70.8568 -503.063 66.8819 -503.063 66.8819C-510.823 65.9355 -515.744 64.232 -522.369 59.6893C-520.476 65.7462 -509.877 72.9388 -520.855 89.7847C-528.237 101.141 -531.644 108.334 -535.429 118.555C-538.458 126.505 -543.947 130.858 -547.165 133.698C-548.3 134.833 -548.3 136.726 -546.975 137.672C-544.704 139.565 -541.108 141.647 -537.511 143.351C-536.565 140.701 -534.862 136.915 -539.026 131.615C-535.429 131.805 -532.022 135.212 -532.59 140.322C-533.158 144.297 -531.644 146.001 -528.994 146.379C-522.748 147.515 -504.388 142.972 -495.491 128.966C-489.056 118.934 -478.835 111.552 -466.153 108.334C-459.15 106.631 -455.364 107.577 -453.471 109.848C-451.389 112.498 -452.714 116.284 -454.039 118.934C-457.068 125.748 -457.825 131.994 -458.203 138.43C-458.771 149.218 -463.692 166.443 -471.264 167.2C-467.857 169.282 -464.071 166.821 -461.61 162.847C-459.339 159.25 -455.743 151.301 -454.607 137.862C-454.039 129.533 -453.093 125.559 -450.064 118.555C-447.793 113.445 -447.604 109.091 -449.496 106.252C-451.2 103.981 -453.661 101.709 -459.907 101.899C-455.743 99.438 -448.929 100.763 -446.468 104.17C-443.629 107.956 -443.629 113.823 -446.468 120.259C-449.307 126.505 -449.875 129.723 -450.632 138.24C-452.336 157.357 -456.311 164.55 -461.421 169.661C-454.228 169.471 -449.496 163.604 -447.793 156.411C-445.332 146.569 -441.925 133.887 -440.411 129.533C-438.897 124.801 -436.436 121.962 -433.976 120.069C-428.297 115.716 -429.811 111.173 -424.133 106.82C-432.272 106.063 -433.218 116.473 -440.6 117.987C-434.165 111.173 -434.543 102.656 -425.837 98.6808C-417.13 94.706 -408.234 97.1666 -404.827 99.8165C-406.151 93.1917 -415.048 89.0276 -425.837 90.3525C-419.969 84.6741 -403.88 88.2705 -394.605 93.5703C-396.688 87.7026 -402.555 82.4028 -416.183 80.51C-407.476 77.103 -394.038 81.0779 -385.899 84.6742C-388.548 78.9958 -398.58 73.8852 -407.287 72.371C-399.527 69.7211 -387.981 70.2889 -381.167 72.5603C-383.249 67.8283 -391.956 63.2856 -391.956 63.2856ZM-439.843 106.631C-440.6 99.438 -436.058 94.3274 -430.379 94.1381C-433.786 96.9773 -437.193 102.088 -439.843 106.631Z" fill="white"/>
<path d="M-142.297 6.3147C-132.833 6.69325 -126.965 18.05 -129.804 28.6497C-131.508 20.3214 -134.158 12.7502 -142.297 6.3147Z" fill="white"/>
</g>
<defs>
<clipPath id="clip0_1443_743">
<rect width="200" height="200" fill="white"/>
</clipPath>
</defs>
</svg>
