<svg width="200" height="200" viewBox="0 0 200 200" fill="none" xmlns="http://www.w3.org/2000/svg">
<g clip-path="url(#clip0_211_1957)">
<path d="M368.689 -68.0054L375.125 -72.3589C375.125 -72.3589 363.2 -73.6838 354.115 -80.3086L361.307 -85.6084C361.307 -85.6084 350.14 -86.7441 340.865 -94.3153C345.408 -94.8831 349.004 -97.5331 349.004 -97.5331C349.004 -97.5331 340.297 -100.562 330.644 -115.325L337.458 -114C337.458 -114 330.833 -125.168 321.37 -135.01L326.669 -134.821C326.669 -134.821 318.72 -146.935 307.552 -156.588L312.852 -156.21C312.852 -156.21 307.552 -167.377 291.085 -182.33L300.549 -180.816C300.549 -180.816 287.489 -195.391 265.911 -209.019L277.078 -209.965C277.078 -209.965 267.803 -218.672 236.572 -229.082L246.226 -234.761C246.226 -234.761 235.247 -239.114 219.727 -239.871L225.594 -243.846C225.594 -243.846 212.723 -247.064 197.959 -246.307L204.206 -254.824C204.206 -254.824 184.521 -250.66 180.546 -249.524L182.817 -258.61C182.817 -258.61 162.753 -245.36 138.336 -245.36C130.576 -245.36 123.005 -246.496 116.191 -248.767C118.462 -250.849 119.976 -253.878 119.976 -253.878C119.976 -253.878 104.645 -257.474 97.0734 -261.449C101.995 -264.288 105.591 -268.263 105.591 -268.263C105.591 -268.263 93.0985 -269.777 80.2275 -276.97C80.2275 -276.97 84.3917 -279.431 87.6094 -283.405C87.6094 -283.405 76.6312 -284.352 66.5994 -288.895C66.5994 -288.895 72.6563 -292.491 73.6028 -294.762C73.6028 -294.762 61.4889 -295.33 48.9964 -299.873C48.9964 -299.873 53.9177 -302.144 57.1354 -304.983C44.643 -305.74 32.5291 -309.905 23.0652 -314.447C13.4119 -319.179 -20.0906 -333.943 -54.5395 -335.079L-53.2145 -340C-53.2145 -340 -68.9247 -338.296 -78.3887 -335.268L-77.8208 -339.811C-77.8208 -339.811 -92.0168 -336.593 -102.049 -332.997L-102.616 -337.35C-102.616 -337.35 -115.866 -332.618 -125.519 -326.183L-126.466 -329.59C-126.466 -329.59 -138.012 -322.965 -144.069 -317.097L-144.826 -322.397C-144.826 -322.397 -156.183 -315.772 -163.754 -306.876L-164.132 -314.258C-164.132 -314.258 -175.3 -308.201 -181.735 -295.898L-183.628 -303.091C-183.628 -303.091 -192.335 -297.412 -196.688 -284.92L-199.528 -293.627C-199.528 -293.627 -208.234 -283.973 -210.695 -270.913C-212.02 -275.266 -218.645 -284.163 -218.645 -284.163C-218.645 -284.163 -219.591 -269.399 -222.62 -261.07C-223.945 -268.831 -230.38 -279.998 -230.38 -279.998C-230.38 -279.998 -231.137 -269.209 -235.68 -260.692C-236.437 -268.263 -242.305 -277.916 -242.305 -277.916C-242.305 -277.916 -243.062 -268.642 -246.469 -262.774C-248.74 -268.452 -256.122 -275.645 -256.122 -275.645C-256.122 -275.645 -254.986 -265.613 -257.636 -260.692C-261.043 -265.424 -269.561 -269.588 -269.561 -269.588C-269.561 -269.588 -265.775 -255.96 -276.186 -247.064C-286.785 -248.199 -298.71 -249.524 -305.713 -251.796C-314.609 -254.635 -323.127 -251.796 -322.748 -242.9C-327.102 -243.467 -331.266 -244.035 -335.241 -244.792C-342.812 -246.307 -345.841 -242.9 -346.787 -241.385C-348.869 -238.168 -348.301 -233.436 -345.083 -229.272C-338.837 -221.132 -326.345 -210.722 -317.07 -199.365C-318.774 -193.308 -318.395 -184.791 -317.827 -178.545L-324.641 -185.548C-324.641 -185.548 -325.209 -173.434 -322.37 -162.645L-328.805 -166.999C-328.805 -166.999 -327.859 -154.885 -323.884 -146.746C-323.884 -146.746 -326.913 -147.503 -330.509 -149.396C-329.752 -143.528 -328.238 -138.417 -324.073 -131.414C-321.234 -126.682 -320.477 -121.572 -325.398 -112.486C-330.698 -103.022 -334.862 -97.533 -340.351 -83.1478C-342.434 -77.2801 -346.598 -73.6838 -349.626 -71.2232C-354.547 -66.8698 -353.98 -60.245 -349.626 -57.0272C-344.516 -53.4309 -335.619 -48.5096 -329.941 -47.5633C-323.884 -46.4276 -315.177 -48.5096 -307.228 -52.8631C-300.792 -49.2668 -288.11 -47.7525 -279.403 -52.6738C-283.946 -57.5951 -288.678 -64.0306 -290.95 -67.4376C-286.028 -75.3873 -280.539 -79.5515 -273.725 -82.7692C-271.454 -83.9049 -268.236 -80.6872 -270.697 -77.4694C-273.536 -73.4945 -274.861 -69.709 -275.618 -65.5448C-275.996 -62.7056 -275.239 -55.8915 -274.104 -51.3488C-273.536 -48.8882 -274.293 -47.374 -275.996 -46.6169C-279.025 -45.6705 -283.189 -44.7241 -291.139 -44.5348C-288.11 -38.6671 -283.757 -34.1244 -276.943 -31.2852C-275.429 -28.446 -271.643 -24.4712 -264.072 -24.4712C-252.337 -24.4712 -245.144 -30.9067 -242.494 -42.0742C-240.223 -51.7274 -236.626 -64.2198 -235.301 -68.5733C-234.166 -71.9803 -232.462 -73.6838 -230.38 -75.7659C-229.055 -77.0909 -227.541 -78.6051 -226.216 -80.4979C-225.27 -81.8228 -224.702 -83.1478 -224.134 -84.2835C-222.43 -87.5012 -219.97 -91.4761 -214.859 -90.9083C-216.184 -94.5046 -218.455 -96.5866 -220.538 -97.7223C-212.588 -99.0473 -203.881 -95.6402 -201.231 -86.7441C-200.095 -90.719 -198.77 -97.3438 -199.717 -102.076C-197.445 -101.319 -192.713 -98.858 -189.117 -93.5582C-188.36 -97.1545 -188.171 -104.726 -190.253 -110.215C-187.792 -109.458 -182.871 -107.565 -179.085 -103.401C-178.518 -109.079 -179.085 -115.515 -183.249 -121.382C-181.167 -121.382 -177.193 -120.814 -172.271 -118.922C-172.65 -123.086 -175.11 -128.575 -178.707 -133.118C-177.003 -133.118 -173.028 -132.928 -168.675 -131.982C-169.432 -135.578 -170.757 -139.553 -172.839 -143.149C-161.482 -136.335 -154.858 -128.764 -154.858 -128.764C-157.129 -117.597 -164.889 -91.6654 -166.593 -85.0406C-168.486 -78.4158 -169.054 -74.6302 -165.268 -67.0591C-159.779 -56.0808 -150.126 -51.9167 -141.229 -54.7559C-131.765 -57.5951 -128.737 -59.2986 -118.137 -64.4091C-106.023 -70.2768 -102.616 -78.0373 -103.752 -84.2835C-99.588 -95.2617 -105.266 -106.618 -105.266 -106.618C-105.266 -106.618 -109.241 -100.94 -112.08 -99.0473C-113.595 -102.833 -117.759 -106.429 -117.759 -106.429C-113.027 -114.19 -108.295 -122.896 -105.645 -131.414C-101.291 -131.225 -97.6952 -132.55 -97.6952 -132.55C-97.6952 -132.55 -102.238 -136.335 -104.131 -139.364C-97.5059 -138.607 -88.2312 -138.417 -81.6064 -141.824C-84.6349 -131.982 -87.0955 -119.3 -88.4205 -107.754C-91.4489 -80.3086 -100.345 -62.7056 -101.67 -54.9452C-103.563 -44.1562 -100.534 -36.3958 -91.0704 -26.364C-80.0922 -14.6286 -70.2496 -13.6822 -62.4892 -19.5499C-52.0788 -27.4996 -42.9934 -30.3388 -32.3937 -31.2852C-21.037 -32.2316 -10.0588 -34.503 -8.9231 -47.9418C1.67654 -55.7023 -1.73047 -68.0054 -1.73047 -68.0054C-1.73047 -68.0054 -6.27319 -66.1126 -12.8979 -63.8413C-12.1408 -72.1696 -14.98 -78.9836 -14.98 -78.9836C-14.98 -78.9836 -18.1978 -75.5766 -22.1727 -72.5481C-24.0655 -76.523 -29.7438 -82.3907 -29.7438 -82.3907C-29.7438 -82.3907 -31.6366 -76.1445 -36.5579 -70.0875C-41.6684 -70.0875 -48.6718 -67.8162 -54.3502 -64.2198C-49.4289 -80.6872 -42.6148 -99.4258 -32.3937 -115.136C-28.7975 -120.436 -17.0621 -137.66 -14.4122 -141.824C-6.08389 -135.957 -2.48761 -135.578 6.21924 -132.739C14.9261 -130.089 17.0082 -124.411 13.6012 -107.565C11.8976 -98.6687 8.49063 -82.2014 8.49063 -82.2014C8.49063 -82.2014 14.169 -85.0406 15.1154 -85.6084C9.81558 -61.7592 13.6012 -51.1596 13.6012 -51.1596C13.6012 -51.1596 18.3332 -56.6487 18.7117 -57.0272C19.8474 -42.0742 26.0936 -29.3925 26.0936 -29.3925C26.0936 -29.3925 30.4471 -36.0172 31.2042 -36.7743C40.2896 -21.0641 57.3247 -21.632 57.3247 -21.632L55.8105 -28.8246C67.1673 -26.1747 78.524 -28.6353 78.524 -28.6353L76.6312 -32.7994C80.4168 -33.3673 84.3917 -34.503 88.9344 -36.3958C89.313 -21.4427 79.6597 9.03131 76.2527 19.631C69.6279 40.2624 73.6027 53.7013 80.7953 58.4332C84.3917 69.0329 92.3414 72.0614 98.5877 71.3043C101.805 73.9542 108.809 76.9826 114.487 73.1971C118.841 70.5471 120.923 65.058 119.976 59.7582C123.383 55.4048 123.573 48.4014 117.705 37.8018C111.08 25.6879 108.809 20.3881 117.894 -20.307C125.655 -14.0608 138.336 -7.62531 138.336 -7.62531L137.201 -13.1144C148.747 -7.436 158.778 0.135162 159.725 13.3847C161.996 44.2373 156.129 70.9257 152.722 86.8251C151.586 91.7464 150.829 95.532 150.639 97.9927C149.315 110.296 153.1 115.217 157.075 119.76C158.589 125.627 160.861 133.766 172.974 134.334C177.517 139.823 185.467 141.148 190.388 139.066C195.688 136.606 198.149 132.252 198.338 125.06C204.016 121.653 204.773 113.514 200.799 102.346C194.363 85.1216 188.874 70.1686 194.931 32.8805C196.634 21.9023 198.906 13.3847 200.609 6.57065C205.152 -11.2216 207.423 -20.1177 193.417 -34.1244C198.716 -35.4494 204.016 -38.4778 204.016 -38.4778C204.016 -38.4778 187.549 -43.2098 176.381 -55.3237C183.195 -52.6738 191.713 -52.4845 191.713 -52.4845C191.713 -52.4845 183.574 -60.6235 178.842 -70.6553C180.356 -69.709 189.063 -66.3019 189.063 -66.3019C189.063 -66.3019 183.196 -82.0121 180.924 -90.3404L188.117 -84.2835C188.117 -84.2835 186.224 -100.94 184.142 -107.943L188.874 -105.672C188.874 -105.672 185.656 -118.922 182.817 -126.493L186.792 -125.736C186.792 -125.736 183.006 -140.121 177.896 -147.881H181.871C181.871 -147.881 179.221 -157.345 173.353 -164.349L176.381 -164.727C176.381 -164.727 171.649 -175.138 162.185 -183.087L164.646 -184.412C164.646 -184.412 155.561 -190.848 150.072 -201.069C178.464 -193.308 185.845 -168.891 185.845 -168.891L188.874 -172.677C195.688 -160.942 199.852 -143.528 199.852 -143.528L203.259 -146.746C206.477 -137.282 215.562 -118.354 215.562 -118.354L218.591 -123.464C222.944 -110.972 231.651 -93.5582 231.651 -93.5582L233.922 -97.9116C240.169 -84.662 252.472 -71.2232 252.472 -71.2232L252.661 -75.9552C260.043 -65.3555 272.346 -53.9988 272.346 -53.9988L272.157 -60.4343C277.457 -55.3237 283.324 -50.5917 292.221 -45.4812L291.842 -52.106C302.82 -45.1026 316.638 -39.4242 316.638 -39.4242L314.745 -43.9669C322.695 -40.5599 335.376 -37.5314 335.376 -37.5314L333.862 -42.0742C341.055 -39.8028 353.547 -39.8028 353.547 -39.8028L351.276 -44.7241C385.725 -47.374 393.106 -68.384 393.106 -68.384C393.106 -68.384 381.56 -63.8413 368.689 -68.0054Z" fill="#101010"/>
<path d="M247.928 -86.3658C239.032 -97.7225 235.247 -112.486 235.247 -112.486L232.218 -106.24C225.972 -118.354 220.672 -137.471 220.672 -137.471L216.697 -130.468C211.587 -141.257 207.044 -156.967 207.044 -156.967L203.258 -153.56C196.255 -174.57 190.009 -182.141 190.009 -182.141L187.737 -179.302C183.195 -186.873 170.513 -202.962 145.907 -208.072C162.563 -208.83 181.302 -198.041 188.305 -188.387C190.009 -190.28 190.766 -192.173 190.766 -192.173C198.526 -184.98 205.719 -166.62 205.719 -166.62L210.262 -172.866L218.022 -146.367L222.754 -152.803L231.84 -120.625L236.761 -127.818L245.279 -101.319L247.361 -109.079C247.361 -109.079 253.796 -93.1798 262.314 -81.2552L263.639 -85.6086C263.639 -85.6086 274.238 -70.8448 285.406 -58.1631C277.835 -61.7594 265.721 -74.2519 265.721 -74.2519V-69.5199C256.257 -78.9839 248.685 -93.7476 248.685 -93.7476L247.928 -86.3658Z" fill="white"/>
<path d="M195.5 4.67786C193.797 11.6812 191.525 20.3881 189.822 31.5555C183.576 70.3578 189.633 86.6359 196.068 103.86C197.204 107.078 200.232 117.678 193.418 120.895C194.175 126.763 193.039 131.684 188.875 133.388C185.468 134.902 179.601 133.009 176.004 128.277C165.026 127.899 163.89 120.895 163.133 116.542C159.537 111.999 156.13 107.457 157.076 98.1819C158.212 87.9608 168.622 44.4265 166.351 12.8169C165.026 -5.35397 148.37 -16.3322 130.388 -23.1462L131.334 -18.6035C118.463 -25.9854 107.485 -39.9921 107.485 -39.9921L107.107 -32.9888C95.9392 -41.5063 92.1536 -52.6738 92.1536 -52.6738L89.5037 -48.3204C81.5539 -61.57 81.554 -76.9016 81.554 -76.9016L76.6327 -71.9803C75.497 -88.0691 77.9576 -104.726 77.9576 -104.726L72.8471 -101.129C72.4685 -115.515 79.0933 -135.768 79.0933 -135.768L73.6042 -132.928C73.0363 -143.528 78.3362 -159.995 78.3362 -159.995L73.4149 -158.481C77.579 -172.677 78.3362 -183.466 76.0648 -190.28C71.7114 -203.34 58.2725 -204.287 50.7014 -204.665C62.4367 -209.397 79.6612 -203.908 81.554 -186.494C81.554 -186.494 85.5288 -190.091 87.043 -196.526C91.2072 -184.791 81.9325 -182.52 80.229 -166.431C84.7717 -171.541 90.2607 -171.352 90.2607 -171.352C90.2607 -171.352 79.8505 -152.613 80.6076 -142.582C86.4752 -151.288 93.0999 -152.235 93.0999 -152.235C89.1251 -146.178 82.5004 -130.278 80.6076 -117.786C80.7968 -117.786 90.0715 -130.468 94.2356 -132.739C86.0966 -115.704 80.9861 -97.9116 82.6896 -88.2584C82.8789 -88.2584 87.9894 -105.483 96.3177 -111.35C85.3395 -87.5012 87.043 -69.3304 90.6393 -62.1378C91.2072 -81.255 97.0748 -86.7441 97.0748 -86.7441C97.0748 -86.7441 93.1 -55.7023 104.078 -43.5884C101.996 -50.9703 102.753 -60.245 104.457 -64.7877C107.296 -48.1311 116.76 -35.0708 123.953 -31.096C123.953 -31.096 116.381 -43.2099 116.949 -52.106C123.195 -39.6136 130.199 -30.9067 139.663 -24.6605C139.663 -24.6605 138.148 -29.2032 135.499 -34.503C142.123 -29.5817 152.912 -21.0642 161.43 -10.4645L160.105 -20.1177C160.105 -20.1177 169.569 -12.3573 171.651 8.0849C173.544 26.445 168.055 62.0295 164.837 83.4181C162.566 98.5605 161.43 107.835 170.137 113.324C170.137 113.324 167.298 100.453 171.272 93.0714C171.272 93.0714 173.922 119.76 186.604 126.006C186.604 126.006 177.329 107.457 179.601 92.3143C179.601 92.3143 186.415 110.674 192.661 113.135C186.415 95.1535 183.386 77.929 183.386 55.2155C183.386 37.6125 188.875 14.1418 186.793 6.75992C181.683 20.1988 178.086 47.455 177.708 73.5756C172.976 66.1937 176.951 19.6309 181.494 5.0564C177.519 3.1636 172.597 -1.37912 172.787 -9.8967C179.979 2.9743 191.715 0.513672 192.85 -9.8967C194.365 -22.7677 177.708 -24.6604 172.597 -34.6923C183.765 -26.9318 199.286 -27.1211 199.286 -13.3037C198.718 -8.38245 197.393 -2.89334 195.5 4.67786Z" fill="white"/>
<path d="M114.109 57.8656C115.056 60.3262 116.191 66.1939 112.027 68.4652C107.295 70.7366 102.374 66.7617 100.67 65.2475C97.0741 66.1938 89.1244 65.2475 86.0959 54.4585C80.039 50.2944 75.8748 40.8304 82.1211 21.1454C87.9887 2.78525 95.3706 -21.8211 95.1814 -36.2063C96.317 -35.0706 97.4528 -33.935 98.5884 -32.7993C98.7777 -21.8211 91.5851 6.19229 87.2317 20.199C82.8782 34.3949 84.0139 45.3731 89.8815 51.0515C88.3673 44.4267 88.178 31.9343 91.3958 27.2023C90.0708 46.6981 98.9669 57.8655 108.242 62.219C100.86 51.4301 95.3707 41.0197 97.4527 27.9594C99.3455 38.5591 105.024 47.8337 111.459 49.9158C105.781 40.0733 101.049 29.6629 102.185 16.4134C103.51 -0.621796 108.431 -24.2817 108.431 -24.2817L112.974 -20.6854C103.699 21.1454 106.917 28.1487 113.352 40.2626C119.598 52.3765 116.759 56.5406 114.109 57.8656Z" fill="white"/>
<path d="M33.2878 -47.1852C31.5843 -54.1886 33.6664 -62.3276 37.452 -66.3025C35.9377 -50.0244 42.3733 -39.4247 50.7015 -28.068C42.184 -30.15 34.9914 -40.1819 33.2878 -47.1852Z" fill="white"/>
<path d="M17.9545 -64.2191C17.9545 -71.7902 20.0366 -81.4435 21.9294 -89.0147C24.0114 -96.5858 28.7434 -105.671 31.3933 -108.321C31.0148 -103.021 26.6613 -89.0147 25.9042 -86.1755C24.0114 -79.74 20.7937 -70.8438 17.9545 -64.2191Z" fill="white"/>
<path d="M-7.97696 -152.802C-7.21985 -149.016 -5.70557 -145.42 -3.81277 -142.202C-9.30188 -143.906 -11.384 -148.07 -7.97696 -152.802Z" fill="white"/>
<path d="M-29.7431 -129.144C-26.336 -142.204 -30.3109 -160.564 -26.7146 -168.324C-25.9574 -164.917 -22.7397 -154.128 -21.2255 -150.343C-17.6292 -158.671 -25.2003 -172.299 -22.3611 -181.385C-20.2791 -177.031 -16.4935 -170.596 -13.0865 -164.16C-10.4366 -173.246 -19.7112 -184.413 -17.8185 -194.824C-15.1685 -190.659 -11.7615 -184.413 -8.16516 -178.924C-7.59732 -188.577 -10.2473 -204.287 -15.5471 -213.941C-18.7648 -219.998 -30.3109 -237.411 -56.9993 -238.358C-46.2104 -241.765 -32.2037 -238.926 -19.3327 -228.137C-6.4617 -217.158 -2.67609 -200.502 9.05927 -196.716C4.32727 -193.12 -0.972534 -194.445 -5.32599 -199.366C-5.32599 -194.066 -2.10825 -189.902 3.00229 -188.199C-0.972565 -185.36 -3.62247 -180.06 -4.56888 -176.653C-8.73303 -163.592 -16.4935 -146.747 -29.7431 -129.144Z" fill="white"/>
<path d="M-44.6971 -104.915C-45.8328 -109.836 -49.429 -130.089 -41.6686 -140.31C-42.4257 -126.871 -40.5329 -113.811 -44.6971 -104.915Z" fill="white"/>
<path d="M-46.3981 -62.1371C-39.9626 -64.4085 -33.3379 -61.1907 -28.7952 -55.7016C-28.9844 -59.4872 -30.688 -62.705 -33.3379 -65.3549C-33.3379 -65.3549 -30.688 -67.6263 -29.1737 -71.7904C-26.7131 -68.0048 -26.7131 -61.38 -26.7131 -61.38C-26.7131 -61.38 -21.9811 -64.0299 -19.3312 -67.6263C-18.3848 -61.1908 -20.0883 -56.8373 -20.0883 -56.8373C-20.0883 -56.8373 -14.5992 -56.648 -8.73154 -60.2443C-8.92081 -56.0802 -11.76 -52.6732 -14.5992 -51.916C-14.0314 -41.6949 -18.9526 -39.2343 -32.9593 -37.5308C-61.3512 -34.313 -64.9475 -19.5492 -75.3579 -22.3884C-65.894 -27.3097 -62.2976 -32.9881 -49.2373 -38.4772C-39.0162 -42.8306 -20.2776 -40.37 -24.2524 -52.1053C-27.6595 -43.777 -43.7482 -49.2661 -62.1083 -40.5593C-57.7549 -55.8909 -52.8336 -59.8658 -46.3981 -62.1371Z" fill="white"/>
<path d="M-95.2339 -42.0747C-97.5052 -46.996 -96.9374 -52.8636 -95.4232 -56.8385C-88.2305 -75.3879 -84.6342 -91.4767 -82.7415 -106.998C-80.8487 -120.626 -78.5773 -142.393 -68.3562 -147.693C-68.3562 -147.693 -68.7347 -137.85 -66.2741 -131.225C-69.8704 -132.361 -71.5739 -138.229 -71.5739 -138.229C-71.5739 -138.229 -74.7917 -130.468 -71.5739 -118.165C-74.2238 -119.111 -75.7381 -121.572 -75.7381 -121.572C-75.7381 -121.572 -78.0095 -111.919 -75.3596 -101.508C-77.6309 -102.076 -79.3344 -104.537 -79.3344 -104.537C-79.3344 -104.537 -81.9843 -91.2874 -78.9559 -81.8234C-81.795 -82.5805 -83.4986 -85.2305 -83.4986 -85.2305C-83.4986 -85.2305 -85.3913 -73.3058 -83.3093 -63.8419C-85.9592 -64.599 -87.852 -67.4382 -87.852 -67.4382C-88.7984 -63.0847 -89.1769 -55.7028 -85.3914 -48.1317C-88.0413 -48.5102 -89.7448 -50.5923 -91.0697 -51.9173C-94.0982 -43.9675 -84.445 -32.6107 -80.8487 -25.0396C-87.0949 -28.6359 -93.7197 -38.6677 -95.2339 -42.0747Z" fill="white"/>
<path d="M-105.832 -153.558C-101.479 -147.691 -90.8794 -144.851 -90.8794 -144.851C-95.0435 -144.284 -104.886 -143.337 -119.461 -151.476C-117.946 -147.123 -110.943 -138.794 -109.618 -137.28C-118.893 -138.416 -132.899 -152.99 -132.899 -152.99C-132.899 -152.99 -130.439 -145.041 -126.085 -137.28C-132.142 -140.876 -141.606 -152.233 -149.745 -161.319C-159.209 -172.108 -169.809 -182.707 -173.595 -193.118C-166.591 -185.736 -142.931 -160.562 -137.631 -159.237C-142.553 -166.618 -154.856 -181.572 -157.506 -191.793C-143.878 -175.325 -132.521 -163.59 -125.707 -159.426C-129.303 -165.104 -138.956 -177.975 -143.121 -190.846C-131.953 -177.029 -117.757 -164.158 -114.35 -163.969C-118.893 -168.511 -127.978 -181.004 -131.953 -191.225C-120.407 -179.679 -110.754 -171.918 -105.454 -170.026C-111.889 -177.786 -116.243 -182.518 -120.786 -191.982C-112.836 -184.6 -104.508 -178.543 -97.8828 -177.407C-97.8828 -177.407 -107.915 -187.061 -111.511 -194.443C-101.858 -186.871 -93.5293 -184.032 -92.0151 -184.221C-94.4757 -186.304 -99.7755 -190.846 -102.993 -196.525C-91.0687 -189.143 -84.4439 -189.143 -80.0905 -189.143C-68.1659 -189.143 -58.8911 -194.064 -52.0771 -195.01C-58.5126 -185.925 -67.2195 -181.761 -71.005 -179.679C-64.0017 -178.354 -54.9163 -180.436 -54.9163 -180.436C-60.0268 -173.811 -66.0838 -170.026 -77.6298 -166.618C-71.5729 -164.347 -60.5947 -164.915 -60.5947 -164.915C-66.4623 -159.615 -75.3585 -157.533 -90.5008 -157.912C-84.0653 -153.18 -72.7086 -151.665 -72.7086 -151.665C-78.5762 -149.583 -90.6901 -149.773 -105.832 -153.558Z" fill="white"/>
<path d="M-109.431 -84.851C-107.728 -78.6048 -112.081 -73.8728 -120.22 -69.5193C-133.659 -62.516 -143.123 -58.9197 -148.423 -60.4339C-140.662 -62.516 -111.513 -75.1977 -114.163 -82.9582C-115.867 -78.0369 -130.82 -71.4121 -139.148 -70.0872C-138.202 -72.3586 -133.47 -81.444 -131.198 -84.2832C-128.17 -88.0687 -124.006 -89.7722 -117.759 -85.6081C-118.138 -88.258 -120.031 -90.1508 -121.923 -91.4758C-121.923 -91.4758 -119.463 -94.5042 -117.759 -98.2898C-115.677 -94.5042 -115.677 -89.3937 -115.677 -89.3937C-115.677 -89.3937 -111.324 -91.2865 -107.728 -95.2614C-106.781 -89.7722 -108.106 -86.933 -109.431 -84.851Z" fill="white"/>
<path d="M-161.102 -83.3368C-158.641 -92.2329 -149.556 -123.464 -147.852 -135.578C-146.149 -131.414 -145.013 -127.628 -147.284 -118.732C-149.745 -109.836 -153.531 -95.8292 -155.991 -86.7438C-159.398 -74.2514 -157.884 -68.9515 -153.72 -61.1911C-159.966 -64.2195 -163.562 -74.6299 -161.102 -83.3368Z" fill="white"/>
<path d="M-265.964 -47.9422C-266.91 -48.6993 -268.614 -51.9171 -268.992 -53.242C-266.531 -54.7562 -265.017 -56.0812 -265.017 -56.0812C-265.017 -56.0812 -268.424 -57.7847 -269.938 -61.7596C-267.478 -61.9489 -264.26 -62.3274 -261.799 -63.4631C-261.799 -60.8132 -262.178 -58.1633 -262.746 -55.7026C-263.314 -52.6742 -264.26 -50.7814 -265.964 -47.9422Z" fill="white"/>
<path d="M-261.23 -68.0047C-263.691 -70.2761 -265.016 -72.7367 -265.584 -74.4402C-263.88 -74.8188 -261.609 -75.1974 -259.527 -76.1437C-260.284 -73.3045 -260.852 -70.6546 -261.23 -68.0047Z" fill="white"/>
<path d="M-268.236 -42.6424C-268.425 -41.696 -268.615 -40.5603 -268.993 -38.6675C-269.372 -36.7747 -271.075 -36.0176 -273.536 -36.3961C-275.996 -36.7747 -278.268 -37.5318 -280.161 -39.4246C-278.079 -39.8032 -272.779 -41.1282 -268.236 -42.6424Z" fill="white"/>
<path d="M-301.17 -56.8367C-298.709 -58.5402 -296.438 -60.6223 -294.356 -62.8936C-292.652 -60.6223 -290.57 -57.9724 -289.056 -55.8903C-293.599 -54.9439 -297.952 -55.8903 -301.17 -56.8367Z" fill="white"/>
<path d="M-340.539 -232.677C-342.432 -235.138 -343.379 -237.03 -341.864 -238.355C-340.539 -239.68 -338.268 -238.734 -336.375 -237.03C-325.586 -227.188 -309.119 -206.935 -309.119 -198.607C-318.583 -209.585 -336.754 -227.756 -340.539 -232.677Z" fill="white"/>
<path d="M-316.31 -246.118C-314.039 -248.768 -308.55 -247.822 -304.197 -245.551C-299.654 -243.279 -282.051 -232.68 -281.294 -232.301C-273.723 -227.19 -268.044 -223.026 -264.069 -217.159C-260.094 -211.291 -257.823 -205.802 -256.12 -199.366C-253.659 -206.18 -257.444 -220.376 -266.908 -230.597C-258.391 -228.515 -249.305 -212.805 -248.17 -201.07C-245.709 -208.073 -247.223 -221.891 -257.634 -232.68C-249.873 -230.597 -241.924 -219.051 -240.599 -202.963C-237.192 -209.209 -239.463 -225.865 -249.116 -235.708C-241.734 -233.247 -234.542 -222.837 -233.406 -210.345C-233.027 -206.559 -234.163 -202.773 -236.434 -199.745C-240.22 -194.824 -246.088 -190.66 -252.334 -188.199C-249.305 -180.06 -239.463 -178.924 -230.188 -181.385C-238.706 -173.057 -256.687 -175.517 -261.419 -191.795C-264.448 -202.395 -265.394 -209.398 -269.937 -215.077C-274.29 -220.944 -278.265 -223.405 -284.701 -227.948C-290.568 -232.112 -298.897 -237.222 -304.386 -240.251C-309.118 -242.901 -313.282 -239.494 -307.793 -233.058C-307.604 -237.033 -304.575 -237.222 -301.357 -234.951C-298.14 -232.869 -290.19 -227.19 -286.404 -224.73C-286.404 -224.73 -290.379 -223.594 -293.408 -223.216C-292.083 -222.08 -285.836 -220.187 -280.158 -219.998C-284.701 -217.537 -291.326 -216.023 -291.326 -216.023C-285.836 -213.184 -275.047 -214.319 -275.047 -214.319C-279.022 -211.102 -288.865 -209.02 -288.865 -209.02C-283.376 -206.18 -271.83 -208.073 -271.83 -208.073C-274.669 -204.477 -284.701 -202.395 -284.701 -202.395C-280.537 -200.123 -273.533 -200.502 -268.991 -202.206C-270.883 -193.688 -285.647 -191.606 -296.058 -206.559C-300.032 -212.427 -311.957 -231.544 -314.607 -236.276C-317.257 -240.819 -317.825 -244.226 -316.31 -246.118Z" fill="white"/>
<path d="M-241.356 -260.314C-237.192 -251.039 -244.952 -241.954 -250.441 -243.278C-247.602 -247.632 -243.438 -254.635 -241.356 -260.314Z" fill="white"/>
<path d="M-228.674 -262.207C-224.321 -250.85 -235.299 -237.222 -242.87 -239.493C-235.867 -246.875 -231.324 -255.771 -228.674 -262.207Z" fill="white"/>
<path d="M-207.096 -260.313C-206.15 -265.613 -204.257 -274.509 -201.229 -280.944C-201.229 -280.944 -198.579 -272.805 -201.04 -258.231C-202.365 -249.902 -206.907 -241.574 -212.586 -238.167C-209.179 -245.738 -208.421 -252.363 -207.096 -260.313Z" fill="white"/>
<path d="M-186.656 -292.301C-186.656 -292.301 -187.981 -275.834 -189.306 -264.666C-191.009 -250.849 -197.255 -233.056 -205.584 -230.596C-197.445 -245.17 -196.309 -261.448 -194.984 -269.777C-193.848 -278.105 -190.441 -286.812 -186.656 -292.301Z" fill="white"/>
<path d="M-169.242 -303.279C-169.242 -303.279 -174.353 -288.704 -176.245 -280.376C-178.138 -272.426 -180.788 -264.477 -184.006 -258.23C-185.141 -262.584 -184.952 -275.266 -182.681 -281.701C-180.41 -287.947 -175.678 -296.843 -169.242 -303.279Z" fill="white"/>
<path d="M-149.368 -312.932C-149.368 -312.932 -157.507 -297.411 -161.103 -291.164C-164.321 -285.297 -165.835 -283.783 -170.189 -276.401C-171.324 -280.565 -169.999 -290.407 -166.782 -295.139C-163.375 -299.871 -154.668 -308.578 -149.368 -312.932Z" fill="white"/>
<path d="M-34.6658 -327.128C-37.6943 -325.803 -43.3727 -321.071 -53.7831 -323.153C-46.4012 -328.832 -40.3442 -328.075 -34.6658 -327.128Z" fill="white"/>
<path d="M-15.7362 -322.963C-20.0897 -322.585 -27.8502 -317.474 -38.0712 -321.449C-32.9607 -325.235 -23.3074 -325.235 -15.7362 -322.963Z" fill="white"/>
<path d="M5.84308 -315.582C1.86823 -315.772 -7.78503 -312.554 -20.4668 -318.232C-13.842 -321.45 -1.16025 -318.8 5.84308 -315.582Z" fill="white"/>
<path d="M20.7955 -309.148C27.231 -306.498 37.6413 -302.523 41.0484 -301.387C34.8021 -301.198 25.3381 -302.712 18.5241 -304.794C11.71 -306.876 8.30298 -308.201 1.48892 -311.987C7.54587 -312.744 14.36 -311.987 20.7955 -309.148Z" fill="white"/>
<path d="M312.854 -113.811C306.04 -118.732 299.605 -123.085 292.791 -128.575C298.658 -127.25 308.312 -123.464 315.315 -119.111C322.318 -114.946 332.35 -103.59 335.757 -99.9933C329.322 -103.022 321.94 -107.186 312.854 -113.811Z" fill="white"/>
<path d="M325.724 -121.951C317.963 -123.086 307.742 -128.008 302.064 -131.036C295.061 -134.822 286.354 -140.5 280.865 -147.693C289.004 -144.475 297.143 -142.393 305.282 -137.282C313.988 -131.982 322.506 -124.79 325.724 -121.951Z" fill="white"/>
<path d="M226.921 -208.828C220.485 -210.343 214.996 -211.667 204.964 -212.425C212.725 -216.589 222.567 -214.128 226.921 -208.828Z" fill="white"/>
<path d="M238.089 -195.958C230.518 -198.04 226.164 -198.797 216.133 -200.5C222.947 -204.475 233.736 -201.447 238.089 -195.958Z" fill="white"/>
<path d="M250.392 -183.845C243.389 -186.305 237.899 -186.873 228.436 -188.387C234.114 -192.551 245.471 -189.902 250.392 -183.845Z" fill="white"/>
<path d="M263.072 -171.162C255.69 -173.055 250.58 -174.38 241.116 -175.705C246.416 -179.869 257.205 -177.409 263.072 -171.162Z" fill="white"/>
<path d="M252.85 -163.212C258.717 -165.862 269.696 -161.887 273.67 -155.262C267.046 -158.101 261.178 -160.751 252.85 -163.212Z" fill="white"/>
<path d="M262.883 -146.555C270.644 -149.015 278.783 -145.23 281.622 -139.551C276.701 -142.201 271.211 -144.094 262.883 -146.555Z" fill="white"/>
<path d="M290.516 -149.774C284.46 -153.181 276.32 -160.373 271.778 -164.537C278.592 -163.402 284.838 -162.077 292.22 -158.102C299.413 -154.127 307.362 -148.07 313.419 -142.202C306.794 -143.717 296.573 -146.366 290.516 -149.774Z" fill="white"/>
<path d="M300.927 -163.403C300.927 -163.403 288.245 -164.539 278.592 -168.514C272.346 -170.974 262.125 -178.545 260.421 -180.817C265.153 -180.249 276.321 -178.167 281.053 -175.706C287.299 -172.299 300.738 -163.592 300.927 -163.403Z" fill="white"/>
<path d="M260.612 -187.441C252.284 -191.227 245.47 -196.905 242.82 -198.798C249.066 -198.23 260.423 -195.202 267.805 -191.227C275.187 -187.252 284.651 -180.627 290.329 -175.138C282.001 -180.249 269.509 -183.467 260.612 -187.441Z" fill="white"/>
<path d="M248.496 -202.393C239.789 -204.665 232.029 -210.532 227.297 -213.75C233.543 -213.75 243.196 -211.668 251.903 -208.261C260.61 -204.854 277.835 -195.769 284.27 -189.333C270.831 -195.201 259.474 -199.743 248.496 -202.393Z" fill="white"/>
<path d="M229.003 -218.292C221.432 -219.049 207.803 -221.131 207.803 -221.131C207.803 -221.131 214.05 -225.106 227.11 -223.781C237.52 -222.645 255.691 -216.399 259.666 -214.127C247.741 -215.452 236.574 -217.534 229.003 -218.292Z" fill="white"/>
<path d="M211.966 -229.081C201.556 -227.189 199.095 -226.621 193.038 -225.485C195.688 -229.081 204.017 -232.867 211.209 -233.813C218.402 -234.76 228.055 -234.76 232.787 -233.435C225.594 -231.731 222.377 -230.974 211.966 -229.081Z" fill="white"/>
<path d="M193.797 -234.57C188.497 -233.056 182.818 -231.92 177.519 -231.731C181.683 -234.949 187.361 -238.166 192.283 -239.491C197.204 -240.627 201.179 -241.195 210.075 -240.627C210.075 -240.438 200.8 -236.463 193.797 -234.57Z" fill="white"/>
<path d="M175.627 -241.953C179.98 -244.035 188.876 -246.117 191.148 -246.306C186.794 -242.521 181.495 -238.735 175.816 -236.085C170.138 -233.435 167.299 -233.057 163.134 -232.11C164.838 -234.76 171.273 -239.871 175.627 -241.953Z" fill="white"/>
<path d="M139.284 -235.328C129.82 -235.328 116.759 -237.788 110.513 -244.981C116.002 -242.52 128.495 -239.87 138.526 -239.87C152.533 -239.87 165.783 -244.035 174.49 -247.82C170.893 -241.574 157.833 -235.328 139.284 -235.328Z" fill="white"/>
<path d="M146.287 -188.764C142.123 -191.036 137.012 -196.525 137.012 -196.525C137.012 -196.525 144.773 -194.632 148.369 -192.55C151.965 -190.468 154.994 -185.925 154.994 -185.925C154.994 -185.925 149.315 -187.061 146.287 -188.764Z" fill="white"/>
<path d="M170.325 -149.018C174.868 -143.339 176.761 -139.175 177.897 -134.443C174.111 -137.85 170.515 -141.257 166.54 -145.232C162.565 -149.207 158.022 -154.696 152.155 -161.889C161.051 -158.292 165.972 -154.885 170.325 -149.018Z" fill="white"/>
<path d="M167.108 -131.603C165.026 -134.064 155.751 -144.285 151.208 -150.721C156.129 -148.449 165.783 -142.014 171.083 -136.146C176.382 -130.278 179.222 -121.382 180.547 -115.893C177.14 -119.111 171.461 -126.493 167.108 -131.603Z" fill="white"/>
<path d="M171.27 -78.9828C167.485 -81.4435 160.86 -88.8254 157.642 -93.9359C154.803 -98.2893 150.639 -108.7 149.692 -115.324C153.478 -111.539 157.074 -105.861 161.238 -99.6143C163.321 -96.3965 170.135 -82.7684 171.27 -78.9828Z" fill="white"/>
<path d="M167.864 -60.6237C164.457 -61.5701 160.104 -64.0307 156.318 -66.6806C152.533 -69.3306 148.368 -73.3055 146.665 -76.7125C150.64 -75.5768 154.804 -73.684 158.779 -70.4662C162.754 -67.2485 166.35 -62.8951 167.864 -60.6237Z" fill="white"/>
<path d="M141.743 -113.053C138.714 -119.489 133.793 -125.735 129.818 -129.899C135.496 -129.331 143.068 -121.571 141.743 -113.053Z" fill="white"/>
<path d="M130.199 -145.609C137.013 -145.041 144.395 -137.66 144.016 -129.52C140.042 -135.767 136.634 -139.174 130.199 -145.609Z" fill="white"/>
<path d="M144.773 -145.609C140.609 -149.016 136.634 -152.423 130.199 -157.155C136.067 -157.345 143.638 -152.045 144.773 -145.609Z" fill="white"/>
<path d="M142.501 -159.049C139.661 -162.267 137.579 -163.97 132.469 -168.702C138.147 -168.513 142.69 -163.97 142.501 -159.049Z" fill="white"/>
<path d="M130.199 -114.569C133.795 -112.487 138.716 -106.051 139.095 -101.698C134.742 -104.158 131.145 -109.647 130.199 -114.569Z" fill="white"/>
<path d="M134.173 -94.6945C137.769 -92.6125 139.851 -89.2054 140.041 -85.6091C136.066 -87.1234 134.551 -90.1518 134.173 -94.6945Z" fill="white"/>
<path d="M17.0082 -95.4498C18.3331 -101.507 19.6581 -106.428 20.2259 -113.431C20.7938 -119.867 20.2259 -124.599 19.2795 -128.195C23.4437 -126.302 25.715 -118.353 25.1472 -112.864C24.5793 -107.185 22.1187 -100.939 17.0082 -95.4498Z" fill="white"/>
<path d="M-61.9199 -243.278C-54.538 -247.064 -41.0992 -248.199 -33.3387 -246.685C-25.5782 -245.36 -18.5749 -241.764 -14.0322 -236.464C-14.0322 -236.464 -20.8463 -237.789 -33.9066 -241.574C-41.2885 -243.656 -48.2918 -244.224 -61.9199 -243.278Z" fill="white"/>
<path d="M-35.0444 -219.05C-38.6407 -226.053 -44.1299 -229.46 -58.5151 -230.407C-54.5402 -232.299 -48.6725 -233.056 -42.6156 -231.164C-37.6943 -229.839 -34.098 -225.675 -35.0444 -219.05Z" fill="white"/>
<path d="M-27.0924 -184.413C-28.9852 -192.173 -31.6351 -197.284 -37.3135 -203.53C-31.2566 -204.098 -22.739 -193.688 -27.0924 -184.413Z" fill="white"/>
<path d="M-39.9642 -189.711C-33.1502 -188.954 -28.2289 -178.165 -32.393 -170.026C-33.9073 -179.301 -36.7465 -184.979 -39.9642 -189.711Z" fill="white"/>
<path d="M-39.7756 -155.073C-39.7756 -163.212 -42.2363 -172.108 -44.5076 -175.515C-37.8829 -174.569 -34.6651 -162.076 -39.7756 -155.073Z" fill="white"/>
<path d="M-57.3762 -73.4945C-60.5939 -80.4978 -64.0009 -91.8546 -61.5403 -101.508C-57.5655 -95.8295 -54.3477 -82.0121 -57.3762 -73.4945Z" fill="white"/>
<path d="M-125.329 -251.416C-130.818 -255.39 -130.25 -262.772 -126.843 -265.611C-126.465 -260.88 -125.897 -255.58 -125.329 -251.416Z" fill="white"/>
<path d="M-171.513 -221.132C-167.728 -224.16 -163.753 -227.189 -160.156 -231.353C-159.399 -226.242 -165.078 -219.807 -171.513 -221.132Z" fill="white"/>
<path d="M-172.648 -239.491C-169.241 -243.655 -167.348 -246.873 -165.077 -252.362C-162.616 -246.305 -167.538 -239.302 -172.648 -239.491Z" fill="white"/>
<path d="M-140.471 -136.714C-147.663 -143.906 -159.966 -159.427 -163.941 -164.348C-170.566 -172.487 -184.762 -185.169 -193.469 -191.037C-183.248 -189.712 -165.834 -174.948 -159.399 -167.188C-151.07 -156.966 -142.174 -144.853 -140.471 -136.714Z" fill="white"/>
<path d="M-128.546 -99.8031C-134.225 -92.0426 -139.335 -82.3894 -142.931 -74.8182C-144.635 -81.443 -139.903 -89.2034 -139.903 -89.2034L-144.256 -89.3927C-140.282 -94.6925 -134.792 -98.0996 -128.546 -99.8031Z" fill="white"/>
<path d="M-311.58 -102.076C-307.416 -108.7 -296.438 -106.618 -289.245 -105.861C-293.22 -101.318 -304.766 -104.725 -311.58 -102.076Z" fill="white"/>
<path d="M-320.286 -92.2331C-315.554 -99.615 -305.522 -99.8042 -295.68 -99.0471C-298.519 -94.6937 -307.605 -97.1543 -320.286 -92.2331Z" fill="white"/>
<path d="M-216.371 -235.327C-217.128 -227.756 -225.646 -223.781 -231.513 -227.377C-225.835 -229.27 -220.157 -232.298 -216.371 -235.327Z" fill="white"/>
<path d="M-202.175 -165.674C-195.929 -170.785 -182.869 -169.46 -177.001 -160.753C-185.708 -163.781 -194.415 -165.296 -202.175 -165.674Z" fill="white"/>
<path d="M-213.532 -175.893C-206.529 -181.004 -195.929 -177.597 -190.818 -172.297C-198.579 -174.001 -206.718 -175.136 -213.532 -175.893Z" fill="white"/>
<path d="M-223.942 -198.986C-216.939 -202.771 -208.8 -201.068 -204.636 -195.579C-210.125 -197.093 -214.668 -198.229 -223.942 -198.986Z" fill="white"/>
<path d="M-225.835 -219.049C-218.264 -220.563 -214.1 -221.32 -208.043 -223.97C-210.125 -216.777 -220.914 -215.452 -225.835 -219.049Z" fill="white"/>
<path d="M-280.915 -128.953C-271.83 -129.521 -268.801 -133.874 -267.287 -136.713C-266.719 -129.899 -272.776 -124.978 -280.348 -124.978C-286.972 -124.978 -292.651 -125.924 -295.868 -125.546C-292.651 -129.331 -286.972 -128.574 -280.915 -128.953Z" fill="white"/>
<path d="M-297.952 -179.68C-302.873 -184.412 -307.226 -189.712 -305.902 -197.094C-302.684 -190.469 -299.655 -187.819 -294.545 -183.087C-288.866 -177.788 -286.216 -172.488 -287.352 -168.134C-290.381 -173.623 -293.22 -174.948 -297.952 -179.68Z" fill="white"/>
<path d="M-291.708 -186.872C-297.765 -191.604 -302.875 -196.336 -301.55 -204.665C-297.954 -197.094 -293.979 -194.065 -290.951 -191.604C-284.704 -186.872 -280.351 -181.762 -281.487 -174.759C-284.137 -180.058 -286.408 -182.519 -291.708 -186.872Z" fill="white"/>
<path d="M-304.386 -110.593C-300.222 -116.839 -282.998 -112.675 -281.862 -112.486C-285.837 -108.7 -296.626 -111.918 -304.386 -110.593Z" fill="white"/>
<path d="M-282.053 -116.651C-287.164 -116.651 -293.41 -118.922 -300.035 -117.976C-296.628 -123.276 -288.3 -121.004 -281.864 -121.004C-275.618 -121.004 -272.779 -122.519 -268.615 -124.979C-269.94 -120.815 -275.618 -116.651 -282.053 -116.651Z" fill="white"/>
<path d="M-186.087 -155.263C-178.705 -158.86 -169.43 -154.317 -165.077 -145.042C-169.809 -148.26 -177.19 -152.613 -186.087 -155.263Z" fill="white"/>
<path d="M-154.669 -137.471C-160.347 -147.882 -172.083 -160.753 -178.897 -167.756C-188.739 -177.977 -202.935 -184.223 -212.778 -186.116C-199.718 -187.82 -187.036 -181.574 -175.679 -171.352C-166.972 -163.213 -153.723 -146.935 -154.669 -137.471Z" fill="white"/>
<path d="M-197.066 -215.453C-192.902 -216.967 -182.113 -224.159 -178.327 -228.702C-178.327 -220.563 -189.873 -213.56 -197.066 -215.453Z" fill="white"/>
<path d="M-194.038 -207.504C-186.656 -207.504 -181.167 -208.451 -175.868 -209.965C-178.328 -204.476 -188.928 -203.34 -194.038 -207.504Z" fill="white"/>
<path d="M-204.069 -209.587C-210.315 -206.937 -217.887 -206.937 -223.565 -209.398C-217.887 -211.48 -209.937 -211.669 -204.069 -209.587Z" fill="white"/>
<path d="M-184.194 -248.767C-180.787 -237.41 -191.765 -222.646 -201.229 -222.646C-195.551 -228.135 -188.547 -236.842 -184.194 -248.767Z" fill="white"/>
<path d="M-173.596 -268.262C-169.621 -264.477 -171.135 -254.823 -176.057 -252.552C-174.732 -258.041 -173.975 -263.152 -173.596 -268.262Z" fill="white"/>
<path d="M-156.183 -281.7C-159.022 -275.833 -161.861 -269.397 -163.754 -264.476C-165.836 -271.479 -160.915 -279.807 -156.183 -281.7Z" fill="white"/>
<path d="M-80.6599 -328.452C-75.3601 -330.156 -70.0602 -331.859 -63.6247 -332.806C-68.546 -329.777 -74.6029 -325.234 -79.3349 -323.531C-84.0669 -321.827 -92.7738 -321.449 -92.7738 -321.449C-92.7738 -321.449 -86.7168 -326.37 -80.6599 -328.452Z" fill="white"/>
<path d="M-41.666 -251.038C-51.13 -251.038 -63.2439 -248.767 -71.5722 -246.685C-68.733 -249.902 -54.537 -255.013 -41.8553 -255.392C-31.6342 -255.77 -23.6845 -253.499 -19.3311 -249.524C-27.8487 -249.335 -33.1485 -251.038 -41.666 -251.038Z" fill="white"/>
<path d="M-66.8424 -206.178C-73.8457 -202.203 -84.6346 -200.311 -88.9881 -205.61C-78.767 -205.989 -75.5493 -207.503 -69.8708 -210.532C-64.9496 -212.992 -54.9178 -218.671 -48.1037 -215.074C-52.2679 -213.939 -59.0819 -210.532 -66.8424 -206.178Z" fill="white"/>
<path d="M-94.6651 -276.402C-89.5546 -280.755 -82.5513 -282.837 -78.955 -282.648C-83.8762 -278.295 -86.9047 -277.159 -91.826 -273.752C-96.3687 -270.534 -98.8293 -268.263 -104.508 -262.774C-103.183 -266.748 -99.7757 -272.048 -94.6651 -276.402Z" fill="white"/>
<path d="M-104.318 -273.752C-106.211 -271.102 -108.861 -267.127 -111.132 -262.016C-111.132 -265.802 -109.429 -272.616 -107.347 -275.834C-104.886 -279.998 -101.668 -281.891 -97.5042 -283.216C-99.2077 -279.809 -101.29 -278.105 -104.318 -273.752Z" fill="white"/>
<path d="M-81.604 -273.374C-73.8436 -277.538 -66.2724 -279.052 -62.2975 -279.242C-66.8402 -274.888 -75.7364 -271.481 -80.2791 -269.588C-85.0111 -267.506 -89.7431 -265.235 -97.125 -259.935C-94.6643 -264.667 -89.3645 -269.21 -81.604 -273.374Z" fill="white"/>
<path d="M-70.0587 -267.505C-62.4875 -270.344 -46.0202 -273.562 -40.7203 -272.048C-48.8593 -267.694 -61.5411 -265.802 -69.4908 -263.152C-77.4406 -260.691 -80.2798 -259.366 -91.258 -254.823C-86.9045 -259.177 -77.6298 -264.666 -70.0587 -267.505Z" fill="white"/>
<path d="M-54.3478 -262.963C-39.3947 -265.802 -30.12 -263.72 -25.5773 -261.07C-35.6091 -259.367 -44.8838 -259.935 -53.9692 -258.231C-63.2439 -256.528 -70.058 -254.445 -81.9826 -249.903C-77.8184 -254.824 -62.6761 -261.26 -54.3478 -262.963Z" fill="white"/>
<path d="M-115.488 -277.159C-115.678 -273.941 -116.246 -271.481 -117.003 -267.316C-117.381 -265.045 -118.138 -261.449 -118.706 -257.663C-120.41 -260.692 -120.978 -265.991 -120.599 -268.641C-120.031 -272.427 -118.328 -274.888 -115.488 -277.159Z" fill="white"/>
<path d="M-47.1581 -223.404C-50.9438 -222.457 -57.0007 -221.321 -66.4646 -217.536C-72.143 -215.454 -74.6037 -214.129 -81.2285 -211.479C-78.0107 -215.832 -74.4144 -220.186 -66.6539 -222.836C-59.272 -225.486 -49.2402 -224.35 -47.1581 -223.404Z" fill="white"/>
<path d="M-69.6802 -200.5C-60.7841 -204.475 -55.6735 -208.45 -49.8058 -205.99C-55.8628 -203.718 -61.3519 -198.608 -67.4089 -195.768C-74.98 -192.172 -88.9867 -192.172 -95.0437 -199.365C-82.362 -195.958 -72.898 -198.986 -69.6802 -200.5Z" fill="white"/>
<path d="M-73.4684 -59.6778C-70.4399 -55.5136 -67.2222 -45.8604 -69.6828 -39.8034C-73.4684 -44.5354 -75.7397 -51.9173 -73.4684 -59.6778Z" fill="white"/>
<path d="M-63.2468 -56.8386C-66.6538 -61.0027 -70.0608 -70.0881 -68.7359 -80.4985C-63.8146 -75.7665 -61.354 -65.1669 -63.2468 -56.8386Z" fill="white"/>
<path d="M-47.1582 -156.776C-42.9941 -153.937 -43.5619 -142.769 -49.051 -140.498C-47.7261 -146.555 -46.9689 -150.719 -47.1582 -156.776Z" fill="white"/>
<path d="M-23.8754 -199.365C-25.2004 -203.907 -27.661 -210.343 -30.5002 -215.264C-25.7682 -214.696 -20.847 -206.747 -23.8754 -199.365Z" fill="white"/>
<path d="M4.32803 -182.14C6.78867 -168.133 11.8992 -154.884 17.9562 -150.909C14.9277 -159.994 13.792 -171.162 15.4955 -181.004C19.6597 -166.619 22.8774 -153.937 31.9628 -146.934C31.9628 -146.934 24.7702 -165.105 28.7451 -177.787C32.1521 -162.455 35.3699 -155.262 39.9126 -149.016C44.6446 -142.581 53.5407 -135.388 56.1906 -127.817C51.4586 -131.413 44.8339 -135.767 39.7233 -137.47C39.7233 -137.47 41.9946 -132.17 41.8054 -128.763C36.127 -134.063 27.2308 -137.281 27.2308 -137.281C27.2308 -137.281 29.3129 -133.306 28.7451 -129.142C21.931 -136.902 12.467 -135.388 6.22083 -151.666C3.19235 -160.184 1.8674 -171.919 4.32803 -182.14Z" fill="white"/>
<path d="M40.4818 -174.569C45.5924 -158.669 51.2708 -154.316 54.4885 -151.098C61.8704 -144.284 64.8989 -137.47 67.1703 -131.224C61.3026 -133.684 54.8671 -138.795 49.1887 -144.852C42.1854 -152.234 38.0212 -165.294 40.4818 -174.569Z" fill="white"/>
<path d="M63.3829 -153.369C60.3544 -154.883 56.7581 -157.912 55.4331 -160.751C53.3511 -165.293 53.3511 -170.783 53.7296 -172.865C55.6224 -170.025 57.326 -167.565 59.408 -163.401C60.5437 -160.94 62.2472 -156.776 63.3829 -153.369Z" fill="white"/>
<path d="M40.8582 -296.843C46.9152 -295.707 54.4864 -292.111 59.5969 -290.786C55.4328 -290.029 46.3473 -290.597 40.4797 -292.111C34.612 -293.625 30.2586 -294.761 24.3909 -298.168C27.4194 -298.546 34.8013 -297.978 40.8582 -296.843Z" fill="white"/>
<path d="M89.123 -252.743C80.9839 -255.96 73.9806 -261.26 73.9806 -261.26C73.9806 -261.26 84.5802 -261.071 89.3122 -259.368C94.2334 -257.664 101.426 -252.932 110.322 -250.471C103.697 -248.2 93.6657 -251.039 89.123 -252.743Z" fill="white"/>
<path d="M73.0367 -267.315C66.7904 -269.208 61.8692 -271.479 56.3801 -275.076C61.1121 -274.886 68.1154 -274.697 73.226 -273.372C78.3365 -272.047 83.0685 -268.451 92.1539 -265.422C88.3683 -264.287 79.2829 -265.422 73.0367 -267.315Z" fill="white"/>
<path d="M59.4063 -279.808C52.9708 -280.565 46.9138 -283.215 40.8569 -285.865C44.8317 -286.054 49.9423 -286.054 56.3778 -285.297C62.8133 -284.54 69.8167 -281.701 74.9272 -279.998C71.1416 -279.051 64.7061 -279.24 59.4063 -279.808Z" fill="white"/>
<path d="M-70.4373 -323.533C-65.516 -326.751 -61.9197 -329.59 -51.8878 -329.212C-57.9448 -323.912 -61.5411 -322.397 -70.4373 -323.533Z" fill="white"/>
<path d="M-84.2549 -332.617C-93.151 -326.749 -97.3152 -322.585 -101.479 -320.125C-105.643 -317.853 -113.025 -315.582 -113.025 -315.582C-113.025 -315.582 -109.051 -322.396 -104.129 -325.614C-100.344 -328.264 -88.0405 -331.86 -84.2549 -332.617Z" fill="white"/>
<path d="M-125.14 -319.178C-121.354 -322.585 -117.19 -324.668 -108.294 -328.832C-112.458 -324.1 -116.244 -318.8 -120.029 -315.014C-124.572 -310.472 -131.764 -304.983 -131.764 -304.983C-131.764 -304.983 -129.872 -314.825 -125.14 -319.178Z" fill="white"/>
<path d="M-129.873 -321.072C-129.873 -320.882 -136.119 -308.201 -140.283 -302.522C-144.447 -296.844 -149.558 -293.815 -153.343 -290.03C-152.586 -295.708 -150.504 -302.333 -146.718 -307.065C-142.933 -311.608 -136.876 -316.529 -129.873 -321.072Z" fill="white"/>
<path d="M-218.832 -242.899C-223.753 -237.599 -231.703 -234.192 -237.192 -234.382C-234.353 -236.464 -227.917 -240.817 -223.564 -246.685C-219.21 -252.553 -216.75 -259.934 -215.614 -267.695C-211.829 -260.313 -212.775 -249.335 -218.832 -242.899Z" fill="white"/>
<path d="M-259.34 -245.359C-256.122 -249.334 -252.904 -255.58 -251.579 -260.691C-247.983 -255.58 -251.39 -245.17 -259.34 -245.359Z" fill="white"/>
<path d="M-269.369 -246.494C-266.53 -250.28 -264.259 -254.444 -263.502 -258.987C-259.905 -255.58 -262.745 -245.737 -269.369 -246.494Z" fill="white"/>
<path d="M-309.307 -161.509C-309.307 -161.509 -313.661 -183.466 -312.714 -191.037C-306.279 -178.923 -292.651 -173.055 -293.786 -163.023C-293.786 -163.023 -298.14 -165.295 -303.25 -170.973C-303.25 -170.973 -302.115 -162.077 -297.761 -155.831C-290.758 -157.345 -284.512 -156.777 -279.022 -152.613C-282.051 -150.72 -298.708 -155.641 -303.061 -144.853C-312.146 -149.963 -318.582 -160.563 -318.582 -170.973L-309.307 -161.509Z" fill="white"/>
<path d="M-304.008 -139.173C-314.04 -138.605 -319.151 -145.23 -321.233 -154.883C-316.501 -149.205 -310.065 -143.337 -304.008 -139.173Z" fill="white"/>
<path d="M-138.012 -103.968C-131.009 -110.215 -123.627 -110.593 -120.22 -112.865C-122.87 -106.997 -131.009 -102.833 -138.012 -103.968Z" fill="white"/>
<path d="M-128.548 -117.217C-125.709 -121.571 -117.381 -124.031 -113.027 -127.249C-114.542 -120.246 -123.059 -116.839 -128.548 -117.217Z" fill="white"/>
<path d="M-51.6977 -89.2041C-53.969 -96.586 -56.0511 -112.485 -52.0762 -122.896C-49.4263 -112.864 -47.7228 -98.1002 -51.6977 -89.2041Z" fill="white"/>
<path d="M-38.2599 -116.46C-37.692 -127.06 -39.2062 -142.392 -32.96 -155.073C-31.8243 -145.42 -31.4458 -126.114 -38.2599 -116.46Z" fill="white"/>
<path d="M-2.29892 -166.051C-0.784668 -156.019 2.81165 -145.231 9.815 -137.659C3.00092 -139.174 -1.16321 -144.473 -2.86673 -149.395C-4.00241 -153.37 -5.51666 -159.616 -2.29892 -166.051Z" fill="white"/>
<path d="M24.3906 -66.4905C25.1477 -75.0081 28.744 -82.39 33.0974 -87.8791C32.5296 -78.2258 30.4475 -70.6547 29.6904 -64.4084C28.3654 -54.5659 28.9333 -48.1304 27.9868 -41.5056C25.1477 -50.0232 23.8227 -60.2443 24.3906 -66.4905Z" fill="white"/>
<path d="M51.2688 -36.9629C45.7797 -40.9377 44.4547 -47.9411 46.1582 -52.8623C48.2403 -48.3196 52.2152 -43.2091 56.0008 -40.3699C60.5435 -36.9629 63.7612 -35.6379 70.9539 -32.988C65.8433 -32.0416 56.19 -33.5558 51.2688 -36.9629Z" fill="white"/>
<path d="M69.061 -38.287C63.3826 -39.612 59.7863 -42.8297 58.4613 -47.9402C67.736 -41.8833 76.2536 -40.9369 85.1498 -40.9369C82.8784 -39.2334 76.0643 -36.5835 69.061 -38.287Z" fill="white"/>
<path d="M189.254 -39.6128C186.036 -39.0449 180.169 -39.0449 175.058 -39.9913C169.948 -40.9377 165.783 -42.4519 162.376 -45.2911C162.376 -45.2911 169.948 -46.0482 174.869 -45.1019C179.79 -43.9662 184.143 -41.6948 189.254 -39.6128Z" fill="white"/>
<path d="M149.692 -63.4631C153.478 -62.3274 157.642 -60.8132 162.563 -58.3525C165.213 -56.8383 174.488 -50.9706 176.381 -48.51C172.027 -49.4564 166.538 -50.7814 163.131 -52.4849C158.399 -54.7563 154.424 -58.5418 149.692 -63.4631Z" fill="white"/>
<path d="M156.319 -78.6054C150.262 -85.0409 146.476 -95.8298 146.476 -100.373C150.83 -96.0191 154.426 -91.0978 159.915 -84.6623C165.404 -78.2268 177.14 -64.2202 178.843 -61.5703C171.461 -64.4095 162.186 -72.1699 156.319 -78.6054Z" fill="white"/>
<path d="M163.889 -102.453C159.347 -110.403 153.1 -120.624 151.397 -126.681C156.697 -122.517 166.161 -111.16 168.432 -107.185C173.164 -99.4249 177.896 -85.9861 179.221 -78.4149C175.435 -81.6327 168.432 -94.1251 163.889 -102.453Z" fill="white"/>
<path d="M165.215 -118.92C159.915 -125.355 156.319 -130.844 151.208 -137.848C155.372 -135.766 166.54 -127.059 170.515 -121.57C174.49 -116.27 179.222 -105.67 180.736 -98.667C176.382 -103.588 170.515 -112.484 165.215 -118.92Z" fill="white"/>
<path d="M162.944 -160.373C160.673 -161.698 153.48 -167.187 149.127 -173.055C153.48 -171.54 160.105 -168.89 165.405 -164.537C170.705 -160.184 173.166 -156.777 174.301 -154.127C170.137 -155.452 166.162 -158.48 162.944 -160.373Z" fill="white"/>
<path d="M154.235 -175.325C149.692 -178.165 145.15 -181.95 141.175 -185.168C145.717 -184.222 151.585 -182.329 156.885 -178.922C161.995 -175.515 165.592 -172.297 167.295 -169.647C162.942 -170.972 158.778 -172.486 154.235 -175.325Z" fill="white"/>
<path d="M290.14 -71.2228C290.14 -71.2228 309.257 -59.1089 316.828 -57.7839C316.828 -57.7839 301.497 -67.8157 296.386 -80.3082C296.386 -80.3082 312.854 -67.4372 323.075 -64.4087C323.075 -64.4087 307.743 -77.469 303.39 -87.8793C303.39 -87.8793 323.832 -71.0335 331.024 -69.7085C331.024 -69.7085 316.071 -81.8224 311.907 -94.5042C311.907 -94.5042 328.753 -79.3618 337.649 -77.2797C337.649 -77.2797 320.614 -91.0971 317.775 -100.94C317.775 -100.94 307.364 -107.754 303.011 -111.918C311.529 -109.836 317.207 -106.05 322.318 -102.075C322.318 -102.075 333.296 -89.3936 348.438 -83.3367L344.652 -80.6867C344.652 -80.6867 352.413 -73.4941 361.688 -70.0871L356.198 -66.3015C356.198 -66.3015 366.987 -61.191 378.534 -61.0017C368.88 -48.5092 342.949 -50.5913 342.949 -50.5913L345.031 -46.2379C335.756 -46.6164 324.778 -53.8091 324.778 -53.8091L327.428 -46.0486C312.286 -48.5092 293.358 -61.7588 290.14 -71.2228Z" fill="white"/>
<path d="M-191.956 -136.714C-191.956 -136.714 -184.384 -138.796 -176.813 -138.796C-178.895 -142.961 -183.059 -149.207 -190.441 -150.532C-189.873 -148.828 -188.738 -144.853 -190.063 -142.014C-197.066 -154.317 -204.637 -153.939 -204.637 -153.939C-201.609 -149.585 -201.041 -144.853 -201.419 -141.446C-203.691 -145.611 -212.966 -155.264 -223.187 -152.614C-215.994 -149.396 -213.723 -145.421 -213.155 -140.311C-218.455 -144.853 -233.597 -150.343 -240.222 -142.771C-231.704 -143.718 -226.783 -140.311 -224.89 -137.093C-232.461 -136.904 -233.786 -133.875 -238.14 -131.604C-249.118 -125.926 -259.339 -129.711 -263.314 -123.276C-260.664 -123.654 -245.143 -122.14 -238.518 -124.79C-242.115 -120.058 -250.064 -120.436 -254.986 -120.247C-259.718 -120.058 -266.532 -119.679 -271.074 -115.894C-264.26 -115.704 -256.5 -114.569 -250.632 -114.569C-255.932 -109.08 -275.238 -114.758 -280.538 -109.08C-276.185 -108.701 -271.642 -107.187 -267.667 -106.619C-272.589 -103.023 -283.377 -107.376 -288.109 -102.266C-286.027 -102.076 -282.62 -100.373 -279.781 -99.4264C-283.945 -97.3443 -290.759 -99.6156 -294.545 -95.2622C-292.841 -95.0729 -289.624 -94.1265 -287.731 -92.0445C-291.517 -91.6659 -297.384 -90.9088 -299.466 -87.3125C-292.463 -85.2304 -293.788 -75.0093 -301.548 -70.4666C-296.816 -78.2271 -298.141 -83.3376 -304.009 -83.9054C-311.391 -84.6626 -323.694 -81.0663 -332.59 -75.1986C-325.019 -87.8803 -303.82 -86.7447 -301.17 -91.8552C-311.769 -91.8552 -322.937 -88.4482 -327.29 -84.284C-325.776 -91.0981 -321.801 -96.5872 -319.151 -100.562C-316.312 -104.537 -309.12 -113.622 -306.47 -121.004C-311.202 -124.033 -311.959 -127.629 -311.959 -127.629C-304.577 -129.143 -303.063 -133.118 -303.063 -133.118C-310.823 -134.064 -315.744 -135.768 -322.369 -140.311C-320.476 -134.254 -309.877 -127.061 -320.855 -110.215C-328.237 -98.8586 -331.644 -91.6659 -335.429 -81.4448C-338.458 -73.4951 -343.947 -69.1417 -347.165 -66.3025C-348.3 -65.1668 -348.3 -63.274 -346.975 -62.3276C-344.704 -60.4348 -341.108 -58.3527 -337.511 -56.6492C-336.565 -59.2991 -334.862 -63.0847 -339.026 -68.3845C-335.429 -68.1953 -332.022 -64.7882 -332.59 -59.6777C-333.158 -55.7028 -331.644 -53.9993 -328.994 -53.6207C-322.748 -52.485 -304.388 -57.0278 -295.491 -71.0345C-289.056 -81.0663 -278.835 -88.4482 -266.153 -91.6659C-259.15 -93.3694 -255.364 -92.423 -253.471 -90.1517C-251.389 -87.5018 -252.714 -83.7162 -254.039 -81.0662C-257.068 -74.2522 -257.825 -68.006 -258.203 -61.5705C-258.771 -50.7816 -263.692 -33.5571 -271.264 -32.8C-267.857 -30.7179 -264.071 -33.1786 -261.61 -37.1534C-259.339 -40.7497 -255.743 -48.6995 -254.607 -62.1383C-254.039 -70.4666 -253.093 -74.4415 -250.064 -81.4448C-247.793 -86.5554 -247.604 -90.9088 -249.496 -93.748C-251.2 -96.0193 -253.661 -98.2907 -259.907 -98.1014C-255.743 -100.562 -248.929 -99.2371 -246.468 -95.8301C-243.629 -92.0445 -243.629 -86.1768 -246.468 -79.7413C-249.307 -73.4951 -249.875 -70.2773 -250.632 -61.7598C-252.336 -42.6425 -256.311 -35.4499 -261.421 -30.3394C-254.228 -30.5287 -249.496 -36.3963 -247.793 -43.5889C-245.332 -53.4315 -241.925 -66.1132 -240.411 -70.4666C-238.897 -75.1986 -236.436 -78.0378 -233.976 -79.9306C-228.297 -84.284 -229.811 -88.8267 -224.133 -93.1801C-232.272 -93.9373 -233.218 -83.5269 -240.6 -82.0126C-234.165 -88.8267 -234.543 -97.3443 -225.837 -101.319C-217.13 -105.294 -208.234 -102.833 -204.827 -100.183C-206.151 -106.808 -215.048 -110.972 -225.837 -109.647C-219.969 -115.326 -203.88 -111.73 -194.605 -106.43C-196.688 -112.297 -202.555 -117.597 -216.183 -119.49C-207.476 -122.897 -194.038 -118.922 -185.899 -115.326C-188.548 -121.004 -198.58 -126.115 -207.287 -127.629C-199.527 -130.279 -187.981 -129.711 -181.167 -127.44C-183.249 -132.172 -191.956 -136.714 -191.956 -136.714ZM-239.843 -93.3694C-240.6 -100.562 -236.058 -105.673 -230.379 -105.862C-233.786 -103.023 -237.193 -97.9121 -239.843 -93.3694Z" fill="white"/>
<path d="M57.7033 -193.685C67.1672 -193.307 73.0349 -181.95 70.1957 -171.35C68.4922 -179.679 65.8423 -187.25 57.7033 -193.685Z" fill="white"/>
</g>
<defs>
<clipPath id="clip0_211_1957">
<rect width="200" height="200" fill="white"/>
</clipPath>
</defs>
</svg>
