<svg width="200" height="200" viewBox="0 0 200 200" fill="none" xmlns="http://www.w3.org/2000/svg">
<g clip-path="url(#clip0_211_1952)">
<path d="M168.689 331.995L175.125 327.641C175.125 327.641 163.2 326.316 154.115 319.691L161.307 314.392C161.307 314.392 150.14 313.256 140.865 305.685C145.408 305.117 149.004 302.467 149.004 302.467C149.004 302.467 140.297 299.438 130.644 284.675L137.458 286C137.458 286 130.833 274.832 121.37 264.99L126.669 265.179C126.669 265.179 118.72 253.065 107.552 243.412L112.852 243.79C112.852 243.79 107.552 232.623 91.0848 217.67L100.549 219.184C100.549 219.184 87.4885 204.609 65.9107 190.981L77.0782 190.035C77.0782 190.035 67.8035 181.328 36.5724 170.918L46.2256 165.239C46.2256 165.239 35.2474 160.886 19.7265 160.129L25.5941 156.154C25.5941 156.154 12.7231 152.936 -2.04065 153.693L4.20557 145.176C4.20557 145.176 -15.4795 149.34 -19.4543 150.476L-17.183 141.39C-17.183 141.39 -37.2466 154.64 -61.6637 154.64C-69.4241 154.64 -76.9953 153.504 -83.8094 151.233C-81.538 149.151 -80.0238 146.122 -80.0238 146.122C-80.0238 146.122 -95.3554 142.526 -102.927 138.551C-98.0053 135.712 -94.409 131.737 -94.409 131.737C-94.409 131.737 -106.901 130.223 -119.772 123.03C-119.772 123.03 -115.608 120.569 -112.391 116.595C-112.391 116.595 -123.369 115.648 -133.401 111.105C-133.401 111.105 -127.344 107.509 -126.397 105.238C-126.397 105.238 -138.511 104.67 -151.004 100.127C-151.004 100.127 -146.082 97.8559 -142.865 95.0167C-155.357 94.2596 -167.471 90.0954 -176.935 85.5527C-186.588 80.8207 -220.091 66.0569 -254.539 64.9213L-253.215 60C-253.215 60 -268.925 61.7035 -278.389 64.732L-277.821 60.1893C-277.821 60.1893 -292.017 63.407 -302.049 67.0033L-302.616 62.6499C-302.616 62.6499 -315.866 67.3819 -325.519 73.8174L-326.466 70.4104C-326.466 70.4104 -338.012 77.0352 -344.069 82.9028L-344.826 77.603C-344.826 77.603 -356.183 84.2278 -363.754 93.1239L-364.132 85.742C-364.132 85.742 -375.3 91.7989 -381.735 104.102L-383.628 96.9095C-383.628 96.9095 -392.335 102.588 -396.688 115.08L-399.528 106.373C-399.528 106.373 -408.234 116.027 -410.695 129.087C-412.02 124.734 -418.645 115.837 -418.645 115.837C-418.645 115.837 -419.591 130.601 -422.62 138.93C-423.945 131.169 -430.38 120.002 -430.38 120.002C-430.38 120.002 -431.137 130.791 -435.68 139.308C-436.437 131.737 -442.305 122.084 -442.305 122.084C-442.305 122.084 -443.062 131.358 -446.469 137.226C-448.74 131.548 -456.122 124.355 -456.122 124.355C-456.122 124.355 -454.986 134.387 -457.636 139.308C-461.043 134.576 -469.561 130.412 -469.561 130.412C-469.561 130.412 -465.775 144.04 -476.186 152.936C-486.785 151.801 -498.71 150.476 -505.713 148.204C-514.609 145.365 -523.127 148.204 -522.748 157.1C-527.102 156.533 -531.266 155.965 -535.241 155.208C-542.812 153.693 -545.841 157.1 -546.787 158.615C-548.869 161.832 -548.301 166.564 -545.083 170.728C-538.837 178.868 -526.345 189.278 -517.07 200.635C-518.774 206.692 -518.395 215.209 -517.827 221.455L-524.641 214.452C-524.641 214.452 -525.209 226.566 -522.37 237.355L-528.805 233.001C-528.805 233.001 -527.859 245.115 -523.884 253.254C-523.884 253.254 -526.913 252.497 -530.509 250.604C-529.752 256.472 -528.238 261.583 -524.073 268.586C-521.234 273.318 -520.477 278.428 -525.398 287.514C-530.698 296.978 -534.862 302.467 -540.351 316.852C-542.434 322.72 -546.598 326.316 -549.626 328.777C-554.547 333.13 -553.98 339.755 -549.626 342.973C-544.516 346.569 -535.619 351.49 -529.941 352.437C-523.884 353.572 -515.177 351.49 -507.228 347.137C-500.792 350.733 -488.11 352.247 -479.403 347.326C-483.946 342.405 -488.678 335.969 -490.95 332.562C-486.028 324.613 -480.539 320.449 -473.725 317.231C-471.454 316.095 -468.236 319.313 -470.697 322.531C-473.536 326.505 -474.861 330.291 -475.618 334.455C-475.996 337.294 -475.239 344.108 -474.104 348.651C-473.536 351.112 -474.293 352.626 -475.996 353.383C-479.025 354.33 -483.189 355.276 -491.139 355.465C-488.11 361.333 -483.757 365.876 -476.943 368.715C-475.429 371.554 -471.643 375.529 -464.072 375.529C-452.337 375.529 -445.144 369.093 -442.494 357.926C-440.223 348.273 -436.626 335.78 -435.301 331.427C-434.166 328.02 -432.462 326.316 -430.38 324.234C-429.055 322.909 -427.541 321.395 -426.216 319.502C-425.27 318.177 -424.702 316.852 -424.134 315.717C-422.43 312.499 -419.97 308.524 -414.859 309.092C-416.184 305.495 -418.455 303.413 -420.538 302.278C-412.588 300.953 -403.881 304.36 -401.231 313.256C-400.095 309.281 -398.77 302.656 -399.717 297.924C-397.445 298.681 -392.713 301.142 -389.117 306.442C-388.36 302.846 -388.171 295.274 -390.253 289.785C-387.792 290.542 -382.871 292.435 -379.085 296.599C-378.518 290.921 -379.085 284.485 -383.249 278.618C-381.167 278.618 -377.193 279.186 -372.271 281.078C-372.65 276.914 -375.11 271.425 -378.707 266.882C-377.003 266.882 -373.028 267.072 -368.675 268.018C-369.432 264.422 -370.757 260.447 -372.839 256.851C-361.482 263.665 -354.858 271.236 -354.858 271.236C-357.129 282.403 -364.889 308.335 -366.593 314.959C-368.486 321.584 -369.054 325.37 -365.268 332.941C-359.779 343.919 -350.126 348.083 -341.229 345.244C-331.765 342.405 -328.737 340.701 -318.137 335.591C-306.023 329.723 -302.616 321.963 -303.752 315.717C-299.588 304.738 -305.266 293.382 -305.266 293.382C-305.266 293.382 -309.241 299.06 -312.08 300.953C-313.595 297.167 -317.759 293.571 -317.759 293.571C-313.027 285.81 -308.295 277.104 -305.645 268.586C-301.291 268.775 -297.695 267.45 -297.695 267.45C-297.695 267.45 -302.238 263.665 -304.131 260.636C-297.506 261.393 -288.231 261.583 -281.606 258.176C-284.635 268.018 -287.096 280.7 -288.421 292.246C-291.449 319.691 -300.345 337.294 -301.67 345.055C-303.563 355.844 -300.534 363.604 -291.07 373.636C-280.092 385.371 -270.25 386.318 -262.489 380.45C-252.079 372.5 -242.993 369.661 -232.394 368.715C-221.037 367.768 -210.059 365.497 -208.923 352.058C-198.323 344.298 -201.73 331.995 -201.73 331.995C-201.73 331.995 -206.273 333.887 -212.898 336.159C-212.141 327.83 -214.98 321.016 -214.98 321.016C-214.98 321.016 -218.198 324.423 -222.173 327.452C-224.065 323.477 -229.744 317.609 -229.744 317.609C-229.744 317.609 -231.637 323.856 -236.558 329.912C-241.668 329.912 -248.672 332.184 -254.35 335.78C-249.429 319.313 -242.615 300.574 -232.394 284.864C-228.797 279.564 -217.062 262.34 -214.412 258.176C-206.084 264.043 -202.488 264.422 -193.781 267.261C-185.074 269.911 -182.992 275.589 -186.399 292.435C-188.102 301.331 -191.509 317.799 -191.509 317.799C-191.509 317.799 -185.831 314.959 -184.885 314.392C-190.184 338.241 -186.399 348.84 -186.399 348.84C-186.399 348.84 -181.667 343.351 -181.288 342.973C-180.153 357.926 -173.906 370.608 -173.906 370.608C-173.906 370.608 -169.553 363.983 -168.796 363.226C-159.71 378.936 -142.675 378.368 -142.675 378.368L-144.19 371.175C-132.833 373.825 -121.476 371.365 -121.476 371.365L-123.369 367.201C-119.583 366.633 -115.608 365.497 -111.066 363.604C-110.687 378.557 -120.34 409.031 -123.747 419.631C-130.372 440.262 -126.397 453.701 -119.205 458.433C-115.608 469.033 -107.659 472.061 -101.412 471.304C-98.1946 473.954 -91.1913 476.983 -85.5129 473.197C-81.1595 470.547 -79.0774 465.058 -80.0238 459.758C-76.6168 455.405 -76.4275 448.401 -82.2952 437.802C-88.9199 425.688 -91.1913 420.388 -82.1059 379.693C-74.3454 385.939 -61.6637 392.375 -61.6637 392.375L-62.7993 386.886C-51.2533 392.564 -41.2215 400.135 -40.2751 413.385C-38.0038 444.237 -43.8715 470.926 -47.2785 486.825C-48.4142 491.746 -49.1712 495.532 -49.3605 497.993C-50.6855 510.296 -46.8999 515.217 -42.925 519.76C-41.4108 525.627 -39.1395 533.766 -27.0256 534.334C-22.4828 539.823 -14.5331 541.148 -9.61182 539.066C-4.31201 536.606 -1.85138 532.252 -1.66211 525.06C4.0163 521.653 4.77344 513.514 0.798523 502.346C-5.63696 485.122 -11.126 470.169 -5.06909 432.881C-3.3656 421.902 -1.09424 413.385 0.609253 406.571C5.15198 388.778 7.42328 379.882 -6.58337 365.876C-1.28357 364.551 4.0163 361.522 4.0163 361.522C4.0163 361.522 -12.451 356.79 -23.6185 344.676C-16.8045 347.326 -8.28693 347.515 -8.28693 347.515C-8.28693 347.515 -16.4259 339.376 -21.1579 329.345C-19.6436 330.291 -10.9368 333.698 -10.9368 333.698C-10.9368 333.698 -16.8044 317.988 -19.0758 309.66L-11.8832 315.717C-11.8832 315.717 -13.776 299.06 -15.8581 292.057L-11.1261 294.328C-11.1261 294.328 -14.3438 281.078 -17.183 273.507L-13.2082 274.264C-13.2082 274.264 -16.9937 259.879 -22.1042 252.119H-18.1294C-18.1294 252.119 -20.7793 242.655 -26.647 235.651L-23.6185 235.273C-23.6185 235.273 -28.3505 224.862 -37.8145 216.913L-35.3538 215.588C-35.3538 215.588 -44.4393 209.152 -49.9284 198.931C-21.5364 206.692 -14.1545 231.109 -14.1545 231.109L-11.1261 227.323C-4.31201 239.058 -0.147827 256.472 -0.147827 256.472L3.25916 253.254C6.47693 262.718 15.5623 281.646 15.5623 281.646L18.5908 276.536C22.9442 289.028 31.6511 306.442 31.6511 306.442L33.9225 302.088C40.1687 315.338 52.4718 328.777 52.4718 328.777L52.6611 324.045C60.043 334.644 72.3462 346.001 72.3462 346.001L72.1569 339.566C77.4567 344.676 83.3244 349.408 92.2205 354.519L91.8419 347.894C102.82 354.897 116.638 360.576 116.638 360.576L114.745 356.033C122.695 359.44 135.376 362.469 135.376 362.469L133.862 357.926C141.055 360.197 153.547 360.197 153.547 360.197L151.276 355.276C185.725 352.626 193.106 331.616 193.106 331.616C193.106 331.616 181.56 336.159 168.689 331.995Z" fill="#101010"/>
<path d="M47.9284 313.634C39.0322 302.277 35.2466 287.514 35.2466 287.514L32.2181 293.76C25.9719 281.646 20.6721 262.529 20.6721 262.529L16.6973 269.532C11.5867 258.743 7.04401 243.033 7.04401 243.033L3.25842 246.44C-3.74493 225.43 -9.99115 217.859 -9.99115 217.859L-12.2625 220.698C-16.8052 213.127 -29.4869 197.038 -54.0932 191.928C-37.4366 191.17 -18.698 201.959 -11.6946 211.613C-9.99115 209.72 -9.23407 207.827 -9.23407 207.827C-1.47357 215.02 5.71906 233.38 5.71906 233.38L10.2618 227.134L18.0222 253.633L22.7542 247.197L31.8396 279.375L36.7609 272.182L45.2785 298.681L47.3605 290.921C47.3605 290.921 53.796 306.82 62.3136 318.745L63.6385 314.391C63.6385 314.391 74.2382 329.155 85.4057 341.837C77.8345 338.241 65.7206 325.748 65.7206 325.748V330.48C56.2567 321.016 48.6855 306.252 48.6855 306.252L47.9284 313.634Z" fill="white"/>
<path d="M-4.49982 404.678C-6.20331 411.681 -8.47467 420.388 -10.1782 431.556C-16.4244 470.358 -10.3674 486.636 -3.93195 503.86C-2.79626 507.078 0.232117 517.678 -6.58191 520.895C-5.82483 526.763 -6.96051 531.684 -11.1246 533.388C-14.5317 534.902 -20.3993 533.009 -23.9956 528.277C-34.9738 527.899 -36.1095 520.895 -36.8666 516.542C-40.463 511.999 -43.8699 507.457 -42.9236 498.182C-41.7879 487.961 -31.3775 444.427 -33.6489 412.817C-34.9738 394.646 -51.6304 383.668 -69.612 376.854L-68.6656 381.396C-81.5366 374.015 -92.5148 360.008 -92.5148 360.008L-92.8933 367.011C-104.061 358.494 -107.846 347.326 -107.846 347.326L-110.496 351.68C-118.446 338.43 -118.446 323.098 -118.446 323.098L-123.367 328.02C-124.503 311.931 -122.042 295.274 -122.042 295.274L-127.153 298.871C-127.531 284.485 -120.907 264.232 -120.907 264.232L-126.396 267.072C-126.964 256.472 -121.664 240.005 -121.664 240.005L-126.585 241.519C-122.421 227.323 -121.664 216.534 -123.935 209.72C-128.289 196.66 -141.727 195.713 -149.299 195.335C-137.563 190.603 -120.339 196.092 -118.446 213.506C-118.446 213.506 -114.471 209.909 -112.957 203.474C-108.793 215.209 -118.068 217.48 -119.771 233.569C-115.228 228.459 -109.739 228.648 -109.739 228.648C-109.739 228.648 -120.15 247.387 -119.392 257.418C-113.525 248.712 -106.9 247.765 -106.9 247.765C-110.875 253.822 -117.5 269.722 -119.392 282.214C-119.203 282.214 -109.929 269.532 -105.764 267.261C-113.903 284.296 -119.014 302.088 -117.31 311.742C-117.121 311.742 -112.011 294.517 -103.682 288.65C-114.66 312.499 -112.957 330.67 -109.361 337.862C-108.793 318.745 -102.925 313.256 -102.925 313.256C-102.925 313.256 -106.9 344.298 -95.9218 356.412C-98.0039 349.03 -97.2468 339.755 -95.5433 335.212C-92.7041 351.869 -83.2401 364.929 -76.0475 368.904C-76.0475 368.904 -83.6187 356.79 -83.0508 347.894C-76.8046 360.386 -69.8012 369.093 -60.3373 375.34C-60.3373 375.34 -61.8515 370.797 -64.5014 365.497C-57.8766 370.418 -47.0877 378.936 -38.5702 389.535L-39.8951 379.882C-39.8951 379.882 -30.4312 387.643 -28.3491 408.085C-26.4562 426.445 -31.9453 462.03 -35.1631 483.418C-37.4344 498.56 -38.5701 507.835 -29.8633 513.324C-29.8633 513.324 -32.7025 500.453 -28.7276 493.071C-28.7276 493.071 -26.0776 519.76 -13.3959 526.006C-13.3959 526.006 -22.6707 507.457 -20.3993 492.314C-20.3993 492.314 -13.5852 510.674 -7.33899 513.135C-13.5852 495.154 -16.6137 477.929 -16.6137 455.215C-16.6137 437.613 -11.1246 414.142 -13.2067 406.76C-18.3173 420.199 -21.9136 447.455 -22.2921 473.576C-27.0241 466.194 -23.0492 419.631 -18.5065 405.056C-22.4813 403.164 -27.4026 398.621 -27.2134 390.103C-20.0208 402.974 -8.28546 400.514 -7.14978 390.103C-5.6355 377.232 -22.2921 375.34 -27.4026 365.308C-16.2352 373.068 -0.714233 372.879 -0.714233 386.696C-1.2821 391.618 -2.60699 397.107 -4.49982 404.678Z" fill="white"/>
<path d="M-85.8907 457.866C-84.9443 460.326 -83.8086 466.194 -87.9728 468.465C-92.7048 470.737 -97.626 466.762 -99.3296 465.247C-102.926 466.194 -110.876 465.247 -113.904 454.459C-119.961 450.294 -124.125 440.83 -117.879 421.145C-112.011 402.785 -104.629 378.179 -104.819 363.794C-103.683 364.929 -102.547 366.065 -101.412 367.201C-101.222 378.179 -108.415 406.192 -112.768 420.199C-117.122 434.395 -115.986 445.373 -110.118 451.051C-111.633 444.427 -111.822 431.934 -108.604 427.202C-109.929 446.698 -101.033 457.866 -91.7584 462.219C-99.1403 451.43 -104.629 441.02 -102.547 427.959C-100.654 438.559 -94.9761 447.834 -88.5406 449.916C-94.219 440.073 -98.951 429.663 -97.8153 416.413C-96.4904 399.378 -91.5691 375.718 -91.5691 375.718L-87.0264 379.315C-96.3011 421.145 -93.0833 428.149 -86.6478 440.263C-80.4016 452.376 -83.2408 456.541 -85.8907 457.866Z" fill="white"/>
<path d="M-166.712 352.815C-168.416 345.811 -166.334 337.672 -162.548 333.698C-164.062 349.976 -157.627 360.575 -149.298 371.932C-157.816 369.85 -165.009 359.818 -166.712 352.815Z" fill="white"/>
<path d="M-182.046 335.781C-182.046 328.21 -179.963 318.557 -178.071 310.985C-175.989 303.414 -171.257 294.329 -168.607 291.679C-168.985 296.979 -173.339 310.985 -174.096 313.825C-175.989 320.26 -179.206 329.156 -182.046 335.781Z" fill="white"/>
<path d="M-207.977 247.198C-207.22 250.984 -205.706 254.58 -203.813 257.798C-209.302 256.094 -211.384 251.93 -207.977 247.198Z" fill="white"/>
<path d="M-229.743 270.856C-226.336 257.796 -230.311 239.436 -226.715 231.676C-225.957 235.083 -222.74 245.872 -221.225 249.657C-217.629 241.329 -225.2 227.701 -222.361 218.615C-220.279 222.969 -216.493 229.404 -213.086 235.84C-210.437 226.754 -219.711 215.587 -217.818 205.176C-215.169 209.341 -211.761 215.587 -208.165 221.076C-207.597 211.423 -210.247 195.713 -215.547 186.059C-218.765 180.002 -230.311 162.589 -256.999 161.642C-246.21 158.235 -232.204 161.074 -219.333 171.863C-206.462 182.842 -202.676 199.498 -190.941 203.284C-195.673 206.88 -200.973 205.555 -205.326 200.634C-205.326 205.934 -202.108 210.098 -196.998 211.801C-200.973 214.64 -203.622 219.94 -204.569 223.347C-208.733 236.408 -216.493 253.253 -229.743 270.856Z" fill="white"/>
<path d="M-244.697 295.085C-245.833 290.164 -249.429 269.911 -241.669 259.69C-242.426 273.129 -240.533 286.189 -244.697 295.085Z" fill="white"/>
<path d="M-246.398 337.863C-239.963 335.592 -233.338 338.809 -228.795 344.298C-228.984 340.513 -230.688 337.295 -233.338 334.645C-233.338 334.645 -230.688 332.374 -229.174 328.21C-226.713 331.995 -226.713 338.62 -226.713 338.62C-226.713 338.62 -221.981 335.97 -219.331 332.374C-218.385 338.809 -220.088 343.163 -220.088 343.163C-220.088 343.163 -214.599 343.352 -208.732 339.756C-208.921 343.92 -211.76 347.327 -214.599 348.084C-214.031 358.305 -218.953 360.766 -232.959 362.469C-261.351 365.687 -264.948 380.451 -275.358 377.612C-265.894 372.69 -262.298 367.012 -249.237 361.523C-239.016 357.169 -220.278 359.63 -224.252 347.895C-227.659 356.223 -243.748 350.734 -262.108 359.441C-257.755 344.109 -252.834 340.134 -246.398 337.863Z" fill="white"/>
<path d="M-295.234 357.925C-297.505 353.004 -296.937 347.136 -295.423 343.161C-288.231 324.612 -284.634 308.523 -282.741 293.002C-280.849 279.374 -278.577 257.607 -268.356 252.307C-268.356 252.307 -268.735 262.15 -266.274 268.775C-269.87 267.639 -271.574 261.771 -271.574 261.771C-271.574 261.771 -274.792 269.532 -271.574 281.835C-274.224 280.889 -275.738 278.428 -275.738 278.428C-275.738 278.428 -278.009 288.081 -275.36 298.492C-277.631 297.924 -279.334 295.463 -279.334 295.463C-279.334 295.463 -281.984 308.713 -278.956 318.177C-281.795 317.419 -283.499 314.77 -283.499 314.77C-283.499 314.77 -285.391 326.694 -283.309 336.158C-285.959 335.401 -287.852 332.562 -287.852 332.562C-288.798 336.915 -289.177 344.297 -285.391 351.868C-288.041 351.49 -289.745 349.408 -291.07 348.083C-294.098 356.033 -284.445 367.389 -280.849 374.96C-287.095 371.364 -293.72 361.332 -295.234 357.925Z" fill="white"/>
<path d="M-305.832 246.442C-301.479 252.309 -290.879 255.149 -290.879 255.149C-295.044 255.716 -304.886 256.663 -319.461 248.524C-317.946 252.877 -310.943 261.206 -309.618 262.72C-318.893 261.584 -332.899 247.01 -332.899 247.01C-332.899 247.01 -330.439 254.959 -326.085 262.72C-332.142 259.124 -341.606 247.767 -349.745 238.681C-359.209 227.892 -369.809 217.293 -373.595 206.882C-366.591 214.264 -342.931 239.438 -337.631 240.763C-342.553 233.382 -354.856 218.428 -357.506 208.207C-343.878 224.675 -332.521 236.41 -325.707 240.574C-329.303 234.896 -338.956 222.025 -343.121 209.154C-331.953 222.971 -317.757 235.842 -314.35 236.031C-318.893 231.489 -327.978 218.996 -331.953 208.775C-320.407 220.321 -310.754 228.082 -305.454 229.974C-311.889 222.214 -316.243 217.482 -320.786 208.018C-312.836 215.4 -304.508 221.457 -297.883 222.593C-297.883 222.593 -307.915 212.939 -311.511 205.557C-301.858 213.129 -293.529 215.968 -292.015 215.779C-294.476 213.696 -299.776 209.154 -302.993 203.475C-291.069 210.857 -284.444 210.857 -280.09 210.857C-268.166 210.857 -258.891 205.936 -252.077 204.99C-258.513 214.075 -267.219 218.239 -271.005 220.321C-264.002 221.646 -254.916 219.564 -254.916 219.564C-260.027 226.189 -266.084 229.974 -277.63 233.382C-271.573 235.653 -260.595 235.085 -260.595 235.085C-266.462 240.385 -275.358 242.467 -290.501 242.088C-284.065 246.82 -272.709 248.335 -272.709 248.335C-278.576 250.417 -290.69 250.227 -305.832 246.442Z" fill="white"/>
<path d="M-309.431 315.149C-307.728 321.395 -312.081 326.127 -320.22 330.481C-333.659 337.484 -343.123 341.08 -348.423 339.566C-340.662 337.484 -311.513 324.802 -314.163 317.042C-315.867 321.963 -330.82 328.588 -339.148 329.913C-338.202 327.641 -333.47 318.556 -331.198 315.717C-328.17 311.931 -324.006 310.228 -317.759 314.392C-318.138 311.742 -320.031 309.849 -321.923 308.524C-321.923 308.524 -319.463 305.496 -317.759 301.71C-315.677 305.496 -315.677 310.606 -315.677 310.606C-315.677 310.606 -311.324 308.714 -307.728 304.739C-306.781 310.228 -308.106 313.067 -309.431 315.149Z" fill="white"/>
<path d="M-361.102 316.663C-358.641 307.767 -349.556 276.536 -347.852 264.422C-346.149 268.586 -345.013 272.372 -347.284 281.268C-349.745 290.164 -353.531 304.171 -355.991 313.256C-359.398 325.749 -357.884 331.048 -353.72 338.809C-359.966 335.78 -363.562 325.37 -361.102 316.663Z" fill="white"/>
<path d="M-465.964 352.058C-466.91 351.301 -468.614 348.083 -468.992 346.758C-466.531 345.244 -465.017 343.919 -465.017 343.919C-465.017 343.919 -468.424 342.215 -469.938 338.24C-467.478 338.051 -464.26 337.673 -461.799 336.537C-461.799 339.187 -462.178 341.837 -462.746 344.297C-463.314 347.326 -464.26 349.219 -465.964 352.058Z" fill="white"/>
<path d="M-461.23 331.995C-463.691 329.724 -465.016 327.263 -465.584 325.56C-463.88 325.181 -461.609 324.803 -459.527 323.856C-460.284 326.695 -460.852 329.345 -461.23 331.995Z" fill="white"/>
<path d="M-468.236 357.358C-468.425 358.304 -468.615 359.44 -468.993 361.332C-469.372 363.225 -471.075 363.982 -473.536 363.604C-475.996 363.225 -478.268 362.468 -480.161 360.575C-478.079 360.197 -472.779 358.872 -468.236 357.358Z" fill="white"/>
<path d="M-501.17 343.163C-498.709 341.46 -496.438 339.378 -494.356 337.106C-492.652 339.378 -490.57 342.028 -489.056 344.11C-493.599 345.056 -497.952 344.11 -501.17 343.163Z" fill="white"/>
<path d="M-540.539 167.323C-542.432 164.862 -543.379 162.97 -541.864 161.645C-540.539 160.32 -538.268 161.266 -536.375 162.97C-525.586 172.812 -509.119 193.065 -509.119 201.393C-518.583 190.415 -536.754 172.244 -540.539 167.323Z" fill="white"/>
<path d="M-516.31 153.882C-514.039 151.232 -508.55 152.178 -504.197 154.449C-499.654 156.721 -482.051 167.32 -481.294 167.699C-473.723 172.81 -468.044 176.974 -464.069 182.841C-460.094 188.709 -457.823 194.198 -456.12 200.634C-453.659 193.82 -457.444 179.624 -466.908 169.403C-458.391 171.485 -449.305 187.195 -448.17 198.93C-445.709 191.927 -447.223 178.109 -457.634 167.32C-449.873 169.403 -441.924 180.949 -440.599 197.037C-437.192 190.791 -439.463 174.135 -449.116 164.292C-441.734 166.753 -434.542 177.163 -433.406 189.655C-433.027 193.441 -434.163 197.227 -436.434 200.255C-440.22 205.176 -446.088 209.34 -452.334 211.801C-449.305 219.94 -439.463 221.076 -430.188 218.615C-438.706 226.943 -456.687 224.483 -461.419 208.205C-464.448 197.605 -465.394 190.602 -469.937 184.923C-474.29 179.056 -478.265 176.595 -484.701 172.052C-490.568 167.888 -498.897 162.778 -504.386 159.749C-509.118 157.099 -513.282 160.506 -507.793 166.942C-507.604 162.967 -504.575 162.778 -501.357 165.049C-498.14 167.131 -490.19 172.81 -486.404 175.27C-486.404 175.27 -490.379 176.406 -493.408 176.784C-492.083 177.92 -485.836 179.813 -480.158 180.002C-484.701 182.463 -491.326 183.977 -491.326 183.977C-485.836 186.816 -475.047 185.681 -475.047 185.681C-479.022 188.898 -488.865 190.98 -488.865 190.98C-483.376 193.82 -471.83 191.927 -471.83 191.927C-474.669 195.523 -484.701 197.605 -484.701 197.605C-480.537 199.877 -473.533 199.498 -468.991 197.794C-470.883 206.312 -485.647 208.394 -496.058 193.441C-500.032 187.573 -511.957 168.456 -514.607 163.724C-517.257 159.181 -517.825 155.774 -516.31 153.882Z" fill="white"/>
<path d="M-441.356 139.686C-437.192 148.961 -444.952 158.046 -450.441 156.722C-447.602 152.368 -443.438 145.365 -441.356 139.686Z" fill="white"/>
<path d="M-428.674 137.793C-424.321 149.15 -435.299 162.778 -442.87 160.507C-435.867 153.125 -431.324 144.229 -428.674 137.793Z" fill="white"/>
<path d="M-407.096 139.687C-406.15 134.387 -404.257 125.491 -401.229 119.056C-401.229 119.056 -398.579 127.195 -401.04 141.769C-402.365 150.098 -406.907 158.426 -412.586 161.833C-409.179 154.262 -408.421 147.637 -407.096 139.687Z" fill="white"/>
<path d="M-386.656 107.699C-386.656 107.699 -387.981 124.166 -389.306 135.334C-391.009 149.151 -397.255 166.944 -405.584 169.404C-397.445 154.83 -396.309 138.552 -394.984 130.223C-393.848 121.895 -390.441 113.188 -386.656 107.699Z" fill="white"/>
<path d="M-369.242 96.721C-369.242 96.721 -374.353 111.296 -376.245 119.624C-378.138 127.574 -380.788 135.523 -384.006 141.77C-385.141 137.416 -384.952 124.734 -382.681 118.299C-380.41 112.053 -375.678 103.157 -369.242 96.721Z" fill="white"/>
<path d="M-349.368 87.0684C-349.368 87.0684 -357.507 102.589 -361.103 108.836C-364.321 114.703 -365.835 116.217 -370.189 123.599C-371.324 119.435 -369.999 109.593 -366.782 104.861C-363.375 100.129 -354.668 91.4218 -349.368 87.0684Z" fill="white"/>
<path d="M-234.666 72.8718C-237.694 74.1967 -243.373 78.9287 -253.783 76.8466C-246.401 71.1682 -240.344 71.9254 -234.666 72.8718Z" fill="white"/>
<path d="M-215.736 77.0366C-220.09 77.4151 -227.85 82.5257 -238.071 78.5508C-232.961 74.7652 -223.307 74.7652 -215.736 77.0366Z" fill="white"/>
<path d="M-194.157 84.4175C-198.132 84.2282 -207.785 87.446 -220.467 81.7676C-213.842 78.5498 -201.16 81.1998 -194.157 84.4175Z" fill="white"/>
<path d="M-179.205 90.8523C-172.769 93.5022 -162.359 97.4771 -158.952 98.6128C-165.198 98.802 -174.662 97.2878 -181.476 95.2057C-188.29 93.1237 -191.697 91.7987 -198.511 88.0131C-192.454 87.256 -185.64 88.0131 -179.205 90.8523Z" fill="white"/>
<path d="M112.854 286.189C106.04 281.268 99.6047 276.915 92.7907 271.425C98.6584 272.75 108.312 276.536 115.315 280.889C122.318 285.054 132.35 296.41 135.757 300.007C129.322 296.978 121.94 292.814 112.854 286.189Z" fill="white"/>
<path d="M125.724 278.049C117.963 276.914 107.742 271.992 102.064 268.964C95.0606 265.178 86.3537 259.5 80.8646 252.307C89.0036 255.525 97.1426 257.607 105.282 262.718C113.988 268.018 122.506 275.21 125.724 278.049Z" fill="white"/>
<path d="M26.9209 191.172C20.4854 189.657 14.9963 188.333 4.96442 187.575C12.7249 183.411 22.5674 185.872 26.9209 191.172Z" fill="white"/>
<path d="M38.0889 204.042C30.5178 201.96 26.1643 201.203 16.1325 199.5C22.9466 195.525 33.7355 198.553 38.0889 204.042Z" fill="white"/>
<path d="M50.392 216.155C43.3886 213.695 37.8995 213.127 28.4355 211.613C34.1139 207.449 45.4707 210.098 50.392 216.155Z" fill="white"/>
<path d="M63.0722 228.838C55.6903 226.945 50.5798 225.62 41.1158 224.295C46.4156 220.131 57.2046 222.591 63.0722 228.838Z" fill="white"/>
<path d="M52.8497 236.788C58.7173 234.138 69.6956 238.113 73.6705 244.738C67.0457 241.899 61.178 239.249 52.8497 236.788Z" fill="white"/>
<path d="M62.8832 253.445C70.6436 250.985 78.7827 254.77 81.6218 260.449C76.7006 257.799 71.2115 255.906 62.8832 253.445Z" fill="white"/>
<path d="M90.5165 250.226C84.4595 246.819 76.3205 239.627 71.7778 235.463C78.5919 236.598 84.8381 237.923 92.22 241.898C99.4126 245.873 107.362 251.93 113.419 257.798C106.794 256.283 96.5734 253.634 90.5165 250.226Z" fill="white"/>
<path d="M100.927 236.597C100.927 236.597 88.2452 235.461 78.5919 231.486C72.3457 229.026 62.1246 221.455 60.4211 219.183C65.1531 219.751 76.3206 221.833 81.0526 224.294C87.2988 227.701 100.738 236.408 100.927 236.597Z" fill="white"/>
<path d="M60.6125 212.559C52.2842 208.773 45.4701 203.095 42.8202 201.202C49.0664 201.77 60.4232 204.798 67.8051 208.773C75.187 212.748 84.651 219.373 90.3294 224.862C82.0011 219.751 69.5086 216.533 60.6125 212.559Z" fill="white"/>
<path d="M48.4963 197.607C39.7894 195.335 32.029 189.468 27.297 186.25C33.5432 186.25 43.1965 188.332 51.9033 191.739C60.6102 195.146 77.8346 204.231 84.2701 210.667C70.8312 204.799 59.4745 200.257 48.4963 197.607Z" fill="white"/>
<path d="M29.0028 181.708C21.4316 180.951 7.80347 178.869 7.80347 178.869C7.80347 178.869 14.0497 174.894 27.11 176.219C37.5203 177.355 55.6912 183.601 59.666 185.873C47.7414 184.548 36.574 182.466 29.0028 181.708Z" fill="white"/>
<path d="M11.9663 170.919C1.55591 172.811 -0.904724 173.379 -6.96167 174.515C-4.31177 170.919 4.01654 167.133 11.2092 166.187C18.4018 165.24 28.0551 165.24 32.787 166.565C25.5944 168.269 22.3766 169.026 11.9663 170.919Z" fill="white"/>
<path d="M-6.20325 165.43C-11.5031 166.944 -17.1815 168.08 -22.4813 168.269C-18.3171 165.051 -12.6387 161.834 -7.71747 160.509C-2.7962 159.373 1.17865 158.805 10.0748 159.373C10.0748 159.562 0.800049 163.537 -6.20325 165.43Z" fill="white"/>
<path d="M-24.3732 158.047C-20.0198 155.965 -11.1236 153.883 -8.85223 153.694C-13.2056 157.479 -18.5055 161.265 -24.1839 163.915C-29.8622 166.565 -32.7015 166.943 -36.8657 167.89C-35.1621 165.24 -28.7266 160.129 -24.3732 158.047Z" fill="white"/>
<path d="M-60.7164 164.672C-70.1804 164.672 -83.2407 162.212 -89.4869 155.019C-83.9978 157.48 -71.5054 160.13 -61.4735 160.13C-47.4669 160.13 -34.2173 155.965 -25.5104 152.18C-29.1068 158.426 -42.167 164.672 -60.7164 164.672Z" fill="white"/>
<path d="M-53.7131 211.236C-57.8773 208.964 -62.9878 203.475 -62.9878 203.475C-62.9878 203.475 -55.2273 205.368 -51.631 207.45C-48.0347 209.532 -45.0063 214.075 -45.0063 214.075C-45.0063 214.075 -50.6846 212.939 -53.7131 211.236Z" fill="white"/>
<path d="M-29.6746 250.982C-25.1319 256.661 -23.2391 260.825 -22.1034 265.557C-25.889 262.15 -29.4853 258.743 -33.4601 254.768C-37.435 250.793 -41.9778 245.304 -47.8455 238.111C-38.9493 241.708 -34.028 245.115 -29.6746 250.982Z" fill="white"/>
<path d="M-32.8923 268.397C-34.9744 265.936 -44.2491 255.715 -48.7918 249.279C-43.8705 251.551 -34.2172 257.986 -28.9174 263.854C-23.6176 269.722 -20.7784 278.618 -19.4534 284.107C-22.8605 280.889 -28.5389 273.507 -32.8923 268.397Z" fill="white"/>
<path d="M-28.7297 321.017C-32.5153 318.557 -39.1401 311.175 -42.3578 306.064C-45.1971 301.711 -49.3612 291.3 -50.3076 284.676C-46.522 288.461 -42.9257 294.139 -38.7615 300.386C-36.6795 303.603 -29.8654 317.232 -28.7297 321.017Z" fill="white"/>
<path d="M-32.1359 339.376C-35.543 338.43 -39.8963 335.969 -43.6819 333.319C-47.4675 330.669 -51.6317 326.695 -53.3352 323.288C-49.3603 324.423 -45.1961 326.316 -41.2213 329.534C-37.2464 332.751 -33.6501 337.105 -32.1359 339.376Z" fill="white"/>
<path d="M-58.2573 286.947C-61.2858 280.511 -66.2071 274.265 -70.1819 270.101C-64.5035 270.669 -56.9324 278.429 -58.2573 286.947Z" fill="white"/>
<path d="M-69.8011 254.391C-62.987 254.959 -55.6051 262.34 -55.9836 270.48C-59.9585 264.233 -63.3656 260.826 -69.8011 254.391Z" fill="white"/>
<path d="M-55.2266 254.391C-59.3907 250.984 -63.3656 247.577 -69.8011 242.845C-63.9334 242.655 -56.3622 247.955 -55.2266 254.391Z" fill="white"/>
<path d="M-57.4994 240.951C-60.3386 237.733 -62.4207 236.03 -67.5312 231.298C-61.8528 231.487 -57.3102 236.03 -57.4994 240.951Z" fill="white"/>
<path d="M-69.8011 285.431C-66.2048 287.513 -61.2835 293.949 -60.9049 298.302C-65.2584 295.842 -68.8547 290.353 -69.8011 285.431Z" fill="white"/>
<path d="M-65.8271 305.305C-62.2308 307.388 -60.1487 310.795 -59.9594 314.391C-63.9343 312.877 -65.4486 309.848 -65.8271 305.305Z" fill="white"/>
<path d="M-182.992 304.55C-181.667 298.493 -180.342 293.572 -179.774 286.569C-179.206 280.133 -179.774 275.401 -180.72 271.805C-176.556 273.698 -174.285 281.647 -174.853 287.136C-175.421 292.815 -177.881 299.061 -182.992 304.55Z" fill="white"/>
<path d="M-261.92 156.722C-254.538 152.936 -241.099 151.801 -233.339 153.315C-225.578 154.64 -218.575 158.236 -214.032 163.536C-214.032 163.536 -220.846 162.211 -233.907 158.426C-241.288 156.344 -248.292 155.776 -261.92 156.722Z" fill="white"/>
<path d="M-235.044 180.95C-238.641 173.947 -244.13 170.54 -258.515 169.593C-254.54 167.701 -248.673 166.944 -242.616 168.836C-237.694 170.161 -234.098 174.325 -235.044 180.95Z" fill="white"/>
<path d="M-227.092 215.587C-228.985 207.827 -231.635 202.716 -237.314 196.47C-231.257 195.902 -222.739 206.312 -227.092 215.587Z" fill="white"/>
<path d="M-239.964 210.289C-233.15 211.046 -228.229 221.835 -232.393 229.974C-233.907 220.699 -236.746 215.021 -239.964 210.289Z" fill="white"/>
<path d="M-239.776 244.927C-239.776 236.788 -242.236 227.892 -244.508 224.485C-237.883 225.431 -234.665 237.924 -239.776 244.927Z" fill="white"/>
<path d="M-257.376 326.506C-260.594 319.502 -264.001 308.145 -261.54 298.492C-257.565 304.171 -254.348 317.988 -257.376 326.506Z" fill="white"/>
<path d="M-325.329 148.584C-330.818 144.61 -330.25 137.228 -326.843 134.389C-326.465 139.12 -325.897 144.42 -325.329 148.584Z" fill="white"/>
<path d="M-371.513 178.868C-367.728 175.84 -363.753 172.811 -360.156 168.647C-359.399 173.758 -365.078 180.193 -371.513 178.868Z" fill="white"/>
<path d="M-372.648 160.509C-369.241 156.345 -367.348 153.127 -365.077 147.638C-362.616 153.695 -367.538 160.698 -372.648 160.509Z" fill="white"/>
<path d="M-340.471 263.286C-347.663 256.094 -359.966 240.573 -363.941 235.652C-370.566 227.513 -384.762 214.831 -393.469 208.963C-383.248 210.288 -365.834 225.052 -359.399 232.812C-351.07 243.034 -342.174 255.147 -340.471 263.286Z" fill="white"/>
<path d="M-328.546 300.197C-334.225 307.957 -339.335 317.611 -342.931 325.182C-344.635 318.557 -339.903 310.797 -339.903 310.797L-344.256 310.607C-340.282 305.307 -334.792 301.9 -328.546 300.197Z" fill="white"/>
<path d="M-511.58 297.924C-507.416 291.3 -496.438 293.382 -489.245 294.139C-493.22 298.682 -504.766 295.275 -511.58 297.924Z" fill="white"/>
<path d="M-520.286 307.767C-515.554 300.385 -505.522 300.196 -495.68 300.953C-498.519 305.306 -507.605 302.846 -520.286 307.767Z" fill="white"/>
<path d="M-416.371 164.673C-417.128 172.244 -425.646 176.219 -431.513 172.623C-425.835 170.73 -420.157 167.702 -416.371 164.673Z" fill="white"/>
<path d="M-402.175 234.326C-395.929 229.215 -382.869 230.54 -377.001 239.247C-385.708 236.219 -394.415 234.704 -402.175 234.326Z" fill="white"/>
<path d="M-413.532 224.107C-406.529 218.996 -395.929 222.403 -390.818 227.703C-398.579 225.999 -406.718 224.864 -413.532 224.107Z" fill="white"/>
<path d="M-423.942 201.014C-416.939 197.229 -408.8 198.932 -404.636 204.421C-410.125 202.907 -414.668 201.771 -423.942 201.014Z" fill="white"/>
<path d="M-425.835 180.951C-418.264 179.437 -414.1 178.68 -408.043 176.03C-410.125 183.223 -420.914 184.548 -425.835 180.951Z" fill="white"/>
<path d="M-480.915 271.047C-471.83 270.479 -468.801 266.126 -467.287 263.287C-466.719 270.101 -472.776 275.022 -480.348 275.022C-486.972 275.022 -492.651 274.076 -495.868 274.454C-492.651 270.669 -486.972 271.426 -480.915 271.047Z" fill="white"/>
<path d="M-497.952 220.32C-502.873 215.588 -507.226 210.288 -505.902 202.906C-502.684 209.531 -499.655 212.181 -494.545 216.913C-488.866 222.212 -486.216 227.512 -487.352 231.866C-490.381 226.377 -493.22 225.052 -497.952 220.32Z" fill="white"/>
<path d="M-491.708 213.128C-497.765 208.396 -502.875 203.664 -501.55 195.335C-497.954 202.906 -493.979 205.935 -490.951 208.396C-484.704 213.128 -480.351 218.238 -481.487 225.241C-484.137 219.942 -486.408 217.481 -491.708 213.128Z" fill="white"/>
<path d="M-504.386 289.407C-500.222 283.161 -482.998 287.325 -481.862 287.514C-485.837 291.3 -496.626 288.082 -504.386 289.407Z" fill="white"/>
<path d="M-482.053 283.349C-487.164 283.349 -493.41 281.078 -500.035 282.024C-496.628 276.724 -488.3 278.996 -481.864 278.996C-475.618 278.996 -472.779 277.481 -468.615 275.021C-469.94 279.185 -475.618 283.349 -482.053 283.349Z" fill="white"/>
<path d="M-386.087 244.737C-378.705 241.14 -369.43 245.683 -365.077 254.958C-369.809 251.74 -377.19 247.387 -386.087 244.737Z" fill="white"/>
<path d="M-354.669 262.529C-360.347 252.118 -372.083 239.247 -378.897 232.244C-388.739 222.023 -402.935 215.777 -412.778 213.884C-399.718 212.18 -387.036 218.426 -375.679 228.648C-366.972 236.787 -353.723 253.065 -354.669 262.529Z" fill="white"/>
<path d="M-397.066 184.547C-392.902 183.033 -382.113 175.841 -378.327 171.298C-378.327 179.437 -389.873 186.44 -397.066 184.547Z" fill="white"/>
<path d="M-394.038 192.496C-386.656 192.496 -381.167 191.549 -375.868 190.035C-378.328 195.524 -388.928 196.66 -394.038 192.496Z" fill="white"/>
<path d="M-404.069 190.413C-410.315 193.063 -417.887 193.063 -423.565 190.602C-417.887 188.52 -409.937 188.331 -404.069 190.413Z" fill="white"/>
<path d="M-384.194 151.233C-380.787 162.59 -391.765 177.354 -401.229 177.354C-395.551 171.865 -388.547 163.158 -384.194 151.233Z" fill="white"/>
<path d="M-373.596 131.738C-369.621 135.523 -371.135 145.177 -376.057 147.448C-374.732 141.959 -373.975 136.848 -373.596 131.738Z" fill="white"/>
<path d="M-356.183 118.3C-359.022 124.167 -361.861 130.603 -363.754 135.524C-365.836 128.521 -360.915 120.193 -356.183 118.3Z" fill="white"/>
<path d="M-280.66 71.5478C-275.36 69.8443 -270.06 68.1407 -263.625 67.1943C-268.546 70.2228 -274.603 74.7655 -279.335 76.469C-284.067 78.1725 -292.774 78.5511 -292.774 78.5511C-292.774 78.5511 -286.717 73.6298 -280.66 71.5478Z" fill="white"/>
<path d="M-241.666 148.962C-251.13 148.962 -263.244 151.233 -271.572 153.315C-268.733 150.098 -254.537 144.987 -241.855 144.608C-231.634 144.23 -223.685 146.501 -219.331 150.476C-227.849 150.665 -233.148 148.962 -241.666 148.962Z" fill="white"/>
<path d="M-266.842 193.822C-273.846 197.797 -284.635 199.689 -288.988 194.39C-278.767 194.011 -275.549 192.497 -269.871 189.468C-264.95 187.008 -254.918 181.329 -248.104 184.926C-252.268 186.061 -259.082 189.468 -266.842 193.822Z" fill="white"/>
<path d="M-294.665 123.598C-289.555 119.245 -282.551 117.163 -278.955 117.352C-283.876 121.705 -286.905 122.841 -291.826 126.248C-296.369 129.466 -298.829 131.737 -304.508 137.226C-303.183 133.252 -299.776 127.952 -294.665 123.598Z" fill="white"/>
<path d="M-304.318 126.248C-306.211 128.898 -308.861 132.873 -311.132 137.984C-311.132 134.198 -309.429 127.384 -307.347 124.166C-304.886 120.002 -301.668 118.109 -297.504 116.784C-299.208 120.191 -301.29 121.895 -304.318 126.248Z" fill="white"/>
<path d="M-281.604 126.626C-273.844 122.462 -266.272 120.948 -262.298 120.758C-266.84 125.112 -275.736 128.519 -280.279 130.412C-285.011 132.494 -289.743 134.765 -297.125 140.065C-294.664 135.333 -289.365 130.79 -281.604 126.626Z" fill="white"/>
<path d="M-270.059 132.495C-262.487 129.656 -246.02 126.438 -240.72 127.952C-248.859 132.306 -261.541 134.198 -269.491 136.848C-277.441 139.309 -280.28 140.634 -291.258 145.177C-286.905 140.823 -277.63 135.334 -270.059 132.495Z" fill="white"/>
<path d="M-254.348 137.037C-239.395 134.198 -230.12 136.28 -225.577 138.93C-235.609 140.633 -244.884 140.065 -253.969 141.769C-263.244 143.472 -270.058 145.555 -281.983 150.097C-277.818 145.176 -262.676 138.74 -254.348 137.037Z" fill="white"/>
<path d="M-315.488 122.841C-315.678 126.059 -316.246 128.519 -317.003 132.684C-317.381 134.955 -318.138 138.551 -318.706 142.337C-320.41 139.308 -320.978 134.009 -320.599 131.359C-320.031 127.573 -318.328 125.112 -315.488 122.841Z" fill="white"/>
<path d="M-247.158 176.596C-250.944 177.543 -257.001 178.679 -266.465 182.464C-272.143 184.546 -274.604 185.871 -281.228 188.521C-278.011 184.168 -274.414 179.814 -266.654 177.164C-259.272 174.514 -249.24 175.65 -247.158 176.596Z" fill="white"/>
<path d="M-269.68 199.5C-260.784 195.525 -255.674 191.55 -249.806 194.01C-255.863 196.282 -261.352 201.392 -267.409 204.232C-274.98 207.828 -288.987 207.828 -295.044 200.635C-282.362 204.042 -272.898 201.014 -269.68 199.5Z" fill="white"/>
<path d="M-273.468 340.322C-270.44 344.486 -267.222 354.14 -269.683 360.197C-273.468 355.465 -275.74 348.083 -273.468 340.322Z" fill="white"/>
<path d="M-263.247 343.161C-266.654 338.997 -270.061 329.912 -268.736 319.501C-263.815 324.233 -261.354 334.833 -263.247 343.161Z" fill="white"/>
<path d="M-247.158 243.224C-242.994 246.063 -243.562 257.231 -249.051 259.502C-247.726 253.445 -246.969 249.281 -247.158 243.224Z" fill="white"/>
<path d="M-223.875 200.635C-225.2 196.093 -227.661 189.657 -230.5 184.736C-225.768 185.304 -220.847 193.253 -223.875 200.635Z" fill="white"/>
<path d="M-195.672 217.86C-193.211 231.867 -188.101 245.116 -182.044 249.091C-185.072 240.006 -186.208 228.838 -184.504 218.996C-180.34 233.381 -177.123 246.063 -168.037 253.066C-168.037 253.066 -175.23 234.895 -171.255 222.213C-167.848 237.545 -164.63 244.738 -160.087 250.984C-155.355 257.419 -146.459 264.612 -143.809 272.183C-148.541 268.587 -155.166 264.233 -160.277 262.53C-160.277 262.53 -158.005 267.83 -158.195 271.237C-163.873 265.937 -172.769 262.719 -172.769 262.719C-172.769 262.719 -170.687 266.694 -171.255 270.858C-178.069 263.098 -187.533 264.612 -193.779 248.334C-196.808 239.816 -198.133 228.081 -195.672 217.86Z" fill="white"/>
<path d="M-159.518 225.431C-154.408 241.331 -148.729 245.684 -145.511 248.902C-138.13 255.716 -135.101 262.53 -132.83 268.776C-138.697 266.316 -145.133 261.205 -150.811 255.148C-157.815 247.766 -161.979 234.706 -159.518 225.431Z" fill="white"/>
<path d="M-136.617 246.631C-139.646 245.117 -143.242 242.088 -144.567 239.249C-146.649 234.707 -146.649 229.217 -146.27 227.135C-144.378 229.975 -142.674 232.435 -140.592 236.599C-139.456 239.06 -137.753 243.224 -136.617 246.631Z" fill="white"/>
<path d="M-159.142 103.157C-153.085 104.293 -145.514 107.889 -140.403 109.214C-144.567 109.971 -153.653 109.403 -159.52 107.889C-165.388 106.375 -169.741 105.239 -175.609 101.832C-172.581 101.454 -165.199 102.022 -159.142 103.157Z" fill="white"/>
<path d="M-110.877 147.257C-119.016 144.04 -126.019 138.74 -126.019 138.74C-126.019 138.74 -115.42 138.929 -110.688 140.632C-105.767 142.336 -98.5739 147.068 -89.6778 149.529C-96.3026 151.8 -106.334 148.961 -110.877 147.257Z" fill="white"/>
<path d="M-126.963 132.685C-133.21 130.792 -138.131 128.521 -143.62 124.924C-138.888 125.114 -131.885 125.303 -126.774 126.628C-121.663 127.953 -116.932 131.549 -107.846 134.578C-111.632 135.713 -120.717 134.578 -126.963 132.685Z" fill="white"/>
<path d="M-140.594 120.192C-147.029 119.435 -153.086 116.785 -159.143 114.135C-155.168 113.946 -150.058 113.946 -143.622 114.703C-137.187 115.46 -130.183 118.299 -125.073 120.002C-128.858 120.949 -135.294 120.76 -140.594 120.192Z" fill="white"/>
<path d="M-270.437 76.4669C-265.516 73.2491 -261.92 70.4099 -251.888 70.7885C-257.945 76.0883 -261.541 77.6025 -270.437 76.4669Z" fill="white"/>
<path d="M-284.255 67.383C-293.151 73.2506 -297.315 77.4148 -301.479 79.8754C-305.643 82.1468 -313.025 84.4181 -313.025 84.4181C-313.025 84.4181 -309.051 77.6041 -304.129 74.3863C-300.344 71.7364 -288.04 68.1401 -284.255 67.383Z" fill="white"/>
<path d="M-325.14 80.8215C-321.354 77.4145 -317.19 75.3324 -308.294 71.1683C-312.458 75.9003 -316.244 81.2001 -320.029 84.9857C-324.572 89.5284 -331.764 95.0175 -331.764 95.0175C-331.764 95.0175 -329.872 85.175 -325.14 80.8215Z" fill="white"/>
<path d="M-329.873 78.9283C-329.873 79.1175 -336.119 91.7993 -340.283 97.4777C-344.447 103.156 -349.558 106.185 -353.343 109.97C-352.586 104.292 -350.504 97.6669 -346.718 92.9349C-342.933 88.3922 -336.876 83.471 -329.873 78.9283Z" fill="white"/>
<path d="M-418.832 157.101C-423.753 162.401 -431.703 165.808 -437.192 165.618C-434.353 163.536 -427.917 159.183 -423.564 153.315C-419.21 147.447 -416.75 140.066 -415.614 132.305C-411.829 139.687 -412.775 150.665 -418.832 157.101Z" fill="white"/>
<path d="M-459.34 154.641C-456.122 150.666 -452.904 144.42 -451.579 139.309C-447.983 144.42 -451.39 154.83 -459.34 154.641Z" fill="white"/>
<path d="M-469.369 153.506C-466.53 149.72 -464.259 145.556 -463.502 141.013C-459.905 144.42 -462.745 154.263 -469.369 153.506Z" fill="white"/>
<path d="M-509.307 238.491C-509.307 238.491 -513.661 216.534 -512.714 208.963C-506.279 221.077 -492.651 226.945 -493.786 236.977C-493.786 236.977 -498.14 234.705 -503.25 229.027C-503.25 229.027 -502.115 237.923 -497.761 244.169C-490.758 242.655 -484.512 243.223 -479.022 247.387C-482.051 249.28 -498.708 244.359 -503.061 255.147C-512.146 250.037 -518.582 239.437 -518.582 229.027L-509.307 238.491Z" fill="white"/>
<path d="M-504.008 260.827C-514.04 261.395 -519.151 254.77 -521.233 245.117C-516.501 250.795 -510.065 256.663 -504.008 260.827Z" fill="white"/>
<path d="M-338.012 296.032C-331.009 289.785 -323.627 289.407 -320.22 287.135C-322.87 293.003 -331.009 297.167 -338.012 296.032Z" fill="white"/>
<path d="M-328.548 282.783C-325.709 278.429 -317.381 275.969 -313.027 272.751C-314.542 279.754 -323.059 283.161 -328.548 282.783Z" fill="white"/>
<path d="M-251.698 310.796C-253.969 303.414 -256.051 287.515 -252.076 277.104C-249.426 287.136 -247.723 301.9 -251.698 310.796Z" fill="white"/>
<path d="M-238.26 283.54C-237.692 272.94 -239.206 257.608 -232.96 244.927C-231.824 254.58 -231.446 273.886 -238.26 283.54Z" fill="white"/>
<path d="M-202.299 233.949C-200.785 243.981 -197.188 254.769 -190.185 262.341C-196.999 260.826 -201.163 255.527 -202.867 250.605C-204.002 246.63 -205.517 240.384 -202.299 233.949Z" fill="white"/>
<path d="M-175.609 333.509C-174.852 324.992 -171.256 317.61 -166.903 312.121C-167.47 321.774 -169.552 329.345 -170.31 335.592C-171.635 345.434 -171.067 351.87 -172.013 358.494C-174.852 349.977 -176.177 339.756 -175.609 333.509Z" fill="white"/>
<path d="M-148.731 363.037C-154.22 359.062 -155.545 352.059 -153.842 347.138C-151.76 351.68 -147.785 356.791 -143.999 359.63C-139.457 363.037 -136.239 364.362 -129.046 367.012C-134.157 367.958 -143.81 366.444 -148.731 363.037Z" fill="white"/>
<path d="M-130.939 361.713C-136.617 360.388 -140.214 357.17 -141.539 352.06C-132.264 358.117 -123.746 359.063 -114.85 359.063C-117.122 360.767 -123.936 363.417 -130.939 361.713Z" fill="white"/>
<path d="M-10.746 360.387C-13.9637 360.955 -19.8314 360.955 -24.942 360.009C-30.0525 359.062 -34.2167 357.548 -37.6237 354.709C-37.6237 354.709 -30.0525 353.952 -25.1312 354.898C-20.21 356.034 -15.8565 358.305 -10.746 360.387Z" fill="white"/>
<path d="M-50.3076 336.537C-46.522 337.673 -42.3578 339.187 -37.4366 341.647C-34.7867 343.162 -25.512 349.029 -23.6192 351.49C-27.9726 350.544 -33.4617 349.219 -36.8688 347.515C-41.6008 345.244 -45.5756 341.458 -50.3076 336.537Z" fill="white"/>
<path d="M-43.6812 321.395C-49.7382 314.959 -53.5238 304.17 -53.5238 299.627C-49.1703 303.981 -45.574 308.902 -40.0849 315.338C-34.5958 321.773 -22.8605 335.78 -21.157 338.43C-28.5389 335.591 -37.8135 327.83 -43.6812 321.395Z" fill="white"/>
<path d="M-36.1107 297.547C-40.6534 289.597 -46.8996 279.376 -48.6031 273.319C-43.3033 277.483 -33.8393 288.84 -31.5679 292.815C-26.836 300.575 -22.104 314.014 -20.7791 321.585C-24.5646 318.367 -31.5679 305.875 -36.1107 297.547Z" fill="white"/>
<path d="M-34.7851 281.08C-40.0849 274.645 -43.6812 269.156 -48.7918 262.152C-44.6276 264.234 -33.4601 272.941 -29.4852 278.43C-25.5104 283.73 -20.7784 294.33 -19.2642 301.333C-23.6176 296.412 -29.4853 287.516 -34.7851 281.08Z" fill="white"/>
<path d="M-37.0556 239.627C-39.327 238.302 -46.5196 232.813 -50.873 226.945C-46.5196 228.46 -39.8948 231.11 -34.595 235.463C-29.2952 239.816 -26.8345 243.223 -25.6989 245.873C-29.863 244.548 -33.8378 241.52 -37.0556 239.627Z" fill="white"/>
<path d="M-45.765 224.675C-50.3077 221.835 -54.8504 218.05 -58.8253 214.832C-54.2825 215.778 -48.4149 217.671 -43.1151 221.078C-38.0045 224.485 -34.4082 227.703 -32.7047 230.353C-37.0581 229.028 -41.2223 227.514 -45.765 224.675Z" fill="white"/>
<path d="M90.14 328.777C90.14 328.777 109.257 340.891 116.828 342.216C116.828 342.216 101.497 332.184 96.3862 319.692C96.3862 319.692 112.854 332.563 123.075 335.591C123.075 335.591 107.743 322.531 103.39 312.121C103.39 312.121 123.832 328.967 131.024 330.291C131.024 330.291 116.071 318.178 111.907 305.496C111.907 305.496 128.753 320.638 137.649 322.72C137.649 322.72 120.614 308.903 117.775 299.06C117.775 299.06 107.364 292.246 103.011 288.082C111.529 290.164 117.207 293.95 122.318 297.925C122.318 297.925 133.296 310.606 148.438 316.663L144.652 319.313C144.652 319.313 152.413 326.506 161.688 329.913L156.198 333.698C156.198 333.698 166.987 338.809 178.534 338.998C168.88 351.491 142.949 349.409 142.949 349.409L145.031 353.762C135.756 353.384 124.778 346.191 124.778 346.191L127.428 353.951C112.286 351.491 93.3577 338.241 90.14 328.777Z" fill="white"/>
<path d="M-391.956 263.286C-391.956 263.286 -384.384 261.204 -376.813 261.204C-378.895 257.039 -383.059 250.793 -390.441 249.468C-389.873 251.172 -388.738 255.147 -390.063 257.986C-397.066 245.683 -404.637 246.061 -404.637 246.061C-401.609 250.415 -401.041 255.147 -401.419 258.554C-403.691 254.389 -412.966 244.736 -423.187 247.386C-415.994 250.604 -413.723 254.579 -413.155 259.689C-418.455 255.147 -433.597 249.657 -440.222 257.229C-431.704 256.282 -426.783 259.689 -424.89 262.907C-432.461 263.096 -433.786 266.125 -438.14 268.396C-449.118 274.074 -459.339 270.289 -463.314 276.724C-460.664 276.346 -445.143 277.86 -438.518 275.21C-442.115 279.942 -450.064 279.564 -454.986 279.753C-459.718 279.942 -466.532 280.321 -471.074 284.106C-464.26 284.296 -456.5 285.431 -450.632 285.431C-455.932 290.92 -475.238 285.242 -480.538 290.92C-476.185 291.299 -471.642 292.813 -467.667 293.381C-472.589 296.977 -483.377 292.624 -488.109 297.734C-486.027 297.924 -482.62 299.627 -479.781 300.574C-483.945 302.656 -490.759 300.384 -494.545 304.738C-492.841 304.927 -489.624 305.873 -487.731 307.956C-491.517 308.334 -497.384 309.091 -499.466 312.688C-492.463 314.77 -493.788 324.991 -501.548 329.533C-496.816 321.773 -498.141 316.662 -504.009 316.095C-511.391 315.337 -523.694 318.934 -532.59 324.801C-525.019 312.12 -503.82 313.255 -501.17 308.145C-511.769 308.145 -522.937 311.552 -527.29 315.716C-525.776 308.902 -521.801 303.413 -519.151 299.438C-516.312 295.463 -509.12 286.378 -506.47 278.996C-511.202 275.967 -511.959 272.371 -511.959 272.371C-504.577 270.857 -503.063 266.882 -503.063 266.882C-510.823 265.936 -515.744 264.232 -522.369 259.689C-520.476 265.746 -509.877 272.939 -520.855 289.785C-528.237 301.141 -531.644 308.334 -535.429 318.555C-538.458 326.505 -543.947 330.858 -547.165 333.698C-548.3 334.833 -548.3 336.726 -546.975 337.672C-544.704 339.565 -541.108 341.647 -537.511 343.351C-536.565 340.701 -534.862 336.915 -539.026 331.615C-535.429 331.805 -532.022 335.212 -532.59 340.322C-533.158 344.297 -531.644 346.001 -528.994 346.379C-522.748 347.515 -504.388 342.972 -495.491 328.966C-489.056 318.934 -478.835 311.552 -466.153 308.334C-459.15 306.631 -455.364 307.577 -453.471 309.848C-451.389 312.498 -452.714 316.284 -454.039 318.934C-457.068 325.748 -457.825 331.994 -458.203 338.43C-458.771 349.218 -463.692 366.443 -471.264 367.2C-467.857 369.282 -464.071 366.821 -461.61 362.847C-459.339 359.25 -455.743 351.301 -454.607 337.862C-454.039 329.533 -453.093 325.559 -450.064 318.555C-447.793 313.445 -447.604 309.091 -449.496 306.252C-451.2 303.981 -453.661 301.709 -459.907 301.899C-455.743 299.438 -448.929 300.763 -446.468 304.17C-443.629 307.956 -443.629 313.823 -446.468 320.259C-449.307 326.505 -449.875 329.723 -450.632 338.24C-452.336 357.357 -456.311 364.55 -461.421 369.661C-454.228 369.471 -449.496 363.604 -447.793 356.411C-445.332 346.569 -441.925 333.887 -440.411 329.533C-438.897 324.801 -436.436 321.962 -433.976 320.069C-428.297 315.716 -429.811 311.173 -424.133 306.82C-432.272 306.063 -433.218 316.473 -440.6 317.987C-434.165 311.173 -434.543 302.656 -425.837 298.681C-417.13 294.706 -408.234 297.167 -404.827 299.817C-406.151 293.192 -415.048 289.028 -425.837 290.353C-419.969 284.674 -403.88 288.27 -394.605 293.57C-396.688 287.703 -402.555 282.403 -416.183 280.51C-407.476 277.103 -394.038 281.078 -385.899 284.674C-388.548 278.996 -398.58 273.885 -407.287 272.371C-399.527 269.721 -387.981 270.289 -381.167 272.56C-383.249 267.828 -391.956 263.286 -391.956 263.286ZM-439.843 306.631C-440.6 299.438 -436.058 294.327 -430.379 294.138C-433.786 296.977 -437.193 302.088 -439.843 306.631Z" fill="white"/>
<path d="M-142.297 206.315C-132.833 206.693 -126.965 218.05 -129.804 228.65C-131.508 220.321 -134.158 212.75 -142.297 206.315Z" fill="white"/>
</g>
<defs>
<clipPath id="clip0_211_1952">
<rect width="200" height="200" fill="white"/>
</clipPath>
</defs>
</svg>
