<svg width="200" height="200" viewBox="0 0 200 200" fill="none" xmlns="http://www.w3.org/2000/svg">
<g clip-path="url(#clip0_1443_718)">
<path d="M768.689 331.995L775.125 327.641C775.125 327.641 763.2 326.316 754.115 319.691L761.308 314.392C761.308 314.392 750.14 313.256 740.865 305.685C745.408 305.117 749.004 302.467 749.004 302.467C749.004 302.467 740.297 299.438 730.644 284.675L737.458 286C737.458 286 730.834 274.832 721.37 264.99L726.669 265.179C726.669 265.179 718.72 253.065 707.552 243.412L712.852 243.79C712.852 243.79 707.552 232.623 691.085 217.67L700.549 219.184C700.549 219.184 687.489 204.609 665.911 190.981L677.078 190.035C677.078 190.035 667.803 181.328 636.572 170.918L646.226 165.239C646.226 165.239 635.247 160.886 619.727 160.129L625.594 156.154C625.594 156.154 612.723 152.936 597.959 153.693L604.206 145.176C604.206 145.176 584.52 149.34 580.546 150.476L582.817 141.39C582.817 141.39 562.753 154.64 538.336 154.64C530.576 154.64 523.005 153.504 516.191 151.233C518.462 149.151 519.976 146.122 519.976 146.122C519.976 146.122 504.645 142.526 497.073 138.551C501.995 135.712 505.591 131.737 505.591 131.737C505.591 131.737 493.099 130.223 480.228 123.03C480.228 123.03 484.392 120.569 487.609 116.595C487.609 116.595 476.631 115.648 466.599 111.105C466.599 111.105 472.656 107.509 473.603 105.238C473.603 105.238 461.489 104.67 448.996 100.127C448.996 100.127 453.918 97.8559 457.135 95.0167C444.643 94.2596 432.529 90.0954 423.065 85.5527C413.412 80.8207 379.909 66.0569 345.461 64.9213L346.786 60C346.786 60 331.075 61.7035 321.611 64.732L322.179 60.1893C322.179 60.1893 307.983 63.407 297.951 67.0033L297.384 62.6499C297.384 62.6499 284.134 67.3819 274.481 73.8174L273.534 70.4104C273.534 70.4104 261.988 77.0352 255.931 82.9028L255.174 77.603C255.174 77.603 243.817 84.2278 236.246 93.1239L235.868 85.742C235.868 85.742 224.7 91.7989 218.265 104.102L216.372 96.9095C216.372 96.9095 207.665 102.588 203.312 115.08L200.472 106.373C200.472 106.373 191.766 116.027 189.305 129.087C187.98 124.734 181.355 115.837 181.355 115.837C181.355 115.837 180.409 130.601 177.38 138.93C176.055 131.169 169.62 120.002 169.62 120.002C169.62 120.002 168.863 130.791 164.32 139.308C163.563 131.737 157.695 122.084 157.695 122.084C157.695 122.084 156.938 131.358 153.531 137.226C151.26 131.548 143.878 124.355 143.878 124.355C143.878 124.355 145.014 134.387 142.364 139.308C138.957 134.576 130.439 130.412 130.439 130.412C130.439 130.412 134.225 144.04 123.814 152.936C113.215 151.801 101.29 150.476 94.2867 148.204C85.3905 145.365 76.873 148.204 77.2515 157.1C72.8981 156.533 68.734 155.965 64.7591 155.208C57.1879 153.693 54.1594 157.1 53.213 158.615C51.131 161.832 51.6988 166.564 54.9165 170.728C61.1628 178.868 73.6552 189.278 82.9299 200.635C81.2264 206.692 81.605 215.209 82.1728 221.455L75.3587 214.452C75.3587 214.452 74.7909 226.566 77.6301 237.355L71.1946 233.001C71.1946 233.001 72.141 245.115 76.1159 253.254C76.1159 253.254 73.0874 252.497 69.4911 250.604C70.2482 256.472 71.7624 261.583 75.9266 268.586C78.7658 273.318 79.5229 278.428 74.6016 287.514C69.3018 296.978 65.1376 302.467 59.6485 316.852C57.5665 322.72 53.4023 326.316 50.3738 328.777C45.4526 333.13 46.0204 339.755 50.3738 342.973C55.4844 346.569 64.3805 351.49 70.0589 352.437C76.1159 353.572 84.8227 351.49 92.7724 347.137C99.2079 350.733 111.89 352.247 120.597 347.326C116.054 342.405 111.322 335.969 109.05 332.562C113.972 324.613 119.461 320.449 126.275 317.231C128.546 316.095 131.764 319.313 129.303 322.531C126.464 326.505 125.139 330.291 124.382 334.455C124.004 337.294 124.761 344.108 125.896 348.651C126.464 351.112 125.707 352.626 124.004 353.383C120.975 354.33 116.811 355.276 108.861 355.465C111.89 361.333 116.243 365.876 123.057 368.715C124.571 371.554 128.357 375.529 135.928 375.529C147.663 375.529 154.856 369.093 157.506 357.926C159.777 348.273 163.374 335.78 164.699 331.427C165.834 328.02 167.538 326.316 169.62 324.234C170.945 322.909 172.459 321.395 173.784 319.502C174.73 318.177 175.298 316.852 175.866 315.717C177.57 312.499 180.03 308.524 185.141 309.092C183.816 305.495 181.545 303.413 179.462 302.278C187.412 300.953 196.119 304.36 198.769 313.256C199.905 309.281 201.23 302.656 200.283 297.924C202.555 298.681 207.287 301.142 210.883 306.442C211.64 302.846 211.829 295.274 209.747 289.785C212.208 290.542 217.129 292.435 220.915 296.599C221.482 290.921 220.915 284.485 216.751 278.618C218.833 278.618 222.807 279.186 227.729 281.078C227.35 276.914 224.89 271.425 221.293 266.882C222.997 266.882 226.972 267.072 231.325 268.018C230.568 264.422 229.243 260.447 227.161 256.851C238.518 263.665 245.142 271.236 245.142 271.236C242.871 282.403 235.111 308.335 233.407 314.959C231.514 321.584 230.946 325.37 234.732 332.941C240.221 343.919 249.874 348.083 258.771 345.244C268.235 342.405 271.263 340.701 281.863 335.591C293.977 329.723 297.384 321.963 296.248 315.717C300.412 304.738 294.734 293.382 294.734 293.382C294.734 293.382 290.759 299.06 287.92 300.953C286.405 297.167 282.241 293.571 282.241 293.571C286.973 285.81 291.705 277.104 294.355 268.586C298.709 268.775 302.305 267.45 302.305 267.45C302.305 267.45 297.762 263.665 295.869 260.636C302.494 261.393 311.769 261.583 318.394 258.176C315.365 268.018 312.904 280.7 311.58 292.246C308.551 319.691 299.655 337.294 298.33 345.055C296.437 355.844 299.466 363.604 308.93 373.636C319.908 385.371 329.75 386.318 337.511 380.45C347.921 372.5 357.007 369.661 367.606 368.715C378.963 367.768 389.941 365.497 391.077 352.058C401.677 344.298 398.27 331.995 398.27 331.995C398.27 331.995 393.727 333.887 387.102 336.159C387.859 327.83 385.02 321.016 385.02 321.016C385.02 321.016 381.802 324.423 377.827 327.452C375.935 323.477 370.256 317.609 370.256 317.609C370.256 317.609 368.363 323.856 363.442 329.912C358.332 329.912 351.328 332.184 345.65 335.78C350.571 319.313 357.385 300.574 367.606 284.864C371.203 279.564 382.938 262.34 385.588 258.176C393.916 264.043 397.512 264.422 406.219 267.261C414.926 269.911 417.008 275.589 413.601 292.435C411.898 301.331 408.491 317.799 408.491 317.799C408.491 317.799 414.169 314.959 415.115 314.392C409.816 338.241 413.601 348.84 413.601 348.84C413.601 348.84 418.333 343.351 418.712 342.973C419.847 357.926 426.094 370.608 426.094 370.608C426.094 370.608 430.447 363.983 431.204 363.226C440.29 378.936 457.325 378.368 457.325 378.368L455.81 371.175C467.167 373.825 478.524 371.365 478.524 371.365L476.631 367.201C480.417 366.633 484.392 365.497 488.934 363.604C489.313 378.557 479.66 409.031 476.253 419.631C469.628 440.262 473.603 453.701 480.795 458.433C484.392 469.033 492.341 472.061 498.588 471.304C501.805 473.954 508.809 476.983 514.487 473.197C518.841 470.547 520.923 465.058 519.976 459.758C523.383 455.405 523.573 448.401 517.705 437.802C511.08 425.688 508.809 420.388 517.894 379.693C525.655 385.939 538.336 392.375 538.336 392.375L537.201 386.886C548.747 392.564 558.778 400.135 559.725 413.385C561.996 444.237 556.129 470.926 552.722 486.825C551.586 491.746 550.829 495.532 550.639 497.993C549.315 510.296 553.1 515.217 557.075 519.76C558.589 525.627 560.861 533.766 572.974 534.334C577.517 539.823 585.467 541.148 590.388 539.066C595.688 536.606 598.149 532.252 598.338 525.06C604.016 521.653 604.773 513.514 600.799 502.346C594.363 485.122 588.874 470.169 594.931 432.881C596.634 421.902 598.906 413.385 600.609 406.571C605.152 388.778 607.423 379.882 593.417 365.876C598.716 364.551 604.016 361.522 604.016 361.522C604.016 361.522 587.549 356.79 576.381 344.676C583.196 347.326 591.713 347.515 591.713 347.515C591.713 347.515 583.574 339.376 578.842 329.345C580.356 330.291 589.063 333.698 589.063 333.698C589.063 333.698 583.196 317.988 580.924 309.66L588.117 315.717C588.117 315.717 586.224 299.06 584.142 292.057L588.874 294.328C588.874 294.328 585.656 281.078 582.817 273.507L586.792 274.264C586.792 274.264 583.006 259.879 577.896 252.119H581.871C581.871 252.119 579.221 242.655 573.353 235.651L576.381 235.273C576.381 235.273 571.649 224.862 562.185 216.913L564.646 215.588C564.646 215.588 555.561 209.152 550.072 198.931C578.464 206.692 585.845 231.109 585.845 231.109L588.874 227.323C595.688 239.058 599.852 256.472 599.852 256.472L603.259 253.254C606.477 262.718 615.562 281.646 615.562 281.646L618.591 276.536C622.944 289.028 631.651 306.442 631.651 306.442L633.922 302.088C640.169 315.338 652.472 328.777 652.472 328.777L652.661 324.045C660.043 334.644 672.346 346.001 672.346 346.001L672.157 339.566C677.457 344.676 683.324 349.408 692.221 354.519L691.842 347.894C702.82 354.897 716.638 360.576 716.638 360.576L714.745 356.033C722.694 359.44 735.376 362.469 735.376 362.469L733.862 357.926C741.055 360.197 753.547 360.197 753.547 360.197L751.276 355.276C785.725 352.626 793.106 331.616 793.106 331.616C793.106 331.616 781.56 336.159 768.689 331.995Z" fill="#101010"/>
<path d="M647.928 313.634C639.032 302.277 635.247 287.514 635.247 287.514L632.218 293.76C625.972 281.646 620.672 262.529 620.672 262.529L616.697 269.532C611.587 258.743 607.044 243.033 607.044 243.033L603.258 246.44C596.255 225.43 590.009 217.859 590.009 217.859L587.737 220.698C583.195 213.127 570.513 197.038 545.907 191.928C562.563 191.17 581.302 201.959 588.305 211.613C590.009 209.72 590.766 207.827 590.766 207.827C598.526 215.02 605.719 233.38 605.719 233.38L610.262 227.134L618.022 253.633L622.754 247.197L631.84 279.375L636.761 272.182L645.279 298.681L647.361 290.921C647.361 290.921 653.796 306.82 662.314 318.745L663.639 314.391C663.639 314.391 674.238 329.155 685.406 341.837C677.835 338.241 665.721 325.748 665.721 325.748V330.48C656.257 321.016 648.686 306.252 648.686 306.252L647.928 313.634Z" fill="white"/>
<path d="M595.5 404.678C593.797 411.681 591.525 420.388 589.822 431.556C583.576 470.358 589.633 486.636 596.068 503.86C597.204 507.078 600.232 517.678 593.418 520.895C594.175 526.763 593.04 531.684 588.875 533.388C585.468 534.902 579.601 533.009 576.004 528.277C565.026 527.899 563.89 520.895 563.133 516.542C559.537 511.999 556.13 507.457 557.076 498.182C558.212 487.961 568.622 444.427 566.351 412.817C565.026 394.646 548.37 383.668 530.388 376.854L531.334 381.396C518.463 374.015 507.485 360.008 507.485 360.008L507.107 367.011C495.939 358.494 492.154 347.326 492.154 347.326L489.504 351.68C481.554 338.43 481.554 323.098 481.554 323.098L476.633 328.02C475.497 311.931 477.958 295.274 477.958 295.274L472.847 298.871C472.469 284.485 479.093 264.232 479.093 264.232L473.604 267.072C473.036 256.472 478.336 240.005 478.336 240.005L473.415 241.519C477.579 227.323 478.336 216.534 476.065 209.72C471.711 196.66 458.273 195.713 450.701 195.335C462.437 190.603 479.661 196.092 481.554 213.506C481.554 213.506 485.529 209.909 487.043 203.474C491.207 215.209 481.932 217.48 480.229 233.569C484.772 228.459 490.261 228.648 490.261 228.648C490.261 228.648 479.85 247.387 480.608 257.418C486.475 248.712 493.1 247.765 493.1 247.765C489.125 253.822 482.5 269.722 480.608 282.214C480.797 282.214 490.071 269.532 494.236 267.261C486.097 284.296 480.986 302.088 482.69 311.742C482.879 311.742 487.989 294.517 496.318 288.65C485.34 312.499 487.043 330.67 490.639 337.862C491.207 318.745 497.075 313.256 497.075 313.256C497.075 313.256 493.1 344.298 504.078 356.412C501.996 349.03 502.753 339.755 504.457 335.212C507.296 351.869 516.76 364.929 523.953 368.904C523.953 368.904 516.381 356.79 516.949 347.894C523.195 360.386 530.199 369.093 539.663 375.34C539.663 375.34 538.149 370.797 535.499 365.497C542.123 370.418 552.912 378.936 561.43 389.535L560.105 379.882C560.105 379.882 569.569 387.643 571.651 408.085C573.544 426.445 568.055 462.03 564.837 483.418C562.566 498.56 561.43 507.835 570.137 513.324C570.137 513.324 567.298 500.453 571.272 493.071C571.272 493.071 573.922 519.76 586.604 526.006C586.604 526.006 577.329 507.457 579.601 492.314C579.601 492.314 586.415 510.674 592.661 513.135C586.415 495.153 583.386 477.929 583.386 455.215C583.386 437.613 588.875 414.142 586.793 406.76C581.683 420.199 578.086 447.455 577.708 473.576C572.976 466.194 576.951 419.631 581.494 405.056C577.519 403.164 572.597 398.621 572.787 390.103C579.979 402.974 591.715 400.514 592.85 390.103C594.364 377.232 577.708 375.34 572.597 365.308C583.765 373.068 599.286 372.879 599.286 386.696C598.718 391.618 597.393 397.107 595.5 404.678Z" fill="white"/>
<path d="M514.109 457.866C515.056 460.326 516.191 466.194 512.027 468.465C507.295 470.737 502.374 466.762 500.67 465.247C497.074 466.194 489.124 465.247 486.096 454.459C480.039 450.294 475.875 440.83 482.121 421.145C487.989 402.785 495.371 378.179 495.181 363.794C496.317 364.929 497.453 366.065 498.588 367.201C498.778 378.179 491.585 406.192 487.232 420.199C482.878 434.395 484.014 445.373 489.882 451.051C488.367 444.427 488.178 431.934 491.396 427.202C490.071 446.698 498.967 457.866 508.242 462.219C500.86 451.43 495.371 441.02 497.453 427.959C499.346 438.559 505.024 447.834 511.459 449.916C505.781 440.073 501.049 429.663 502.185 416.413C503.51 399.378 508.431 375.718 508.431 375.718L512.974 379.315C503.699 421.145 506.917 428.149 513.352 440.263C519.598 452.376 516.759 456.541 514.109 457.866Z" fill="white"/>
<path d="M433.288 352.815C431.584 345.811 433.666 337.672 437.452 333.698C435.938 349.976 442.373 360.575 450.702 371.932C442.184 369.85 434.991 359.818 433.288 352.815Z" fill="white"/>
<path d="M417.955 335.781C417.955 328.21 420.037 318.557 421.929 310.985C424.011 303.414 428.743 294.329 431.393 291.679C431.015 296.979 426.661 310.985 425.904 313.825C424.011 320.26 420.794 329.156 417.955 335.781Z" fill="white"/>
<path d="M392.023 247.198C392.78 250.984 394.294 254.58 396.187 257.798C390.698 256.094 388.616 251.93 392.023 247.198Z" fill="white"/>
<path d="M370.257 270.856C373.664 257.796 369.689 239.436 373.285 231.676C374.043 235.083 377.26 245.872 378.775 249.657C382.371 241.329 374.8 227.701 377.639 218.615C379.721 222.969 383.507 229.404 386.914 235.84C389.563 226.754 380.289 215.587 382.182 205.176C384.831 209.341 388.239 215.587 391.835 221.076C392.403 211.423 389.753 195.713 384.453 186.059C381.235 180.002 369.689 162.589 343.001 161.642C353.79 158.235 367.796 161.074 380.667 171.863C393.538 182.842 397.324 199.498 409.059 203.284C404.327 206.88 399.027 205.555 394.674 200.634C394.674 205.934 397.892 210.098 403.002 211.801C399.027 214.64 396.378 219.94 395.431 223.347C391.267 236.408 383.507 253.253 370.257 270.856Z" fill="white"/>
<path d="M355.303 295.085C354.167 290.164 350.571 269.911 358.331 259.69C357.574 273.129 359.467 286.189 355.303 295.085Z" fill="white"/>
<path d="M353.602 337.863C360.037 335.592 366.662 338.809 371.205 344.298C371.016 340.513 369.312 337.295 366.662 334.645C366.662 334.645 369.312 332.374 370.826 328.21C373.287 331.995 373.287 338.62 373.287 338.62C373.287 338.62 378.019 335.97 380.669 332.374C381.615 338.809 379.912 343.163 379.912 343.163C379.912 343.163 385.401 343.352 391.268 339.756C391.079 343.92 388.24 347.327 385.401 348.084C385.969 358.305 381.047 360.766 367.041 362.469C338.649 365.687 335.052 380.451 324.642 377.612C334.106 372.69 337.702 367.012 350.763 361.523C360.984 357.169 379.722 359.63 375.748 347.895C372.341 356.223 356.252 350.734 337.892 359.441C342.245 344.109 347.166 340.134 353.602 337.863Z" fill="white"/>
<path d="M304.766 357.925C302.495 353.004 303.063 347.136 304.577 343.161C311.769 324.612 315.366 308.523 317.259 293.002C319.151 279.374 321.423 257.607 331.644 252.307C331.644 252.307 331.265 262.15 333.726 268.775C330.13 267.639 328.426 261.771 328.426 261.771C328.426 261.771 325.208 269.532 328.426 281.835C325.776 280.889 324.262 278.428 324.262 278.428C324.262 278.428 321.991 288.081 324.64 298.492C322.369 297.924 320.666 295.463 320.666 295.463C320.666 295.463 318.016 308.713 321.044 318.177C318.205 317.419 316.501 314.77 316.501 314.77C316.501 314.77 314.609 326.694 316.691 336.158C314.041 335.401 312.148 332.562 312.148 332.562C311.202 336.915 310.823 344.297 314.609 351.868C311.959 351.49 310.255 349.408 308.93 348.083C305.902 356.032 315.555 367.389 319.151 374.96C312.905 371.364 306.28 361.332 304.766 357.925Z" fill="white"/>
<path d="M294.168 246.442C298.521 252.309 309.121 255.149 309.121 255.149C304.956 255.716 295.114 256.663 280.539 248.524C282.054 252.877 289.057 261.206 290.382 262.72C281.107 261.584 267.101 247.01 267.101 247.01C267.101 247.01 269.561 254.959 273.915 262.72C267.858 259.124 258.394 247.767 250.255 238.681C240.791 227.892 230.191 217.293 226.405 206.882C233.409 214.264 257.069 239.438 262.369 240.763C257.447 233.382 245.144 218.428 242.494 208.207C256.122 224.675 267.479 236.41 274.293 240.574C270.697 234.896 261.044 222.025 256.879 209.154C268.047 222.971 282.243 235.842 285.65 236.031C281.107 231.489 272.022 218.996 268.047 208.775C279.593 220.321 289.246 228.082 294.546 229.974C288.111 222.214 283.757 217.482 279.214 208.018C287.164 215.4 295.492 221.457 302.117 222.593C302.117 222.593 292.085 212.939 288.489 205.557C298.142 213.129 306.471 215.968 307.985 215.779C305.524 213.696 300.224 209.154 297.007 203.475C308.931 210.857 315.556 210.857 319.91 210.857C331.834 210.857 341.109 205.936 347.923 204.99C341.487 214.075 332.781 218.239 328.995 220.321C335.998 221.646 345.084 219.564 345.084 219.564C339.973 226.189 333.916 229.974 322.37 233.382C328.427 235.653 339.405 235.085 339.405 235.085C333.538 240.385 324.642 242.467 309.499 242.088C315.935 246.82 327.291 248.335 327.291 248.335C321.424 250.417 309.31 250.227 294.168 246.442Z" fill="white"/>
<path d="M290.569 315.149C292.272 321.395 287.919 326.127 279.78 330.481C266.341 337.484 256.877 341.08 251.577 339.566C259.338 337.484 288.487 324.802 285.837 317.042C284.133 321.963 269.18 328.588 260.852 329.913C261.798 327.641 266.53 318.556 268.802 315.717C271.83 311.931 275.994 310.228 282.241 314.392C281.862 311.742 279.969 309.849 278.077 308.524C278.077 308.524 280.537 305.496 282.241 301.71C284.323 305.496 284.323 310.606 284.323 310.606C284.323 310.606 288.676 308.714 292.272 304.739C293.219 310.228 291.894 313.067 290.569 315.149Z" fill="white"/>
<path d="M238.898 316.663C241.359 307.767 250.444 276.536 252.148 264.422C253.851 268.586 254.987 272.372 252.716 281.268C250.255 290.164 246.469 304.171 244.009 313.256C240.602 325.749 242.116 331.048 246.28 338.809C240.034 335.78 236.438 325.37 238.898 316.663Z" fill="white"/>
<path d="M134.036 352.058C133.09 351.301 131.386 348.083 131.008 346.758C133.469 345.244 134.983 343.919 134.983 343.919C134.983 343.919 131.576 342.215 130.062 338.24C132.522 338.051 135.74 337.673 138.201 336.537C138.201 339.187 137.822 341.837 137.254 344.297C136.686 347.326 135.74 349.219 134.036 352.058Z" fill="white"/>
<path d="M138.77 331.995C136.309 329.724 134.984 327.263 134.416 325.56C136.12 325.181 138.391 324.803 140.473 323.856C139.716 326.695 139.148 329.345 138.77 331.995Z" fill="white"/>
<path d="M131.764 357.358C131.575 358.304 131.385 359.44 131.007 361.332C130.628 363.225 128.925 363.982 126.464 363.604C124.004 363.225 121.732 362.468 119.839 360.575C121.921 360.197 127.221 358.872 131.764 357.358Z" fill="white"/>
<path d="M98.8301 343.163C101.291 341.46 103.562 339.378 105.644 337.106C107.348 339.378 109.43 342.028 110.944 344.11C106.401 345.056 102.048 344.11 98.8301 343.163Z" fill="white"/>
<path d="M59.4605 167.323C57.5677 164.862 56.6213 162.97 58.1356 161.645C59.4605 160.32 61.7319 161.266 63.6247 162.97C74.4136 172.812 90.8809 193.065 90.8809 201.393C81.4169 190.415 63.2461 172.244 59.4605 167.323Z" fill="white"/>
<path d="M83.6896 153.882C85.9609 151.232 91.45 152.178 95.8035 154.449C100.346 156.721 117.949 167.32 118.706 167.699C126.277 172.81 131.956 176.974 135.931 182.841C139.906 188.709 142.177 194.198 143.88 200.634C146.341 193.82 142.556 179.624 133.092 169.403C141.609 171.485 150.695 187.195 151.83 198.93C154.291 191.927 152.777 178.109 142.366 167.32C150.127 169.403 158.076 180.949 159.401 197.037C162.808 190.791 160.537 174.135 150.884 164.292C158.266 166.753 165.458 177.163 166.594 189.655C166.973 193.441 165.837 197.227 163.566 200.255C159.78 205.176 153.912 209.34 147.666 211.801C150.695 219.94 160.537 221.076 169.812 218.615C161.294 226.944 143.313 224.483 138.581 208.205C135.552 197.605 134.606 190.602 130.063 184.923C125.71 179.056 121.735 176.595 115.299 172.052C109.432 167.888 101.103 162.778 95.6142 159.749C90.8822 157.099 86.7181 160.506 92.2072 166.942C92.3964 162.967 95.4249 162.778 98.6427 165.049C101.86 167.131 109.81 172.81 113.596 175.27C113.596 175.27 109.621 176.406 106.592 176.784C107.917 177.92 114.164 179.813 119.842 180.002C115.299 182.463 108.674 183.977 108.674 183.977C114.164 186.816 124.953 185.681 124.953 185.681C120.978 188.898 111.135 190.98 111.135 190.98C116.624 193.82 128.17 191.927 128.17 191.927C125.331 195.523 115.299 197.605 115.299 197.605C119.463 199.877 126.467 199.498 131.009 197.794C129.117 206.312 114.353 208.394 103.942 193.441C99.9676 187.573 88.043 168.456 85.3931 163.724C82.7432 159.181 82.1754 155.774 83.6896 153.882Z" fill="white"/>
<path d="M158.644 139.686C162.808 148.961 155.048 158.046 149.559 156.722C152.398 152.368 156.562 145.365 158.644 139.686Z" fill="white"/>
<path d="M171.326 137.793C175.679 149.15 164.701 162.778 157.13 160.507C164.133 153.125 168.676 144.229 171.326 137.793Z" fill="white"/>
<path d="M192.904 139.687C193.85 134.387 195.743 125.491 198.771 119.056C198.771 119.056 201.421 127.195 198.96 141.769C197.636 150.098 193.093 158.426 187.414 161.833C190.821 154.262 191.579 147.637 192.904 139.687Z" fill="white"/>
<path d="M213.344 107.699C213.344 107.699 212.019 124.166 210.694 135.334C208.991 149.151 202.745 166.944 194.416 169.404C202.555 154.83 203.691 138.552 205.016 130.223C206.152 121.895 209.559 113.188 213.344 107.699Z" fill="white"/>
<path d="M230.758 96.721C230.758 96.721 225.647 111.296 223.755 119.624C221.862 127.574 219.212 135.523 215.994 141.77C214.859 137.416 215.048 124.734 217.319 118.299C219.59 112.053 224.322 103.157 230.758 96.721Z" fill="white"/>
<path d="M250.632 87.0684C250.632 87.0684 242.493 102.589 238.897 108.836C235.679 114.703 234.165 116.217 229.811 123.599C228.676 119.435 230.001 109.593 233.218 104.861C236.625 100.129 245.332 91.4218 250.632 87.0684Z" fill="white"/>
<path d="M365.334 72.8718C362.306 74.1967 356.627 78.9287 346.217 76.8466C353.599 71.1682 359.656 71.9254 365.334 72.8718Z" fill="white"/>
<path d="M384.264 77.0366C379.91 77.4151 372.15 82.5257 361.929 78.5508C367.039 74.7652 376.693 74.7652 384.264 77.0366Z" fill="white"/>
<path d="M405.843 84.4175C401.868 84.2282 392.215 87.446 379.533 81.7676C386.158 78.5498 398.84 81.1998 405.843 84.4175Z" fill="white"/>
<path d="M420.795 90.8523C427.231 93.5022 437.641 97.4771 441.048 98.6128C434.802 98.802 425.338 97.2878 418.524 95.2057C411.71 93.1237 408.303 91.7987 401.489 88.0131C407.546 87.256 414.36 88.0131 420.795 90.8523Z" fill="white"/>
<path d="M712.854 286.189C706.04 281.268 699.605 276.915 692.791 271.425C698.658 272.75 708.312 276.536 715.315 280.889C722.318 285.054 732.35 296.41 735.757 300.007C729.322 296.978 721.94 292.814 712.854 286.189Z" fill="white"/>
<path d="M725.724 278.049C717.963 276.914 707.742 271.992 702.064 268.964C695.061 265.178 686.354 259.5 680.865 252.307C689.004 255.525 697.143 257.607 705.282 262.718C713.988 268.018 722.506 275.21 725.724 278.049Z" fill="white"/>
<path d="M626.921 191.172C620.485 189.657 614.996 188.333 604.964 187.575C612.725 183.411 622.567 185.872 626.921 191.172Z" fill="white"/>
<path d="M638.089 204.042C630.518 201.96 626.164 201.203 616.133 199.5C622.947 195.525 633.736 198.553 638.089 204.042Z" fill="white"/>
<path d="M650.392 216.155C643.389 213.695 637.899 213.127 628.436 211.613C634.114 207.449 645.471 210.098 650.392 216.155Z" fill="white"/>
<path d="M663.072 228.838C655.69 226.945 650.58 225.62 641.116 224.295C646.416 220.131 657.205 222.591 663.072 228.838Z" fill="white"/>
<path d="M652.85 236.788C658.717 234.138 669.696 238.113 673.67 244.738C667.046 241.899 661.178 239.249 652.85 236.788Z" fill="white"/>
<path d="M662.883 253.445C670.644 250.985 678.783 254.77 681.622 260.449C676.701 257.799 671.211 255.906 662.883 253.445Z" fill="white"/>
<path d="M690.516 250.226C684.46 246.819 676.32 239.627 671.778 235.463C678.592 236.598 684.838 237.923 692.22 241.898C699.413 245.873 707.362 251.93 713.419 257.798C706.794 256.283 696.573 253.634 690.516 250.226Z" fill="white"/>
<path d="M700.927 236.597C700.927 236.597 688.245 235.461 678.592 231.486C672.346 229.026 662.125 221.455 660.421 219.183C665.153 219.751 676.321 221.833 681.053 224.294C687.299 227.701 700.738 236.408 700.927 236.597Z" fill="white"/>
<path d="M660.612 212.559C652.284 208.773 645.47 203.095 642.82 201.202C649.066 201.77 660.423 204.798 667.805 208.773C675.187 212.748 684.651 219.373 690.329 224.862C682.001 219.751 669.509 216.533 660.612 212.559Z" fill="white"/>
<path d="M648.496 197.607C639.789 195.335 632.029 189.468 627.297 186.25C633.543 186.25 643.196 188.332 651.903 191.739C660.61 195.146 677.835 204.231 684.27 210.667C670.831 204.799 659.474 200.257 648.496 197.607Z" fill="white"/>
<path d="M629.003 181.708C621.432 180.951 607.803 178.869 607.803 178.869C607.803 178.869 614.05 174.894 627.11 176.219C637.52 177.355 655.691 183.601 659.666 185.873C647.741 184.548 636.574 182.466 629.003 181.708Z" fill="white"/>
<path d="M611.966 170.919C601.556 172.811 599.095 173.379 593.038 174.515C595.688 170.919 604.017 167.133 611.209 166.187C618.402 165.24 628.055 165.24 632.787 166.565C625.594 168.269 622.377 169.026 611.966 170.919Z" fill="white"/>
<path d="M593.797 165.43C588.497 166.944 582.819 168.08 577.519 168.269C581.683 165.051 587.361 161.834 592.283 160.509C597.204 159.373 601.179 158.805 610.075 159.373C610.075 159.562 600.8 163.537 593.797 165.43Z" fill="white"/>
<path d="M575.627 158.047C579.98 155.965 588.876 153.883 591.148 153.694C586.794 157.479 581.495 161.265 575.816 163.915C570.138 166.565 567.299 166.943 563.134 167.89C564.838 165.24 571.273 160.129 575.627 158.047Z" fill="white"/>
<path d="M539.284 164.672C529.82 164.672 516.759 162.212 510.513 155.019C516.002 157.48 528.495 160.13 538.526 160.13C552.533 160.13 565.783 155.965 574.49 152.18C570.893 158.426 557.833 164.672 539.284 164.672Z" fill="white"/>
<path d="M546.287 211.236C542.123 208.964 537.012 203.475 537.012 203.475C537.012 203.475 544.773 205.368 548.369 207.45C551.965 209.532 554.994 214.075 554.994 214.075C554.994 214.075 549.315 212.939 546.287 211.236Z" fill="white"/>
<path d="M570.325 250.982C574.868 256.661 576.761 260.825 577.897 265.557C574.111 262.15 570.515 258.743 566.54 254.768C562.565 250.793 558.022 245.304 552.155 238.111C561.051 241.708 565.972 245.115 570.325 250.982Z" fill="white"/>
<path d="M567.108 268.397C565.026 265.936 555.751 255.715 551.208 249.279C556.129 251.551 565.783 257.986 571.083 263.854C576.382 269.722 579.222 278.618 580.547 284.107C577.14 280.889 571.461 273.507 567.108 268.397Z" fill="white"/>
<path d="M571.27 321.017C567.485 318.557 560.86 311.175 557.642 306.064C554.803 301.711 550.639 291.3 549.692 284.676C553.478 288.461 557.074 294.139 561.238 300.386C563.321 303.603 570.135 317.232 571.27 321.017Z" fill="white"/>
<path d="M567.864 339.376C564.457 338.43 560.104 335.969 556.318 333.319C552.533 330.669 548.368 326.695 546.665 323.288C550.64 324.423 554.804 326.316 558.779 329.534C562.754 332.752 566.35 337.105 567.864 339.376Z" fill="white"/>
<path d="M541.743 286.947C538.714 280.511 533.793 274.265 529.818 270.101C535.496 270.669 543.068 278.429 541.743 286.947Z" fill="white"/>
<path d="M530.199 254.391C537.013 254.959 544.395 262.34 544.016 270.48C540.042 264.233 536.634 260.826 530.199 254.391Z" fill="white"/>
<path d="M544.773 254.391C540.609 250.984 536.634 247.577 530.199 242.845C536.067 242.655 543.638 247.955 544.773 254.391Z" fill="white"/>
<path d="M542.501 240.951C539.661 237.733 537.579 236.03 532.469 231.298C538.147 231.487 542.69 236.03 542.501 240.951Z" fill="white"/>
<path d="M530.199 285.431C533.795 287.513 538.717 293.949 539.095 298.302C534.742 295.842 531.145 290.353 530.199 285.431Z" fill="white"/>
<path d="M534.173 305.305C537.769 307.388 539.851 310.795 540.041 314.391C536.066 312.877 534.551 309.848 534.173 305.305Z" fill="white"/>
<path d="M417.008 304.55C418.333 298.493 419.658 293.572 420.226 286.569C420.794 280.133 420.226 275.401 419.28 271.805C423.444 273.698 425.715 281.647 425.147 287.136C424.579 292.815 422.119 299.061 417.008 304.55Z" fill="white"/>
<path d="M338.08 156.722C345.462 152.936 358.901 151.801 366.661 153.315C374.422 154.64 381.425 158.236 385.968 163.536C385.968 163.536 379.154 162.211 366.093 158.426C358.712 156.344 351.708 155.776 338.08 156.722Z" fill="white"/>
<path d="M364.956 180.95C361.359 173.947 355.87 170.54 341.485 169.593C345.46 167.701 351.327 166.944 357.384 168.836C362.306 170.161 365.902 174.325 364.956 180.95Z" fill="white"/>
<path d="M372.908 215.587C371.015 207.827 368.365 202.716 362.686 196.47C368.743 195.902 377.261 206.312 372.908 215.587Z" fill="white"/>
<path d="M360.036 210.289C366.85 211.046 371.771 221.835 367.607 229.974C366.093 220.699 363.254 215.021 360.036 210.289Z" fill="white"/>
<path d="M360.224 244.927C360.224 236.788 357.764 227.892 355.492 224.485C362.117 225.431 365.335 237.924 360.224 244.927Z" fill="white"/>
<path d="M342.624 326.506C339.406 319.502 335.999 308.145 338.46 298.492C342.435 304.171 345.652 317.988 342.624 326.506Z" fill="white"/>
<path d="M274.671 148.584C269.182 144.61 269.75 137.228 273.157 134.389C273.535 139.12 274.103 144.42 274.671 148.584Z" fill="white"/>
<path d="M228.487 178.868C232.272 175.84 236.247 172.811 239.844 168.647C240.601 173.758 234.922 180.193 228.487 178.868Z" fill="white"/>
<path d="M227.352 160.509C230.759 156.345 232.652 153.127 234.923 147.638C237.384 153.695 232.462 160.698 227.352 160.509Z" fill="white"/>
<path d="M259.529 263.286C252.337 256.094 240.034 240.573 236.059 235.652C229.434 227.513 215.238 214.831 206.531 208.963C216.752 210.288 234.166 225.052 240.601 232.813C248.93 243.034 257.826 255.147 259.529 263.286Z" fill="white"/>
<path d="M271.454 300.197C265.775 307.957 260.665 317.611 257.069 325.182C255.365 318.557 260.097 310.797 260.097 310.797L255.744 310.607C259.718 305.307 265.208 301.9 271.454 300.197Z" fill="white"/>
<path d="M88.4197 297.924C92.5839 291.3 103.562 293.382 110.755 294.139C106.78 298.682 95.2338 295.275 88.4197 297.924Z" fill="white"/>
<path d="M79.7137 307.767C84.4457 300.385 94.4775 300.196 104.32 300.953C101.481 305.306 92.3955 302.846 79.7137 307.767Z" fill="white"/>
<path d="M183.629 164.673C182.872 172.244 174.354 176.219 168.487 172.623C174.165 170.73 179.843 167.702 183.629 164.673Z" fill="white"/>
<path d="M197.825 234.326C204.071 229.215 217.131 230.54 222.999 239.247C214.292 236.219 205.585 234.704 197.825 234.326Z" fill="white"/>
<path d="M186.468 224.107C193.471 218.996 204.071 222.403 209.182 227.703C201.421 225.999 193.282 224.864 186.468 224.107Z" fill="white"/>
<path d="M176.058 201.014C183.061 197.229 191.2 198.932 195.364 204.421C189.875 202.907 185.332 201.771 176.058 201.014Z" fill="white"/>
<path d="M174.165 180.951C181.736 179.437 185.9 178.68 191.957 176.03C189.875 183.223 179.086 184.548 174.165 180.951Z" fill="white"/>
<path d="M119.085 271.047C128.17 270.479 131.198 266.126 132.713 263.287C133.281 270.101 127.224 275.022 119.652 275.022C113.028 275.022 107.349 274.076 104.132 274.454C107.349 270.669 113.028 271.426 119.085 271.047Z" fill="white"/>
<path d="M102.048 220.32C97.127 215.588 92.7735 210.288 94.0985 202.906C97.3162 209.531 100.345 212.181 105.455 216.913C111.134 222.212 113.784 227.512 112.648 231.866C109.619 226.377 106.78 225.052 102.048 220.32Z" fill="white"/>
<path d="M108.292 213.128C102.235 208.396 97.1248 203.664 98.4498 195.335C102.046 202.906 106.021 205.935 109.049 208.396C115.296 213.128 119.649 218.238 118.513 225.241C115.863 219.942 113.592 217.481 108.292 213.128Z" fill="white"/>
<path d="M95.6138 289.407C99.778 283.161 117.002 287.325 118.138 287.514C114.163 291.3 103.374 288.082 95.6138 289.407Z" fill="white"/>
<path d="M117.947 283.349C112.836 283.349 106.59 281.078 99.965 282.024C103.372 276.724 111.7 278.996 118.136 278.996C124.382 278.996 127.221 277.481 131.385 275.021C130.06 279.185 124.382 283.349 117.947 283.349Z" fill="white"/>
<path d="M213.913 244.737C221.295 241.14 230.57 245.683 234.923 254.958C230.191 251.74 222.81 247.387 213.913 244.737Z" fill="white"/>
<path d="M245.331 262.529C239.653 252.118 227.917 239.247 221.103 232.244C211.261 222.023 197.065 215.777 187.222 213.884C200.282 212.18 212.964 218.427 224.321 228.648C233.028 236.787 246.277 253.065 245.331 262.529Z" fill="white"/>
<path d="M202.934 184.547C207.098 183.033 217.887 175.841 221.673 171.298C221.673 179.437 210.127 186.44 202.934 184.547Z" fill="white"/>
<path d="M205.962 192.496C213.344 192.496 218.833 191.549 224.132 190.035C221.672 195.524 211.072 196.66 205.962 192.496Z" fill="white"/>
<path d="M195.931 190.413C189.685 193.063 182.113 193.063 176.435 190.602C182.113 188.52 190.063 188.331 195.931 190.413Z" fill="white"/>
<path d="M215.806 151.233C219.213 162.59 208.235 177.354 198.771 177.354C204.449 171.865 211.453 163.158 215.806 151.233Z" fill="white"/>
<path d="M226.404 131.738C230.379 135.523 228.865 145.177 223.943 147.448C225.268 141.959 226.025 136.848 226.404 131.738Z" fill="white"/>
<path d="M243.817 118.3C240.978 124.167 238.139 130.603 236.246 135.524C234.164 128.521 239.085 120.193 243.817 118.3Z" fill="white"/>
<path d="M319.34 71.5478C324.64 69.8443 329.94 68.1407 336.375 67.1943C331.454 70.2228 325.397 74.7655 320.665 76.469C315.933 78.1725 307.226 78.5511 307.226 78.5511C307.226 78.5511 313.283 73.6298 319.34 71.5478Z" fill="white"/>
<path d="M358.334 148.962C348.87 148.962 336.756 151.233 328.428 153.315C331.267 150.098 345.463 144.987 358.145 144.608C368.366 144.23 376.315 146.501 380.669 150.476C372.151 150.665 366.852 148.962 358.334 148.962Z" fill="white"/>
<path d="M333.158 193.822C326.154 197.797 315.365 199.689 311.012 194.39C321.233 194.011 324.451 192.497 330.129 189.468C335.05 187.008 345.082 181.329 351.896 184.926C347.732 186.061 340.918 189.468 333.158 193.822Z" fill="white"/>
<path d="M305.335 123.598C310.445 119.245 317.449 117.163 321.045 117.352C316.124 121.705 313.095 122.841 308.174 126.248C303.631 129.466 301.171 131.737 295.492 137.226C296.817 133.252 300.224 127.952 305.335 123.598Z" fill="white"/>
<path d="M295.682 126.248C293.789 128.898 291.139 132.873 288.868 137.984C288.868 134.198 290.571 127.384 292.653 124.166C295.114 120.002 298.332 118.109 302.496 116.784C300.792 120.191 298.71 121.895 295.682 126.248Z" fill="white"/>
<path d="M318.396 126.626C326.156 122.462 333.728 120.948 337.702 120.758C333.16 125.112 324.264 128.519 319.721 130.412C314.989 132.494 310.257 134.765 302.875 140.065C305.336 135.333 310.635 130.79 318.396 126.626Z" fill="white"/>
<path d="M329.941 132.495C337.513 129.656 353.98 126.438 359.28 127.952C351.141 132.306 338.459 134.198 330.509 136.848C322.559 139.309 319.72 140.634 308.742 145.177C313.095 140.823 322.37 135.334 329.941 132.495Z" fill="white"/>
<path d="M345.652 137.037C360.605 134.198 369.88 136.28 374.423 138.93C364.391 140.633 355.116 140.065 346.031 141.769C336.756 143.472 329.942 145.555 318.017 150.097C322.182 145.176 337.324 138.74 345.652 137.037Z" fill="white"/>
<path d="M284.512 122.841C284.322 126.059 283.754 128.519 282.997 132.684C282.619 134.955 281.862 138.551 281.294 142.337C279.59 139.308 279.022 134.009 279.401 131.359C279.969 127.573 281.672 125.112 284.512 122.841Z" fill="white"/>
<path d="M352.842 176.596C349.056 177.543 342.999 178.679 333.535 182.464C327.857 184.546 325.396 185.871 318.772 188.521C321.989 184.168 325.586 179.814 333.346 177.164C340.728 174.514 350.76 175.65 352.842 176.596Z" fill="white"/>
<path d="M330.32 199.5C339.216 195.525 344.326 191.55 350.194 194.01C344.137 196.282 338.648 201.392 332.591 204.232C325.02 207.828 311.013 207.828 304.956 200.635C317.638 204.042 327.102 201.014 330.32 199.5Z" fill="white"/>
<path d="M326.532 340.322C329.56 344.486 332.778 354.14 330.317 360.197C326.532 355.465 324.26 348.083 326.532 340.322Z" fill="white"/>
<path d="M336.753 343.161C333.346 338.997 329.939 329.912 331.264 319.502C336.185 324.233 338.646 334.833 336.753 343.161Z" fill="white"/>
<path d="M352.842 243.224C357.006 246.063 356.438 257.231 350.949 259.502C352.274 253.445 353.031 249.281 352.842 243.224Z" fill="white"/>
<path d="M376.125 200.635C374.8 196.093 372.339 189.657 369.5 184.736C374.232 185.304 379.153 193.253 376.125 200.635Z" fill="white"/>
<path d="M404.328 217.86C406.789 231.867 411.899 245.116 417.956 249.091C414.928 240.006 413.792 228.838 415.496 218.996C419.66 233.381 422.877 246.063 431.963 253.066C431.963 253.066 424.77 234.895 428.745 222.213C432.152 237.545 435.37 244.738 439.913 250.984C444.645 257.419 453.541 264.612 456.191 272.183C451.459 268.587 444.834 264.233 439.723 262.53C439.723 262.53 441.995 267.83 441.805 271.237C436.127 265.937 427.231 262.719 427.231 262.719C427.231 262.719 429.313 266.694 428.745 270.858C421.931 263.098 412.467 264.612 406.221 248.334C403.192 239.816 401.867 228.081 404.328 217.86Z" fill="white"/>
<path d="M440.482 225.431C445.592 241.331 451.271 245.684 454.489 248.902C461.87 255.716 464.899 262.53 467.17 268.776C461.303 266.316 454.867 261.205 449.189 255.148C442.185 247.766 438.021 234.706 440.482 225.431Z" fill="white"/>
<path d="M463.383 246.631C460.354 245.117 456.758 242.088 455.433 239.249C453.351 234.707 453.351 229.217 453.73 227.135C455.622 229.975 457.326 232.435 459.408 236.599C460.544 239.06 462.247 243.224 463.383 246.631Z" fill="white"/>
<path d="M440.858 103.157C446.915 104.293 454.486 107.889 459.597 109.214C455.433 109.971 446.347 109.403 440.48 107.889C434.612 106.375 430.259 105.239 424.391 101.832C427.419 101.454 434.801 102.022 440.858 103.157Z" fill="white"/>
<path d="M489.123 147.257C480.984 144.04 473.981 138.74 473.981 138.74C473.981 138.74 484.58 138.929 489.312 140.632C494.233 142.336 501.426 147.068 510.322 149.529C503.697 151.8 493.666 148.961 489.123 147.257Z" fill="white"/>
<path d="M473.037 132.685C466.79 130.792 461.869 128.521 456.38 124.924C461.112 125.114 468.115 125.303 473.226 126.628C478.337 127.953 483.068 131.549 492.154 134.578C488.368 135.713 479.283 134.578 473.037 132.685Z" fill="white"/>
<path d="M459.406 120.192C452.971 119.435 446.914 116.785 440.857 114.135C444.832 113.946 449.942 113.946 456.378 114.703C462.813 115.46 469.817 118.299 474.927 120.002C471.142 120.949 464.706 120.76 459.406 120.192Z" fill="white"/>
<path d="M329.563 76.4669C334.484 73.2491 338.08 70.4099 348.112 70.7885C342.055 76.0883 338.459 77.6025 329.563 76.4669Z" fill="white"/>
<path d="M315.745 67.383C306.849 73.2506 302.685 77.4148 298.521 79.8754C294.357 82.1468 286.975 84.4181 286.975 84.4181C286.975 84.4181 290.95 77.6041 295.871 74.3863C299.656 71.7364 311.96 68.1401 315.745 67.383Z" fill="white"/>
<path d="M274.86 80.8215C278.646 77.4145 282.81 75.3324 291.706 71.1683C287.542 75.9003 283.756 81.2001 279.971 84.9857C275.428 89.5284 268.236 95.0175 268.236 95.0175C268.236 95.0175 270.128 85.175 274.86 80.8215Z" fill="white"/>
<path d="M270.127 78.9283C270.127 79.1175 263.881 91.7993 259.717 97.4777C255.553 103.156 250.442 106.185 246.657 109.97C247.414 104.292 249.496 97.6669 253.282 92.935C257.067 88.3922 263.124 83.471 270.127 78.9283Z" fill="white"/>
<path d="M181.168 157.101C176.247 162.401 168.297 165.808 162.808 165.618C165.647 163.536 172.083 159.183 176.436 153.315C180.79 147.447 183.25 140.066 184.386 132.305C188.171 139.687 187.225 150.665 181.168 157.101Z" fill="white"/>
<path d="M140.66 154.641C143.878 150.666 147.096 144.42 148.421 139.309C152.017 144.42 148.61 154.83 140.66 154.641Z" fill="white"/>
<path d="M130.631 153.506C133.47 149.72 135.741 145.556 136.498 141.013C140.095 144.42 137.255 154.263 130.631 153.506Z" fill="white"/>
<path d="M90.6928 238.491C90.6928 238.491 86.3394 216.534 87.2858 208.963C93.7213 221.077 107.349 226.945 106.214 236.977C106.214 236.977 101.86 234.705 96.7498 229.027C96.7498 229.027 97.8855 237.923 102.239 244.169C109.242 242.655 115.488 243.223 120.978 247.387C117.949 249.28 101.292 244.359 96.9391 255.147C87.8537 250.037 81.4181 239.437 81.4181 229.027L90.6928 238.491Z" fill="white"/>
<path d="M95.9918 260.827C85.96 261.395 80.8495 254.77 78.7674 245.117C83.4994 250.795 89.9349 256.663 95.9918 260.827Z" fill="white"/>
<path d="M261.988 296.032C268.991 289.785 276.373 289.407 279.78 287.135C277.13 293.003 268.991 297.167 261.988 296.032Z" fill="white"/>
<path d="M271.452 282.783C274.291 278.429 282.619 275.969 286.973 272.751C285.458 279.754 276.941 283.161 271.452 282.783Z" fill="white"/>
<path d="M348.302 310.796C346.031 303.414 343.949 287.515 347.924 277.104C350.574 287.136 352.277 301.9 348.302 310.796Z" fill="white"/>
<path d="M361.74 283.54C362.308 272.94 360.794 257.608 367.04 244.927C368.176 254.58 368.554 273.886 361.74 283.54Z" fill="white"/>
<path d="M397.701 233.949C399.215 243.981 402.812 254.769 409.815 262.341C403.001 260.826 398.837 255.527 397.133 250.605C395.998 246.63 394.483 240.384 397.701 233.949Z" fill="white"/>
<path d="M424.391 333.509C425.148 324.992 428.744 317.61 433.097 312.121C432.53 321.774 430.448 329.345 429.69 335.592C428.365 345.434 428.933 351.87 427.987 358.494C425.148 349.977 423.823 339.756 424.391 333.509Z" fill="white"/>
<path d="M451.269 363.037C445.78 359.062 444.455 352.059 446.158 347.138C448.24 351.68 452.215 356.791 456.001 359.63C460.543 363.037 463.761 364.362 470.954 367.012C465.843 367.958 456.19 366.444 451.269 363.037Z" fill="white"/>
<path d="M469.061 361.713C463.383 360.388 459.786 357.17 458.461 352.06C467.736 358.117 476.254 359.063 485.15 359.063C482.878 360.767 476.064 363.416 469.061 361.713Z" fill="white"/>
<path d="M589.254 360.387C586.036 360.955 580.169 360.955 575.058 360.009C569.948 359.062 565.783 357.548 562.376 354.709C562.376 354.709 569.947 353.952 574.869 354.898C579.79 356.034 584.143 358.305 589.254 360.387Z" fill="white"/>
<path d="M549.692 336.537C553.478 337.673 557.642 339.187 562.563 341.647C565.213 343.162 574.488 349.029 576.381 351.49C572.027 350.544 566.538 349.219 563.131 347.515C558.399 345.244 554.424 341.458 549.692 336.537Z" fill="white"/>
<path d="M556.319 321.395C550.262 314.959 546.476 304.17 546.476 299.627C550.83 303.981 554.426 308.902 559.915 315.338C565.404 321.773 577.14 335.78 578.843 338.43C571.461 335.591 562.186 327.83 556.319 321.395Z" fill="white"/>
<path d="M563.889 297.547C559.347 289.597 553.1 279.376 551.397 273.319C556.697 277.483 566.161 288.84 568.432 292.815C573.164 300.575 577.896 314.014 579.221 321.585C575.435 318.367 568.432 305.875 563.889 297.547Z" fill="white"/>
<path d="M565.215 281.08C559.915 274.645 556.319 269.156 551.208 262.152C555.372 264.234 566.54 272.941 570.515 278.43C574.49 283.73 579.222 294.33 580.736 301.333C576.382 296.412 570.515 287.516 565.215 281.08Z" fill="white"/>
<path d="M562.944 239.627C560.673 238.302 553.48 232.813 549.127 226.945C553.48 228.46 560.105 231.11 565.405 235.463C570.705 239.816 573.166 243.223 574.301 245.873C570.137 244.548 566.162 241.52 562.944 239.627Z" fill="white"/>
<path d="M554.235 224.675C549.692 221.835 545.15 218.05 541.175 214.832C545.717 215.778 551.585 217.671 556.885 221.078C561.995 224.485 565.592 227.703 567.295 230.353C562.942 229.028 558.778 227.514 554.235 224.675Z" fill="white"/>
<path d="M690.14 328.777C690.14 328.777 709.257 340.891 716.828 342.216C716.828 342.216 701.497 332.184 696.386 319.692C696.386 319.692 712.854 332.563 723.075 335.591C723.075 335.591 707.743 322.531 703.39 312.121C703.39 312.121 723.832 328.967 731.024 330.291C731.024 330.291 716.071 318.178 711.907 305.496C711.907 305.496 728.753 320.638 737.649 322.72C737.649 322.72 720.614 308.903 717.775 299.06C717.775 299.06 707.364 292.246 703.011 288.082C711.529 290.164 717.207 293.95 722.317 297.925C722.317 297.925 733.296 310.606 748.438 316.663L744.652 319.313C744.652 319.313 752.413 326.506 761.688 329.913L756.199 333.698C756.199 333.698 766.987 338.809 778.534 338.998C768.88 351.491 742.949 349.409 742.949 349.409L745.031 353.762C735.756 353.384 724.778 346.191 724.778 346.191L727.428 353.951C712.286 351.491 693.358 338.241 690.14 328.777Z" fill="white"/>
<path d="M208.044 263.286C208.044 263.286 215.616 261.204 223.187 261.204C221.105 257.039 216.941 250.793 209.559 249.468C210.127 251.172 211.262 255.147 209.937 257.986C202.934 245.683 195.363 246.061 195.363 246.061C198.391 250.415 198.959 255.147 198.581 258.554C196.309 254.389 187.034 244.736 176.813 247.386C184.006 250.604 186.277 254.579 186.845 259.689C181.545 255.147 166.403 249.657 159.778 257.229C168.296 256.282 173.217 259.689 175.11 262.907C167.539 263.096 166.214 266.125 161.86 268.396C150.882 274.075 140.661 270.289 136.686 276.724C139.336 276.346 154.857 277.86 161.482 275.21C157.885 279.942 149.936 279.564 145.014 279.753C140.282 279.942 133.468 280.321 128.926 284.106C135.74 284.296 143.5 285.431 149.368 285.431C144.068 290.92 124.762 285.242 119.462 290.92C123.815 291.299 128.358 292.813 132.333 293.381C127.411 296.977 116.623 292.624 111.891 297.734C113.973 297.924 117.38 299.627 120.219 300.574C116.055 302.656 109.241 300.384 105.455 304.738C107.159 304.927 110.376 305.873 112.269 307.956C108.483 308.334 102.616 309.091 100.534 312.688C107.537 314.77 106.212 324.991 98.4517 329.533C103.184 321.773 101.859 316.662 95.991 316.095C88.6091 315.337 76.306 318.934 67.4098 324.801C74.981 312.12 96.1803 313.255 98.8302 308.145C88.2306 308.145 77.0631 311.552 72.7097 315.716C74.2239 308.902 78.1988 303.413 80.8487 299.438C83.6879 295.463 90.8805 286.378 93.5304 278.996C88.7984 275.967 88.0413 272.371 88.0413 272.371C95.4232 270.857 96.9374 266.882 96.9374 266.882C89.177 265.936 84.2557 264.232 77.6309 259.689C79.5237 265.746 90.1234 272.939 79.1452 289.785C71.7633 301.141 68.3562 308.334 64.5707 318.555C61.5422 326.505 56.0531 330.858 52.8353 333.698C51.6996 334.833 51.6996 336.726 53.0246 337.672C55.296 339.565 58.8923 341.647 62.4886 343.351C63.435 340.701 65.1385 336.915 60.9743 331.615C64.5707 331.805 67.9777 335.212 67.4098 340.322C66.842 344.297 68.3562 346.001 71.0062 346.379C77.2524 347.515 95.6125 342.972 104.509 328.966C110.944 318.934 121.165 311.552 133.847 308.334C140.85 306.631 144.636 307.577 146.529 309.848C148.611 312.498 147.286 316.284 145.961 318.934C142.932 325.748 142.175 331.994 141.797 338.43C141.229 349.218 136.308 366.443 128.736 367.2C132.143 369.282 135.929 366.821 138.39 362.847C140.661 359.25 144.257 351.301 145.393 337.862C145.961 329.533 146.907 325.559 149.936 318.555C152.207 313.445 152.396 309.091 150.504 306.252C148.8 303.981 146.339 301.709 140.093 301.899C144.257 299.438 151.071 300.763 153.532 304.17C156.371 307.956 156.371 313.823 153.532 320.259C150.693 326.505 150.125 329.723 149.368 338.24C147.664 357.357 143.689 364.55 138.579 369.661C145.772 369.471 150.504 363.604 152.207 356.411C154.668 346.569 158.075 333.887 159.589 329.533C161.103 324.801 163.564 321.962 166.024 320.069C171.703 315.716 170.189 311.173 175.867 306.82C167.728 306.063 166.782 316.473 159.4 317.987C165.835 311.173 165.457 302.656 174.163 298.681C182.87 294.706 191.766 297.167 195.173 299.817C193.849 293.192 184.952 289.028 174.163 290.353C180.031 284.674 196.12 288.27 205.395 293.57C203.312 287.703 197.445 282.403 183.817 280.51C192.524 277.103 205.962 281.078 214.101 284.674C211.452 278.996 201.42 273.885 192.713 272.371C200.473 269.721 212.019 270.289 218.833 272.56C216.751 267.828 208.044 263.286 208.044 263.286ZM160.157 306.631C159.4 299.438 163.942 294.327 169.621 294.138C166.214 296.977 162.807 302.088 160.157 306.631Z" fill="white"/>
<path d="M457.703 206.315C467.167 206.693 473.035 218.05 470.196 228.65C468.492 220.321 465.842 212.75 457.703 206.315Z" fill="white"/>
</g>
<defs>
<clipPath id="clip0_1443_718">
<rect width="200" height="200" fill="white"/>
</clipPath>
</defs>
</svg>
