<svg width="200" height="200" viewBox="0 0 200 200" fill="none" xmlns="http://www.w3.org/2000/svg">
<g clip-path="url(#clip0_211_1967)">
<path d="M368.689 331.995L375.125 327.641C375.125 327.641 363.2 326.316 354.115 319.691L361.308 314.392C361.308 314.392 350.14 313.256 340.865 305.685C345.408 305.117 349.004 302.467 349.004 302.467C349.004 302.467 340.297 299.438 330.644 284.675L337.458 286C337.458 286 330.834 274.832 321.37 264.99L326.669 265.179C326.669 265.179 318.72 253.065 307.552 243.412L312.852 243.79C312.852 243.79 307.552 232.623 291.085 217.67L300.549 219.184C300.549 219.184 287.489 204.609 265.911 190.981L277.078 190.035C277.078 190.035 267.803 181.328 236.572 170.918L246.226 165.239C246.226 165.239 235.247 160.886 219.727 160.129L225.594 156.154C225.594 156.154 212.723 152.936 197.959 153.693L204.206 145.176C204.206 145.176 184.52 149.34 180.546 150.476L182.817 141.39C182.817 141.39 162.753 154.64 138.336 154.64C130.576 154.64 123.005 153.504 116.191 151.233C118.462 149.151 119.976 146.122 119.976 146.122C119.976 146.122 104.645 142.526 97.0734 138.551C101.995 135.712 105.591 131.737 105.591 131.737C105.591 131.737 93.0985 130.223 80.2275 123.03C80.2275 123.03 84.3917 120.569 87.6094 116.595C87.6094 116.595 76.6312 115.648 66.5994 111.105C66.5994 111.105 72.6564 107.509 73.6028 105.238C73.6028 105.238 61.4889 104.67 48.9964 100.127C48.9964 100.127 53.9177 97.8559 57.1354 95.0167C44.643 94.2596 32.5291 90.0954 23.0651 85.5527C13.4119 80.8207 -20.0906 66.0569 -54.5394 64.9213L-53.2145 60C-53.2145 60 -68.9247 61.7035 -78.3887 64.732L-77.8208 60.1893C-77.8208 60.1893 -92.0168 63.407 -102.049 67.0033L-102.616 62.6499C-102.616 62.6499 -115.866 67.3819 -125.519 73.8174L-126.466 70.4104C-126.466 70.4104 -138.012 77.0352 -144.069 82.9028L-144.826 77.603C-144.826 77.603 -156.183 84.2278 -163.754 93.1239L-164.132 85.742C-164.132 85.742 -175.3 91.7989 -181.735 104.102L-183.628 96.9095C-183.628 96.9095 -192.335 102.588 -196.688 115.08L-199.528 106.373C-199.528 106.373 -208.234 116.027 -210.695 129.087C-212.02 124.734 -218.645 115.837 -218.645 115.837C-218.645 115.837 -219.591 130.601 -222.62 138.93C-223.945 131.169 -230.38 120.002 -230.38 120.002C-230.38 120.002 -231.137 130.791 -235.68 139.308C-236.437 131.737 -242.305 122.084 -242.305 122.084C-242.305 122.084 -243.062 131.358 -246.469 137.226C-248.74 131.548 -256.122 124.355 -256.122 124.355C-256.122 124.355 -254.986 134.387 -257.636 139.308C-261.043 134.576 -269.561 130.412 -269.561 130.412C-269.561 130.412 -265.775 144.04 -276.186 152.936C-286.785 151.801 -298.71 150.476 -305.713 148.204C-314.609 145.365 -323.127 148.204 -322.748 157.1C-327.102 156.533 -331.266 155.965 -335.241 155.208C-342.812 153.693 -345.841 157.1 -346.787 158.615C-348.869 161.832 -348.301 166.564 -345.083 170.728C-338.837 178.868 -326.345 189.278 -317.07 200.635C-318.774 206.692 -318.395 215.209 -317.827 221.455L-324.641 214.452C-324.641 214.452 -325.209 226.566 -322.37 237.355L-328.805 233.001C-328.805 233.001 -327.859 245.115 -323.884 253.254C-323.884 253.254 -326.913 252.497 -330.509 250.604C-329.752 256.472 -328.238 261.583 -324.073 268.586C-321.234 273.318 -320.477 278.428 -325.398 287.514C-330.698 296.978 -334.862 302.467 -340.351 316.852C-342.434 322.72 -346.598 326.316 -349.626 328.777C-354.547 333.13 -353.98 339.755 -349.626 342.973C-344.516 346.569 -335.619 351.49 -329.941 352.437C-323.884 353.572 -315.177 351.49 -307.228 347.137C-300.792 350.733 -288.11 352.247 -279.403 347.326C-283.946 342.405 -288.678 335.969 -290.95 332.562C-286.028 324.613 -280.539 320.449 -273.725 317.231C-271.454 316.095 -268.236 319.313 -270.697 322.531C-273.536 326.505 -274.861 330.291 -275.618 334.455C-275.996 337.294 -275.239 344.108 -274.104 348.651C-273.536 351.112 -274.293 352.626 -275.996 353.383C-279.025 354.33 -283.189 355.276 -291.139 355.465C-288.11 361.333 -283.757 365.876 -276.943 368.715C-275.429 371.554 -271.643 375.529 -264.072 375.529C-252.337 375.529 -245.144 369.093 -242.494 357.926C-240.223 348.273 -236.626 335.78 -235.301 331.427C-234.166 328.02 -232.462 326.316 -230.38 324.234C-229.055 322.909 -227.541 321.395 -226.216 319.502C-225.27 318.177 -224.702 316.852 -224.134 315.717C-222.43 312.499 -219.97 308.524 -214.859 309.092C-216.184 305.495 -218.455 303.413 -220.538 302.278C-212.588 300.953 -203.881 304.36 -201.231 313.256C-200.095 309.281 -198.77 302.656 -199.717 297.924C-197.445 298.681 -192.713 301.142 -189.117 306.442C-188.36 302.846 -188.171 295.274 -190.253 289.785C-187.792 290.542 -182.871 292.435 -179.085 296.599C-178.518 290.921 -179.085 284.485 -183.249 278.618C-181.167 278.618 -177.193 279.186 -172.271 281.078C-172.65 276.914 -175.11 271.425 -178.707 266.882C-177.003 266.882 -173.028 267.072 -168.675 268.018C-169.432 264.422 -170.757 260.447 -172.839 256.851C-161.482 263.665 -154.858 271.236 -154.858 271.236C-157.129 282.403 -164.889 308.335 -166.593 314.959C-168.486 321.584 -169.054 325.37 -165.268 332.941C-159.779 343.919 -150.126 348.083 -141.229 345.244C-131.765 342.405 -128.737 340.701 -118.137 335.591C-106.023 329.723 -102.616 321.963 -103.752 315.717C-99.588 304.738 -105.266 293.382 -105.266 293.382C-105.266 293.382 -109.241 299.06 -112.08 300.953C-113.595 297.167 -117.759 293.571 -117.759 293.571C-113.027 285.81 -108.295 277.104 -105.645 268.586C-101.291 268.775 -97.6952 267.45 -97.6952 267.45C-97.6952 267.45 -102.238 263.665 -104.131 260.636C-97.5059 261.393 -88.2312 261.583 -81.6064 258.176C-84.6349 268.018 -87.0955 280.7 -88.4205 292.246C-91.449 319.691 -100.345 337.294 -101.67 345.055C-103.563 355.844 -100.534 363.604 -91.0704 373.636C-80.0922 385.371 -70.2496 386.318 -62.4892 380.45C-52.0788 372.5 -42.9934 369.661 -32.3938 368.715C-21.037 367.768 -10.0588 365.497 -8.92311 352.058C1.67654 344.298 -1.73048 331.995 -1.73048 331.995C-1.73048 331.995 -6.27318 333.887 -12.898 336.159C-12.1408 327.83 -14.98 321.016 -14.98 321.016C-14.98 321.016 -18.1978 324.423 -22.1727 327.452C-24.0655 323.477 -29.7439 317.609 -29.7439 317.609C-29.7439 317.609 -31.6366 323.856 -36.5579 329.912C-41.6684 329.912 -48.6718 332.184 -54.3502 335.78C-49.4289 319.313 -42.6148 300.574 -32.3938 284.864C-28.7974 279.564 -17.0621 262.34 -14.4122 258.176C-6.0839 264.043 -2.48761 264.422 6.21925 267.261C14.9261 269.911 17.0082 275.589 13.6012 292.435C11.8977 301.331 8.49063 317.799 8.49063 317.799C8.49063 317.799 14.169 314.959 15.1154 314.392C9.81558 338.241 13.6012 348.84 13.6012 348.84C13.6012 348.84 18.3331 343.351 18.7117 342.973C19.8474 357.926 26.0936 370.608 26.0936 370.608C26.0936 370.608 30.447 363.983 31.2042 363.226C40.2896 378.936 57.3247 378.368 57.3247 378.368L55.8105 371.175C67.1673 373.825 78.524 371.365 78.524 371.365L76.6312 367.201C80.4168 366.633 84.3917 365.497 88.9344 363.604C89.313 378.557 79.6597 409.031 76.2527 419.631C69.6279 440.262 73.6027 453.701 80.7954 458.433C84.3917 469.033 92.3414 472.061 98.5877 471.304C101.805 473.954 108.809 476.983 114.487 473.197C118.841 470.547 120.923 465.058 119.976 459.758C123.383 455.405 123.573 448.401 117.705 437.802C111.08 425.688 108.809 420.388 117.894 379.693C125.655 385.939 138.336 392.375 138.336 392.375L137.201 386.886C148.747 392.564 158.778 400.135 159.725 413.385C161.996 444.237 156.129 470.926 152.722 486.825C151.586 491.746 150.829 495.532 150.639 497.993C149.315 510.296 153.1 515.217 157.075 519.76C158.589 525.627 160.861 533.766 172.974 534.334C177.517 539.823 185.467 541.148 190.388 539.066C195.688 536.606 198.149 532.252 198.338 525.06C204.016 521.653 204.773 513.514 200.799 502.346C194.363 485.122 188.874 470.169 194.931 432.881C196.634 421.902 198.906 413.385 200.609 406.571C205.152 388.778 207.423 379.882 193.417 365.876C198.716 364.551 204.016 361.522 204.016 361.522C204.016 361.522 187.549 356.79 176.381 344.676C183.196 347.326 191.713 347.515 191.713 347.515C191.713 347.515 183.574 339.376 178.842 329.345C180.356 330.291 189.063 333.698 189.063 333.698C189.063 333.698 183.196 317.988 180.924 309.66L188.117 315.717C188.117 315.717 186.224 299.06 184.142 292.057L188.874 294.328C188.874 294.328 185.656 281.078 182.817 273.507L186.792 274.264C186.792 274.264 183.006 259.879 177.896 252.119H181.871C181.871 252.119 179.221 242.655 173.353 235.651L176.381 235.273C176.381 235.273 171.649 224.862 162.185 216.913L164.646 215.588C164.646 215.588 155.561 209.152 150.072 198.931C178.464 206.692 185.845 231.109 185.845 231.109L188.874 227.323C195.688 239.058 199.852 256.472 199.852 256.472L203.259 253.254C206.477 262.718 215.562 281.646 215.562 281.646L218.591 276.536C222.944 289.028 231.651 306.442 231.651 306.442L233.922 302.088C240.169 315.338 252.472 328.777 252.472 328.777L252.661 324.045C260.043 334.644 272.346 346.001 272.346 346.001L272.157 339.566C277.457 344.676 283.324 349.408 292.221 354.519L291.842 347.894C302.82 354.897 316.638 360.576 316.638 360.576L314.745 356.033C322.694 359.44 335.376 362.469 335.376 362.469L333.862 357.926C341.055 360.197 353.547 360.197 353.547 360.197L351.276 355.276C385.725 352.626 393.106 331.616 393.106 331.616C393.106 331.616 381.56 336.159 368.689 331.995Z" fill="#101010"/>
<path d="M247.928 313.634C239.032 302.277 235.247 287.514 235.247 287.514L232.218 293.76C225.972 281.646 220.672 262.529 220.672 262.529L216.697 269.532C211.587 258.743 207.044 243.033 207.044 243.033L203.258 246.44C196.255 225.43 190.009 217.859 190.009 217.859L187.737 220.698C183.195 213.127 170.513 197.038 145.907 191.928C162.563 191.17 181.302 201.959 188.305 211.613C190.009 209.72 190.766 207.827 190.766 207.827C198.526 215.02 205.719 233.38 205.719 233.38L210.262 227.134L218.022 253.633L222.754 247.197L231.84 279.375L236.761 272.182L245.279 298.681L247.361 290.921C247.361 290.921 253.796 306.82 262.314 318.745L263.639 314.391C263.639 314.391 274.238 329.155 285.406 341.837C277.835 338.241 265.721 325.748 265.721 325.748V330.48C256.257 321.016 248.686 306.252 248.686 306.252L247.928 313.634Z" fill="white"/>
<path d="M195.5 404.678C193.797 411.681 191.525 420.388 189.822 431.556C183.576 470.358 189.633 486.636 196.068 503.86C197.204 507.078 200.232 517.678 193.418 520.895C194.175 526.763 193.04 531.684 188.875 533.388C185.468 534.902 179.601 533.009 176.004 528.277C165.026 527.899 163.89 520.895 163.133 516.542C159.537 511.999 156.13 507.457 157.076 498.182C158.212 487.961 168.622 444.427 166.351 412.817C165.026 394.646 148.37 383.668 130.388 376.854L131.334 381.396C118.463 374.015 107.485 360.008 107.485 360.008L107.107 367.011C95.9392 358.494 92.1536 347.326 92.1536 347.326L89.5037 351.68C81.5539 338.43 81.554 323.098 81.554 323.098L76.6327 328.02C75.497 311.931 77.9576 295.274 77.9576 295.274L72.8471 298.871C72.4685 284.485 79.0933 264.232 79.0933 264.232L73.6042 267.072C73.0364 256.472 78.3362 240.005 78.3362 240.005L73.4149 241.519C77.579 227.323 78.3362 216.534 76.0648 209.72C71.7114 196.66 58.2725 195.713 50.7014 195.335C62.4367 190.603 79.6612 196.092 81.554 213.506C81.554 213.506 85.5288 209.909 87.043 203.474C91.2072 215.209 81.9325 217.48 80.229 233.569C84.7717 228.459 90.2607 228.648 90.2607 228.648C90.2607 228.648 79.8505 247.387 80.6076 257.418C86.4752 248.712 93.0999 247.765 93.0999 247.765C89.1251 253.822 82.5004 269.722 80.6076 282.214C80.7969 282.214 90.0715 269.532 94.2356 267.261C86.0966 284.296 80.9861 302.088 82.6896 311.742C82.8789 311.742 87.9894 294.517 96.3177 288.65C85.3395 312.499 87.043 330.67 90.6394 337.862C91.2072 318.745 97.0748 313.256 97.0748 313.256C97.0748 313.256 93.1 344.298 104.078 356.412C101.996 349.03 102.753 339.755 104.457 335.212C107.296 351.869 116.76 364.929 123.953 368.904C123.953 368.904 116.381 356.79 116.949 347.894C123.195 360.386 130.199 369.093 139.663 375.34C139.663 375.34 138.149 370.797 135.499 365.497C142.123 370.418 152.912 378.936 161.43 389.535L160.105 379.882C160.105 379.882 169.569 387.643 171.651 408.085C173.544 426.445 168.055 462.03 164.837 483.418C162.566 498.56 161.43 507.835 170.137 513.324C170.137 513.324 167.298 500.453 171.272 493.071C171.272 493.071 173.922 519.76 186.604 526.006C186.604 526.006 177.329 507.457 179.601 492.314C179.601 492.314 186.415 510.674 192.661 513.135C186.415 495.153 183.386 477.929 183.386 455.215C183.386 437.613 188.875 414.142 186.793 406.76C181.683 420.199 178.086 447.455 177.708 473.576C172.976 466.194 176.951 419.631 181.494 405.056C177.519 403.164 172.597 398.621 172.787 390.103C179.979 402.974 191.715 400.514 192.85 390.103C194.364 377.232 177.708 375.34 172.597 365.308C183.765 373.068 199.286 372.879 199.286 386.696C198.718 391.618 197.393 397.107 195.5 404.678Z" fill="white"/>
<path d="M114.109 457.866C115.056 460.326 116.191 466.194 112.027 468.465C107.295 470.737 102.374 466.762 100.67 465.247C97.0741 466.194 89.1244 465.247 86.096 454.459C80.039 450.294 75.8749 440.83 82.1211 421.145C87.9887 402.785 95.3706 378.179 95.1814 363.794C96.317 364.929 97.4527 366.065 98.5884 367.201C98.7777 378.179 91.5851 406.192 87.2316 420.199C82.8782 434.395 84.0139 445.373 89.8815 451.051C88.3673 444.427 88.178 431.934 91.3958 427.202C90.0708 446.698 98.9669 457.866 108.242 462.219C100.86 451.43 95.3707 441.02 97.4527 427.959C99.3455 438.559 105.024 447.834 111.459 449.916C105.781 440.073 101.049 429.663 102.185 416.413C103.51 399.378 108.431 375.718 108.431 375.718L112.974 379.315C103.699 421.145 106.917 428.149 113.352 440.263C119.598 452.376 116.759 456.541 114.109 457.866Z" fill="white"/>
<path d="M33.2878 352.815C31.5843 345.811 33.6664 337.672 37.452 333.698C35.9378 349.976 42.3733 360.575 50.7016 371.932C42.184 369.85 34.9914 359.818 33.2878 352.815Z" fill="white"/>
<path d="M17.9545 335.781C17.9545 328.21 20.0366 318.557 21.9294 310.985C24.0114 303.414 28.7434 294.329 31.3933 291.679C31.0148 296.979 26.6614 310.985 25.9042 313.825C24.0114 320.26 20.7937 329.156 17.9545 335.781Z" fill="white"/>
<path d="M-7.97696 247.198C-7.21984 250.984 -5.70556 254.58 -3.81277 257.798C-9.30187 256.094 -11.384 251.93 -7.97696 247.198Z" fill="white"/>
<path d="M-29.7431 270.856C-26.336 257.796 -30.3109 239.436 -26.7146 231.676C-25.9574 235.083 -22.7397 245.872 -21.2255 249.657C-17.6292 241.329 -25.2003 227.701 -22.3611 218.615C-20.2791 222.969 -16.4935 229.404 -13.0865 235.84C-10.4365 226.754 -19.7112 215.587 -17.8184 205.176C-15.1685 209.341 -11.7615 215.587 -8.16517 221.076C-7.59733 211.423 -10.2473 195.713 -15.5471 186.059C-18.7648 180.002 -30.3109 162.589 -56.9993 161.642C-46.2104 158.235 -32.2037 161.074 -19.3327 171.863C-6.46169 182.842 -2.67607 199.498 9.05925 203.284C4.32727 206.88 -0.972548 205.555 -5.32598 200.634C-5.32598 205.934 -2.10824 210.098 3.0023 211.801C-0.972567 214.64 -3.62248 219.94 -4.56887 223.347C-8.73302 236.408 -16.4935 253.253 -29.7431 270.856Z" fill="white"/>
<path d="M-44.6971 295.085C-45.8328 290.164 -49.429 269.911 -41.6686 259.69C-42.4257 273.129 -40.5329 286.189 -44.6971 295.085Z" fill="white"/>
<path d="M-46.3981 337.863C-39.9626 335.592 -33.3379 338.809 -28.7952 344.298C-28.9844 340.513 -30.688 337.295 -33.3379 334.645C-33.3379 334.645 -30.688 332.374 -29.1737 328.21C-26.7131 331.995 -26.7131 338.62 -26.7131 338.62C-26.7131 338.62 -21.9811 335.97 -19.3312 332.374C-18.3848 338.809 -20.0883 343.163 -20.0883 343.163C-20.0883 343.163 -14.5992 343.352 -8.73152 339.756C-8.9208 343.92 -11.76 347.327 -14.5992 348.084C-14.0314 358.305 -18.9526 360.766 -32.9593 362.469C-61.3512 365.687 -64.9475 380.451 -75.3579 377.612C-65.8939 372.69 -62.2976 367.012 -49.2373 361.523C-39.0162 357.169 -20.2776 359.63 -24.2524 347.895C-27.6595 356.223 -43.7482 350.734 -62.1083 359.441C-57.7549 344.109 -52.8336 340.134 -46.3981 337.863Z" fill="white"/>
<path d="M-95.2339 357.925C-97.5052 353.004 -96.9374 347.136 -95.4232 343.161C-88.2305 324.612 -84.6343 308.523 -82.7415 293.002C-80.8487 279.374 -78.5773 257.607 -68.3562 252.307C-68.3562 252.307 -68.7348 262.15 -66.2741 268.775C-69.8704 267.639 -71.5739 261.771 -71.5739 261.771C-71.5739 261.771 -74.7917 269.532 -71.5739 281.835C-74.2239 280.889 -75.7381 278.428 -75.7381 278.428C-75.7381 278.428 -78.0095 288.081 -75.3595 298.492C-77.6309 297.924 -79.3344 295.463 -79.3344 295.463C-79.3344 295.463 -81.9843 308.713 -78.9559 318.177C-81.7951 317.419 -83.4986 314.77 -83.4986 314.77C-83.4986 314.77 -85.3913 326.694 -83.3093 336.158C-85.9592 335.401 -87.852 332.562 -87.852 332.562C-88.7984 336.915 -89.1769 344.297 -85.3914 351.868C-88.0413 351.49 -89.7448 349.408 -91.0697 348.083C-94.0982 356.032 -84.445 367.389 -80.8487 374.96C-87.0949 371.364 -93.7196 361.332 -95.2339 357.925Z" fill="white"/>
<path d="M-105.832 246.442C-101.479 252.309 -90.8794 255.149 -90.8794 255.149C-95.0435 255.716 -104.886 256.663 -119.461 248.524C-117.946 252.877 -110.943 261.206 -109.618 262.72C-118.893 261.584 -132.899 247.01 -132.899 247.01C-132.899 247.01 -130.439 254.959 -126.085 262.72C-132.142 259.124 -141.606 247.767 -149.745 238.681C-159.209 227.892 -169.809 217.293 -173.595 206.882C-166.591 214.264 -142.931 239.438 -137.631 240.763C-142.553 233.382 -154.856 218.428 -157.506 208.207C-143.878 224.675 -132.521 236.41 -125.707 240.574C-129.303 234.896 -138.956 222.025 -143.121 209.154C-131.953 222.971 -117.757 235.842 -114.35 236.031C-118.893 231.489 -127.978 218.996 -131.953 208.775C-120.407 220.321 -110.754 228.082 -105.454 229.974C-111.889 222.214 -116.243 217.482 -120.786 208.018C-112.836 215.4 -104.508 221.457 -97.8828 222.593C-97.8828 222.593 -107.915 212.939 -111.511 205.557C-101.858 213.129 -93.5293 215.968 -92.0151 215.779C-94.4757 213.696 -99.7755 209.154 -102.993 203.475C-91.0687 210.857 -84.4439 210.857 -80.0905 210.857C-68.1659 210.857 -58.8911 205.936 -52.0771 204.99C-58.5126 214.075 -67.2194 218.239 -71.005 220.321C-64.0017 221.646 -54.9163 219.564 -54.9163 219.564C-60.0268 226.189 -66.0838 229.974 -77.6298 233.382C-71.5729 235.653 -60.5947 235.085 -60.5947 235.085C-66.4623 240.385 -75.3585 242.467 -90.5008 242.088C-84.0653 246.82 -72.7086 248.335 -72.7086 248.335C-78.5762 250.417 -90.6901 250.227 -105.832 246.442Z" fill="white"/>
<path d="M-109.431 315.149C-107.728 321.395 -112.081 326.127 -120.22 330.481C-133.659 337.484 -143.123 341.08 -148.423 339.566C-140.662 337.484 -111.513 324.802 -114.163 317.042C-115.867 321.963 -130.82 328.588 -139.148 329.913C-138.202 327.641 -133.47 318.556 -131.198 315.717C-128.17 311.931 -124.006 310.228 -117.759 314.392C-118.138 311.742 -120.031 309.849 -121.923 308.524C-121.923 308.524 -119.463 305.496 -117.759 301.71C-115.677 305.496 -115.677 310.606 -115.677 310.606C-115.677 310.606 -111.324 308.714 -107.728 304.739C-106.781 310.228 -108.106 313.067 -109.431 315.149Z" fill="white"/>
<path d="M-161.102 316.663C-158.641 307.767 -149.556 276.536 -147.852 264.422C-146.149 268.586 -145.013 272.372 -147.284 281.268C-149.745 290.164 -153.531 304.171 -155.991 313.256C-159.398 325.749 -157.884 331.048 -153.72 338.809C-159.966 335.78 -163.562 325.37 -161.102 316.663Z" fill="white"/>
<path d="M-265.964 352.058C-266.91 351.301 -268.614 348.083 -268.992 346.758C-266.531 345.244 -265.017 343.919 -265.017 343.919C-265.017 343.919 -268.424 342.215 -269.938 338.24C-267.478 338.051 -264.26 337.673 -261.799 336.537C-261.799 339.187 -262.178 341.837 -262.746 344.297C-263.314 347.326 -264.26 349.219 -265.964 352.058Z" fill="white"/>
<path d="M-261.23 331.995C-263.691 329.724 -265.016 327.263 -265.584 325.56C-263.88 325.181 -261.609 324.803 -259.527 323.856C-260.284 326.695 -260.852 329.345 -261.23 331.995Z" fill="white"/>
<path d="M-268.236 357.358C-268.425 358.304 -268.615 359.44 -268.993 361.332C-269.372 363.225 -271.075 363.982 -273.536 363.604C-275.996 363.225 -278.268 362.468 -280.161 360.575C-278.079 360.197 -272.779 358.872 -268.236 357.358Z" fill="white"/>
<path d="M-301.17 343.163C-298.709 341.46 -296.438 339.378 -294.356 337.106C-292.652 339.378 -290.57 342.028 -289.056 344.11C-293.599 345.056 -297.952 344.11 -301.17 343.163Z" fill="white"/>
<path d="M-340.539 167.323C-342.432 164.862 -343.379 162.97 -341.864 161.645C-340.539 160.32 -338.268 161.266 -336.375 162.97C-325.586 172.812 -309.119 193.065 -309.119 201.393C-318.583 190.415 -336.754 172.244 -340.539 167.323Z" fill="white"/>
<path d="M-316.31 153.882C-314.039 151.232 -308.55 152.178 -304.197 154.449C-299.654 156.721 -282.051 167.32 -281.294 167.699C-273.723 172.81 -268.044 176.974 -264.069 182.841C-260.094 188.709 -257.823 194.198 -256.12 200.634C-253.659 193.82 -257.444 179.624 -266.908 169.403C-258.391 171.485 -249.305 187.195 -248.17 198.93C-245.709 191.927 -247.223 178.109 -257.634 167.32C-249.873 169.403 -241.924 180.949 -240.599 197.037C-237.192 190.791 -239.463 174.135 -249.116 164.292C-241.734 166.753 -234.542 177.163 -233.406 189.655C-233.027 193.441 -234.163 197.227 -236.434 200.255C-240.22 205.176 -246.088 209.34 -252.334 211.801C-249.305 219.94 -239.463 221.076 -230.188 218.615C-238.706 226.944 -256.687 224.483 -261.419 208.205C-264.448 197.605 -265.394 190.602 -269.937 184.923C-274.29 179.056 -278.265 176.595 -284.701 172.052C-290.568 167.888 -298.897 162.778 -304.386 159.749C-309.118 157.099 -313.282 160.506 -307.793 166.942C-307.604 162.967 -304.575 162.778 -301.357 165.049C-298.14 167.131 -290.19 172.81 -286.404 175.27C-286.404 175.27 -290.379 176.406 -293.408 176.784C-292.083 177.92 -285.836 179.813 -280.158 180.002C-284.701 182.463 -291.326 183.977 -291.326 183.977C-285.836 186.816 -275.047 185.681 -275.047 185.681C-279.022 188.898 -288.865 190.98 -288.865 190.98C-283.376 193.82 -271.83 191.927 -271.83 191.927C-274.669 195.523 -284.701 197.605 -284.701 197.605C-280.537 199.877 -273.533 199.498 -268.991 197.794C-270.883 206.312 -285.647 208.394 -296.058 193.441C-300.032 187.573 -311.957 168.456 -314.607 163.724C-317.257 159.181 -317.825 155.774 -316.31 153.882Z" fill="white"/>
<path d="M-241.356 139.686C-237.192 148.961 -244.952 158.046 -250.441 156.722C-247.602 152.368 -243.438 145.365 -241.356 139.686Z" fill="white"/>
<path d="M-228.674 137.793C-224.321 149.15 -235.299 162.778 -242.87 160.507C-235.867 153.125 -231.324 144.229 -228.674 137.793Z" fill="white"/>
<path d="M-207.096 139.687C-206.15 134.387 -204.257 125.491 -201.229 119.056C-201.229 119.056 -198.579 127.195 -201.04 141.769C-202.364 150.098 -206.907 158.426 -212.586 161.833C-209.179 154.262 -208.421 147.637 -207.096 139.687Z" fill="white"/>
<path d="M-186.656 107.699C-186.656 107.699 -187.981 124.166 -189.306 135.334C-191.009 149.151 -197.255 166.944 -205.584 169.404C-197.445 154.83 -196.309 138.552 -194.984 130.223C-193.848 121.895 -190.441 113.188 -186.656 107.699Z" fill="white"/>
<path d="M-169.242 96.721C-169.242 96.721 -174.353 111.296 -176.245 119.624C-178.138 127.574 -180.788 135.523 -184.006 141.77C-185.141 137.416 -184.952 124.734 -182.681 118.299C-180.41 112.053 -175.678 103.157 -169.242 96.721Z" fill="white"/>
<path d="M-149.368 87.0684C-149.368 87.0684 -157.507 102.589 -161.103 108.836C-164.321 114.703 -165.835 116.217 -170.189 123.599C-171.324 119.435 -169.999 109.593 -166.782 104.861C-163.375 100.129 -154.668 91.4218 -149.368 87.0684Z" fill="white"/>
<path d="M-34.6658 72.8718C-37.6943 74.1967 -43.3727 78.9287 -53.7831 76.8466C-46.4012 71.1682 -40.3442 71.9254 -34.6658 72.8718Z" fill="white"/>
<path d="M-15.7362 77.0366C-20.0897 77.4151 -27.8501 82.5257 -38.0712 78.5508C-32.9607 74.7652 -23.3074 74.7652 -15.7362 77.0366Z" fill="white"/>
<path d="M5.84308 84.4175C1.86821 84.2282 -7.78504 87.446 -20.4668 81.7676C-13.842 78.5498 -1.16026 81.1998 5.84308 84.4175Z" fill="white"/>
<path d="M20.7955 90.8523C27.231 93.5022 37.6413 97.4771 41.0484 98.6128C34.8021 98.802 25.3381 97.2878 18.5241 95.2057C11.71 93.1237 8.30298 91.7987 1.48892 88.0131C7.54586 87.256 14.36 88.0131 20.7955 90.8523Z" fill="white"/>
<path d="M312.854 286.189C306.04 281.268 299.605 276.915 292.791 271.425C298.658 272.75 308.312 276.536 315.315 280.889C322.318 285.054 332.35 296.41 335.757 300.007C329.322 296.978 321.94 292.814 312.854 286.189Z" fill="white"/>
<path d="M325.724 278.049C317.963 276.914 307.742 271.992 302.064 268.964C295.061 265.178 286.354 259.5 280.865 252.307C289.004 255.525 297.143 257.607 305.282 262.718C313.988 268.018 322.506 275.21 325.724 278.049Z" fill="white"/>
<path d="M226.921 191.172C220.485 189.657 214.996 188.333 204.964 187.575C212.725 183.411 222.567 185.872 226.921 191.172Z" fill="white"/>
<path d="M238.089 204.042C230.518 201.96 226.164 201.203 216.133 199.5C222.947 195.525 233.736 198.553 238.089 204.042Z" fill="white"/>
<path d="M250.392 216.155C243.389 213.695 237.899 213.127 228.436 211.613C234.114 207.449 245.471 210.098 250.392 216.155Z" fill="white"/>
<path d="M263.072 228.838C255.69 226.945 250.58 225.62 241.116 224.295C246.416 220.131 257.205 222.591 263.072 228.838Z" fill="white"/>
<path d="M252.85 236.788C258.717 234.138 269.696 238.113 273.67 244.738C267.046 241.899 261.178 239.249 252.85 236.788Z" fill="white"/>
<path d="M262.883 253.445C270.644 250.985 278.783 254.77 281.622 260.449C276.701 257.799 271.211 255.906 262.883 253.445Z" fill="white"/>
<path d="M290.516 250.226C284.46 246.819 276.32 239.627 271.778 235.463C278.592 236.598 284.838 237.923 292.22 241.898C299.413 245.873 307.362 251.93 313.419 257.798C306.794 256.283 296.573 253.634 290.516 250.226Z" fill="white"/>
<path d="M300.927 236.597C300.927 236.597 288.245 235.461 278.592 231.486C272.346 229.026 262.125 221.455 260.421 219.183C265.153 219.751 276.321 221.833 281.053 224.294C287.299 227.701 300.738 236.408 300.927 236.597Z" fill="white"/>
<path d="M260.612 212.559C252.284 208.773 245.47 203.095 242.82 201.202C249.066 201.77 260.423 204.798 267.805 208.773C275.187 212.748 284.651 219.373 290.329 224.862C282.001 219.751 269.509 216.533 260.612 212.559Z" fill="white"/>
<path d="M248.496 197.607C239.789 195.335 232.029 189.468 227.297 186.25C233.543 186.25 243.196 188.332 251.903 191.739C260.61 195.146 277.835 204.231 284.27 210.667C270.831 204.799 259.474 200.257 248.496 197.607Z" fill="white"/>
<path d="M229.003 181.708C221.432 180.951 207.803 178.869 207.803 178.869C207.803 178.869 214.05 174.894 227.11 176.219C237.52 177.355 255.691 183.601 259.666 185.873C247.741 184.548 236.574 182.466 229.003 181.708Z" fill="white"/>
<path d="M211.966 170.919C201.556 172.811 199.095 173.379 193.038 174.515C195.688 170.919 204.017 167.133 211.209 166.187C218.402 165.24 228.055 165.24 232.787 166.565C225.594 168.269 222.377 169.026 211.966 170.919Z" fill="white"/>
<path d="M193.797 165.43C188.497 166.944 182.819 168.08 177.519 168.269C181.683 165.051 187.361 161.834 192.283 160.509C197.204 159.373 201.179 158.805 210.075 159.373C210.075 159.562 200.8 163.537 193.797 165.43Z" fill="white"/>
<path d="M175.627 158.047C179.98 155.965 188.876 153.883 191.148 153.694C186.794 157.479 181.495 161.265 175.816 163.915C170.138 166.565 167.299 166.943 163.134 167.89C164.838 165.24 171.273 160.129 175.627 158.047Z" fill="white"/>
<path d="M139.284 164.672C129.82 164.672 116.759 162.212 110.513 155.019C116.002 157.48 128.495 160.13 138.526 160.13C152.533 160.13 165.783 155.965 174.49 152.18C170.893 158.426 157.833 164.672 139.284 164.672Z" fill="white"/>
<path d="M146.287 211.236C142.123 208.964 137.012 203.475 137.012 203.475C137.012 203.475 144.773 205.368 148.369 207.45C151.965 209.532 154.994 214.075 154.994 214.075C154.994 214.075 149.315 212.939 146.287 211.236Z" fill="white"/>
<path d="M170.325 250.982C174.868 256.661 176.761 260.825 177.897 265.557C174.111 262.15 170.515 258.743 166.54 254.768C162.565 250.793 158.022 245.304 152.155 238.111C161.051 241.708 165.972 245.115 170.325 250.982Z" fill="white"/>
<path d="M167.108 268.397C165.026 265.936 155.751 255.715 151.208 249.279C156.129 251.551 165.783 257.986 171.083 263.854C176.382 269.722 179.222 278.618 180.547 284.107C177.14 280.889 171.461 273.507 167.108 268.397Z" fill="white"/>
<path d="M171.27 321.017C167.485 318.557 160.86 311.175 157.642 306.064C154.803 301.711 150.639 291.3 149.692 284.676C153.478 288.461 157.074 294.139 161.238 300.386C163.321 303.603 170.135 317.232 171.27 321.017Z" fill="white"/>
<path d="M167.864 339.376C164.457 338.43 160.104 335.969 156.318 333.319C152.533 330.669 148.368 326.695 146.665 323.288C150.64 324.423 154.804 326.316 158.779 329.534C162.754 332.752 166.35 337.105 167.864 339.376Z" fill="white"/>
<path d="M141.743 286.947C138.714 280.511 133.793 274.265 129.818 270.101C135.496 270.669 143.068 278.429 141.743 286.947Z" fill="white"/>
<path d="M130.199 254.391C137.013 254.959 144.395 262.34 144.016 270.48C140.042 264.233 136.634 260.826 130.199 254.391Z" fill="white"/>
<path d="M144.773 254.391C140.609 250.984 136.634 247.577 130.199 242.845C136.067 242.655 143.638 247.955 144.773 254.391Z" fill="white"/>
<path d="M142.501 240.951C139.661 237.733 137.579 236.03 132.469 231.298C138.147 231.487 142.69 236.03 142.501 240.951Z" fill="white"/>
<path d="M130.199 285.431C133.795 287.513 138.717 293.949 139.095 298.302C134.742 295.842 131.145 290.353 130.199 285.431Z" fill="white"/>
<path d="M134.173 305.305C137.769 307.388 139.851 310.795 140.041 314.391C136.066 312.877 134.551 309.848 134.173 305.305Z" fill="white"/>
<path d="M17.0082 304.55C18.3331 298.493 19.6581 293.572 20.2259 286.569C20.7938 280.133 20.2259 275.401 19.2795 271.805C23.4437 273.698 25.715 281.647 25.1472 287.136C24.5793 292.815 22.1187 299.061 17.0082 304.55Z" fill="white"/>
<path d="M-61.9199 156.722C-54.538 152.936 -41.0992 151.801 -33.3387 153.315C-25.5783 154.64 -18.5749 158.236 -14.0322 163.536C-14.0322 163.536 -20.8463 162.211 -33.9066 158.426C-41.2885 156.344 -48.2918 155.776 -61.9199 156.722Z" fill="white"/>
<path d="M-35.0444 180.95C-38.6407 173.947 -44.1298 170.54 -58.5151 169.593C-54.5402 167.701 -48.6725 166.944 -42.6156 168.836C-37.6943 170.161 -34.098 174.325 -35.0444 180.95Z" fill="white"/>
<path d="M-27.0924 215.587C-28.9852 207.827 -31.6351 202.716 -37.3135 196.47C-31.2566 195.902 -22.739 206.312 -27.0924 215.587Z" fill="white"/>
<path d="M-39.9642 210.289C-33.1502 211.046 -28.2289 221.835 -32.393 229.974C-33.9073 220.699 -36.7465 215.021 -39.9642 210.289Z" fill="white"/>
<path d="M-39.7756 244.927C-39.7756 236.788 -42.2363 227.892 -44.5076 224.485C-37.8829 225.431 -34.6651 237.924 -39.7756 244.927Z" fill="white"/>
<path d="M-57.3762 326.506C-60.5939 319.502 -64.001 308.145 -61.5403 298.492C-57.5655 304.171 -54.3477 317.988 -57.3762 326.506Z" fill="white"/>
<path d="M-125.329 148.584C-130.818 144.61 -130.25 137.228 -126.843 134.389C-126.465 139.12 -125.897 144.42 -125.329 148.584Z" fill="white"/>
<path d="M-171.513 178.868C-167.728 175.84 -163.753 172.811 -160.156 168.647C-159.399 173.758 -165.078 180.193 -171.513 178.868Z" fill="white"/>
<path d="M-172.648 160.509C-169.241 156.345 -167.348 153.127 -165.077 147.638C-162.616 153.695 -167.538 160.698 -172.648 160.509Z" fill="white"/>
<path d="M-140.471 263.286C-147.663 256.094 -159.966 240.573 -163.941 235.652C-170.566 227.513 -184.762 214.831 -193.469 208.963C-183.248 210.288 -165.834 225.052 -159.399 232.813C-151.07 243.034 -142.174 255.147 -140.471 263.286Z" fill="white"/>
<path d="M-128.546 300.197C-134.225 307.957 -139.335 317.611 -142.931 325.182C-144.635 318.557 -139.903 310.797 -139.903 310.797L-144.256 310.607C-140.282 305.307 -134.792 301.9 -128.546 300.197Z" fill="white"/>
<path d="M-311.58 297.924C-307.416 291.3 -296.438 293.382 -289.245 294.139C-293.22 298.682 -304.766 295.275 -311.58 297.924Z" fill="white"/>
<path d="M-320.286 307.767C-315.554 300.385 -305.522 300.196 -295.68 300.953C-298.519 305.306 -307.605 302.846 -320.286 307.767Z" fill="white"/>
<path d="M-216.371 164.673C-217.128 172.244 -225.646 176.219 -231.513 172.623C-225.835 170.73 -220.157 167.702 -216.371 164.673Z" fill="white"/>
<path d="M-202.175 234.326C-195.929 229.215 -182.869 230.54 -177.001 239.247C-185.708 236.219 -194.415 234.704 -202.175 234.326Z" fill="white"/>
<path d="M-213.532 224.107C-206.529 218.996 -195.929 222.403 -190.818 227.703C-198.579 225.999 -206.718 224.864 -213.532 224.107Z" fill="white"/>
<path d="M-223.942 201.014C-216.939 197.229 -208.8 198.932 -204.636 204.421C-210.125 202.907 -214.668 201.771 -223.942 201.014Z" fill="white"/>
<path d="M-225.835 180.951C-218.264 179.437 -214.1 178.68 -208.043 176.03C-210.125 183.223 -220.914 184.548 -225.835 180.951Z" fill="white"/>
<path d="M-280.915 271.047C-271.83 270.479 -268.802 266.126 -267.287 263.287C-266.719 270.101 -272.776 275.022 -280.348 275.022C-286.972 275.022 -292.651 274.076 -295.868 274.454C-292.651 270.669 -286.972 271.426 -280.915 271.047Z" fill="white"/>
<path d="M-297.952 220.32C-302.873 215.588 -307.226 210.288 -305.902 202.906C-302.684 209.531 -299.655 212.181 -294.545 216.913C-288.866 222.212 -286.216 227.512 -287.352 231.866C-290.381 226.377 -293.22 225.052 -297.952 220.32Z" fill="white"/>
<path d="M-291.708 213.128C-297.765 208.396 -302.875 203.664 -301.55 195.335C-297.954 202.906 -293.979 205.935 -290.951 208.396C-284.704 213.128 -280.351 218.238 -281.487 225.241C-284.137 219.942 -286.408 217.481 -291.708 213.128Z" fill="white"/>
<path d="M-304.386 289.407C-300.222 283.161 -282.998 287.325 -281.862 287.514C-285.837 291.3 -296.626 288.082 -304.386 289.407Z" fill="white"/>
<path d="M-282.053 283.349C-287.164 283.349 -293.41 281.078 -300.035 282.024C-296.628 276.724 -288.3 278.996 -281.864 278.996C-275.618 278.996 -272.779 277.481 -268.615 275.021C-269.94 279.185 -275.618 283.349 -282.053 283.349Z" fill="white"/>
<path d="M-186.087 244.737C-178.705 241.14 -169.43 245.683 -165.077 254.958C-169.809 251.74 -177.19 247.387 -186.087 244.737Z" fill="white"/>
<path d="M-154.669 262.529C-160.347 252.118 -172.083 239.247 -178.897 232.244C-188.739 222.023 -202.935 215.777 -212.778 213.884C-199.718 212.18 -187.036 218.427 -175.679 228.648C-166.972 236.787 -153.723 253.065 -154.669 262.529Z" fill="white"/>
<path d="M-197.066 184.547C-192.902 183.033 -182.113 175.841 -178.327 171.298C-178.327 179.437 -189.873 186.44 -197.066 184.547Z" fill="white"/>
<path d="M-194.038 192.496C-186.656 192.496 -181.167 191.549 -175.868 190.035C-178.328 195.524 -188.928 196.66 -194.038 192.496Z" fill="white"/>
<path d="M-204.069 190.413C-210.315 193.063 -217.887 193.063 -223.565 190.602C-217.887 188.52 -209.937 188.331 -204.069 190.413Z" fill="white"/>
<path d="M-184.194 151.233C-180.787 162.59 -191.765 177.354 -201.229 177.354C-195.551 171.865 -188.547 163.158 -184.194 151.233Z" fill="white"/>
<path d="M-173.596 131.738C-169.621 135.523 -171.135 145.177 -176.057 147.448C-174.732 141.959 -173.975 136.848 -173.596 131.738Z" fill="white"/>
<path d="M-156.183 118.3C-159.022 124.167 -161.861 130.603 -163.754 135.524C-165.836 128.521 -160.915 120.193 -156.183 118.3Z" fill="white"/>
<path d="M-80.6599 71.5478C-75.3601 69.8443 -70.0602 68.1407 -63.6247 67.1943C-68.546 70.2228 -74.6029 74.7655 -79.3349 76.469C-84.0669 78.1725 -92.7738 78.5511 -92.7738 78.5511C-92.7738 78.5511 -86.7168 73.6298 -80.6599 71.5478Z" fill="white"/>
<path d="M-41.666 148.962C-51.13 148.962 -63.2439 151.233 -71.5722 153.315C-68.733 150.098 -54.537 144.987 -41.8553 144.608C-31.6342 144.23 -23.6845 146.501 -19.3311 150.476C-27.8487 150.665 -33.1485 148.962 -41.666 148.962Z" fill="white"/>
<path d="M-66.8424 193.822C-73.8457 197.797 -84.6346 199.689 -88.9881 194.39C-78.767 194.011 -75.5492 192.497 -69.8709 189.468C-64.9496 187.008 -54.9178 181.329 -48.1037 184.926C-52.2679 186.061 -59.0819 189.468 -66.8424 193.822Z" fill="white"/>
<path d="M-94.6651 123.598C-89.5546 119.245 -82.5513 117.163 -78.9549 117.352C-83.8762 121.705 -86.9047 122.841 -91.826 126.248C-96.3687 129.466 -98.8293 131.737 -104.508 137.226C-103.183 133.252 -99.7757 127.952 -94.6651 123.598Z" fill="white"/>
<path d="M-104.318 126.248C-106.211 128.898 -108.861 132.873 -111.132 137.984C-111.132 134.198 -109.429 127.384 -107.347 124.166C-104.886 120.002 -101.668 118.109 -97.5042 116.784C-99.2077 120.191 -101.29 121.895 -104.318 126.248Z" fill="white"/>
<path d="M-81.604 126.626C-73.8436 122.462 -66.2724 120.948 -62.2975 120.758C-66.8402 125.112 -75.7364 128.519 -80.2791 130.412C-85.0111 132.494 -89.7431 134.765 -97.125 140.065C-94.6643 135.333 -89.3645 130.79 -81.604 126.626Z" fill="white"/>
<path d="M-70.0587 132.495C-62.4875 129.656 -46.0202 126.438 -40.7203 127.952C-48.8593 132.306 -61.5411 134.198 -69.4908 136.848C-77.4406 139.309 -80.2798 140.634 -91.258 145.177C-86.9046 140.823 -77.6298 135.334 -70.0587 132.495Z" fill="white"/>
<path d="M-54.3478 137.037C-39.3947 134.198 -30.12 136.28 -25.5773 138.93C-35.6091 140.633 -44.8838 140.065 -53.9692 141.769C-63.2439 143.472 -70.058 145.555 -81.9826 150.097C-77.8184 145.176 -62.6761 138.74 -54.3478 137.037Z" fill="white"/>
<path d="M-115.488 122.841C-115.678 126.059 -116.246 128.519 -117.003 132.684C-117.381 134.955 -118.138 138.551 -118.706 142.337C-120.41 139.308 -120.978 134.009 -120.599 131.359C-120.031 127.573 -118.328 125.112 -115.488 122.841Z" fill="white"/>
<path d="M-47.1582 176.596C-50.9437 177.543 -57.0007 178.679 -66.4646 182.464C-72.143 184.546 -74.6037 185.871 -81.2285 188.521C-78.0107 184.168 -74.4144 179.814 -66.6539 177.164C-59.272 174.514 -49.2402 175.65 -47.1582 176.596Z" fill="white"/>
<path d="M-69.6802 199.5C-60.7841 195.525 -55.6735 191.55 -49.8059 194.01C-55.8628 196.282 -61.3519 201.392 -67.4089 204.232C-74.98 207.828 -88.9867 207.828 -95.0437 200.635C-82.362 204.042 -72.898 201.014 -69.6802 199.5Z" fill="white"/>
<path d="M-73.4684 340.322C-70.4399 344.486 -67.2222 354.14 -69.6828 360.197C-73.4684 355.465 -75.7398 348.083 -73.4684 340.322Z" fill="white"/>
<path d="M-63.2468 343.161C-66.6538 338.997 -70.0608 329.912 -68.7359 319.502C-63.8146 324.233 -61.354 334.833 -63.2468 343.161Z" fill="white"/>
<path d="M-47.1582 243.224C-42.9941 246.063 -43.5619 257.231 -49.051 259.502C-47.7261 253.445 -46.9689 249.281 -47.1582 243.224Z" fill="white"/>
<path d="M-23.8754 200.635C-25.2004 196.093 -27.661 189.657 -30.5002 184.736C-25.7682 185.304 -20.847 193.253 -23.8754 200.635Z" fill="white"/>
<path d="M4.32804 217.86C6.78867 231.867 11.8992 245.116 17.9562 249.091C14.9277 240.006 13.792 228.838 15.4955 218.996C19.6597 233.381 22.8774 246.063 31.9628 253.066C31.9628 253.066 24.7702 234.895 28.7451 222.213C32.1521 237.545 35.3699 244.738 39.9126 250.984C44.6446 257.419 53.5407 264.612 56.1906 272.183C51.4586 268.587 44.8339 264.233 39.7233 262.53C39.7233 262.53 41.9946 267.83 41.8054 271.237C36.127 265.937 27.2308 262.719 27.2308 262.719C27.2308 262.719 29.3129 266.694 28.7451 270.858C21.931 263.098 12.467 264.612 6.22083 248.334C3.19236 239.816 1.86741 228.081 4.32804 217.86Z" fill="white"/>
<path d="M40.4819 225.431C45.5924 241.331 51.2708 245.684 54.4885 248.902C61.8704 255.716 64.8989 262.53 67.1703 268.776C61.3026 266.316 54.8671 261.205 49.1887 255.148C42.1854 247.766 38.0212 234.706 40.4819 225.431Z" fill="white"/>
<path d="M63.3829 246.631C60.3544 245.117 56.7581 242.088 55.4331 239.249C53.3511 234.707 53.3511 229.217 53.7296 227.135C55.6224 229.975 57.3259 232.435 59.408 236.599C60.5437 239.06 62.2472 243.224 63.3829 246.631Z" fill="white"/>
<path d="M40.8582 103.157C46.9152 104.293 54.4864 107.889 59.5969 109.214C55.4328 109.971 46.3473 109.403 40.4797 107.889C34.612 106.375 30.2586 105.239 24.3909 101.832C27.4194 101.454 34.8013 102.022 40.8582 103.157Z" fill="white"/>
<path d="M89.123 147.257C80.984 144.04 73.9806 138.74 73.9806 138.74C73.9806 138.74 84.5802 138.929 89.3122 140.632C94.2334 142.336 101.426 147.068 110.322 149.529C103.697 151.8 93.6657 148.961 89.123 147.257Z" fill="white"/>
<path d="M73.0367 132.685C66.7904 130.792 61.8692 128.521 56.3801 124.924C61.1121 125.114 68.1154 125.303 73.226 126.628C78.3365 127.953 83.0685 131.549 92.1539 134.578C88.3683 135.713 79.2829 134.578 73.0367 132.685Z" fill="white"/>
<path d="M59.4063 120.192C52.9708 119.435 46.9138 116.785 40.8569 114.135C44.8317 113.946 49.9423 113.946 56.3778 114.703C62.8133 115.46 69.8167 118.299 74.9272 120.002C71.1416 120.949 64.7061 120.76 59.4063 120.192Z" fill="white"/>
<path d="M-70.4373 76.4669C-65.516 73.2491 -61.9197 70.4099 -51.8879 70.7885C-57.9448 76.0883 -61.5411 77.6025 -70.4373 76.4669Z" fill="white"/>
<path d="M-84.2549 67.383C-93.151 73.2506 -97.3152 77.4148 -101.479 79.8754C-105.643 82.1468 -113.025 84.4181 -113.025 84.4181C-113.025 84.4181 -109.05 77.6041 -104.129 74.3863C-100.344 71.7364 -88.0405 68.1401 -84.2549 67.383Z" fill="white"/>
<path d="M-125.14 80.8215C-121.354 77.4145 -117.19 75.3324 -108.294 71.1683C-112.458 75.9003 -116.244 81.2001 -120.029 84.9857C-124.572 89.5284 -131.764 95.0175 -131.764 95.0175C-131.764 95.0175 -129.872 85.175 -125.14 80.8215Z" fill="white"/>
<path d="M-129.873 78.9283C-129.873 79.1175 -136.119 91.7993 -140.283 97.4777C-144.447 103.156 -149.558 106.185 -153.343 109.97C-152.586 104.292 -150.504 97.6669 -146.718 92.935C-142.933 88.3922 -136.876 83.471 -129.873 78.9283Z" fill="white"/>
<path d="M-218.832 157.101C-223.753 162.401 -231.703 165.808 -237.192 165.618C-234.353 163.536 -227.917 159.183 -223.564 153.315C-219.21 147.447 -216.75 140.066 -215.614 132.305C-211.829 139.687 -212.775 150.665 -218.832 157.101Z" fill="white"/>
<path d="M-259.34 154.641C-256.122 150.666 -252.904 144.42 -251.579 139.309C-247.983 144.42 -251.39 154.83 -259.34 154.641Z" fill="white"/>
<path d="M-269.369 153.506C-266.53 149.72 -264.259 145.556 -263.502 141.013C-259.905 144.42 -262.745 154.263 -269.369 153.506Z" fill="white"/>
<path d="M-309.307 238.491C-309.307 238.491 -313.661 216.534 -312.714 208.963C-306.279 221.077 -292.651 226.945 -293.786 236.977C-293.786 236.977 -298.14 234.705 -303.25 229.027C-303.25 229.027 -302.115 237.923 -297.761 244.169C-290.758 242.655 -284.512 243.223 -279.022 247.387C-282.051 249.28 -298.708 244.359 -303.061 255.147C-312.146 250.037 -318.582 239.437 -318.582 229.027L-309.307 238.491Z" fill="white"/>
<path d="M-304.008 260.827C-314.04 261.395 -319.151 254.77 -321.233 245.117C-316.501 250.795 -310.065 256.663 -304.008 260.827Z" fill="white"/>
<path d="M-138.012 296.032C-131.009 289.785 -123.627 289.407 -120.22 287.135C-122.87 293.003 -131.009 297.167 -138.012 296.032Z" fill="white"/>
<path d="M-128.548 282.783C-125.709 278.429 -117.381 275.969 -113.027 272.751C-114.542 279.754 -123.059 283.161 -128.548 282.783Z" fill="white"/>
<path d="M-51.6977 310.796C-53.969 303.414 -56.0511 287.515 -52.0762 277.104C-49.4263 287.136 -47.7228 301.9 -51.6977 310.796Z" fill="white"/>
<path d="M-38.2598 283.54C-37.692 272.94 -39.2062 257.608 -32.96 244.927C-31.8243 254.58 -31.4458 273.886 -38.2598 283.54Z" fill="white"/>
<path d="M-2.29891 233.949C-0.784678 243.981 2.81165 254.769 9.81499 262.341C3.00093 260.826 -1.16322 255.527 -2.86673 250.605C-4.00241 246.63 -5.51667 240.384 -2.29891 233.949Z" fill="white"/>
<path d="M24.3906 333.509C25.1477 324.992 28.744 317.61 33.0974 312.121C32.5296 321.774 30.4475 329.345 29.6904 335.592C28.3654 345.434 28.9333 351.87 27.9869 358.494C25.1477 349.977 23.8227 339.756 24.3906 333.509Z" fill="white"/>
<path d="M51.2688 363.037C45.7797 359.062 44.4547 352.059 46.1582 347.138C48.2403 351.68 52.2152 356.791 56.0008 359.63C60.5435 363.037 63.7612 364.362 70.9539 367.012C65.8433 367.958 56.19 366.444 51.2688 363.037Z" fill="white"/>
<path d="M69.061 361.713C63.3826 360.388 59.7863 357.17 58.4613 352.06C67.736 358.117 76.2536 359.063 85.1498 359.063C82.8784 360.767 76.0643 363.416 69.061 361.713Z" fill="white"/>
<path d="M189.254 360.387C186.036 360.955 180.169 360.955 175.058 360.009C169.948 359.062 165.783 357.548 162.376 354.709C162.376 354.709 169.947 353.952 174.869 354.898C179.79 356.034 184.143 358.305 189.254 360.387Z" fill="white"/>
<path d="M149.692 336.537C153.478 337.673 157.642 339.187 162.563 341.647C165.213 343.162 174.488 349.029 176.381 351.49C172.027 350.544 166.538 349.219 163.131 347.515C158.399 345.244 154.424 341.458 149.692 336.537Z" fill="white"/>
<path d="M156.319 321.395C150.262 314.959 146.476 304.17 146.476 299.627C150.83 303.981 154.426 308.902 159.915 315.338C165.404 321.773 177.14 335.78 178.843 338.43C171.461 335.591 162.186 327.83 156.319 321.395Z" fill="white"/>
<path d="M163.889 297.547C159.347 289.597 153.1 279.376 151.397 273.319C156.697 277.483 166.161 288.84 168.432 292.815C173.164 300.575 177.896 314.014 179.221 321.585C175.435 318.367 168.432 305.875 163.889 297.547Z" fill="white"/>
<path d="M165.215 281.08C159.915 274.645 156.319 269.156 151.208 262.152C155.372 264.234 166.54 272.941 170.515 278.43C174.49 283.73 179.222 294.33 180.736 301.333C176.382 296.412 170.515 287.516 165.215 281.08Z" fill="white"/>
<path d="M162.944 239.627C160.673 238.302 153.48 232.813 149.127 226.945C153.48 228.46 160.105 231.11 165.405 235.463C170.705 239.816 173.166 243.223 174.301 245.873C170.137 244.548 166.162 241.52 162.944 239.627Z" fill="white"/>
<path d="M154.235 224.675C149.692 221.835 145.15 218.05 141.175 214.832C145.717 215.778 151.585 217.671 156.885 221.078C161.995 224.485 165.592 227.703 167.295 230.353C162.942 229.028 158.778 227.514 154.235 224.675Z" fill="white"/>
<path d="M290.14 328.777C290.14 328.777 309.257 340.891 316.828 342.216C316.828 342.216 301.497 332.184 296.386 319.692C296.386 319.692 312.854 332.563 323.075 335.591C323.075 335.591 307.743 322.531 303.39 312.121C303.39 312.121 323.832 328.967 331.024 330.291C331.024 330.291 316.071 318.178 311.907 305.496C311.907 305.496 328.753 320.638 337.649 322.72C337.649 322.72 320.614 308.903 317.775 299.06C317.775 299.06 307.364 292.246 303.011 288.082C311.529 290.164 317.207 293.95 322.317 297.925C322.317 297.925 333.296 310.606 348.438 316.663L344.652 319.313C344.652 319.313 352.413 326.506 361.688 329.913L356.199 333.698C356.199 333.698 366.987 338.809 378.534 338.998C368.88 351.491 342.949 349.409 342.949 349.409L345.031 353.762C335.756 353.384 324.778 346.191 324.778 346.191L327.428 353.951C312.286 351.491 293.358 338.241 290.14 328.777Z" fill="white"/>
<path d="M-191.956 263.286C-191.956 263.286 -184.384 261.204 -176.813 261.204C-178.895 257.039 -183.059 250.793 -190.441 249.468C-189.873 251.172 -188.738 255.147 -190.063 257.986C-197.066 245.683 -204.637 246.061 -204.637 246.061C-201.609 250.415 -201.041 255.147 -201.419 258.554C-203.691 254.389 -212.966 244.736 -223.187 247.386C-215.994 250.604 -213.723 254.579 -213.155 259.689C-218.455 255.147 -233.597 249.657 -240.222 257.229C-231.704 256.282 -226.783 259.689 -224.89 262.907C-232.461 263.096 -233.786 266.125 -238.14 268.396C-249.118 274.075 -259.339 270.289 -263.314 276.724C-260.664 276.346 -245.143 277.86 -238.518 275.21C-242.115 279.942 -250.064 279.564 -254.986 279.753C-259.718 279.942 -266.532 280.321 -271.074 284.106C-264.26 284.296 -256.5 285.431 -250.632 285.431C-255.932 290.92 -275.238 285.242 -280.538 290.92C-276.185 291.299 -271.642 292.813 -267.667 293.381C-272.589 296.977 -283.377 292.624 -288.109 297.734C-286.027 297.924 -282.62 299.627 -279.781 300.574C-283.945 302.656 -290.759 300.384 -294.545 304.738C-292.841 304.927 -289.624 305.873 -287.731 307.956C-291.517 308.334 -297.384 309.091 -299.466 312.688C-292.463 314.77 -293.788 324.991 -301.548 329.533C-296.816 321.773 -298.141 316.662 -304.009 316.095C-311.391 315.337 -323.694 318.934 -332.59 324.801C-325.019 312.12 -303.82 313.255 -301.17 308.145C-311.769 308.145 -322.937 311.552 -327.29 315.716C-325.776 308.902 -321.801 303.413 -319.151 299.438C-316.312 295.463 -309.12 286.378 -306.47 278.996C-311.202 275.967 -311.959 272.371 -311.959 272.371C-304.577 270.857 -303.063 266.882 -303.063 266.882C-310.823 265.936 -315.744 264.232 -322.369 259.689C-320.476 265.746 -309.877 272.939 -320.855 289.785C-328.237 301.141 -331.644 308.334 -335.429 318.555C-338.458 326.505 -343.947 330.858 -347.165 333.698C-348.3 334.833 -348.3 336.726 -346.975 337.672C-344.704 339.565 -341.108 341.647 -337.511 343.351C-336.565 340.701 -334.862 336.915 -339.026 331.615C-335.429 331.805 -332.022 335.212 -332.59 340.322C-333.158 344.297 -331.644 346.001 -328.994 346.379C-322.748 347.515 -304.388 342.972 -295.491 328.966C-289.056 318.934 -278.835 311.552 -266.153 308.334C-259.15 306.631 -255.364 307.577 -253.471 309.848C-251.389 312.498 -252.714 316.284 -254.039 318.934C-257.068 325.748 -257.825 331.994 -258.203 338.43C-258.771 349.218 -263.692 366.443 -271.264 367.2C-267.857 369.282 -264.071 366.821 -261.61 362.847C-259.339 359.25 -255.743 351.301 -254.607 337.862C-254.039 329.533 -253.093 325.559 -250.064 318.555C-247.793 313.445 -247.604 309.091 -249.496 306.252C-251.2 303.981 -253.661 301.709 -259.907 301.899C-255.743 299.438 -248.929 300.763 -246.468 304.17C-243.629 307.956 -243.629 313.823 -246.468 320.259C-249.307 326.505 -249.875 329.723 -250.632 338.24C-252.336 357.357 -256.311 364.55 -261.421 369.661C-254.228 369.471 -249.496 363.604 -247.793 356.411C-245.332 346.569 -241.925 333.887 -240.411 329.533C-238.897 324.801 -236.436 321.962 -233.976 320.069C-228.297 315.716 -229.811 311.173 -224.133 306.82C-232.272 306.063 -233.218 316.473 -240.6 317.987C-234.165 311.173 -234.543 302.656 -225.837 298.681C-217.13 294.706 -208.234 297.167 -204.827 299.817C-206.151 293.192 -215.048 289.028 -225.837 290.353C-219.969 284.674 -203.88 288.27 -194.605 293.57C-196.688 287.703 -202.555 282.403 -216.183 280.51C-207.476 277.103 -194.038 281.078 -185.899 284.674C-188.548 278.996 -198.58 273.885 -207.287 272.371C-199.527 269.721 -187.981 270.289 -181.167 272.56C-183.249 267.828 -191.956 263.286 -191.956 263.286ZM-239.843 306.631C-240.6 299.438 -236.058 294.327 -230.379 294.138C-233.786 296.977 -237.193 302.088 -239.843 306.631Z" fill="white"/>
<path d="M57.7033 206.315C67.1672 206.693 73.0349 218.05 70.1957 228.65C68.4922 220.321 65.8423 212.75 57.7033 206.315Z" fill="white"/>
</g>
<defs>
<clipPath id="clip0_211_1967">
<rect width="200" height="200" fill="white"/>
</clipPath>
</defs>
</svg>
