<svg width="200" height="200" viewBox="0 0 200 200" fill="none" xmlns="http://www.w3.org/2000/svg">
<g clip-path="url(#clip0_211_1962)">
<path d="M368.689 131.995L375.125 127.641C375.125 127.641 363.2 126.316 354.115 119.691L361.307 114.392C361.307 114.392 350.14 113.256 340.865 105.685C345.408 105.117 349.004 102.467 349.004 102.467C349.004 102.467 340.297 99.4385 330.644 84.6747L337.458 85.9996C337.458 85.9996 330.833 74.8322 321.37 64.9897L326.669 65.1789C326.669 65.1789 318.72 53.065 307.552 43.4118L312.852 43.7903C312.852 43.7903 307.552 32.6229 291.085 17.6698L300.549 19.184C300.549 19.184 287.489 4.6095 265.911 -9.01863L277.078 -9.96503C277.078 -9.96503 267.803 -18.6719 236.572 -29.0822L246.226 -34.7606C246.226 -34.7606 235.247 -39.1141 219.727 -39.8712L225.594 -43.846C225.594 -43.846 212.723 -47.0638 197.959 -46.3067L204.206 -54.8242C204.206 -54.8242 184.521 -50.6601 180.546 -49.5244L182.817 -58.6098C182.817 -58.6098 162.753 -45.3603 138.336 -45.3603C130.576 -45.3603 123.005 -46.4959 116.191 -48.7673C118.462 -50.8494 119.976 -53.8778 119.976 -53.8778C119.976 -53.8778 104.645 -57.4742 97.0734 -61.449C101.995 -64.2882 105.591 -68.2631 105.591 -68.2631C105.591 -68.2631 93.0985 -69.7773 80.2275 -76.9699C80.2275 -76.9699 84.3917 -79.4306 87.6094 -83.4054C87.6094 -83.4054 76.6312 -84.3518 66.5994 -88.8945C66.5994 -88.8945 72.6563 -92.4909 73.6028 -94.7622C73.6028 -94.7622 61.4889 -95.33 48.9964 -99.8728C48.9964 -99.8728 53.9177 -102.144 57.1354 -104.983C44.643 -105.74 32.5291 -109.905 23.0652 -114.447C13.4119 -119.179 -20.0906 -133.943 -54.5395 -135.079L-53.2145 -140C-53.2145 -140 -68.9247 -138.296 -78.3887 -135.268L-77.8208 -139.811C-77.8208 -139.811 -92.0168 -136.593 -102.049 -132.997L-102.616 -137.35C-102.616 -137.35 -115.866 -132.618 -125.519 -126.183L-126.466 -129.59C-126.466 -129.59 -138.012 -122.965 -144.069 -117.097L-144.826 -122.397C-144.826 -122.397 -156.183 -115.772 -163.754 -106.876L-164.132 -114.258C-164.132 -114.258 -175.3 -108.201 -181.735 -95.8979L-183.628 -103.091C-183.628 -103.091 -192.335 -97.4121 -196.688 -84.9197L-199.528 -93.6265C-199.528 -93.6265 -208.234 -83.9733 -210.695 -70.913C-212.02 -75.2664 -218.645 -84.1626 -218.645 -84.1626C-218.645 -84.1626 -219.591 -69.3988 -222.62 -61.0705C-223.945 -68.8309 -230.38 -79.9984 -230.38 -79.9984C-230.38 -79.9984 -231.137 -69.2095 -235.68 -60.6919C-236.437 -68.2631 -242.305 -77.9163 -242.305 -77.9163C-242.305 -77.9163 -243.062 -68.6416 -246.469 -62.774C-248.74 -68.4524 -256.122 -75.645 -256.122 -75.645C-256.122 -75.645 -254.986 -65.6132 -257.636 -60.6919C-261.043 -65.4239 -269.561 -69.588 -269.561 -69.588C-269.561 -69.588 -265.775 -55.9599 -276.186 -47.0638C-286.785 -48.1995 -298.71 -49.5244 -305.713 -51.7958C-314.609 -54.635 -323.127 -51.7958 -322.748 -42.8996C-327.102 -43.4675 -331.266 -44.0353 -335.241 -44.7924C-342.812 -46.3067 -345.841 -42.8996 -346.787 -41.3854C-348.869 -38.1676 -348.301 -33.4357 -345.083 -29.2715C-338.837 -21.1325 -326.345 -10.7221 -317.07 0.634644C-318.774 6.69157 -318.395 15.2092 -317.827 21.4554L-324.641 14.452C-324.641 14.452 -325.209 26.5659 -322.37 37.3548L-328.805 33.0014C-328.805 33.0014 -327.859 45.1153 -323.884 53.2543C-323.884 53.2543 -326.913 52.4972 -330.509 50.6044C-329.752 56.4721 -328.238 61.5826 -324.073 68.586C-321.234 73.3179 -320.477 78.4285 -325.398 87.5139C-330.698 96.9779 -334.862 102.467 -340.351 116.852C-342.434 122.72 -346.598 126.316 -349.626 128.777C-354.547 133.13 -353.98 139.755 -349.626 142.973C-344.516 146.569 -335.619 151.49 -329.941 152.437C-323.884 153.572 -315.177 151.49 -307.228 147.137C-300.792 150.733 -288.11 152.247 -279.403 147.326C-283.946 142.405 -288.678 135.969 -290.95 132.562C-286.028 124.613 -280.539 120.449 -273.725 117.231C-271.454 116.095 -268.236 119.313 -270.697 122.531C-273.536 126.505 -274.861 130.291 -275.618 134.455C-275.996 137.294 -275.239 144.108 -274.104 148.651C-273.536 151.112 -274.293 152.626 -275.996 153.383C-279.025 154.33 -283.189 155.276 -291.139 155.465C-288.11 161.333 -283.757 165.876 -276.943 168.715C-275.429 171.554 -271.643 175.529 -264.072 175.529C-252.337 175.529 -245.144 169.093 -242.494 157.926C-240.223 148.273 -236.626 135.78 -235.301 131.427C-234.166 128.02 -232.462 126.316 -230.38 124.234C-229.055 122.909 -227.541 121.395 -226.216 119.502C-225.27 118.177 -224.702 116.852 -224.134 115.717C-222.43 112.499 -219.97 108.524 -214.859 109.092C-216.184 105.495 -218.455 103.413 -220.538 102.278C-212.588 100.953 -203.881 104.36 -201.231 113.256C-200.095 109.281 -198.77 102.656 -199.717 97.9243C-197.445 98.6814 -192.713 101.142 -189.117 106.442C-188.36 102.846 -188.171 95.2743 -190.253 89.7852C-187.792 90.5424 -182.871 92.4352 -179.085 96.5993C-178.518 90.9209 -179.085 84.4854 -183.249 78.6178C-181.167 78.6178 -177.193 79.1856 -172.271 81.0784C-172.65 76.9143 -175.11 71.4252 -178.707 66.8824C-177.003 66.8824 -173.028 67.0717 -168.675 68.0181C-169.432 64.4218 -170.757 60.4469 -172.839 56.8506C-161.482 63.6647 -154.858 71.2359 -154.858 71.2359C-157.129 82.4033 -164.889 108.335 -166.593 114.959C-168.486 121.584 -169.054 125.37 -165.268 132.941C-159.779 143.919 -150.126 148.083 -141.229 145.244C-131.765 142.405 -128.737 140.701 -118.137 135.591C-106.023 129.723 -102.616 121.963 -103.752 115.717C-99.588 104.738 -105.266 93.3816 -105.266 93.3816C-105.266 93.3816 -109.241 99.06 -112.08 100.953C-113.595 97.1672 -117.759 93.5708 -117.759 93.5708C-113.027 85.8104 -108.295 77.1035 -105.645 68.586C-101.291 68.7752 -97.6952 67.4503 -97.6952 67.4503C-97.6952 67.4503 -102.238 63.6647 -104.131 60.6362C-97.5059 61.3933 -88.2312 61.5826 -81.6064 58.1756C-84.6349 68.0181 -87.0955 80.6998 -88.4205 92.2459C-91.4489 119.691 -100.345 137.294 -101.67 145.055C-103.563 155.844 -100.534 163.604 -91.0704 173.636C-80.0922 185.371 -70.2496 186.318 -62.4892 180.45C-52.0788 172.5 -42.9934 169.661 -32.3937 168.715C-21.037 167.768 -10.0588 165.497 -8.9231 152.058C1.67654 144.298 -1.73047 131.995 -1.73047 131.995C-1.73047 131.995 -6.27319 133.887 -12.8979 136.159C-12.1408 127.83 -14.98 121.016 -14.98 121.016C-14.98 121.016 -18.1978 124.423 -22.1727 127.452C-24.0655 123.477 -29.7438 117.609 -29.7438 117.609C-29.7438 117.609 -31.6366 123.856 -36.5579 129.912C-41.6684 129.912 -48.6718 132.184 -54.3502 135.78C-49.4289 119.313 -42.6148 100.574 -32.3937 84.864C-28.7975 79.5642 -17.0621 62.3397 -14.4122 58.1756C-6.08389 64.0432 -2.48761 64.4218 6.21924 67.261C14.9261 69.9109 17.0082 75.5893 13.6012 92.4352C11.8976 101.331 8.49063 117.799 8.49063 117.799C8.49063 117.799 14.169 114.959 15.1154 114.392C9.81558 138.241 13.6012 148.84 13.6012 148.84C13.6012 148.84 18.3332 143.351 18.7117 142.973C19.8474 157.926 26.0936 170.608 26.0936 170.608C26.0936 170.608 30.4471 163.983 31.2042 163.226C40.2896 178.936 57.3247 178.368 57.3247 178.368L55.8105 171.175C67.1673 173.825 78.524 171.365 78.524 171.365L76.6312 167.201C80.4168 166.633 84.3917 165.497 88.9344 163.604C89.313 178.557 79.6597 209.031 76.2527 219.631C69.6279 240.262 73.6027 253.701 80.7953 258.433C84.3917 269.033 92.3414 272.061 98.5877 271.304C101.805 273.954 108.809 276.983 114.487 273.197C118.841 270.547 120.923 265.058 119.976 259.758C123.383 255.405 123.573 248.401 117.705 237.802C111.08 225.688 108.809 220.388 117.894 179.693C125.655 185.939 138.336 192.375 138.336 192.375L137.201 186.886C148.747 192.564 158.778 200.135 159.725 213.385C161.996 244.237 156.129 270.926 152.722 286.825C151.586 291.746 150.829 295.532 150.639 297.993C149.315 310.296 153.1 315.217 157.075 319.76C158.589 325.627 160.861 333.766 172.974 334.334C177.517 339.823 185.467 341.148 190.388 339.066C195.688 336.606 198.149 332.252 198.338 325.06C204.016 321.653 204.773 313.514 200.799 302.346C194.363 285.122 188.874 270.169 194.931 232.881C196.634 221.902 198.906 213.385 200.609 206.571C205.152 188.778 207.423 179.882 193.417 165.876C198.716 164.551 204.016 161.522 204.016 161.522C204.016 161.522 187.549 156.79 176.381 144.676C183.195 147.326 191.713 147.515 191.713 147.515C191.713 147.515 183.574 139.376 178.842 129.345C180.356 130.291 189.063 133.698 189.063 133.698C189.063 133.698 183.196 117.988 180.924 109.66L188.117 115.717C188.117 115.717 186.224 99.0599 184.142 92.0566L188.874 94.328C188.874 94.328 185.656 81.0784 182.817 73.5072L186.792 74.2643C186.792 74.2643 183.006 59.8791 177.896 52.1186H181.871C181.871 52.1186 179.221 42.6547 173.353 35.6513L176.381 35.2728C176.381 35.2728 171.649 24.8624 162.185 16.9127L164.646 15.5877C164.646 15.5877 155.561 9.15219 150.072 -1.06889C178.464 6.69156 185.845 31.1086 185.845 31.1086L188.874 27.323C195.688 39.0583 199.852 56.4721 199.852 56.4721L203.259 53.2543C206.477 62.7183 215.562 81.6462 215.562 81.6462L218.591 76.5357C222.944 89.0281 231.651 106.442 231.651 106.442L233.922 102.088C240.169 115.338 252.472 128.777 252.472 128.777L252.661 124.045C260.043 134.644 272.346 146.001 272.346 146.001L272.157 139.566C277.457 144.676 283.324 149.408 292.221 154.519L291.842 147.894C302.82 154.897 316.638 160.576 316.638 160.576L314.745 156.033C322.695 159.44 335.376 162.469 335.376 162.469L333.862 157.926C341.055 160.197 353.547 160.197 353.547 160.197L351.276 155.276C385.725 152.626 393.106 131.616 393.106 131.616C393.106 131.616 381.56 136.159 368.689 131.995Z" fill="#101010"/>
<path d="M247.928 113.634C239.032 102.277 235.247 87.5137 235.247 87.5137L232.218 93.7599C225.972 81.646 220.672 62.5288 220.672 62.5288L216.697 69.5321C211.587 58.7432 207.044 43.033 207.044 43.033L203.258 46.44C196.255 25.43 190.009 17.8588 190.009 17.8588L187.737 20.698C183.195 13.1268 170.513 -2.96188 145.907 -8.07243C162.563 -8.82955 181.302 1.95938 188.305 11.6126C190.009 9.71983 190.766 7.82704 190.766 7.82704C198.526 15.0197 205.719 33.3797 205.719 33.3797L210.262 27.1336L218.022 53.6327L222.754 47.1972L231.84 79.3747L236.761 72.182L245.279 98.6812L247.361 90.9207C247.361 90.9207 253.796 106.82 262.314 118.745L263.639 114.391C263.639 114.391 274.238 129.155 285.406 141.837C277.835 138.241 265.721 125.748 265.721 125.748V130.48C256.257 121.016 248.685 106.252 248.685 106.252L247.928 113.634Z" fill="white"/>
<path d="M195.5 204.678C193.797 211.681 191.525 220.388 189.822 231.556C183.576 270.358 189.633 286.636 196.068 303.86C197.204 307.078 200.232 317.678 193.418 320.895C194.175 326.763 193.039 331.684 188.875 333.388C185.468 334.902 179.601 333.009 176.004 328.277C165.026 327.899 163.89 320.895 163.133 316.542C159.537 311.999 156.13 307.457 157.076 298.182C158.212 287.961 168.622 244.427 166.351 212.817C165.026 194.646 148.37 183.668 130.388 176.854L131.334 181.396C118.463 174.015 107.485 160.008 107.485 160.008L107.107 167.011C95.9392 158.494 92.1536 147.326 92.1536 147.326L89.5037 151.68C81.5539 138.43 81.554 123.098 81.554 123.098L76.6327 128.02C75.497 111.931 77.9576 95.2743 77.9576 95.2743L72.8471 98.8706C72.4685 84.4854 79.0933 64.2325 79.0933 64.2325L73.6042 67.0717C73.0363 56.472 78.3362 40.0047 78.3362 40.0047L73.4149 41.5189C77.579 27.323 78.3362 16.5341 76.0648 9.71999C71.7114 -3.34029 58.2725 -4.2867 50.7014 -4.66525C62.4367 -9.39723 79.6612 -3.90813 81.554 13.5056C81.554 13.5056 85.5288 9.90926 87.043 3.47375C91.2072 15.2091 81.9325 17.4805 80.229 33.5692C84.7717 28.4587 90.2607 28.6479 90.2607 28.6479C90.2607 28.6479 79.8505 47.3866 80.6076 57.4184C86.4752 48.7116 93.0999 47.7652 93.0999 47.7652C89.1251 53.8221 82.5004 69.7216 80.6076 82.214C80.7968 82.214 90.0715 69.5323 94.2356 67.261C86.0966 84.2961 80.9861 102.088 82.6896 111.742C82.8789 111.742 87.9894 94.5172 96.3177 88.6496C85.3395 112.499 87.043 130.67 90.6393 137.862C91.2072 118.745 97.0748 113.256 97.0748 113.256C97.0748 113.256 93.1 144.298 104.078 156.412C101.996 149.03 102.753 139.755 104.457 135.212C107.296 151.869 116.76 164.929 123.953 168.904C123.953 168.904 116.381 156.79 116.949 147.894C123.195 160.386 130.199 169.093 139.663 175.34C139.663 175.34 138.148 170.797 135.499 165.497C142.123 170.418 152.912 178.936 161.43 189.535L160.105 179.882C160.105 179.882 169.569 187.643 171.651 208.085C173.544 226.445 168.055 262.03 164.837 283.418C162.566 298.56 161.43 307.835 170.137 313.324C170.137 313.324 167.298 300.453 171.272 293.071C171.272 293.071 173.922 319.76 186.604 326.006C186.604 326.006 177.329 307.457 179.601 292.314C179.601 292.314 186.415 310.674 192.661 313.135C186.415 295.154 183.386 277.929 183.386 255.215C183.386 237.613 188.875 214.142 186.793 206.76C181.683 220.199 178.086 247.455 177.708 273.576C172.976 266.194 176.951 219.631 181.494 205.056C177.519 203.164 172.597 198.621 172.787 190.103C179.979 202.974 191.715 200.514 192.85 190.103C194.365 177.232 177.708 175.34 172.597 165.308C183.765 173.068 199.286 172.879 199.286 186.696C198.718 191.618 197.393 197.107 195.5 204.678Z" fill="white"/>
<path d="M114.109 257.866C115.056 260.326 116.191 266.194 112.027 268.465C107.295 270.737 102.374 266.762 100.67 265.247C97.0741 266.194 89.1244 265.247 86.0959 254.459C80.039 250.294 75.8748 240.83 82.1211 221.145C87.9887 202.785 95.3706 178.179 95.1814 163.794C96.317 164.929 97.4528 166.065 98.5884 167.201C98.7777 178.179 91.5851 206.192 87.2317 220.199C82.8782 234.395 84.0139 245.373 89.8815 251.051C88.3673 244.427 88.178 231.934 91.3958 227.202C90.0708 246.698 98.9669 257.866 108.242 262.219C100.86 251.43 95.3707 241.02 97.4527 227.959C99.3455 238.559 105.024 247.834 111.459 249.916C105.781 240.073 101.049 229.663 102.185 216.413C103.51 199.378 108.431 175.718 108.431 175.718L112.974 179.315C103.699 221.145 106.917 228.149 113.352 240.263C119.598 252.376 116.759 256.541 114.109 257.866Z" fill="white"/>
<path d="M33.2878 152.815C31.5843 145.811 33.6664 137.672 37.452 133.698C35.9377 149.976 42.3733 160.575 50.7015 171.932C42.184 169.85 34.9914 159.818 33.2878 152.815Z" fill="white"/>
<path d="M17.9545 135.781C17.9545 128.21 20.0366 118.557 21.9294 110.985C24.0114 103.414 28.7434 94.3288 31.3933 91.6788C31.0148 96.9787 26.6613 110.985 25.9042 113.825C24.0114 120.26 20.7937 129.156 17.9545 135.781Z" fill="white"/>
<path d="M-7.97696 47.1981C-7.21985 50.9837 -5.70557 54.58 -3.81277 57.7977C-9.30188 56.0942 -11.384 51.9301 -7.97696 47.1981Z" fill="white"/>
<path d="M-29.7431 70.8565C-26.336 57.7962 -30.3109 39.4361 -26.7146 31.6756C-25.9574 35.0827 -22.7397 45.8716 -21.2255 49.6572C-17.6292 41.3289 -25.2003 27.7008 -22.3611 18.6154C-20.2791 22.9688 -16.4935 29.4043 -13.0865 35.8398C-10.4366 26.7543 -19.7112 15.5869 -17.8185 5.1765C-15.1685 9.34065 -11.7615 15.5869 -8.16516 21.076C-7.59732 11.4227 -10.2473 -4.28748 -15.5471 -13.9407C-18.7648 -19.9977 -30.3109 -37.4114 -56.9993 -38.3578C-46.2104 -41.7648 -32.2037 -38.9256 -19.3327 -28.1367C-6.4617 -17.1585 -2.67609 -0.501892 9.05927 3.28369C4.32727 6.88 -0.972534 5.55505 -5.32599 0.633789C-5.32599 5.93361 -2.10825 10.0978 3.00229 11.8013C-0.972565 14.6405 -3.62247 19.9403 -4.56888 23.3473C-8.73303 36.4076 -16.4935 53.2535 -29.7431 70.8565Z" fill="white"/>
<path d="M-44.6971 95.0853C-45.8328 90.164 -49.429 69.9111 -41.6686 59.6901C-42.4257 73.1289 -40.5329 86.1892 -44.6971 95.0853Z" fill="white"/>
<path d="M-46.3981 137.863C-39.9626 135.592 -33.3379 138.809 -28.7952 144.298C-28.9844 140.513 -30.688 137.295 -33.3379 134.645C-33.3379 134.645 -30.688 132.374 -29.1737 128.21C-26.7131 131.995 -26.7131 138.62 -26.7131 138.62C-26.7131 138.62 -21.9811 135.97 -19.3312 132.374C-18.3848 138.809 -20.0883 143.163 -20.0883 143.163C-20.0883 143.163 -14.5992 143.352 -8.73154 139.756C-8.92081 143.92 -11.76 147.327 -14.5992 148.084C-14.0314 158.305 -18.9526 160.766 -32.9593 162.469C-61.3512 165.687 -64.9475 180.451 -75.3579 177.612C-65.894 172.69 -62.2976 167.012 -49.2373 161.523C-39.0162 157.169 -20.2776 159.63 -24.2524 147.895C-27.6595 156.223 -43.7482 150.734 -62.1083 159.441C-57.7549 144.109 -52.8336 140.134 -46.3981 137.863Z" fill="white"/>
<path d="M-95.2339 157.925C-97.5052 153.004 -96.9374 147.136 -95.4232 143.161C-88.2305 124.612 -84.6342 108.523 -82.7415 93.0024C-80.8487 79.3743 -78.5773 57.6071 -68.3562 52.3073C-68.3562 52.3073 -68.7347 62.1499 -66.2741 68.7747C-69.8704 67.639 -71.5739 61.7713 -71.5739 61.7713C-71.5739 61.7713 -74.7917 69.5318 -71.5739 81.8349C-74.2238 80.8885 -75.7381 78.4279 -75.7381 78.4279C-75.7381 78.4279 -78.0095 88.0812 -75.3596 98.4915C-77.6309 97.9237 -79.3344 95.4631 -79.3344 95.4631C-79.3344 95.4631 -81.9843 108.713 -78.9559 118.177C-81.795 117.419 -83.4986 114.77 -83.4986 114.77C-83.4986 114.77 -85.3913 126.694 -83.3093 136.158C-85.9592 135.401 -87.852 132.562 -87.852 132.562C-88.7984 136.915 -89.1769 144.297 -85.3914 151.868C-88.0413 151.49 -89.7448 149.408 -91.0697 148.083C-94.0982 156.033 -84.445 167.389 -80.8487 174.96C-87.0949 171.364 -93.7197 161.332 -95.2339 157.925Z" fill="white"/>
<path d="M-105.832 46.4418C-101.479 52.3095 -90.8794 55.1486 -90.8794 55.1486C-95.0435 55.7165 -104.886 56.6629 -119.461 48.5238C-117.946 52.8773 -110.943 61.2056 -109.618 62.7198C-118.893 61.5841 -132.899 47.0096 -132.899 47.0096C-132.899 47.0096 -130.439 54.9594 -126.085 62.7198C-132.142 59.1235 -141.606 47.7667 -149.745 38.6813C-159.209 27.8924 -169.809 17.2928 -173.595 6.88239C-166.591 14.2643 -142.931 39.4384 -137.631 40.7634C-142.553 33.3815 -154.856 18.4284 -157.506 8.20734C-143.878 24.6747 -132.521 36.41 -125.707 40.5741C-129.303 34.8957 -138.956 22.0247 -143.121 9.15373C-131.953 22.9711 -117.757 35.8421 -114.35 36.0314C-118.893 31.4887 -127.978 18.9963 -131.953 8.77519C-120.407 20.3212 -110.754 28.0817 -105.454 29.9745C-111.889 22.214 -116.243 17.482 -120.786 8.01807C-112.836 15.4 -104.508 21.4569 -97.8828 22.5926C-97.8828 22.5926 -107.915 12.9393 -111.511 5.55742C-101.858 13.1286 -93.5293 15.9678 -92.0151 15.7785C-94.4757 13.6964 -99.7755 9.15373 -102.993 3.47534C-91.0687 10.8572 -84.4439 10.8573 -80.0905 10.8573C-68.1659 10.8573 -58.8911 5.93599 -52.0771 4.98958C-58.5126 14.075 -67.2195 18.2392 -71.005 20.3212C-64.0017 21.6462 -54.9163 19.5641 -54.9163 19.5641C-60.0268 26.1889 -66.0838 29.9745 -77.6298 33.3815C-71.5729 35.6529 -60.5947 35.085 -60.5947 35.085C-66.4623 40.3849 -75.3585 42.4669 -90.5008 42.0884C-84.0653 46.8204 -72.7086 48.3346 -72.7086 48.3346C-78.5762 50.4167 -90.6901 50.2274 -105.832 46.4418Z" fill="white"/>
<path d="M-109.431 115.149C-107.728 121.395 -112.081 126.127 -120.22 130.481C-133.659 137.484 -143.123 141.08 -148.423 139.566C-140.662 137.484 -111.513 124.802 -114.163 117.042C-115.867 121.963 -130.82 128.588 -139.148 129.913C-138.202 127.641 -133.47 118.556 -131.198 115.717C-128.17 111.931 -124.006 110.228 -117.759 114.392C-118.138 111.742 -120.031 109.849 -121.923 108.524C-121.923 108.524 -119.463 105.496 -117.759 101.71C-115.677 105.496 -115.677 110.606 -115.677 110.606C-115.677 110.606 -111.324 108.714 -107.728 104.739C-106.781 110.228 -108.106 113.067 -109.431 115.149Z" fill="white"/>
<path d="M-161.102 116.663C-158.641 107.767 -149.556 76.536 -147.852 64.4221C-146.149 68.5862 -145.013 72.3718 -147.284 81.2679C-149.745 90.1641 -153.531 104.171 -155.991 113.256C-159.398 125.749 -157.884 131.048 -153.72 138.809C-159.966 135.78 -163.562 125.37 -161.102 116.663Z" fill="white"/>
<path d="M-265.964 152.058C-266.91 151.301 -268.614 148.083 -268.992 146.758C-266.531 145.244 -265.017 143.919 -265.017 143.919C-265.017 143.919 -268.424 142.215 -269.938 138.24C-267.478 138.051 -264.26 137.673 -261.799 136.537C-261.799 139.187 -262.178 141.837 -262.746 144.297C-263.314 147.326 -264.26 149.219 -265.964 152.058Z" fill="white"/>
<path d="M-261.23 131.995C-263.691 129.724 -265.016 127.263 -265.584 125.56C-263.88 125.181 -261.609 124.803 -259.527 123.856C-260.284 126.695 -260.852 129.345 -261.23 131.995Z" fill="white"/>
<path d="M-268.236 157.358C-268.425 158.304 -268.615 159.44 -268.993 161.332C-269.372 163.225 -271.075 163.982 -273.536 163.604C-275.996 163.225 -278.268 162.468 -280.161 160.575C-278.079 160.197 -272.779 158.872 -268.236 157.358Z" fill="white"/>
<path d="M-301.17 143.163C-298.709 141.46 -296.438 139.378 -294.356 137.106C-292.652 139.378 -290.57 142.028 -289.056 144.11C-293.599 145.056 -297.952 144.11 -301.17 143.163Z" fill="white"/>
<path d="M-340.539 -32.6769C-342.432 -35.1375 -343.379 -37.0303 -341.864 -38.3553C-340.539 -39.6802 -338.268 -38.7338 -336.375 -37.0303C-325.586 -27.1878 -309.119 -6.93488 -309.119 1.39342C-318.583 -9.58479 -336.754 -27.7556 -340.539 -32.6769Z" fill="white"/>
<path d="M-316.31 -46.1184C-314.039 -48.7683 -308.55 -47.8219 -304.197 -45.5506C-299.654 -43.2792 -282.051 -32.6796 -281.294 -32.301C-273.723 -27.1904 -268.044 -23.0263 -264.069 -17.1586C-260.094 -11.291 -257.823 -5.80186 -256.12 0.633652C-253.659 -6.18041 -257.444 -20.3764 -266.908 -30.5975C-258.391 -28.5154 -249.305 -12.8052 -248.17 -1.06987C-245.709 -8.07321 -247.223 -21.8906 -257.634 -32.6795C-249.873 -30.5975 -241.924 -19.0514 -240.599 -2.96268C-237.192 -9.20889 -239.463 -25.8655 -249.116 -35.708C-241.734 -33.2474 -234.542 -22.837 -233.406 -10.3446C-233.027 -6.55897 -234.163 -2.77339 -236.434 0.255081C-240.22 5.17635 -246.088 9.3405 -252.334 11.8011C-249.305 19.9402 -239.463 21.0758 -230.188 18.6152C-238.706 26.9435 -256.687 24.4829 -261.419 8.20482C-264.448 -2.39482 -265.394 -9.39816 -269.937 -15.0766C-274.29 -20.9442 -278.265 -23.4048 -284.701 -27.9475C-290.568 -32.1117 -298.897 -37.2223 -304.386 -40.2507C-309.118 -42.9006 -313.282 -39.4936 -307.793 -33.0581C-307.604 -37.033 -304.575 -37.2222 -301.357 -34.9509C-298.14 -32.8688 -290.19 -27.1904 -286.404 -24.7298C-286.404 -24.7298 -290.379 -23.5941 -293.408 -23.2156C-292.083 -22.0799 -285.836 -20.1871 -280.158 -19.9978C-284.701 -17.5372 -291.326 -16.0229 -291.326 -16.0229C-285.836 -13.1838 -275.047 -14.3194 -275.047 -14.3194C-279.022 -11.1017 -288.865 -9.01961 -288.865 -9.01961C-283.376 -6.18042 -271.83 -8.07322 -271.83 -8.07322C-274.669 -4.47691 -284.701 -2.39484 -284.701 -2.39484C-280.537 -0.123474 -273.533 -0.502029 -268.991 -2.20555C-270.883 6.31203 -285.647 8.39412 -296.058 -6.55897C-300.032 -12.4266 -311.957 -31.5439 -314.607 -36.2759C-317.257 -40.8186 -317.825 -44.2256 -316.31 -46.1184Z" fill="white"/>
<path d="M-241.356 -60.3136C-237.192 -51.0389 -244.952 -41.9535 -250.441 -43.2785C-247.602 -47.6319 -243.438 -54.6352 -241.356 -60.3136Z" fill="white"/>
<path d="M-228.674 -62.207C-224.321 -50.8502 -235.299 -37.2221 -242.87 -39.4935C-235.867 -46.8754 -231.324 -55.7715 -228.674 -62.207Z" fill="white"/>
<path d="M-207.096 -60.3128C-206.15 -65.6126 -204.257 -74.5088 -201.229 -80.9443C-201.229 -80.9443 -198.579 -72.8053 -201.04 -58.2307C-202.365 -49.9024 -206.907 -41.5742 -212.586 -38.1671C-209.179 -45.7383 -208.421 -52.3631 -207.096 -60.3128Z" fill="white"/>
<path d="M-186.656 -92.301C-186.656 -92.301 -187.981 -75.8337 -189.306 -64.6662C-191.009 -50.8488 -197.255 -33.0565 -205.584 -30.5959C-197.445 -45.1704 -196.309 -61.4484 -194.984 -69.7767C-193.848 -78.105 -190.441 -86.8119 -186.656 -92.301Z" fill="white"/>
<path d="M-169.242 -103.279C-169.242 -103.279 -174.353 -88.7045 -176.245 -80.3762C-178.138 -72.4264 -180.788 -64.4767 -184.006 -58.2305C-185.141 -62.5839 -184.952 -75.2656 -182.681 -81.7011C-180.41 -87.9473 -175.678 -96.8435 -169.242 -103.279Z" fill="white"/>
<path d="M-149.368 -112.932C-149.368 -112.932 -157.507 -97.4107 -161.103 -91.1645C-164.321 -85.2968 -165.835 -83.7826 -170.189 -76.4007C-171.324 -80.5648 -169.999 -90.4074 -166.782 -95.1394C-163.375 -99.8713 -154.668 -108.578 -149.368 -112.932Z" fill="white"/>
<path d="M-34.6658 -127.128C-37.6943 -125.803 -43.3727 -121.071 -53.7831 -123.153C-46.4012 -128.832 -40.3442 -128.075 -34.6658 -127.128Z" fill="white"/>
<path d="M-15.7362 -122.963C-20.0897 -122.585 -27.8502 -117.474 -38.0712 -121.449C-32.9607 -125.235 -23.3074 -125.235 -15.7362 -122.963Z" fill="white"/>
<path d="M5.84308 -115.582C1.86823 -115.772 -7.78503 -112.554 -20.4668 -118.232C-13.842 -121.45 -1.16025 -118.8 5.84308 -115.582Z" fill="white"/>
<path d="M20.7955 -109.148C27.231 -106.498 37.6413 -102.523 41.0484 -101.387C34.8021 -101.198 25.3381 -102.712 18.5241 -104.794C11.71 -106.876 8.30298 -108.201 1.48892 -111.987C7.54587 -112.744 14.36 -111.987 20.7955 -109.148Z" fill="white"/>
<path d="M312.854 86.1892C306.04 81.268 299.605 76.9145 292.791 71.4254C298.658 72.7504 308.312 76.536 315.315 80.8894C322.318 85.0535 332.35 96.4103 335.757 100.007C329.322 96.9782 321.94 92.814 312.854 86.1892Z" fill="white"/>
<path d="M325.724 78.0493C317.963 76.9137 307.742 71.9924 302.064 68.9639C295.061 65.1783 286.354 59.4999 280.865 52.3073C289.004 55.5251 297.143 57.6071 305.282 62.7177C313.988 68.0175 322.506 75.2102 325.724 78.0493Z" fill="white"/>
<path d="M226.921 -8.82829C220.485 -10.3425 214.996 -11.6675 204.964 -12.4246C212.725 -16.5888 222.567 -14.1281 226.921 -8.82829Z" fill="white"/>
<path d="M238.089 4.04245C230.518 1.96037 226.164 1.20325 216.133 -0.500259C222.947 -4.47514 233.736 -1.44666 238.089 4.04245Z" fill="white"/>
<path d="M250.392 16.1554C243.389 13.6947 237.899 13.1269 228.436 11.6127C234.114 7.44852 245.471 10.0984 250.392 16.1554Z" fill="white"/>
<path d="M263.072 28.8377C255.69 26.9449 250.58 25.6199 241.116 24.295C246.416 20.1308 257.205 22.5915 263.072 28.8377Z" fill="white"/>
<path d="M252.85 36.7883C258.717 34.1384 269.696 38.1133 273.67 44.738C267.046 41.8988 261.178 39.2489 252.85 36.7883Z" fill="white"/>
<path d="M262.883 53.4452C270.644 50.9846 278.783 54.7702 281.622 60.4486C276.701 57.7987 271.211 55.9059 262.883 53.4452Z" fill="white"/>
<path d="M290.516 50.2265C284.46 46.8195 276.32 39.6268 271.778 35.4627C278.592 36.5984 284.838 37.9233 292.22 41.8982C299.413 45.873 307.362 51.93 313.419 57.7977C306.794 56.2834 296.573 53.6335 290.516 50.2265Z" fill="white"/>
<path d="M300.927 36.597C300.927 36.597 288.245 35.4613 278.592 31.4864C272.346 29.0258 262.125 21.4546 260.421 19.1832C265.153 19.7511 276.321 21.8332 281.053 24.2938C287.299 27.7008 300.738 36.4077 300.927 36.597Z" fill="white"/>
<path d="M260.612 12.5586C252.284 8.77303 245.47 3.09465 242.82 1.20184C249.066 1.76968 260.423 4.79816 267.805 8.77303C275.187 12.7479 284.651 19.3727 290.329 24.8618C282.001 19.7512 269.509 16.5335 260.612 12.5586Z" fill="white"/>
<path d="M248.496 -2.39333C239.789 -4.66469 232.029 -10.5324 227.297 -13.7501C233.543 -13.7501 243.196 -11.668 251.903 -8.26099C260.61 -4.85397 277.835 4.23146 284.27 10.667C270.831 4.79929 259.474 0.256592 248.496 -2.39333Z" fill="white"/>
<path d="M229.003 -18.2916C221.432 -19.0487 207.803 -21.1308 207.803 -21.1308C207.803 -21.1308 214.05 -25.1057 227.11 -23.7807C237.52 -22.645 255.691 -16.3988 259.666 -14.1274C247.741 -15.4524 236.574 -17.5345 229.003 -18.2916Z" fill="white"/>
<path d="M211.966 -29.0815C201.556 -27.1887 199.095 -26.6208 193.038 -25.4852C195.688 -29.0815 204.017 -32.8671 211.209 -33.8135C218.402 -34.7599 228.055 -34.7599 232.787 -33.4349C225.594 -31.7314 222.377 -30.9743 211.966 -29.0815Z" fill="white"/>
<path d="M193.797 -34.5701C188.497 -33.0559 182.818 -31.9202 177.519 -31.7309C181.683 -34.9487 187.361 -38.1664 192.283 -39.4914C197.204 -40.6271 201.179 -41.1949 210.075 -40.6271C210.075 -40.4378 200.8 -36.4629 193.797 -34.5701Z" fill="white"/>
<path d="M175.627 -41.9528C179.98 -44.0349 188.876 -46.1169 191.148 -46.3062C186.794 -42.5206 181.495 -38.735 175.816 -36.0851C170.138 -33.4352 167.299 -33.0566 163.134 -32.1102C164.838 -34.7601 171.273 -39.8707 175.627 -41.9528Z" fill="white"/>
<path d="M139.284 -35.3277C129.82 -35.3277 116.759 -37.7884 110.513 -44.981C116.002 -42.5204 128.495 -39.8704 138.526 -39.8704C152.533 -39.8704 165.783 -44.0346 174.49 -47.8202C170.893 -41.574 157.833 -35.3277 139.284 -35.3277Z" fill="white"/>
<path d="M146.287 11.2358C142.123 8.96445 137.012 3.47534 137.012 3.47534C137.012 3.47534 144.773 5.36815 148.369 7.45021C151.965 9.53229 154.994 14.075 154.994 14.075C154.994 14.075 149.315 12.9393 146.287 11.2358Z" fill="white"/>
<path d="M170.325 50.9823C174.868 56.6607 176.761 60.8248 177.897 65.5568C174.111 62.1498 170.515 58.7428 166.54 54.7679C162.565 50.793 158.022 45.3039 152.155 38.1113C161.051 41.7076 165.972 45.1146 170.325 50.9823Z" fill="white"/>
<path d="M167.108 68.3965C165.026 65.9359 155.751 55.7148 151.208 49.2793C156.129 51.5507 165.783 57.9862 171.083 63.8539C176.382 69.7215 179.222 78.6176 180.547 84.1068C177.14 80.889 171.461 73.5071 167.108 68.3965Z" fill="white"/>
<path d="M171.27 121.017C167.485 118.557 160.86 111.175 157.642 106.064C154.803 101.711 150.639 91.3003 149.692 84.6755C153.478 88.4611 157.074 94.1395 161.238 100.386C163.321 103.603 170.135 117.232 171.27 121.017Z" fill="white"/>
<path d="M167.864 139.376C164.457 138.43 160.104 135.969 156.318 133.319C152.533 130.669 148.368 126.695 146.665 123.288C150.64 124.423 154.804 126.316 158.779 129.534C162.754 132.751 166.35 137.105 167.864 139.376Z" fill="white"/>
<path d="M141.743 86.9466C138.714 80.5111 133.793 74.2649 129.818 70.1008C135.496 70.6686 143.068 78.4291 141.743 86.9466Z" fill="white"/>
<path d="M130.199 54.3907C137.013 54.9586 144.395 62.3405 144.016 70.4795C140.042 64.2333 136.634 60.8263 130.199 54.3907Z" fill="white"/>
<path d="M144.773 54.3907C140.609 50.9837 136.634 47.5766 130.199 42.8446C136.067 42.6553 143.638 47.9552 144.773 54.3907Z" fill="white"/>
<path d="M142.501 40.9512C139.661 37.7335 137.579 36.03 132.469 31.298C138.147 31.4873 142.69 36.03 142.501 40.9512Z" fill="white"/>
<path d="M130.199 85.4314C133.795 87.5135 138.716 93.949 139.095 98.3024C134.742 95.8418 131.145 90.3527 130.199 85.4314Z" fill="white"/>
<path d="M134.173 105.305C137.769 107.388 139.851 110.795 140.041 114.391C136.066 112.877 134.551 109.848 134.173 105.305Z" fill="white"/>
<path d="M17.0082 104.55C18.3331 98.4932 19.6581 93.572 20.2259 86.5686C20.7938 80.1331 20.2259 75.4011 19.2795 71.8048C23.4437 73.6976 25.715 81.6474 25.1472 87.1365C24.5793 92.8149 22.1187 99.0611 17.0082 104.55Z" fill="white"/>
<path d="M-61.9199 -43.2779C-54.538 -47.0635 -41.0992 -48.1992 -33.3387 -46.685C-25.5782 -45.36 -18.5749 -41.7637 -14.0322 -36.4639C-14.0322 -36.4639 -20.8463 -37.7888 -33.9066 -41.5744C-41.2885 -43.6565 -48.2918 -44.2243 -61.9199 -43.2779Z" fill="white"/>
<path d="M-35.0444 -19.0498C-38.6407 -26.0531 -44.1299 -29.4601 -58.5151 -30.4065C-54.5402 -32.2993 -48.6725 -33.0564 -42.6156 -31.1636C-37.6943 -29.8387 -34.098 -25.6746 -35.0444 -19.0498Z" fill="white"/>
<path d="M-27.0924 15.5871C-28.9852 7.82661 -31.6351 2.71606 -37.3135 -3.53015C-31.2566 -4.09799 -22.739 6.31238 -27.0924 15.5871Z" fill="white"/>
<path d="M-39.9642 10.2886C-33.1502 11.0458 -28.2289 21.8347 -32.393 29.9737C-33.9073 20.699 -36.7465 15.0206 -39.9642 10.2886Z" fill="white"/>
<path d="M-39.7756 44.9269C-39.7756 36.7879 -42.2363 27.8917 -44.5076 24.4847C-37.8829 25.4311 -34.6651 37.9235 -39.7756 44.9269Z" fill="white"/>
<path d="M-57.3762 126.506C-60.5939 119.502 -64.0009 108.145 -61.5403 98.4921C-57.5655 104.171 -54.3477 117.988 -57.3762 126.506Z" fill="white"/>
<path d="M-125.329 -51.4155C-130.818 -55.3904 -130.25 -62.7723 -126.843 -65.6115C-126.465 -60.8795 -125.897 -55.5797 -125.329 -51.4155Z" fill="white"/>
<path d="M-171.513 -21.1317C-167.728 -24.1602 -163.753 -27.1887 -160.156 -31.3528C-159.399 -26.2423 -165.078 -19.8067 -171.513 -21.1317Z" fill="white"/>
<path d="M-172.648 -39.4911C-169.241 -43.6553 -167.348 -46.873 -165.077 -52.3621C-162.616 -46.3052 -167.538 -39.3018 -172.648 -39.4911Z" fill="white"/>
<path d="M-140.471 63.2865C-147.663 56.0939 -159.966 40.573 -163.941 35.6517C-170.566 27.5127 -184.762 14.8309 -193.469 8.96327C-183.248 10.2882 -165.834 25.052 -159.399 32.8125C-151.07 43.0336 -142.174 55.1475 -140.471 63.2865Z" fill="white"/>
<path d="M-128.546 100.197C-134.225 107.957 -139.335 117.611 -142.931 125.182C-144.635 118.557 -139.903 110.797 -139.903 110.797L-144.256 110.607C-140.282 105.307 -134.792 101.9 -128.546 100.197Z" fill="white"/>
<path d="M-311.58 97.9245C-307.416 91.2997 -296.438 93.3818 -289.245 94.1389C-293.22 98.6816 -304.766 95.2745 -311.58 97.9245Z" fill="white"/>
<path d="M-320.286 107.767C-315.554 100.385 -305.522 100.196 -295.68 100.953C-298.519 105.306 -307.605 102.846 -320.286 107.767Z" fill="white"/>
<path d="M-216.371 -35.3267C-217.128 -27.7556 -225.646 -23.7807 -231.513 -27.377C-225.835 -29.2698 -220.157 -32.2983 -216.371 -35.3267Z" fill="white"/>
<path d="M-202.175 34.3259C-195.929 29.2153 -182.869 30.5403 -177.001 39.2471C-185.708 36.2187 -194.415 34.7044 -202.175 34.3259Z" fill="white"/>
<path d="M-213.532 24.1066C-206.529 18.9961 -195.929 22.4031 -190.818 27.7029C-198.579 25.9994 -206.718 24.8637 -213.532 24.1066Z" fill="white"/>
<path d="M-223.942 1.01421C-216.939 -2.77138 -208.8 -1.06787 -204.636 4.42123C-210.125 2.907 -214.668 1.77133 -223.942 1.01421Z" fill="white"/>
<path d="M-225.835 -19.0488C-218.264 -20.563 -214.1 -21.3201 -208.043 -23.9701C-210.125 -16.7774 -220.914 -15.4525 -225.835 -19.0488Z" fill="white"/>
<path d="M-280.915 71.0472C-271.83 70.4794 -268.801 66.126 -267.287 63.2868C-266.719 70.1008 -272.776 75.0221 -280.348 75.0221C-286.972 75.0221 -292.651 74.0757 -295.868 74.4543C-292.651 70.6687 -286.972 71.4258 -280.915 71.0472Z" fill="white"/>
<path d="M-297.952 20.3196C-302.873 15.5876 -307.226 10.2878 -305.902 2.90588C-302.684 9.53067 -299.655 12.1806 -294.545 16.9126C-288.866 22.2124 -286.216 27.5122 -287.352 31.8657C-290.381 26.3766 -293.22 25.0516 -297.952 20.3196Z" fill="white"/>
<path d="M-291.708 13.1275C-297.765 8.39552 -302.875 3.66354 -301.55 -4.66475C-297.954 2.90643 -293.979 5.93489 -290.951 8.39552C-284.704 13.1275 -280.351 18.2381 -281.487 25.2414C-284.137 19.9416 -286.408 17.4809 -291.708 13.1275Z" fill="white"/>
<path d="M-304.386 89.4072C-300.222 83.1609 -282.998 87.3251 -281.862 87.5144C-285.837 91.3 -296.626 88.0822 -304.386 89.4072Z" fill="white"/>
<path d="M-282.053 83.349C-287.164 83.349 -293.41 81.0777 -300.035 82.0241C-296.628 76.7242 -288.3 78.9956 -281.864 78.9956C-275.618 78.9956 -272.779 77.4813 -268.615 75.0207C-269.94 79.1848 -275.618 83.349 -282.053 83.349Z" fill="white"/>
<path d="M-186.087 44.7366C-178.705 41.1403 -169.43 45.683 -165.077 54.9577C-169.809 51.74 -177.19 47.3865 -186.087 44.7366Z" fill="white"/>
<path d="M-154.669 62.5286C-160.347 52.1183 -172.083 39.2473 -178.897 32.2439C-188.739 22.0228 -202.935 15.7766 -212.778 13.8838C-199.718 12.1803 -187.036 18.4265 -175.679 28.6476C-166.972 36.7866 -153.723 53.0647 -154.669 62.5286Z" fill="white"/>
<path d="M-197.066 -15.4525C-192.902 -16.9667 -182.113 -24.1594 -178.327 -28.7021C-178.327 -20.563 -189.873 -13.5597 -197.066 -15.4525Z" fill="white"/>
<path d="M-194.038 -7.50414C-186.656 -7.50414 -181.167 -8.45055 -175.868 -9.96479C-178.328 -4.47568 -188.928 -3.34 -194.038 -7.50414Z" fill="white"/>
<path d="M-204.069 -9.58692C-210.315 -6.93701 -217.887 -6.937 -223.565 -9.39763C-217.887 -11.4797 -209.937 -11.669 -204.069 -9.58692Z" fill="white"/>
<path d="M-184.194 -48.7669C-180.787 -37.4101 -191.765 -22.6463 -201.229 -22.6463C-195.551 -28.1354 -188.547 -36.8423 -184.194 -48.7669Z" fill="white"/>
<path d="M-173.596 -68.2622C-169.621 -64.4766 -171.135 -54.8234 -176.057 -52.552C-174.732 -58.0411 -173.975 -63.1517 -173.596 -68.2622Z" fill="white"/>
<path d="M-156.183 -81.7002C-159.022 -75.8325 -161.861 -69.397 -163.754 -64.4758C-165.836 -71.4791 -160.915 -79.8074 -156.183 -81.7002Z" fill="white"/>
<path d="M-80.6599 -128.452C-75.3601 -130.156 -70.0602 -131.859 -63.6247 -132.806C-68.546 -129.777 -74.6029 -125.234 -79.3349 -123.531C-84.0669 -121.827 -92.7738 -121.449 -92.7738 -121.449C-92.7738 -121.449 -86.7168 -126.37 -80.6599 -128.452Z" fill="white"/>
<path d="M-41.666 -51.0381C-51.13 -51.0381 -63.2439 -48.7667 -71.5722 -46.6847C-68.733 -49.9024 -54.537 -55.013 -41.8553 -55.3915C-31.6342 -55.7701 -23.6845 -53.4987 -19.3311 -49.5238C-27.8487 -49.3346 -33.1485 -51.0381 -41.666 -51.0381Z" fill="white"/>
<path d="M-66.8424 -6.17818C-73.8457 -2.20331 -84.6346 -0.310516 -88.9881 -5.61034C-78.767 -5.9889 -75.5493 -7.50314 -69.8708 -10.5316C-64.9496 -12.9922 -54.9178 -18.6706 -48.1037 -15.0743C-52.2679 -13.9386 -59.0819 -10.5316 -66.8424 -6.17818Z" fill="white"/>
<path d="M-94.6651 -76.4017C-89.5546 -80.7552 -82.5513 -82.8372 -78.955 -82.648C-83.8762 -78.2945 -86.9047 -77.1589 -91.826 -73.7518C-96.3687 -70.5341 -98.8293 -68.2627 -104.508 -62.7736C-103.183 -66.7485 -99.7757 -72.0483 -94.6651 -76.4017Z" fill="white"/>
<path d="M-104.318 -73.7516C-106.211 -71.1017 -108.861 -67.1269 -111.132 -62.0163C-111.132 -65.8019 -109.429 -72.616 -107.347 -75.8337C-104.886 -79.9979 -101.668 -81.8907 -97.5042 -83.2156C-99.2077 -79.8086 -101.29 -78.1051 -104.318 -73.7516Z" fill="white"/>
<path d="M-81.604 -73.374C-73.8436 -77.5382 -66.2724 -79.0524 -62.2975 -79.2417C-66.8402 -74.8882 -75.7364 -71.4812 -80.2791 -69.5884C-85.0111 -67.5063 -89.7431 -65.235 -97.125 -59.9352C-94.6643 -64.6672 -89.3645 -69.2099 -81.604 -73.374Z" fill="white"/>
<path d="M-70.0587 -67.5052C-62.4875 -70.3444 -46.0202 -73.5621 -40.7203 -72.0479C-48.8593 -67.6945 -61.5411 -65.8017 -69.4908 -63.1517C-77.4406 -60.6911 -80.2798 -59.3662 -91.258 -54.8234C-86.9045 -59.1769 -77.6298 -64.666 -70.0587 -67.5052Z" fill="white"/>
<path d="M-54.3478 -62.963C-39.3947 -65.8022 -30.12 -63.7201 -25.5773 -61.0702C-35.6091 -59.3667 -44.8838 -59.9346 -53.9692 -58.231C-63.2439 -56.5275 -70.058 -54.4454 -81.9826 -49.9027C-77.8184 -54.824 -62.6761 -61.2595 -54.3478 -62.963Z" fill="white"/>
<path d="M-115.488 -77.159C-115.678 -73.9412 -116.246 -71.4806 -117.003 -67.3164C-117.381 -65.0451 -118.138 -61.4488 -118.706 -57.6632C-120.41 -60.6916 -120.978 -65.9915 -120.599 -68.6414C-120.031 -72.427 -118.328 -74.8876 -115.488 -77.159Z" fill="white"/>
<path d="M-47.1581 -23.4035C-50.9438 -22.4571 -57.0007 -21.3214 -66.4646 -17.5359C-72.143 -15.4538 -74.6037 -14.1288 -81.2285 -11.4789C-78.0107 -15.8323 -74.4144 -20.1858 -66.6539 -22.8357C-59.272 -25.4856 -49.2402 -24.3499 -47.1581 -23.4035Z" fill="white"/>
<path d="M-69.6802 -0.500443C-60.7841 -4.47531 -55.6735 -8.45018 -49.8058 -5.98955C-55.8628 -3.7182 -61.3519 1.39235 -67.4089 4.23154C-74.98 7.82785 -88.9867 7.82785 -95.0437 0.635239C-82.362 4.04227 -72.898 1.01379 -69.6802 -0.500443Z" fill="white"/>
<path d="M-73.4684 140.322C-70.4399 144.486 -67.2222 154.14 -69.6828 160.197C-73.4684 155.465 -75.7397 148.083 -73.4684 140.322Z" fill="white"/>
<path d="M-63.2468 143.161C-66.6538 138.997 -70.0608 129.912 -68.7359 119.501C-63.8146 124.233 -61.354 134.833 -63.2468 143.161Z" fill="white"/>
<path d="M-47.1582 43.2241C-42.9941 46.0633 -43.5619 57.2308 -49.051 59.5021C-47.7261 53.4452 -46.9689 49.2811 -47.1582 43.2241Z" fill="white"/>
<path d="M-23.8754 0.635376C-25.2004 -3.90732 -27.661 -10.3428 -30.5002 -15.2641C-25.7682 -14.6963 -20.847 -6.74651 -23.8754 0.635376Z" fill="white"/>
<path d="M4.32803 17.86C6.78867 31.8667 11.8992 45.1162 17.9562 49.0911C14.9277 40.0057 13.792 28.8382 15.4955 18.9957C19.6597 33.3809 22.8774 46.0627 31.9628 53.066C31.9628 53.066 24.7702 34.8952 28.7451 22.2134C32.1521 37.5451 35.3699 44.7377 39.9126 50.9839C44.6446 57.4194 53.5407 64.612 56.1906 72.1832C51.4586 68.5869 44.8339 64.2335 39.7233 62.53C39.7233 62.53 41.9946 67.8298 41.8054 71.2368C36.127 65.937 27.2308 62.7192 27.2308 62.7192C27.2308 62.7192 29.3129 66.6941 28.7451 70.8582C21.931 63.0978 12.467 64.612 6.22083 48.334C3.19235 39.8164 1.8674 28.0811 4.32803 17.86Z" fill="white"/>
<path d="M40.4818 25.4314C45.5924 41.3308 51.2708 45.6843 54.4885 48.902C61.8704 55.7161 64.8989 62.5302 67.1703 68.7764C61.3026 66.3158 54.8671 61.2052 49.1887 55.1482C42.1854 47.7663 38.0212 34.7061 40.4818 25.4314Z" fill="white"/>
<path d="M63.3829 46.6312C60.3544 45.1169 56.7581 42.0885 55.4331 39.2493C53.3511 34.7066 53.3511 29.2175 53.7296 27.1354C55.6224 29.9746 57.326 32.4352 59.408 36.5994C60.5437 39.06 62.2472 43.2242 63.3829 46.6312Z" fill="white"/>
<path d="M40.8582 -96.8427C46.9152 -95.7071 54.4864 -92.1107 59.5969 -90.7858C55.4328 -90.0287 46.3473 -90.5965 40.4797 -92.1107C34.612 -93.625 30.2586 -94.7607 24.3909 -98.1677C27.4194 -98.5462 34.8013 -97.9784 40.8582 -96.8427Z" fill="white"/>
<path d="M89.123 -52.7427C80.9839 -55.9605 73.9806 -61.2603 73.9806 -61.2603C73.9806 -61.2603 84.5802 -61.071 89.3122 -59.3675C94.2334 -57.664 101.426 -52.932 110.322 -50.4714C103.697 -48.2 93.6657 -51.0392 89.123 -52.7427Z" fill="white"/>
<path d="M73.0367 -67.3151C66.7904 -69.2079 61.8692 -71.4792 56.3801 -75.0755C61.1121 -74.8862 68.1154 -74.697 73.226 -73.372C78.3365 -72.047 83.0685 -68.4507 92.1539 -65.4223C88.3683 -64.2866 79.2829 -65.4223 73.0367 -67.3151Z" fill="white"/>
<path d="M59.4063 -79.8082C52.9708 -80.5654 46.9138 -83.2153 40.8569 -85.8652C44.8317 -86.0545 49.9423 -86.0545 56.3778 -85.2974C62.8133 -84.5402 69.8167 -81.701 74.9272 -79.9975C71.1416 -79.0511 64.7061 -79.2404 59.4063 -79.8082Z" fill="white"/>
<path d="M-70.4373 -123.533C-65.516 -126.751 -61.9197 -129.59 -51.8878 -129.212C-57.9448 -123.912 -61.5411 -122.397 -70.4373 -123.533Z" fill="white"/>
<path d="M-84.2549 -132.617C-93.151 -126.749 -97.3152 -122.585 -101.479 -120.125C-105.643 -117.853 -113.025 -115.582 -113.025 -115.582C-113.025 -115.582 -109.051 -122.396 -104.129 -125.614C-100.344 -128.264 -88.0405 -131.86 -84.2549 -132.617Z" fill="white"/>
<path d="M-125.14 -119.178C-121.354 -122.585 -117.19 -124.668 -108.294 -128.832C-112.458 -124.1 -116.244 -118.8 -120.029 -115.014C-124.572 -110.472 -131.764 -104.983 -131.764 -104.983C-131.764 -104.983 -129.872 -114.825 -125.14 -119.178Z" fill="white"/>
<path d="M-129.873 -121.072C-129.873 -120.882 -136.119 -108.201 -140.283 -102.522C-144.447 -96.844 -149.558 -93.8155 -153.343 -90.0299C-152.586 -95.7083 -150.504 -102.333 -146.718 -107.065C-142.933 -111.608 -136.876 -116.529 -129.873 -121.072Z" fill="white"/>
<path d="M-218.832 -42.8993C-223.753 -37.5995 -231.703 -34.1925 -237.192 -34.3817C-234.353 -36.4638 -227.917 -40.8172 -223.564 -46.6849C-219.21 -52.5526 -216.75 -59.9345 -215.614 -67.6949C-211.829 -60.313 -212.775 -49.3348 -218.832 -42.8993Z" fill="white"/>
<path d="M-259.34 -45.3592C-256.122 -49.3341 -252.904 -55.5803 -251.579 -60.6909C-247.983 -55.5803 -251.39 -45.1699 -259.34 -45.3592Z" fill="white"/>
<path d="M-269.369 -46.4944C-266.53 -50.28 -264.259 -54.4441 -263.502 -58.9868C-259.905 -55.5798 -262.745 -45.7373 -269.369 -46.4944Z" fill="white"/>
<path d="M-309.307 38.4909C-309.307 38.4909 -313.661 16.5345 -312.714 8.96327C-306.279 21.0772 -292.651 26.9448 -293.786 36.9766C-293.786 36.9766 -298.14 34.7053 -303.25 29.0269C-303.25 29.0269 -302.115 37.923 -297.761 44.1693C-290.758 42.655 -284.512 43.2229 -279.022 47.387C-282.051 49.2798 -298.708 44.3585 -303.061 55.1475C-312.146 50.0369 -318.582 39.4373 -318.582 29.0269L-309.307 38.4909Z" fill="white"/>
<path d="M-304.008 60.827C-314.04 61.3948 -319.151 54.77 -321.233 45.1168C-316.501 50.7952 -310.065 56.6628 -304.008 60.827Z" fill="white"/>
<path d="M-138.012 96.0316C-131.009 89.7854 -123.627 89.4068 -120.22 87.1355C-122.87 93.0031 -131.009 97.1673 -138.012 96.0316Z" fill="white"/>
<path d="M-128.548 82.7826C-125.709 78.4292 -117.381 75.9685 -113.027 72.7508C-114.542 79.7541 -123.059 83.1612 -128.548 82.7826Z" fill="white"/>
<path d="M-51.6977 110.796C-53.969 103.414 -56.0511 87.5145 -52.0762 77.1041C-49.4263 87.1359 -47.7228 101.9 -51.6977 110.796Z" fill="white"/>
<path d="M-38.2599 83.5397C-37.692 72.9401 -39.2062 57.6085 -32.96 44.9267C-31.8243 54.58 -31.4458 73.8865 -38.2599 83.5397Z" fill="white"/>
<path d="M-2.29892 33.9487C-0.784668 43.9805 2.81165 54.7695 9.815 62.3406C3.00092 60.8264 -1.16321 55.5266 -2.86673 50.6053C-4.00241 46.6304 -5.51666 40.3842 -2.29892 33.9487Z" fill="white"/>
<path d="M24.3906 133.509C25.1477 124.992 28.744 117.61 33.0974 112.121C32.5296 121.774 30.4475 129.345 29.6904 135.592C28.3654 145.434 28.9333 151.87 27.9868 158.494C25.1477 149.977 23.8227 139.756 24.3906 133.509Z" fill="white"/>
<path d="M51.2688 163.037C45.7797 159.062 44.4547 152.059 46.1582 147.138C48.2403 151.68 52.2152 156.791 56.0008 159.63C60.5435 163.037 63.7612 164.362 70.9539 167.012C65.8433 167.958 56.19 166.444 51.2688 163.037Z" fill="white"/>
<path d="M69.061 161.713C63.3826 160.388 59.7863 157.17 58.4613 152.06C67.736 158.117 76.2536 159.063 85.1498 159.063C82.8784 160.767 76.0643 163.417 69.061 161.713Z" fill="white"/>
<path d="M189.254 160.387C186.036 160.955 180.169 160.955 175.058 160.009C169.948 159.062 165.783 157.548 162.376 154.709C162.376 154.709 169.948 153.952 174.869 154.898C179.79 156.034 184.143 158.305 189.254 160.387Z" fill="white"/>
<path d="M149.692 136.537C153.478 137.673 157.642 139.187 162.563 141.647C165.213 143.162 174.488 149.029 176.381 151.49C172.027 150.544 166.538 149.219 163.131 147.515C158.399 145.244 154.424 141.458 149.692 136.537Z" fill="white"/>
<path d="M156.319 121.395C150.262 114.959 146.476 104.17 146.476 99.6275C150.83 103.981 154.426 108.902 159.915 115.338C165.404 121.773 177.14 135.78 178.843 138.43C171.461 135.591 162.186 127.83 156.319 121.395Z" fill="white"/>
<path d="M163.889 97.5466C159.347 89.5968 153.1 79.3757 151.397 73.3188C156.697 77.483 166.161 88.8397 168.432 92.8146C173.164 100.575 177.896 114.014 179.221 121.585C175.435 118.367 168.432 105.875 163.889 97.5466Z" fill="white"/>
<path d="M165.215 81.0801C159.915 74.6446 156.319 69.1555 151.208 62.1522C155.372 64.2343 166.54 72.9411 170.515 78.4302C174.49 83.73 179.222 94.3297 180.736 101.333C176.382 96.4118 170.515 87.5156 165.215 81.0801Z" fill="white"/>
<path d="M162.944 39.6271C160.673 38.3021 153.48 32.813 149.127 26.9454C153.48 28.4596 160.105 31.1095 165.405 35.4629C170.705 39.8164 173.166 43.2234 174.301 45.8733C170.137 44.5484 166.162 41.5199 162.944 39.6271Z" fill="white"/>
<path d="M154.235 24.6746C149.692 21.8354 145.15 18.0498 141.175 14.832C145.717 15.7784 151.585 17.6712 156.885 21.0783C161.995 24.4853 165.592 27.703 167.295 30.353C162.942 29.028 158.778 27.5138 154.235 24.6746Z" fill="white"/>
<path d="M290.14 128.777C290.14 128.777 309.257 140.891 316.828 142.216C316.828 142.216 301.497 132.184 296.386 119.692C296.386 119.692 312.854 132.563 323.075 135.591C323.075 135.591 307.743 122.531 303.39 112.121C303.39 112.121 323.832 128.967 331.024 130.291C331.024 130.291 316.071 118.178 311.907 105.496C311.907 105.496 328.753 120.638 337.649 122.72C337.649 122.72 320.614 108.903 317.775 99.0604C317.775 99.0604 307.364 92.2463 303.011 88.0822C311.529 90.1642 317.207 93.9498 322.318 97.9247C322.318 97.9247 333.296 110.606 348.438 116.663L344.652 119.313C344.652 119.313 352.413 126.506 361.688 129.913L356.198 133.698C356.198 133.698 366.987 138.809 378.534 138.998C368.88 151.491 342.949 149.409 342.949 149.409L345.031 153.762C335.756 153.384 324.778 146.191 324.778 146.191L327.428 153.951C312.286 151.491 293.358 138.241 290.14 128.777Z" fill="white"/>
<path d="M-191.956 63.2856C-191.956 63.2856 -184.384 61.2035 -176.813 61.2035C-178.895 57.0394 -183.059 50.7931 -190.441 49.4682C-189.873 51.1717 -188.738 55.1466 -190.063 57.9857C-197.066 45.6826 -204.637 46.0612 -204.637 46.0612C-201.609 50.4146 -201.041 55.1466 -201.419 58.5536C-203.691 54.3894 -212.966 44.7362 -223.187 47.3861C-215.994 50.6039 -213.723 54.5787 -213.155 59.6893C-218.455 55.1466 -233.597 49.6575 -240.222 57.2286C-231.704 56.2822 -226.783 59.6893 -224.89 62.907C-232.461 63.0963 -233.786 66.1248 -238.14 68.3961C-249.118 74.0745 -259.339 70.2889 -263.314 76.7244C-260.664 76.3459 -245.143 77.8601 -238.518 75.2102C-242.115 79.9422 -250.064 79.5636 -254.986 79.7529C-259.718 79.9422 -266.532 80.3207 -271.074 84.1063C-264.26 84.2956 -256.5 85.4313 -250.632 85.4313C-255.932 90.9204 -275.238 85.242 -280.538 90.9204C-276.185 91.2989 -271.642 92.8132 -267.667 93.381C-272.589 96.9773 -283.377 92.6239 -288.109 97.7344C-286.027 97.9237 -282.62 99.6272 -279.781 100.574C-283.945 102.656 -290.759 100.384 -294.545 104.738C-292.841 104.927 -289.624 105.873 -287.731 107.956C-291.517 108.334 -297.384 109.091 -299.466 112.688C-292.463 114.77 -293.788 124.991 -301.548 129.533C-296.816 121.773 -298.141 116.662 -304.009 116.095C-311.391 115.337 -323.694 118.934 -332.59 124.801C-325.019 112.12 -303.82 113.255 -301.17 108.145C-311.769 108.145 -322.937 111.552 -327.29 115.716C-325.776 108.902 -321.801 103.413 -319.151 99.438C-316.312 95.4631 -309.12 86.3777 -306.47 78.9958C-311.202 75.9673 -311.959 72.371 -311.959 72.371C-304.577 70.8568 -303.063 66.8819 -303.063 66.8819C-310.823 65.9355 -315.744 64.232 -322.369 59.6893C-320.476 65.7462 -309.877 72.9388 -320.855 89.7847C-328.237 101.141 -331.644 108.334 -335.429 118.555C-338.458 126.505 -343.947 130.858 -347.165 133.698C-348.3 134.833 -348.3 136.726 -346.975 137.672C-344.704 139.565 -341.108 141.647 -337.511 143.351C-336.565 140.701 -334.862 136.915 -339.026 131.615C-335.429 131.805 -332.022 135.212 -332.59 140.322C-333.158 144.297 -331.644 146.001 -328.994 146.379C-322.748 147.515 -304.388 142.972 -295.491 128.966C-289.056 118.934 -278.835 111.552 -266.153 108.334C-259.15 106.631 -255.364 107.577 -253.471 109.848C-251.389 112.498 -252.714 116.284 -254.039 118.934C-257.068 125.748 -257.825 131.994 -258.203 138.43C-258.771 149.218 -263.692 166.443 -271.264 167.2C-267.857 169.282 -264.071 166.821 -261.61 162.847C-259.339 159.25 -255.743 151.301 -254.607 137.862C-254.039 129.533 -253.093 125.559 -250.064 118.555C-247.793 113.445 -247.604 109.091 -249.496 106.252C-251.2 103.981 -253.661 101.709 -259.907 101.899C-255.743 99.438 -248.929 100.763 -246.468 104.17C-243.629 107.956 -243.629 113.823 -246.468 120.259C-249.307 126.505 -249.875 129.723 -250.632 138.24C-252.336 157.357 -256.311 164.55 -261.421 169.661C-254.228 169.471 -249.496 163.604 -247.793 156.411C-245.332 146.569 -241.925 133.887 -240.411 129.533C-238.897 124.801 -236.436 121.962 -233.976 120.069C-228.297 115.716 -229.811 111.173 -224.133 106.82C-232.272 106.063 -233.218 116.473 -240.6 117.987C-234.165 111.173 -234.543 102.656 -225.837 98.6808C-217.13 94.706 -208.234 97.1666 -204.827 99.8165C-206.151 93.1917 -215.048 89.0276 -225.837 90.3525C-219.969 84.6741 -203.88 88.2705 -194.605 93.5703C-196.688 87.7026 -202.555 82.4028 -216.183 80.51C-207.476 77.103 -194.038 81.0779 -185.899 84.6742C-188.548 78.9958 -198.58 73.8852 -207.287 72.371C-199.527 69.7211 -187.981 70.2889 -181.167 72.5603C-183.249 67.8283 -191.956 63.2856 -191.956 63.2856ZM-239.843 106.631C-240.6 99.438 -236.058 94.3274 -230.379 94.1381C-233.786 96.9773 -237.193 102.088 -239.843 106.631Z" fill="white"/>
<path d="M57.7033 6.3147C67.1672 6.69325 73.0349 18.05 70.1957 28.6497C68.4922 20.3214 65.8423 12.7502 57.7033 6.3147Z" fill="white"/>
</g>
<defs>
<clipPath id="clip0_211_1962">
<rect width="200" height="200" fill="white"/>
</clipPath>
</defs>
</svg>
