<svg width="200" height="200" viewBox="0 0 200 200" fill="none" xmlns="http://www.w3.org/2000/svg">
<g clip-path="url(#clip0_1443_723)">
<path d="M768.689 131.995L775.125 127.641C775.125 127.641 763.2 126.316 754.115 119.691L761.307 114.392C761.307 114.392 750.14 113.256 740.865 105.685C745.408 105.117 749.004 102.467 749.004 102.467C749.004 102.467 740.297 99.4385 730.644 84.6747L737.458 85.9996C737.458 85.9996 730.833 74.8322 721.37 64.9897L726.669 65.1789C726.669 65.1789 718.72 53.065 707.552 43.4118L712.852 43.7903C712.852 43.7903 707.552 32.6229 691.085 17.6698L700.549 19.184C700.549 19.184 687.489 4.6095 665.911 -9.01863L677.078 -9.96503C677.078 -9.96503 667.803 -18.6719 636.572 -29.0822L646.226 -34.7606C646.226 -34.7606 635.247 -39.1141 619.727 -39.8712L625.594 -43.846C625.594 -43.846 612.723 -47.0638 597.959 -46.3067L604.206 -54.8242C604.206 -54.8242 584.521 -50.6601 580.546 -49.5244L582.817 -58.6098C582.817 -58.6098 562.753 -45.3603 538.336 -45.3603C530.576 -45.3603 523.005 -46.4959 516.191 -48.7673C518.462 -50.8494 519.976 -53.8778 519.976 -53.8778C519.976 -53.8778 504.645 -57.4742 497.073 -61.449C501.995 -64.2882 505.591 -68.2631 505.591 -68.2631C505.591 -68.2631 493.099 -69.7773 480.228 -76.9699C480.228 -76.9699 484.392 -79.4306 487.609 -83.4054C487.609 -83.4054 476.631 -84.3518 466.599 -88.8945C466.599 -88.8945 472.656 -92.4909 473.603 -94.7622C473.603 -94.7622 461.489 -95.33 448.996 -99.8728C448.996 -99.8728 453.918 -102.144 457.135 -104.983C444.643 -105.74 432.529 -109.905 423.065 -114.447C413.412 -119.179 379.909 -133.943 345.461 -135.079L346.785 -140C346.785 -140 331.075 -138.296 321.611 -135.268L322.179 -139.811C322.179 -139.811 307.983 -136.593 297.951 -132.997L297.384 -137.35C297.384 -137.35 284.134 -132.618 274.481 -126.183L273.534 -129.59C273.534 -129.59 261.988 -122.965 255.931 -117.097L255.174 -122.397C255.174 -122.397 243.817 -115.772 236.246 -106.876L235.868 -114.258C235.868 -114.258 224.7 -108.201 218.265 -95.8979L216.372 -103.091C216.372 -103.091 207.665 -97.4121 203.312 -84.9197L200.472 -93.6265C200.472 -93.6265 191.766 -83.9733 189.305 -70.913C187.98 -75.2664 181.355 -84.1626 181.355 -84.1626C181.355 -84.1626 180.409 -69.3988 177.38 -61.0705C176.055 -68.8309 169.62 -79.9984 169.62 -79.9984C169.62 -79.9984 168.863 -69.2095 164.32 -60.6919C163.563 -68.2631 157.695 -77.9163 157.695 -77.9163C157.695 -77.9163 156.938 -68.6416 153.531 -62.774C151.26 -68.4524 143.878 -75.645 143.878 -75.645C143.878 -75.645 145.014 -65.6132 142.364 -60.6919C138.957 -65.4239 130.439 -69.588 130.439 -69.588C130.439 -69.588 134.225 -55.9599 123.814 -47.0638C113.215 -48.1995 101.29 -49.5244 94.2867 -51.7958C85.3905 -54.635 76.873 -51.7958 77.2515 -42.8996C72.8981 -43.4675 68.734 -44.0353 64.7591 -44.7924C57.1879 -46.3067 54.1594 -42.8996 53.213 -41.3854C51.131 -38.1676 51.6988 -33.4357 54.9165 -29.2715C61.1628 -21.1325 73.6552 -10.7221 82.9299 0.634644C81.2264 6.69157 81.605 15.2092 82.1728 21.4554L75.3587 14.452C75.3587 14.452 74.7909 26.5659 77.6301 37.3548L71.1946 33.0014C71.1946 33.0014 72.141 45.1153 76.1159 53.2543C76.1159 53.2543 73.0874 52.4972 69.4911 50.6044C70.2482 56.4721 71.7624 61.5826 75.9266 68.586C78.7658 73.3179 79.5229 78.4285 74.6016 87.5139C69.3018 96.9779 65.1376 102.467 59.6485 116.852C57.5665 122.72 53.4023 126.316 50.3738 128.777C45.4526 133.13 46.0204 139.755 50.3738 142.973C55.4844 146.569 64.3805 151.49 70.0589 152.437C76.1159 153.572 84.8227 151.49 92.7724 147.137C99.2079 150.733 111.89 152.247 120.597 147.326C116.054 142.405 111.322 135.969 109.05 132.562C113.972 124.613 119.461 120.449 126.275 117.231C128.546 116.095 131.764 119.313 129.303 122.531C126.464 126.505 125.139 130.291 124.382 134.455C124.004 137.294 124.761 144.108 125.896 148.651C126.464 151.112 125.707 152.626 124.004 153.383C120.975 154.33 116.811 155.276 108.861 155.465C111.89 161.333 116.243 165.876 123.057 168.715C124.571 171.554 128.357 175.529 135.928 175.529C147.663 175.529 154.856 169.093 157.506 157.926C159.777 148.273 163.374 135.78 164.699 131.427C165.834 128.02 167.538 126.316 169.62 124.234C170.945 122.909 172.459 121.395 173.784 119.502C174.73 118.177 175.298 116.852 175.866 115.717C177.57 112.499 180.03 108.524 185.141 109.092C183.816 105.495 181.545 103.413 179.462 102.278C187.412 100.953 196.119 104.36 198.769 113.256C199.905 109.281 201.23 102.656 200.283 97.9243C202.555 98.6814 207.287 101.142 210.883 106.442C211.64 102.846 211.829 95.2743 209.747 89.7852C212.208 90.5424 217.129 92.4352 220.915 96.5993C221.482 90.9209 220.915 84.4854 216.751 78.6178C218.833 78.6178 222.807 79.1856 227.729 81.0784C227.35 76.9143 224.89 71.4252 221.293 66.8824C222.997 66.8824 226.972 67.0717 231.325 68.0181C230.568 64.4218 229.243 60.4469 227.161 56.8506C238.518 63.6647 245.142 71.2359 245.142 71.2359C242.871 82.4033 235.111 108.335 233.407 114.959C231.514 121.584 230.946 125.37 234.732 132.941C240.221 143.919 249.874 148.083 258.771 145.244C268.235 142.405 271.263 140.701 281.863 135.591C293.977 129.723 297.384 121.963 296.248 115.717C300.412 104.738 294.734 93.3816 294.734 93.3816C294.734 93.3816 290.759 99.06 287.92 100.953C286.405 97.1672 282.241 93.5708 282.241 93.5708C286.973 85.8104 291.705 77.1035 294.355 68.586C298.709 68.7752 302.305 67.4503 302.305 67.4503C302.305 67.4503 297.762 63.6647 295.869 60.6362C302.494 61.3933 311.769 61.5826 318.394 58.1756C315.365 68.0181 312.904 80.6998 311.579 92.2459C308.551 119.691 299.655 137.294 298.33 145.055C296.437 155.844 299.466 163.604 308.93 173.636C319.908 185.371 329.75 186.318 337.511 180.45C347.921 172.5 357.007 169.661 367.606 168.715C378.963 167.768 389.941 165.497 391.077 152.058C401.677 144.298 398.27 131.995 398.27 131.995C398.27 131.995 393.727 133.887 387.102 136.159C387.859 127.83 385.02 121.016 385.02 121.016C385.02 121.016 381.802 124.423 377.827 127.452C375.935 123.477 370.256 117.609 370.256 117.609C370.256 117.609 368.363 123.856 363.442 129.912C358.332 129.912 351.328 132.184 345.65 135.78C350.571 119.313 357.385 100.574 367.606 84.864C371.203 79.5642 382.938 62.3397 385.588 58.1756C393.916 64.0432 397.512 64.4218 406.219 67.261C414.926 69.9109 417.008 75.5893 413.601 92.4352C411.898 101.331 408.491 117.799 408.491 117.799C408.491 117.799 414.169 114.959 415.115 114.392C409.816 138.241 413.601 148.84 413.601 148.84C413.601 148.84 418.333 143.351 418.712 142.973C419.847 157.926 426.094 170.608 426.094 170.608C426.094 170.608 430.447 163.983 431.204 163.226C440.29 178.936 457.325 178.368 457.325 178.368L455.81 171.175C467.167 173.825 478.524 171.365 478.524 171.365L476.631 167.201C480.417 166.633 484.392 165.497 488.934 163.604C489.313 178.557 479.66 209.031 476.253 219.631C469.628 240.262 473.603 253.701 480.795 258.433C484.392 269.033 492.341 272.061 498.588 271.304C501.805 273.954 508.809 276.983 514.487 273.197C518.841 270.547 520.923 265.058 519.976 259.758C523.383 255.405 523.573 248.401 517.705 237.802C511.08 225.688 508.809 220.388 517.894 179.693C525.655 185.939 538.336 192.375 538.336 192.375L537.201 186.886C548.747 192.564 558.778 200.135 559.725 213.385C561.996 244.237 556.129 270.926 552.722 286.825C551.586 291.746 550.829 295.532 550.639 297.993C549.315 310.296 553.1 315.217 557.075 319.76C558.589 325.627 560.861 333.766 572.974 334.334C577.517 339.823 585.467 341.148 590.388 339.066C595.688 336.606 598.149 332.252 598.338 325.06C604.016 321.653 604.773 313.514 600.799 302.346C594.363 285.122 588.874 270.169 594.931 232.881C596.634 221.902 598.906 213.385 600.609 206.571C605.152 188.778 607.423 179.882 593.417 165.876C598.716 164.551 604.016 161.522 604.016 161.522C604.016 161.522 587.549 156.79 576.381 144.676C583.195 147.326 591.713 147.515 591.713 147.515C591.713 147.515 583.574 139.376 578.842 129.345C580.356 130.291 589.063 133.698 589.063 133.698C589.063 133.698 583.196 117.988 580.924 109.66L588.117 115.717C588.117 115.717 586.224 99.0599 584.142 92.0566L588.874 94.328C588.874 94.328 585.656 81.0784 582.817 73.5072L586.792 74.2643C586.792 74.2643 583.006 59.8791 577.896 52.1186H581.871C581.871 52.1186 579.221 42.6547 573.353 35.6513L576.381 35.2728C576.381 35.2728 571.649 24.8624 562.185 16.9127L564.646 15.5877C564.646 15.5877 555.561 9.15219 550.072 -1.06889C578.464 6.69156 585.845 31.1086 585.845 31.1086L588.874 27.323C595.688 39.0583 599.852 56.4721 599.852 56.4721L603.259 53.2543C606.477 62.7183 615.562 81.6462 615.562 81.6462L618.591 76.5357C622.944 89.0281 631.651 106.442 631.651 106.442L633.922 102.088C640.169 115.338 652.472 128.777 652.472 128.777L652.661 124.045C660.043 134.644 672.346 146.001 672.346 146.001L672.157 139.566C677.457 144.676 683.324 149.408 692.221 154.519L691.842 147.894C702.82 154.897 716.638 160.576 716.638 160.576L714.745 156.033C722.695 159.44 735.376 162.469 735.376 162.469L733.862 157.926C741.055 160.197 753.547 160.197 753.547 160.197L751.276 155.276C785.725 152.626 793.106 131.616 793.106 131.616C793.106 131.616 781.56 136.159 768.689 131.995Z" fill="#101010"/>
<path d="M102.614 54.5789C103.939 56.6609 109.617 62.15 113.97 61.5822C111.131 59.1216 106.967 54.3896 105.831 52.6861C110.374 50.9825 116.431 52.1182 120.406 51.3611C121.731 57.0395 120.785 61.7715 118.135 64.4214C115.106 67.2606 109.428 67.6391 102.424 65.3678C102.424 62.9071 99.396 58.3644 102.614 54.5789Z" fill="#FFD246"/>
<path d="M647.928 113.634C639.032 102.277 635.247 87.5137 635.247 87.5137L632.218 93.7599C625.972 81.646 620.672 62.5288 620.672 62.5288L616.697 69.5321C611.587 58.7432 607.044 43.033 607.044 43.033L603.258 46.44C596.255 25.43 590.009 17.8588 590.009 17.8588L587.737 20.698C583.195 13.1268 570.513 -2.96188 545.907 -8.07243C562.563 -8.82955 581.302 1.95938 588.305 11.6126C590.009 9.71983 590.766 7.82704 590.766 7.82704C598.526 15.0197 605.719 33.3797 605.719 33.3797L610.262 27.1336L618.022 53.6327L622.754 47.1972L631.84 79.3747L636.761 72.182L645.279 98.6812L647.361 90.9207C647.361 90.9207 653.796 106.82 662.314 118.745L663.639 114.391C663.639 114.391 674.238 129.155 685.406 141.837C677.835 138.241 665.721 125.748 665.721 125.748V130.48C656.257 121.016 648.685 106.252 648.685 106.252L647.928 113.634Z" fill="white"/>
<path d="M595.5 204.678C593.797 211.681 591.525 220.388 589.822 231.556C583.576 270.358 589.633 286.636 596.068 303.86C597.204 307.078 600.232 317.678 593.418 320.895C594.175 326.763 593.039 331.684 588.875 333.388C585.468 334.902 579.601 333.009 576.004 328.277C565.026 327.899 563.89 320.895 563.133 316.542C559.537 311.999 556.13 307.457 557.076 298.182C558.212 287.961 568.622 244.427 566.351 212.817C565.026 194.646 548.37 183.668 530.388 176.854L531.334 181.396C518.463 174.015 507.485 160.008 507.485 160.008L507.107 167.011C495.939 158.494 492.154 147.326 492.154 147.326L489.504 151.68C481.554 138.43 481.554 123.098 481.554 123.098L476.633 128.02C475.497 111.931 477.958 95.2743 477.958 95.2743L472.847 98.8706C472.469 84.4854 479.093 64.2325 479.093 64.2325L473.604 67.0717C473.036 56.472 478.336 40.0047 478.336 40.0047L473.415 41.5189C477.579 27.323 478.336 16.5341 476.065 9.71999C471.711 -3.34029 458.273 -4.2867 450.701 -4.66525C462.437 -9.39723 479.661 -3.90813 481.554 13.5056C481.554 13.5056 485.529 9.90926 487.043 3.47375C491.207 15.2091 481.932 17.4805 480.229 33.5692C484.772 28.4587 490.261 28.6479 490.261 28.6479C490.261 28.6479 479.85 47.3866 480.608 57.4184C486.475 48.7116 493.1 47.7652 493.1 47.7652C489.125 53.8221 482.5 69.7216 480.608 82.214C480.797 82.214 490.071 69.5323 494.236 67.261C486.097 84.2961 480.986 102.088 482.69 111.742C482.879 111.742 487.989 94.5172 496.318 88.6496C485.34 112.499 487.043 130.67 490.639 137.862C491.207 118.745 497.075 113.256 497.075 113.256C497.075 113.256 493.1 144.298 504.078 156.412C501.996 149.03 502.753 139.755 504.457 135.212C507.296 151.869 516.76 164.929 523.953 168.904C523.953 168.904 516.381 156.79 516.949 147.894C523.195 160.386 530.199 169.093 539.663 175.34C539.663 175.34 538.148 170.797 535.499 165.497C542.123 170.418 552.912 178.936 561.43 189.535L560.105 179.882C560.105 179.882 569.569 187.643 571.651 208.085C573.544 226.445 568.055 262.03 564.837 283.418C562.566 298.56 561.43 307.835 570.137 313.324C570.137 313.324 567.298 300.453 571.272 293.071C571.272 293.071 573.922 319.76 586.604 326.006C586.604 326.006 577.329 307.457 579.601 292.314C579.601 292.314 586.415 310.674 592.661 313.135C586.415 295.154 583.386 277.929 583.386 255.215C583.386 237.613 588.875 214.142 586.793 206.76C581.683 220.199 578.086 247.455 577.708 273.576C572.976 266.194 576.951 219.631 581.494 205.056C577.519 203.164 572.597 198.621 572.787 190.103C579.979 202.974 591.715 200.514 592.85 190.103C594.365 177.232 577.708 175.34 572.597 165.308C583.765 173.068 599.286 172.879 599.286 186.696C598.718 191.618 597.393 197.107 595.5 204.678Z" fill="white"/>
<path d="M514.109 257.866C515.056 260.326 516.191 266.194 512.027 268.465C507.295 270.737 502.374 266.762 500.67 265.247C497.074 266.194 489.124 265.247 486.096 254.459C480.039 250.294 475.875 240.83 482.121 221.145C487.989 202.785 495.371 178.179 495.181 163.794C496.317 164.929 497.453 166.065 498.588 167.201C498.778 178.179 491.585 206.192 487.232 220.199C482.878 234.395 484.014 245.373 489.882 251.051C488.367 244.427 488.178 231.934 491.396 227.202C490.071 246.698 498.967 257.866 508.242 262.219C500.86 251.43 495.371 241.02 497.453 227.959C499.346 238.559 505.024 247.834 511.459 249.916C505.781 240.073 501.049 229.663 502.185 216.413C503.51 199.378 508.431 175.718 508.431 175.718L512.974 179.315C503.699 221.145 506.917 228.149 513.352 240.263C519.598 252.376 516.759 256.541 514.109 257.866Z" fill="white"/>
<path d="M433.288 152.815C431.584 145.811 433.666 137.672 437.452 133.698C435.938 149.976 442.373 160.575 450.702 171.932C442.184 169.85 434.991 159.818 433.288 152.815Z" fill="white"/>
<path d="M417.954 135.781C417.954 128.21 420.037 118.557 421.929 110.985C424.011 103.414 428.743 94.3288 431.393 91.6788C431.015 96.9787 426.661 110.985 425.904 113.825C424.011 120.26 420.794 129.156 417.954 135.781Z" fill="white"/>
<path d="M392.023 47.1981C392.78 50.9837 394.294 54.58 396.187 57.7977C390.698 56.0942 388.616 51.9301 392.023 47.1981Z" fill="white"/>
<path d="M370.257 70.8565C373.664 57.7962 369.689 39.4361 373.285 31.6756C374.043 35.0827 377.26 45.8716 378.775 49.6572C382.371 41.3289 374.8 27.7008 377.639 18.6154C379.721 22.9688 383.507 29.4043 386.914 35.8398C389.563 26.7543 380.289 15.5869 382.182 5.1765C384.831 9.34065 388.239 15.5869 391.835 21.076C392.403 11.4227 389.753 -4.28748 384.453 -13.9407C381.235 -19.9977 369.689 -37.4114 343.001 -38.3578C353.79 -41.7648 367.796 -38.9256 380.667 -28.1367C393.538 -17.1585 397.324 -0.501892 409.059 3.28369C404.327 6.88 399.027 5.55505 394.674 0.633789C394.674 5.93361 397.892 10.0978 403.002 11.8013C399.027 14.6405 396.378 19.9403 395.431 23.3473C391.267 36.4076 383.507 53.2535 370.257 70.8565Z" fill="white"/>
<path d="M355.303 95.0853C354.167 90.164 350.571 69.9111 358.331 59.6901C357.574 73.1289 359.467 86.1892 355.303 95.0853Z" fill="white"/>
<path d="M353.602 137.863C360.037 135.592 366.662 138.809 371.205 144.298C371.016 140.513 369.312 137.295 366.662 134.645C366.662 134.645 369.312 132.374 370.826 128.21C373.287 131.995 373.287 138.62 373.287 138.62C373.287 138.62 378.019 135.97 380.669 132.374C381.615 138.809 379.912 143.163 379.912 143.163C379.912 143.163 385.401 143.352 391.268 139.756C391.079 143.92 388.24 147.327 385.401 148.084C385.969 158.305 381.047 160.766 367.041 162.469C338.649 165.687 335.052 180.451 324.642 177.612C334.106 172.69 337.702 167.012 350.763 161.523C360.984 157.169 379.722 159.63 375.748 147.895C372.341 156.223 356.252 150.734 337.892 159.441C342.245 144.109 347.166 140.134 353.602 137.863Z" fill="white"/>
<path d="M304.766 157.925C302.495 153.004 303.063 147.136 304.577 143.161C311.769 124.612 315.366 108.523 317.259 93.0024C319.151 79.3743 321.423 57.6071 331.644 52.3073C331.644 52.3073 331.265 62.1499 333.726 68.7747C330.13 67.639 328.426 61.7713 328.426 61.7713C328.426 61.7713 325.208 69.5318 328.426 81.8349C325.776 80.8885 324.262 78.4279 324.262 78.4279C324.262 78.4279 321.991 88.0812 324.64 98.4915C322.369 97.9237 320.666 95.4631 320.666 95.4631C320.666 95.4631 318.016 108.713 321.044 118.177C318.205 117.419 316.501 114.77 316.501 114.77C316.501 114.77 314.609 126.694 316.691 136.158C314.041 135.401 312.148 132.562 312.148 132.562C311.202 136.915 310.823 144.297 314.609 151.868C311.959 151.49 310.255 149.408 308.93 148.083C305.902 156.033 315.555 167.389 319.151 174.96C312.905 171.364 306.28 161.332 304.766 157.925Z" fill="white"/>
<path d="M294.168 46.4418C298.521 52.3095 309.121 55.1486 309.121 55.1486C304.956 55.7165 295.114 56.6629 280.539 48.5238C282.054 52.8773 289.057 61.2056 290.382 62.7198C281.107 61.5841 267.101 47.0096 267.101 47.0096C267.101 47.0096 269.561 54.9594 273.915 62.7198C267.858 59.1235 258.394 47.7667 250.255 38.6813C240.791 27.8924 230.191 17.2928 226.405 6.88239C233.409 14.2643 257.069 39.4384 262.369 40.7634C257.447 33.3815 245.144 18.4284 242.494 8.20734C256.122 24.6747 267.479 36.41 274.293 40.5741C270.697 34.8957 261.044 22.0247 256.879 9.15373C268.047 22.9711 282.243 35.8421 285.65 36.0314C281.107 31.4887 272.022 18.9963 268.047 8.77519C279.593 20.3212 289.246 28.0817 294.546 29.9745C288.111 22.214 283.757 17.482 279.214 8.01807C287.164 15.4 295.492 21.4569 302.117 22.5926C302.117 22.5926 292.085 12.9393 288.489 5.55742C298.142 13.1286 306.471 15.9678 307.985 15.7785C305.524 13.6964 300.224 9.15373 297.007 3.47534C308.931 10.8572 315.556 10.8573 319.91 10.8573C331.834 10.8573 341.109 5.93599 347.923 4.98958C341.487 14.075 332.781 18.2392 328.995 20.3212C335.998 21.6462 345.084 19.5641 345.084 19.5641C339.973 26.1889 333.916 29.9745 322.37 33.3815C328.427 35.6529 339.405 35.085 339.405 35.085C333.538 40.3849 324.642 42.4669 309.499 42.0884C315.935 46.8204 327.291 48.3346 327.291 48.3346C321.424 50.4167 309.31 50.2274 294.168 46.4418Z" fill="white"/>
<path d="M290.569 115.149C292.272 121.395 287.919 126.127 279.78 130.481C266.341 137.484 256.877 141.08 251.577 139.566C259.338 137.484 288.487 124.802 285.837 117.042C284.133 121.963 269.18 128.588 260.852 129.913C261.798 127.641 266.53 118.556 268.802 115.717C271.83 111.931 275.994 110.228 282.241 114.392C281.862 111.742 279.969 109.849 278.077 108.524C278.077 108.524 280.537 105.496 282.241 101.71C284.323 105.496 284.323 110.606 284.323 110.606C284.323 110.606 288.676 108.714 292.272 104.739C293.219 110.228 291.894 113.067 290.569 115.149Z" fill="white"/>
<path d="M238.898 116.663C241.359 107.767 250.444 76.536 252.148 64.4221C253.851 68.5862 254.987 72.3718 252.716 81.2679C250.255 90.1641 246.469 104.171 244.009 113.256C240.602 125.749 242.116 131.048 246.28 138.809C240.034 135.78 236.438 125.37 238.898 116.663Z" fill="white"/>
<path d="M134.036 152.058C133.09 151.301 131.386 148.083 131.008 146.758C133.469 145.244 134.983 143.919 134.983 143.919C134.983 143.919 131.576 142.215 130.062 138.24C132.522 138.051 135.74 137.673 138.201 136.537C138.201 139.187 137.822 141.837 137.254 144.297C136.686 147.326 135.74 149.219 134.036 152.058Z" fill="white"/>
<path d="M138.77 131.995C136.309 129.724 134.984 127.263 134.416 125.56C136.12 125.181 138.391 124.803 140.473 123.856C139.716 126.695 139.148 129.345 138.77 131.995Z" fill="white"/>
<path d="M131.764 157.358C131.575 158.304 131.385 159.44 131.007 161.332C130.628 163.225 128.925 163.982 126.464 163.604C124.004 163.225 121.732 162.468 119.839 160.575C121.921 160.197 127.221 158.872 131.764 157.358Z" fill="white"/>
<path d="M98.8301 143.163C101.291 141.46 103.562 139.378 105.644 137.106C107.348 139.378 109.43 142.028 110.944 144.11C106.401 145.056 102.048 144.11 98.8301 143.163Z" fill="white"/>
<path d="M59.4605 -32.6769C57.5677 -35.1375 56.6213 -37.0303 58.1356 -38.3553C59.4605 -39.6802 61.7319 -38.7338 63.6247 -37.0303C74.4136 -27.1878 90.8809 -6.93488 90.8809 1.39342C81.4169 -9.58479 63.2461 -27.7556 59.4605 -32.6769Z" fill="white"/>
<path d="M83.6896 -46.1184C85.9609 -48.7683 91.45 -47.8219 95.8035 -45.5506C100.346 -43.2792 117.949 -32.6796 118.706 -32.301C126.277 -27.1904 131.956 -23.0263 135.931 -17.1586C139.906 -11.291 142.177 -5.80186 143.88 0.633652C146.341 -6.18041 142.556 -20.3764 133.092 -30.5975C141.609 -28.5154 150.695 -12.8052 151.83 -1.06987C154.291 -8.07321 152.777 -21.8906 142.366 -32.6795C150.127 -30.5975 158.076 -19.0514 159.401 -2.96268C162.808 -9.20889 160.537 -25.8655 150.884 -35.708C158.266 -33.2474 165.458 -22.837 166.594 -10.3446C166.973 -6.55897 165.837 -2.77339 163.566 0.255081C159.78 5.17635 153.912 9.3405 147.666 11.8011C150.695 19.9402 160.537 21.0758 169.812 18.6152C161.294 26.9435 143.313 24.4829 138.581 8.20482C135.552 -2.39482 134.606 -9.39816 130.063 -15.0766C125.71 -20.9442 121.735 -23.4048 115.299 -27.9475C109.432 -32.1117 101.103 -37.2223 95.6142 -40.2507C90.8822 -42.9006 86.7181 -39.4936 92.2072 -33.0581C92.3964 -37.033 95.4249 -37.2222 98.6427 -34.9509C101.86 -32.8688 109.81 -27.1904 113.596 -24.7298C113.596 -24.7298 109.621 -23.5941 106.592 -23.2156C107.917 -22.0799 114.164 -20.1871 119.842 -19.9978C115.299 -17.5372 108.674 -16.0229 108.674 -16.0229C114.164 -13.1838 124.953 -14.3194 124.953 -14.3194C120.978 -11.1017 111.135 -9.01961 111.135 -9.01961C116.624 -6.18042 128.17 -8.07322 128.17 -8.07322C125.331 -4.47691 115.299 -2.39484 115.299 -2.39484C119.463 -0.123474 126.467 -0.502029 131.009 -2.20555C129.117 6.31203 114.353 8.39412 103.942 -6.55897C99.9676 -12.4266 88.043 -31.5439 85.3931 -36.2759C82.7432 -40.8186 82.1754 -44.2256 83.6896 -46.1184Z" fill="white"/>
<path d="M158.644 -60.3136C162.808 -51.0389 155.048 -41.9535 149.559 -43.2785C152.398 -47.6319 156.562 -54.6352 158.644 -60.3136Z" fill="white"/>
<path d="M171.326 -62.207C175.679 -50.8502 164.701 -37.2221 157.13 -39.4935C164.133 -46.8754 168.676 -55.7715 171.326 -62.207Z" fill="white"/>
<path d="M192.904 -60.3128C193.85 -65.6126 195.743 -74.5088 198.771 -80.9443C198.771 -80.9443 201.421 -72.8053 198.96 -58.2307C197.635 -49.9024 193.093 -41.5742 187.414 -38.1671C190.821 -45.7383 191.579 -52.3631 192.904 -60.3128Z" fill="white"/>
<path d="M213.344 -92.301C213.344 -92.301 212.019 -75.8337 210.694 -64.6662C208.991 -50.8488 202.745 -33.0565 194.416 -30.5959C202.555 -45.1704 203.691 -61.4484 205.016 -69.7767C206.152 -78.105 209.559 -86.8119 213.344 -92.301Z" fill="white"/>
<path d="M230.758 -103.279C230.758 -103.279 225.647 -88.7045 223.755 -80.3762C221.862 -72.4264 219.212 -64.4767 215.994 -58.2305C214.859 -62.5839 215.048 -75.2656 217.319 -81.7011C219.59 -87.9473 224.322 -96.8435 230.758 -103.279Z" fill="white"/>
<path d="M250.632 -112.932C250.632 -112.932 242.493 -97.4107 238.897 -91.1645C235.679 -85.2968 234.165 -83.7826 229.811 -76.4007C228.676 -80.5648 230.001 -90.4074 233.218 -95.1394C236.625 -99.8713 245.332 -108.578 250.632 -112.932Z" fill="white"/>
<path d="M365.334 -127.128C362.306 -125.803 356.627 -121.071 346.217 -123.153C353.599 -128.832 359.656 -128.075 365.334 -127.128Z" fill="white"/>
<path d="M384.264 -122.963C379.91 -122.585 372.15 -117.474 361.929 -121.449C367.039 -125.235 376.693 -125.235 384.264 -122.963Z" fill="white"/>
<path d="M405.843 -115.582C401.868 -115.772 392.215 -112.554 379.533 -118.232C386.158 -121.45 398.84 -118.8 405.843 -115.582Z" fill="white"/>
<path d="M420.795 -109.148C427.231 -106.498 437.641 -102.523 441.048 -101.387C434.802 -101.198 425.338 -102.712 418.524 -104.794C411.71 -106.876 408.303 -108.201 401.489 -111.987C407.546 -112.744 414.36 -111.987 420.795 -109.148Z" fill="white"/>
<path d="M712.854 86.1892C706.04 81.268 699.605 76.9145 692.791 71.4254C698.658 72.7504 708.312 76.536 715.315 80.8894C722.318 85.0535 732.35 96.4103 735.757 100.007C729.322 96.9782 721.94 92.814 712.854 86.1892Z" fill="white"/>
<path d="M725.724 78.0493C717.963 76.9137 707.742 71.9924 702.064 68.9639C695.061 65.1783 686.354 59.4999 680.865 52.3073C689.004 55.5251 697.143 57.6071 705.282 62.7177C713.988 68.0175 722.506 75.2102 725.724 78.0493Z" fill="white"/>
<path d="M626.921 -8.82829C620.485 -10.3425 614.996 -11.6675 604.964 -12.4246C612.725 -16.5888 622.567 -14.1281 626.921 -8.82829Z" fill="white"/>
<path d="M638.089 4.04245C630.518 1.96037 626.164 1.20325 616.133 -0.500259C622.947 -4.47514 633.736 -1.44666 638.089 4.04245Z" fill="white"/>
<path d="M650.392 16.1554C643.389 13.6947 637.899 13.1269 628.436 11.6127C634.114 7.44852 645.471 10.0984 650.392 16.1554Z" fill="white"/>
<path d="M663.072 28.8377C655.69 26.9449 650.58 25.6199 641.116 24.295C646.416 20.1308 657.205 22.5915 663.072 28.8377Z" fill="white"/>
<path d="M652.85 36.7883C658.717 34.1384 669.696 38.1133 673.67 44.738C667.046 41.8988 661.178 39.2489 652.85 36.7883Z" fill="white"/>
<path d="M662.883 53.4452C670.644 50.9846 678.783 54.7702 681.622 60.4486C676.701 57.7987 671.211 55.9059 662.883 53.4452Z" fill="white"/>
<path d="M690.516 50.2265C684.46 46.8195 676.32 39.6268 671.778 35.4627C678.592 36.5984 684.838 37.9233 692.22 41.8982C699.413 45.873 707.362 51.93 713.419 57.7977C706.794 56.2834 696.573 53.6335 690.516 50.2265Z" fill="white"/>
<path d="M700.927 36.597C700.927 36.597 688.245 35.4613 678.592 31.4864C672.346 29.0258 662.125 21.4546 660.421 19.1832C665.153 19.7511 676.321 21.8332 681.053 24.2938C687.299 27.7008 700.738 36.4077 700.927 36.597Z" fill="white"/>
<path d="M660.612 12.5586C652.284 8.77303 645.47 3.09465 642.82 1.20184C649.066 1.76968 660.423 4.79816 667.805 8.77303C675.187 12.7479 684.651 19.3727 690.329 24.8618C682.001 19.7512 669.509 16.5335 660.612 12.5586Z" fill="white"/>
<path d="M648.496 -2.39333C639.789 -4.66469 632.029 -10.5324 627.297 -13.7501C633.543 -13.7501 643.196 -11.668 651.903 -8.26099C660.61 -4.85397 677.835 4.23146 684.27 10.667C670.831 4.79929 659.474 0.256592 648.496 -2.39333Z" fill="white"/>
<path d="M629.003 -18.2916C621.432 -19.0487 607.803 -21.1308 607.803 -21.1308C607.803 -21.1308 614.05 -25.1057 627.11 -23.7807C637.52 -22.645 655.691 -16.3988 659.666 -14.1274C647.741 -15.4524 636.574 -17.5345 629.003 -18.2916Z" fill="white"/>
<path d="M611.966 -29.0815C601.556 -27.1887 599.095 -26.6208 593.038 -25.4852C595.688 -29.0815 604.017 -32.8671 611.209 -33.8135C618.402 -34.7599 628.055 -34.7599 632.787 -33.4349C625.594 -31.7314 622.377 -30.9743 611.966 -29.0815Z" fill="white"/>
<path d="M593.797 -34.5701C588.497 -33.0559 582.818 -31.9202 577.519 -31.7309C581.683 -34.9487 587.361 -38.1664 592.283 -39.4914C597.204 -40.6271 601.179 -41.1949 610.075 -40.6271C610.075 -40.4378 600.8 -36.4629 593.797 -34.5701Z" fill="white"/>
<path d="M575.627 -41.9528C579.98 -44.0349 588.876 -46.1169 591.148 -46.3062C586.794 -42.5206 581.495 -38.735 575.816 -36.0851C570.138 -33.4352 567.299 -33.0566 563.134 -32.1102C564.838 -34.7601 571.273 -39.8707 575.627 -41.9528Z" fill="white"/>
<path d="M539.284 -35.3277C529.82 -35.3277 516.759 -37.7884 510.513 -44.981C516.002 -42.5204 528.495 -39.8704 538.526 -39.8704C552.533 -39.8704 565.783 -44.0346 574.49 -47.8202C570.893 -41.574 557.833 -35.3277 539.284 -35.3277Z" fill="white"/>
<path d="M546.287 11.2358C542.123 8.96445 537.012 3.47534 537.012 3.47534C537.012 3.47534 544.773 5.36815 548.369 7.45021C551.965 9.53229 554.994 14.075 554.994 14.075C554.994 14.075 549.315 12.9393 546.287 11.2358Z" fill="white"/>
<path d="M570.325 50.9823C574.868 56.6607 576.761 60.8248 577.897 65.5568C574.111 62.1498 570.515 58.7428 566.54 54.7679C562.565 50.793 558.022 45.3039 552.155 38.1113C561.051 41.7076 565.972 45.1146 570.325 50.9823Z" fill="white"/>
<path d="M567.108 68.3965C565.026 65.9359 555.751 55.7148 551.208 49.2793C556.129 51.5507 565.783 57.9862 571.083 63.8539C576.382 69.7215 579.222 78.6176 580.547 84.1068C577.14 80.889 571.461 73.5071 567.108 68.3965Z" fill="white"/>
<path d="M571.27 121.017C567.485 118.557 560.86 111.175 557.642 106.064C554.803 101.711 550.639 91.3003 549.692 84.6755C553.478 88.4611 557.074 94.1395 561.238 100.386C563.321 103.603 570.135 117.232 571.27 121.017Z" fill="white"/>
<path d="M567.864 139.376C564.457 138.43 560.104 135.969 556.318 133.319C552.533 130.669 548.368 126.695 546.665 123.288C550.64 124.423 554.804 126.316 558.779 129.534C562.754 132.751 566.35 137.105 567.864 139.376Z" fill="white"/>
<path d="M541.743 86.9466C538.714 80.5111 533.793 74.2649 529.818 70.1008C535.496 70.6686 543.068 78.4291 541.743 86.9466Z" fill="white"/>
<path d="M530.199 54.3907C537.013 54.9586 544.395 62.3405 544.016 70.4795C540.042 64.2333 536.634 60.8263 530.199 54.3907Z" fill="white"/>
<path d="M544.773 54.3907C540.609 50.9837 536.634 47.5766 530.199 42.8446C536.067 42.6553 543.638 47.9552 544.773 54.3907Z" fill="white"/>
<path d="M542.501 40.9512C539.661 37.7335 537.579 36.03 532.469 31.298C538.147 31.4873 542.69 36.03 542.501 40.9512Z" fill="white"/>
<path d="M530.199 85.4314C533.795 87.5135 538.716 93.949 539.095 98.3024C534.742 95.8418 531.145 90.3527 530.199 85.4314Z" fill="white"/>
<path d="M534.173 105.305C537.769 107.388 539.851 110.795 540.041 114.391C536.066 112.877 534.551 109.848 534.173 105.305Z" fill="white"/>
<path d="M417.008 104.55C418.333 98.4932 419.658 93.572 420.226 86.5686C420.794 80.1331 420.226 75.4011 419.28 71.8048C423.444 73.6976 425.715 81.6474 425.147 87.1365C424.579 92.8149 422.119 99.0611 417.008 104.55Z" fill="white"/>
<path d="M338.08 -43.2779C345.462 -47.0635 358.901 -48.1992 366.661 -46.685C374.422 -45.36 381.425 -41.7637 385.968 -36.4639C385.968 -36.4639 379.154 -37.7888 366.093 -41.5744C358.712 -43.6565 351.708 -44.2243 338.08 -43.2779Z" fill="white"/>
<path d="M364.956 -19.0498C361.359 -26.0531 355.87 -29.4601 341.485 -30.4065C345.46 -32.2993 351.327 -33.0564 357.384 -31.1636C362.306 -29.8387 365.902 -25.6746 364.956 -19.0498Z" fill="white"/>
<path d="M372.908 15.5871C371.015 7.82661 368.365 2.71606 362.686 -3.53015C368.743 -4.09799 377.261 6.31238 372.908 15.5871Z" fill="white"/>
<path d="M360.036 10.2886C366.85 11.0458 371.771 21.8347 367.607 29.9737C366.093 20.699 363.254 15.0206 360.036 10.2886Z" fill="white"/>
<path d="M360.224 44.9269C360.224 36.7879 357.764 27.8917 355.492 24.4847C362.117 25.4311 365.335 37.9235 360.224 44.9269Z" fill="white"/>
<path d="M342.624 126.506C339.406 119.502 335.999 108.145 338.46 98.4921C342.435 104.171 345.652 117.988 342.624 126.506Z" fill="white"/>
<path d="M274.671 -51.4155C269.182 -55.3904 269.75 -62.7723 273.157 -65.6115C273.535 -60.8795 274.103 -55.5797 274.671 -51.4155Z" fill="white"/>
<path d="M228.487 -21.1317C232.272 -24.1602 236.247 -27.1887 239.844 -31.3528C240.601 -26.2423 234.922 -19.8067 228.487 -21.1317Z" fill="white"/>
<path d="M227.352 -39.4911C230.759 -43.6553 232.652 -46.873 234.923 -52.3621C237.384 -46.3052 232.462 -39.3018 227.352 -39.4911Z" fill="white"/>
<path d="M259.529 63.2865C252.337 56.0939 240.034 40.573 236.059 35.6517C229.434 27.5127 215.238 14.8309 206.531 8.96327C216.752 10.2882 234.166 25.052 240.601 32.8125C248.93 43.0336 257.826 55.1475 259.529 63.2865Z" fill="white"/>
<path d="M271.454 100.197C265.775 107.957 260.665 117.611 257.069 125.182C255.365 118.557 260.097 110.797 260.097 110.797L255.744 110.607C259.718 105.307 265.208 101.9 271.454 100.197Z" fill="white"/>
<path d="M88.4197 97.9245C92.5839 91.2997 103.562 93.3818 110.755 94.1389C106.78 98.6816 95.2338 95.2745 88.4197 97.9245Z" fill="white"/>
<path d="M79.7137 107.767C84.4457 100.385 94.4775 100.196 104.32 100.953C101.481 105.306 92.3955 102.846 79.7137 107.767Z" fill="white"/>
<path d="M183.629 -35.3267C182.872 -27.7556 174.354 -23.7807 168.487 -27.377C174.165 -29.2698 179.843 -32.2983 183.629 -35.3267Z" fill="white"/>
<path d="M197.825 34.3259C204.071 29.2153 217.131 30.5403 222.999 39.2471C214.292 36.2187 205.585 34.7044 197.825 34.3259Z" fill="white"/>
<path d="M186.468 24.1066C193.471 18.9961 204.071 22.4031 209.182 27.7029C201.421 25.9994 193.282 24.8637 186.468 24.1066Z" fill="white"/>
<path d="M176.058 1.01421C183.061 -2.77138 191.2 -1.06787 195.364 4.42123C189.875 2.907 185.332 1.77133 176.058 1.01421Z" fill="white"/>
<path d="M174.165 -19.0488C181.736 -20.563 185.9 -21.3201 191.957 -23.9701C189.875 -16.7774 179.086 -15.4525 174.165 -19.0488Z" fill="white"/>
<path d="M119.085 71.0472C128.17 70.4794 131.199 66.126 132.713 63.2868C133.281 70.1008 127.224 75.0221 119.652 75.0221C113.028 75.0221 107.349 74.0757 104.132 74.4543C107.349 70.6687 113.028 71.4258 119.085 71.0472Z" fill="white"/>
<path d="M102.048 20.3196C97.127 15.5876 92.7735 10.2878 94.0985 2.90588C97.3162 9.53067 100.345 12.1806 105.455 16.9126C111.134 22.2124 113.784 27.5122 112.648 31.8657C109.619 26.3766 106.78 25.0516 102.048 20.3196Z" fill="white"/>
<path d="M108.292 13.1275C102.235 8.39552 97.1248 3.66354 98.4498 -4.66475C102.046 2.90643 106.021 5.93489 109.049 8.39552C115.296 13.1275 119.649 18.2381 118.513 25.2414C115.863 19.9416 113.592 17.4809 108.292 13.1275Z" fill="white"/>
<path d="M95.6138 89.4072C99.778 83.1609 117.002 87.3251 118.138 87.5144C114.163 91.3 103.374 88.0822 95.6138 89.4072Z" fill="white"/>
<path d="M117.947 83.349C112.836 83.349 106.59 81.0777 99.965 82.0241C103.372 76.7242 111.7 78.9956 118.136 78.9956C124.382 78.9956 127.221 77.4813 131.385 75.0207C130.06 79.1848 124.382 83.349 117.947 83.349Z" fill="white"/>
<path d="M213.913 44.7366C221.295 41.1403 230.57 45.683 234.923 54.9577C230.191 51.74 222.81 47.3865 213.913 44.7366Z" fill="white"/>
<path d="M245.331 62.5286C239.653 52.1183 227.917 39.2473 221.103 32.2439C211.261 22.0228 197.065 15.7766 187.222 13.8838C200.282 12.1803 212.964 18.4265 224.321 28.6476C233.028 36.7866 246.277 53.0647 245.331 62.5286Z" fill="white"/>
<path d="M202.934 -15.4525C207.098 -16.9667 217.887 -24.1594 221.673 -28.7021C221.673 -20.563 210.127 -13.5597 202.934 -15.4525Z" fill="white"/>
<path d="M205.962 -7.50414C213.344 -7.50414 218.833 -8.45055 224.132 -9.96479C221.672 -4.47568 211.072 -3.34 205.962 -7.50414Z" fill="white"/>
<path d="M195.931 -9.58692C189.685 -6.93701 182.113 -6.937 176.435 -9.39763C182.113 -11.4797 190.063 -11.669 195.931 -9.58692Z" fill="white"/>
<path d="M215.806 -48.7669C219.213 -37.4101 208.235 -22.6463 198.771 -22.6463C204.449 -28.1354 211.453 -36.8423 215.806 -48.7669Z" fill="white"/>
<path d="M226.404 -68.2622C230.379 -64.4766 228.865 -54.8234 223.943 -52.552C225.268 -58.0411 226.025 -63.1517 226.404 -68.2622Z" fill="white"/>
<path d="M243.817 -81.7002C240.978 -75.8325 238.139 -69.397 236.246 -64.4758C234.164 -71.4791 239.085 -79.8074 243.817 -81.7002Z" fill="white"/>
<path d="M319.34 -128.452C324.64 -130.156 329.94 -131.859 336.375 -132.806C331.454 -129.777 325.397 -125.234 320.665 -123.531C315.933 -121.827 307.226 -121.449 307.226 -121.449C307.226 -121.449 313.283 -126.37 319.34 -128.452Z" fill="white"/>
<path d="M358.334 -51.0381C348.87 -51.0381 336.756 -48.7667 328.428 -46.6847C331.267 -49.9024 345.463 -55.013 358.145 -55.3915C368.366 -55.7701 376.315 -53.4987 380.669 -49.5238C372.151 -49.3346 366.852 -51.0381 358.334 -51.0381Z" fill="white"/>
<path d="M333.158 -6.17818C326.154 -2.20331 315.365 -0.310516 311.012 -5.61034C321.233 -5.9889 324.451 -7.50314 330.129 -10.5316C335.05 -12.9922 345.082 -18.6706 351.896 -15.0743C347.732 -13.9386 340.918 -10.5316 333.158 -6.17818Z" fill="white"/>
<path d="M305.335 -76.4017C310.445 -80.7552 317.449 -82.8372 321.045 -82.648C316.124 -78.2945 313.095 -77.1589 308.174 -73.7518C303.631 -70.5341 301.171 -68.2627 295.492 -62.7736C296.817 -66.7485 300.224 -72.0483 305.335 -76.4017Z" fill="white"/>
<path d="M295.682 -73.7516C293.789 -71.1017 291.139 -67.1269 288.868 -62.0163C288.868 -65.8019 290.571 -72.616 292.653 -75.8337C295.114 -79.9979 298.332 -81.8907 302.496 -83.2156C300.792 -79.8086 298.71 -78.1051 295.682 -73.7516Z" fill="white"/>
<path d="M318.396 -73.374C326.156 -77.5382 333.728 -79.0524 337.702 -79.2417C333.16 -74.8882 324.264 -71.4812 319.721 -69.5884C314.989 -67.5063 310.257 -65.235 302.875 -59.9352C305.336 -64.6672 310.635 -69.2099 318.396 -73.374Z" fill="white"/>
<path d="M329.941 -67.5052C337.513 -70.3444 353.98 -73.5621 359.28 -72.0479C351.141 -67.6945 338.459 -65.8017 330.509 -63.1517C322.559 -60.6911 319.72 -59.3662 308.742 -54.8234C313.095 -59.1769 322.37 -64.666 329.941 -67.5052Z" fill="white"/>
<path d="M345.652 -62.963C360.605 -65.8022 369.88 -63.7201 374.423 -61.0702C364.391 -59.3667 355.116 -59.9346 346.031 -58.231C336.756 -56.5275 329.942 -54.4454 318.017 -49.9027C322.182 -54.824 337.324 -61.2595 345.652 -62.963Z" fill="white"/>
<path d="M284.512 -77.159C284.322 -73.9412 283.754 -71.4806 282.997 -67.3164C282.619 -65.0451 281.862 -61.4488 281.294 -57.6632C279.59 -60.6916 279.022 -65.9915 279.401 -68.6414C279.969 -72.427 281.672 -74.8876 284.512 -77.159Z" fill="white"/>
<path d="M352.842 -23.4035C349.056 -22.4571 342.999 -21.3214 333.535 -17.5359C327.857 -15.4538 325.396 -14.1288 318.772 -11.4789C321.989 -15.8323 325.586 -20.1858 333.346 -22.8357C340.728 -25.4856 350.76 -24.3499 352.842 -23.4035Z" fill="white"/>
<path d="M330.32 -0.500443C339.216 -4.47531 344.326 -8.45018 350.194 -5.98955C344.137 -3.7182 338.648 1.39235 332.591 4.23154C325.02 7.82785 311.013 7.82785 304.956 0.635239C317.638 4.04227 327.102 1.01379 330.32 -0.500443Z" fill="white"/>
<path d="M326.532 140.322C329.56 144.486 332.778 154.14 330.317 160.197C326.532 155.465 324.26 148.083 326.532 140.322Z" fill="white"/>
<path d="M336.753 143.161C333.346 138.997 329.939 129.912 331.264 119.501C336.185 124.233 338.646 134.833 336.753 143.161Z" fill="white"/>
<path d="M352.842 43.2241C357.006 46.0633 356.438 57.2308 350.949 59.5021C352.274 53.4452 353.031 49.2811 352.842 43.2241Z" fill="white"/>
<path d="M376.125 0.635376C374.8 -3.90732 372.339 -10.3428 369.5 -15.2641C374.232 -14.6963 379.153 -6.74651 376.125 0.635376Z" fill="white"/>
<path d="M404.328 17.86C406.789 31.8667 411.899 45.1162 417.956 49.0911C414.928 40.0057 413.792 28.8382 415.496 18.9957C419.66 33.3809 422.877 46.0627 431.963 53.066C431.963 53.066 424.77 34.8952 428.745 22.2134C432.152 37.5451 435.37 44.7377 439.913 50.9839C444.645 57.4194 453.541 64.612 456.191 72.1832C451.459 68.5869 444.834 64.2335 439.723 62.53C439.723 62.53 441.995 67.8298 441.805 71.2368C436.127 65.937 427.231 62.7192 427.231 62.7192C427.231 62.7192 429.313 66.6941 428.745 70.8582C421.931 63.0978 412.467 64.612 406.221 48.334C403.192 39.8164 401.867 28.0811 404.328 17.86Z" fill="white"/>
<path d="M440.482 25.4314C445.592 41.3308 451.271 45.6843 454.489 48.902C461.87 55.7161 464.899 62.5302 467.17 68.7764C461.303 66.3158 454.867 61.2052 449.189 55.1482C442.185 47.7663 438.021 34.7061 440.482 25.4314Z" fill="white"/>
<path d="M463.383 46.6312C460.354 45.1169 456.758 42.0885 455.433 39.2493C453.351 34.7066 453.351 29.2175 453.73 27.1354C455.622 29.9746 457.326 32.4352 459.408 36.5994C460.544 39.06 462.247 43.2242 463.383 46.6312Z" fill="white"/>
<path d="M440.858 -96.8427C446.915 -95.7071 454.486 -92.1107 459.597 -90.7858C455.433 -90.0287 446.347 -90.5965 440.48 -92.1107C434.612 -93.625 430.259 -94.7607 424.391 -98.1677C427.419 -98.5462 434.801 -97.9784 440.858 -96.8427Z" fill="white"/>
<path d="M489.123 -52.7427C480.984 -55.9605 473.981 -61.2603 473.981 -61.2603C473.981 -61.2603 484.58 -61.071 489.312 -59.3675C494.233 -57.664 501.426 -52.932 510.322 -50.4714C503.697 -48.2 493.666 -51.0392 489.123 -52.7427Z" fill="white"/>
<path d="M473.037 -67.3151C466.79 -69.2079 461.869 -71.4792 456.38 -75.0755C461.112 -74.8862 468.115 -74.697 473.226 -73.372C478.337 -72.047 483.068 -68.4507 492.154 -65.4223C488.368 -64.2866 479.283 -65.4223 473.037 -67.3151Z" fill="white"/>
<path d="M459.406 -79.8082C452.971 -80.5654 446.914 -83.2153 440.857 -85.8652C444.832 -86.0545 449.942 -86.0545 456.378 -85.2974C462.813 -84.5402 469.817 -81.701 474.927 -79.9975C471.142 -79.0511 464.706 -79.2404 459.406 -79.8082Z" fill="white"/>
<path d="M329.563 -123.533C334.484 -126.751 338.08 -129.59 348.112 -129.212C342.055 -123.912 338.459 -122.397 329.563 -123.533Z" fill="white"/>
<path d="M315.745 -132.617C306.849 -126.749 302.685 -122.585 298.521 -120.125C294.357 -117.853 286.975 -115.582 286.975 -115.582C286.975 -115.582 290.949 -122.396 295.871 -125.614C299.656 -128.264 311.96 -131.86 315.745 -132.617Z" fill="white"/>
<path d="M274.86 -119.178C278.646 -122.585 282.81 -124.668 291.706 -128.832C287.542 -124.1 283.756 -118.8 279.971 -115.014C275.428 -110.472 268.236 -104.983 268.236 -104.983C268.236 -104.983 270.128 -114.825 274.86 -119.178Z" fill="white"/>
<path d="M270.127 -121.072C270.127 -120.882 263.881 -108.201 259.717 -102.522C255.553 -96.844 250.442 -93.8155 246.657 -90.0299C247.414 -95.7083 249.496 -102.333 253.282 -107.065C257.067 -111.608 263.124 -116.529 270.127 -121.072Z" fill="white"/>
<path d="M181.168 -42.8993C176.247 -37.5995 168.297 -34.1925 162.808 -34.3817C165.647 -36.4638 172.083 -40.8172 176.436 -46.6849C180.79 -52.5526 183.25 -59.9345 184.386 -67.6949C188.171 -60.313 187.225 -49.3348 181.168 -42.8993Z" fill="white"/>
<path d="M140.66 -45.3592C143.878 -49.3341 147.096 -55.5803 148.421 -60.6909C152.017 -55.5803 148.61 -45.1699 140.66 -45.3592Z" fill="white"/>
<path d="M130.631 -46.4944C133.47 -50.28 135.741 -54.4441 136.498 -58.9868C140.095 -55.5798 137.255 -45.7373 130.631 -46.4944Z" fill="white"/>
<path d="M90.6928 38.4909C90.6928 38.4909 86.3394 16.5345 87.2858 8.96327C93.7213 21.0772 107.349 26.9448 106.214 36.9766C106.214 36.9766 101.86 34.7053 96.7498 29.0269C96.7498 29.0269 97.8855 37.923 102.239 44.1693C109.242 42.655 115.488 43.2229 120.978 47.387C117.949 49.2798 101.292 44.3585 96.9391 55.1475C87.8537 50.0369 81.4181 39.4373 81.4181 29.0269L90.6928 38.4909Z" fill="white"/>
<path d="M95.9918 60.827C85.96 61.3948 80.8495 54.77 78.7674 45.1168C83.4994 50.7952 89.9349 56.6628 95.9918 60.827Z" fill="white"/>
<path d="M261.988 96.0316C268.991 89.7854 276.373 89.4068 279.78 87.1355C277.13 93.0031 268.991 97.1673 261.988 96.0316Z" fill="white"/>
<path d="M271.452 82.7826C274.291 78.4292 282.619 75.9685 286.973 72.7508C285.458 79.7541 276.941 83.1612 271.452 82.7826Z" fill="white"/>
<path d="M348.302 110.796C346.031 103.414 343.949 87.5145 347.924 77.1041C350.574 87.1359 352.277 101.9 348.302 110.796Z" fill="white"/>
<path d="M361.74 83.5397C362.308 72.9401 360.794 57.6085 367.04 44.9267C368.176 54.58 368.554 73.8865 361.74 83.5397Z" fill="white"/>
<path d="M397.701 33.9487C399.215 43.9805 402.812 54.7695 409.815 62.3406C403.001 60.8264 398.837 55.5266 397.133 50.6053C395.998 46.6304 394.483 40.3842 397.701 33.9487Z" fill="white"/>
<path d="M424.391 133.509C425.148 124.992 428.744 117.61 433.097 112.121C432.53 121.774 430.448 129.345 429.69 135.592C428.365 145.434 428.933 151.87 427.987 158.494C425.148 149.977 423.823 139.756 424.391 133.509Z" fill="white"/>
<path d="M451.269 163.037C445.78 159.062 444.455 152.059 446.158 147.138C448.24 151.68 452.215 156.791 456.001 159.63C460.543 163.037 463.761 164.362 470.954 167.012C465.843 167.958 456.19 166.444 451.269 163.037Z" fill="white"/>
<path d="M469.061 161.713C463.383 160.388 459.786 157.17 458.461 152.06C467.736 158.117 476.254 159.063 485.15 159.063C482.878 160.767 476.064 163.417 469.061 161.713Z" fill="white"/>
<path d="M589.254 160.387C586.036 160.955 580.169 160.955 575.058 160.009C569.948 159.062 565.783 157.548 562.376 154.709C562.376 154.709 569.948 153.952 574.869 154.898C579.79 156.034 584.143 158.305 589.254 160.387Z" fill="white"/>
<path d="M549.692 136.537C553.478 137.673 557.642 139.187 562.563 141.647C565.213 143.162 574.488 149.029 576.381 151.49C572.027 150.544 566.538 149.219 563.131 147.515C558.399 145.244 554.424 141.458 549.692 136.537Z" fill="white"/>
<path d="M556.319 121.395C550.262 114.959 546.476 104.17 546.476 99.6275C550.83 103.981 554.426 108.902 559.915 115.338C565.404 121.773 577.14 135.78 578.843 138.43C571.461 135.591 562.186 127.83 556.319 121.395Z" fill="white"/>
<path d="M563.889 97.5466C559.347 89.5968 553.1 79.3757 551.397 73.3188C556.697 77.483 566.161 88.8397 568.432 92.8146C573.164 100.575 577.896 114.014 579.221 121.585C575.435 118.367 568.432 105.875 563.889 97.5466Z" fill="white"/>
<path d="M565.215 81.0801C559.915 74.6446 556.319 69.1555 551.208 62.1522C555.372 64.2343 566.54 72.9411 570.515 78.4302C574.49 83.73 579.222 94.3297 580.736 101.333C576.382 96.4118 570.515 87.5156 565.215 81.0801Z" fill="white"/>
<path d="M562.944 39.6271C560.673 38.3021 553.48 32.813 549.127 26.9454C553.48 28.4596 560.105 31.1095 565.405 35.4629C570.705 39.8164 573.166 43.2234 574.301 45.8733C570.137 44.5484 566.162 41.5199 562.944 39.6271Z" fill="white"/>
<path d="M554.235 24.6746C549.692 21.8354 545.15 18.0498 541.175 14.832C545.717 15.7784 551.585 17.6712 556.885 21.0783C561.995 24.4853 565.592 27.703 567.295 30.353C562.942 29.028 558.778 27.5138 554.235 24.6746Z" fill="white"/>
<path d="M690.14 128.777C690.14 128.777 709.257 140.891 716.828 142.216C716.828 142.216 701.497 132.184 696.386 119.692C696.386 119.692 712.854 132.563 723.075 135.591C723.075 135.591 707.743 122.531 703.39 112.121C703.39 112.121 723.832 128.967 731.024 130.291C731.024 130.291 716.071 118.178 711.907 105.496C711.907 105.496 728.753 120.638 737.649 122.72C737.649 122.72 720.614 108.903 717.775 99.0604C717.775 99.0604 707.364 92.2463 703.011 88.0822C711.529 90.1642 717.207 93.9498 722.318 97.9247C722.318 97.9247 733.296 110.606 748.438 116.663L744.652 119.313C744.652 119.313 752.413 126.506 761.688 129.913L756.198 133.698C756.198 133.698 766.987 138.809 778.534 138.998C768.88 151.491 742.949 149.409 742.949 149.409L745.031 153.762C735.756 153.384 724.778 146.191 724.778 146.191L727.428 153.951C712.286 151.491 693.358 138.241 690.14 128.777Z" fill="white"/>
<path d="M208.044 63.2856C208.044 63.2856 215.616 61.2035 223.187 61.2035C221.105 57.0394 216.941 50.7931 209.559 49.4682C210.127 51.1717 211.262 55.1466 209.937 57.9857C202.934 45.6826 195.363 46.0612 195.363 46.0612C198.391 50.4146 198.959 55.1466 198.581 58.5536C196.309 54.3894 187.034 44.7362 176.813 47.3861C184.006 50.6039 186.277 54.5787 186.845 59.6893C181.545 55.1466 166.403 49.6575 159.778 57.2286C168.296 56.2822 173.217 59.6893 175.11 62.907C167.539 63.0963 166.214 66.1248 161.86 68.3961C150.882 74.0745 140.661 70.2889 136.686 76.7244C139.336 76.3459 154.857 77.8601 161.482 75.2102C157.885 79.9422 149.936 79.5636 145.014 79.7529C140.282 79.9422 133.468 80.3207 128.926 84.1063C135.74 84.2956 143.5 85.4313 149.368 85.4313C144.068 90.9204 124.762 85.242 119.462 90.9204C123.815 91.2989 128.358 92.8132 132.333 93.381C127.411 96.9773 116.623 92.6239 111.891 97.7344C113.973 97.9237 117.38 99.6272 120.219 100.574C116.055 102.656 109.241 100.384 105.455 104.738C107.159 104.927 110.376 105.873 112.269 107.956C108.483 108.334 102.616 109.091 100.534 112.688C107.537 114.77 106.212 124.991 98.4517 129.533C103.184 121.773 101.859 116.662 95.991 116.095C88.6091 115.337 76.306 118.934 67.4098 124.801C74.981 112.12 96.1803 113.255 98.8302 108.145C88.2306 108.145 77.0631 111.552 72.7097 115.716C74.2239 108.902 78.1988 103.413 80.8487 99.438C83.6879 95.4631 90.8805 86.3777 93.5304 78.9958C88.7984 75.9673 88.0413 72.371 88.0413 72.371C95.4232 70.8568 96.9374 66.8819 96.9374 66.8819C89.177 65.9355 84.2557 64.232 77.6309 59.6893C79.5237 65.7462 90.1234 72.9388 79.1452 89.7847C71.7633 101.141 68.3562 108.334 64.5707 118.555C61.5422 126.505 56.0531 130.858 52.8353 133.698C51.6996 134.833 51.6996 136.726 53.0246 137.672C55.296 139.565 58.8923 141.647 62.4886 143.351C63.435 140.701 65.1385 136.915 60.9743 131.615C64.5707 131.805 67.9777 135.212 67.4098 140.322C66.842 144.297 68.3562 146.001 71.0062 146.379C77.2524 147.515 95.6125 142.972 104.509 128.966C110.944 118.934 121.165 111.552 133.847 108.334C140.85 106.631 144.636 107.577 146.529 109.848C148.611 112.498 147.286 116.284 145.961 118.934C142.932 125.748 142.175 131.994 141.797 138.43C141.229 149.218 136.308 166.443 128.736 167.2C132.143 169.282 135.929 166.821 138.39 162.847C140.661 159.25 144.257 151.301 145.393 137.862C145.961 129.533 146.907 125.559 149.936 118.555C152.207 113.445 152.396 109.091 150.504 106.252C148.8 103.981 146.339 101.709 140.093 101.899C144.257 99.438 151.071 100.763 153.532 104.17C156.371 107.956 156.371 113.823 153.532 120.259C150.693 126.505 150.125 129.723 149.368 138.24C147.664 157.357 143.689 164.55 138.579 169.661C145.772 169.471 150.504 163.604 152.207 156.411C154.668 146.569 158.075 133.887 159.589 129.533C161.103 124.801 163.564 121.962 166.024 120.069C171.703 115.716 170.189 111.173 175.867 106.82C167.728 106.063 166.782 116.473 159.4 117.987C165.835 111.173 165.457 102.656 174.163 98.6808C182.87 94.706 191.766 97.1666 195.173 99.8165C193.849 93.1917 184.952 89.0276 174.163 90.3525C180.031 84.6741 196.12 88.2705 205.395 93.5703C203.313 87.7026 197.445 82.4028 183.817 80.51C192.524 77.103 205.962 81.0779 214.101 84.6742C211.452 78.9958 201.42 73.8852 192.713 72.371C200.473 69.7211 212.019 70.2889 218.833 72.5603C216.751 67.8283 208.044 63.2856 208.044 63.2856ZM160.157 106.631C159.4 99.438 163.942 94.3274 169.621 94.1381C166.214 96.9773 162.807 102.088 160.157 106.631Z" fill="white"/>
<path d="M457.703 6.3147C467.167 6.69325 473.035 18.05 470.196 28.6497C468.492 20.3214 465.842 12.7502 457.703 6.3147Z" fill="white"/>
</g>
<defs>
<clipPath id="clip0_1443_723">
<rect width="200" height="200" fill="white" transform="matrix(1 0 0 -1 0 200)"/>
</clipPath>
</defs>
</svg>
