<svg width="200" height="200" viewBox="0 0 200 200" fill="none" xmlns="http://www.w3.org/2000/svg">
<g clip-path="url(#clip0_211_1972)">
<path d="M568.689 131.995L575.125 127.641C575.125 127.641 563.2 126.316 554.115 119.691L561.307 114.392C561.307 114.392 550.14 113.256 540.865 105.685C545.408 105.117 549.004 102.467 549.004 102.467C549.004 102.467 540.297 99.4385 530.644 84.6747L537.458 85.9996C537.458 85.9996 530.833 74.8322 521.37 64.9897L526.669 65.1789C526.669 65.1789 518.72 53.065 507.552 43.4118L512.852 43.7903C512.852 43.7903 507.552 32.6229 491.085 17.6698L500.549 19.184C500.549 19.184 487.489 4.6095 465.911 -9.01863L477.078 -9.96503C477.078 -9.96503 467.803 -18.6719 436.572 -29.0822L446.226 -34.7606C446.226 -34.7606 435.247 -39.1141 419.727 -39.8712L425.594 -43.846C425.594 -43.846 412.723 -47.0638 397.959 -46.3067L404.206 -54.8242C404.206 -54.8242 384.521 -50.6601 380.546 -49.5244L382.817 -58.6098C382.817 -58.6098 362.753 -45.3603 338.336 -45.3603C330.576 -45.3603 323.005 -46.4959 316.191 -48.7673C318.462 -50.8494 319.976 -53.8778 319.976 -53.8778C319.976 -53.8778 304.645 -57.4742 297.073 -61.449C301.995 -64.2882 305.591 -68.2631 305.591 -68.2631C305.591 -68.2631 293.099 -69.7773 280.228 -76.9699C280.228 -76.9699 284.392 -79.4306 287.609 -83.4054C287.609 -83.4054 276.631 -84.3518 266.599 -88.8945C266.599 -88.8945 272.656 -92.4909 273.603 -94.7622C273.603 -94.7622 261.489 -95.33 248.996 -99.8728C248.996 -99.8728 253.918 -102.144 257.135 -104.983C244.643 -105.74 232.529 -109.905 223.065 -114.447C213.412 -119.179 179.909 -133.943 145.461 -135.079L146.785 -140C146.785 -140 131.075 -138.296 121.611 -135.268L122.179 -139.811C122.179 -139.811 107.983 -136.593 97.9514 -132.997L97.3836 -137.35C97.3836 -137.35 84.134 -132.618 74.4807 -126.183L73.5343 -129.59C73.5343 -129.59 61.9883 -122.965 55.9314 -117.097L55.1742 -122.397C55.1742 -122.397 43.8175 -115.772 36.2463 -106.876L35.8677 -114.258C35.8677 -114.258 24.7002 -108.201 18.2647 -95.8979L16.3719 -103.091C16.3719 -103.091 7.66507 -97.4121 3.31165 -84.9197L0.472458 -93.6265C0.472458 -93.6265 -8.23439 -83.9733 -10.695 -70.913C-12.02 -75.2664 -18.6448 -84.1626 -18.6448 -84.1626C-18.6448 -84.1626 -19.5912 -69.3988 -22.6196 -61.0705C-23.9446 -68.8309 -30.3801 -79.9984 -30.3801 -79.9984C-30.3801 -79.9984 -31.1372 -69.2095 -35.6799 -60.6919C-36.437 -68.2631 -42.3047 -77.9163 -42.3047 -77.9163C-42.3047 -77.9163 -43.0618 -68.6416 -46.4688 -62.774C-48.7402 -68.4524 -56.1221 -75.645 -56.1221 -75.645C-56.1221 -75.645 -54.9864 -65.6132 -57.6363 -60.6919C-61.0434 -65.4239 -69.5609 -69.588 -69.5609 -69.588C-69.5609 -69.588 -65.7754 -55.9599 -76.1857 -47.0638C-86.7854 -48.1995 -98.71 -49.5244 -105.713 -51.7958C-114.609 -54.635 -123.127 -51.7958 -122.748 -42.8996C-127.102 -43.4675 -131.266 -44.0353 -135.241 -44.7924C-142.812 -46.3067 -145.841 -42.8996 -146.787 -41.3854C-148.869 -38.1676 -148.301 -33.4357 -145.083 -29.2715C-138.837 -21.1325 -126.345 -10.7221 -117.07 0.634644C-118.774 6.69157 -118.395 15.2092 -117.827 21.4554L-124.641 14.452C-124.641 14.452 -125.209 26.5659 -122.37 37.3548L-128.805 33.0014C-128.805 33.0014 -127.859 45.1153 -123.884 53.2543C-123.884 53.2543 -126.913 52.4972 -130.509 50.6044C-129.752 56.4721 -128.238 61.5826 -124.073 68.586C-121.234 73.3179 -120.477 78.4285 -125.398 87.5139C-130.698 96.9779 -134.862 102.467 -140.351 116.852C-142.434 122.72 -146.598 126.316 -149.626 128.777C-154.547 133.13 -153.98 139.755 -149.626 142.973C-144.516 146.569 -135.619 151.49 -129.941 152.437C-123.884 153.572 -115.177 151.49 -107.228 147.137C-100.792 150.733 -88.1103 152.247 -79.4035 147.326C-83.9462 142.405 -88.6782 135.969 -90.9495 132.562C-86.0283 124.613 -80.5391 120.449 -73.7251 117.231C-71.4537 116.095 -68.236 119.313 -70.6966 122.531C-73.5358 126.505 -74.8608 130.291 -75.6179 134.455C-75.9964 137.294 -75.2393 144.108 -74.1036 148.651C-73.5358 151.112 -74.2929 152.626 -75.9964 153.383C-79.0249 154.33 -83.1891 155.276 -91.1388 155.465C-88.1103 161.333 -83.7569 165.876 -76.9428 168.715C-75.4286 171.554 -71.643 175.529 -64.0718 175.529C-52.3365 175.529 -45.1439 169.093 -42.494 157.926C-40.2226 148.273 -36.6263 135.78 -35.3013 131.427C-34.1657 128.02 -32.4622 126.316 -30.3801 124.234C-29.0551 122.909 -27.5409 121.395 -26.216 119.502C-25.2696 118.177 -24.7017 116.852 -24.1339 115.717C-22.4304 112.499 -19.9697 108.524 -14.8592 109.092C-16.1841 105.495 -18.4555 103.413 -20.5376 102.278C-12.5878 100.953 -3.88097 104.36 -1.23105 113.256C-0.0953674 109.281 1.22957 102.656 0.283173 97.9243C2.55453 98.6814 7.28651 101.142 10.8828 106.442C11.6399 102.846 11.8292 95.2743 9.74715 89.7852C12.2078 90.5424 17.1291 92.4352 20.9146 96.5993C21.4825 90.9209 20.9146 84.4854 16.7505 78.6178C18.8326 78.6178 22.8074 79.1856 27.7287 81.0784C27.3501 76.9143 24.8895 71.4252 21.2932 66.8824C22.9967 66.8824 26.9716 67.0717 31.325 68.0181C30.5679 64.4218 29.243 60.4469 27.1609 56.8506C38.5176 63.6647 45.1424 71.2359 45.1424 71.2359C42.8711 82.4033 35.1106 108.335 33.4071 114.959C31.5143 121.584 30.9465 125.37 34.7321 132.941C40.2212 143.919 49.8744 148.083 58.7705 145.244C68.2345 142.405 71.263 140.701 81.8626 135.591C93.9765 129.723 97.3836 121.963 96.2479 115.717C100.412 104.738 94.7337 93.3816 94.7337 93.3816C94.7337 93.3816 90.7588 99.06 87.9196 100.953C86.4053 97.1672 82.2412 93.5708 82.2412 93.5708C86.9732 85.8104 91.7052 77.1035 94.3551 68.586C98.7085 68.7752 102.305 67.4503 102.305 67.4503C102.305 67.4503 97.7621 63.6647 95.8693 60.6362C102.494 61.3933 111.769 61.5826 118.394 58.1756C115.365 68.0181 112.904 80.6998 111.579 92.2459C108.551 119.691 99.6549 137.294 98.33 145.055C96.4371 155.844 99.4656 163.604 108.93 173.636C119.908 185.371 129.75 186.318 137.511 180.45C147.921 172.5 157.007 169.661 167.606 168.715C178.963 167.768 189.941 165.497 191.077 152.058C201.677 144.298 198.27 131.995 198.27 131.995C198.27 131.995 193.727 133.887 187.102 136.159C187.859 127.83 185.02 121.016 185.02 121.016C185.02 121.016 181.802 124.423 177.827 127.452C175.935 123.477 170.256 117.609 170.256 117.609C170.256 117.609 168.363 123.856 163.442 129.912C158.332 129.912 151.328 132.184 145.65 135.78C150.571 119.313 157.385 100.574 167.606 84.864C171.203 79.5642 182.938 62.3397 185.588 58.1756C193.916 64.0432 197.512 64.4218 206.219 67.261C214.926 69.9109 217.008 75.5893 213.601 92.4352C211.898 101.331 208.491 117.799 208.491 117.799C208.491 117.799 214.169 114.959 215.115 114.392C209.816 138.241 213.601 148.84 213.601 148.84C213.601 148.84 218.333 143.351 218.712 142.973C219.847 157.926 226.094 170.608 226.094 170.608C226.094 170.608 230.447 163.983 231.204 163.226C240.29 178.936 257.325 178.368 257.325 178.368L255.81 171.175C267.167 173.825 278.524 171.365 278.524 171.365L276.631 167.201C280.417 166.633 284.392 165.497 288.934 163.604C289.313 178.557 279.66 209.031 276.253 219.631C269.628 240.262 273.603 253.701 280.795 258.433C284.392 269.033 292.341 272.061 298.588 271.304C301.805 273.954 308.809 276.983 314.487 273.197C318.841 270.547 320.923 265.058 319.976 259.758C323.383 255.405 323.573 248.401 317.705 237.802C311.08 225.688 308.809 220.388 317.894 179.693C325.655 185.939 338.336 192.375 338.336 192.375L337.201 186.886C348.747 192.564 358.778 200.135 359.725 213.385C361.996 244.237 356.129 270.926 352.722 286.825C351.586 291.746 350.829 295.532 350.639 297.993C349.315 310.296 353.1 315.217 357.075 319.76C358.589 325.627 360.861 333.766 372.974 334.334C377.517 339.823 385.467 341.148 390.388 339.066C395.688 336.606 398.149 332.252 398.338 325.06C404.016 321.653 404.773 313.514 400.799 302.346C394.363 285.122 388.874 270.169 394.931 232.881C396.634 221.902 398.906 213.385 400.609 206.571C405.152 188.778 407.423 179.882 393.417 165.876C398.716 164.551 404.016 161.522 404.016 161.522C404.016 161.522 387.549 156.79 376.381 144.676C383.195 147.326 391.713 147.515 391.713 147.515C391.713 147.515 383.574 139.376 378.842 129.345C380.356 130.291 389.063 133.698 389.063 133.698C389.063 133.698 383.196 117.988 380.924 109.66L388.117 115.717C388.117 115.717 386.224 99.0599 384.142 92.0566L388.874 94.328C388.874 94.328 385.656 81.0784 382.817 73.5072L386.792 74.2643C386.792 74.2643 383.006 59.8791 377.896 52.1186H381.871C381.871 52.1186 379.221 42.6547 373.353 35.6513L376.381 35.2728C376.381 35.2728 371.649 24.8624 362.185 16.9127L364.646 15.5877C364.646 15.5877 355.561 9.15219 350.072 -1.06889C378.464 6.69156 385.845 31.1086 385.845 31.1086L388.874 27.323C395.688 39.0583 399.852 56.4721 399.852 56.4721L403.259 53.2543C406.477 62.7183 415.562 81.6462 415.562 81.6462L418.591 76.5357C422.944 89.0281 431.651 106.442 431.651 106.442L433.922 102.088C440.169 115.338 452.472 128.777 452.472 128.777L452.661 124.045C460.043 134.644 472.346 146.001 472.346 146.001L472.157 139.566C477.457 144.676 483.324 149.408 492.221 154.519L491.842 147.894C502.82 154.897 516.638 160.576 516.638 160.576L514.745 156.033C522.695 159.44 535.376 162.469 535.376 162.469L533.862 157.926C541.055 160.197 553.547 160.197 553.547 160.197L551.276 155.276C585.725 152.626 593.106 131.616 593.106 131.616C593.106 131.616 581.56 136.159 568.689 131.995Z" fill="#101010"/>
<path d="M447.928 113.634C439.032 102.277 435.247 87.5137 435.247 87.5137L432.218 93.7599C425.972 81.646 420.672 62.5288 420.672 62.5288L416.697 69.5321C411.587 58.7432 407.044 43.033 407.044 43.033L403.258 46.44C396.255 25.43 390.009 17.8588 390.009 17.8588L387.737 20.698C383.195 13.1268 370.513 -2.96188 345.907 -8.07243C362.563 -8.82955 381.302 1.95938 388.305 11.6126C390.009 9.71983 390.766 7.82704 390.766 7.82704C398.526 15.0197 405.719 33.3797 405.719 33.3797L410.262 27.1336L418.022 53.6327L422.754 47.1972L431.84 79.3747L436.761 72.182L445.279 98.6812L447.361 90.9207C447.361 90.9207 453.796 106.82 462.314 118.745L463.639 114.391C463.639 114.391 474.238 129.155 485.406 141.837C477.835 138.241 465.721 125.748 465.721 125.748V130.48C456.257 121.016 448.685 106.252 448.685 106.252L447.928 113.634Z" fill="white"/>
<path d="M395.5 204.678C393.797 211.681 391.525 220.388 389.822 231.556C383.576 270.358 389.633 286.636 396.068 303.86C397.204 307.078 400.232 317.678 393.418 320.895C394.175 326.763 393.039 331.684 388.875 333.388C385.468 334.902 379.601 333.009 376.004 328.277C365.026 327.899 363.89 320.895 363.133 316.542C359.537 311.999 356.13 307.457 357.076 298.182C358.212 287.961 368.622 244.427 366.351 212.817C365.026 194.646 348.37 183.668 330.388 176.854L331.334 181.396C318.463 174.015 307.485 160.008 307.485 160.008L307.107 167.011C295.939 158.494 292.154 147.326 292.154 147.326L289.504 151.68C281.554 138.43 281.554 123.098 281.554 123.098L276.633 128.02C275.497 111.931 277.958 95.2743 277.958 95.2743L272.847 98.8706C272.469 84.4854 279.093 64.2325 279.093 64.2325L273.604 67.0717C273.036 56.472 278.336 40.0047 278.336 40.0047L273.415 41.5189C277.579 27.323 278.336 16.5341 276.065 9.71999C271.711 -3.34029 258.273 -4.2867 250.701 -4.66525C262.437 -9.39723 279.661 -3.90813 281.554 13.5056C281.554 13.5056 285.529 9.90926 287.043 3.47375C291.207 15.2091 281.932 17.4805 280.229 33.5692C284.772 28.4587 290.261 28.6479 290.261 28.6479C290.261 28.6479 279.85 47.3866 280.608 57.4184C286.475 48.7116 293.1 47.7652 293.1 47.7652C289.125 53.8221 282.5 69.7216 280.608 82.214C280.797 82.214 290.071 69.5323 294.236 67.261C286.097 84.2961 280.986 102.088 282.69 111.742C282.879 111.742 287.989 94.5172 296.318 88.6496C285.34 112.499 287.043 130.67 290.639 137.862C291.207 118.745 297.075 113.256 297.075 113.256C297.075 113.256 293.1 144.298 304.078 156.412C301.996 149.03 302.753 139.755 304.457 135.212C307.296 151.869 316.76 164.929 323.953 168.904C323.953 168.904 316.381 156.79 316.949 147.894C323.195 160.386 330.199 169.093 339.663 175.34C339.663 175.34 338.148 170.797 335.499 165.497C342.123 170.418 352.912 178.936 361.43 189.535L360.105 179.882C360.105 179.882 369.569 187.643 371.651 208.085C373.544 226.445 368.055 262.03 364.837 283.418C362.566 298.56 361.43 307.835 370.137 313.324C370.137 313.324 367.298 300.453 371.272 293.071C371.272 293.071 373.922 319.76 386.604 326.006C386.604 326.006 377.329 307.457 379.601 292.314C379.601 292.314 386.415 310.674 392.661 313.135C386.415 295.154 383.386 277.929 383.386 255.215C383.386 237.613 388.875 214.142 386.793 206.76C381.683 220.199 378.086 247.455 377.708 273.576C372.976 266.194 376.951 219.631 381.494 205.056C377.519 203.164 372.597 198.621 372.787 190.103C379.979 202.974 391.715 200.514 392.85 190.103C394.365 177.232 377.708 175.34 372.597 165.308C383.765 173.068 399.286 172.879 399.286 186.696C398.718 191.618 397.393 197.107 395.5 204.678Z" fill="white"/>
<path d="M314.109 257.866C315.056 260.326 316.191 266.194 312.027 268.465C307.295 270.737 302.374 266.762 300.67 265.247C297.074 266.194 289.124 265.247 286.096 254.459C280.039 250.294 275.875 240.83 282.121 221.145C287.989 202.785 295.371 178.179 295.181 163.794C296.317 164.929 297.453 166.065 298.588 167.201C298.778 178.179 291.585 206.192 287.232 220.199C282.878 234.395 284.014 245.373 289.882 251.051C288.367 244.427 288.178 231.934 291.396 227.202C290.071 246.698 298.967 257.866 308.242 262.219C300.86 251.43 295.371 241.02 297.453 227.959C299.346 238.559 305.024 247.834 311.459 249.916C305.781 240.073 301.049 229.663 302.185 216.413C303.51 199.378 308.431 175.718 308.431 175.718L312.974 179.315C303.699 221.145 306.917 228.149 313.352 240.263C319.598 252.376 316.759 256.541 314.109 257.866Z" fill="white"/>
<path d="M233.288 152.815C231.584 145.811 233.666 137.672 237.452 133.698C235.938 149.976 242.373 160.575 250.702 171.932C242.184 169.85 234.991 159.818 233.288 152.815Z" fill="white"/>
<path d="M217.954 135.781C217.954 128.21 220.037 118.557 221.929 110.985C224.011 103.414 228.743 94.3288 231.393 91.6788C231.015 96.9787 226.661 110.985 225.904 113.825C224.011 120.26 220.794 129.156 217.954 135.781Z" fill="white"/>
<path d="M192.023 47.1981C192.78 50.9837 194.294 54.58 196.187 57.7977C190.698 56.0942 188.616 51.9301 192.023 47.1981Z" fill="white"/>
<path d="M170.257 70.8565C173.664 57.7962 169.689 39.4361 173.285 31.6756C174.043 35.0827 177.26 45.8716 178.775 49.6572C182.371 41.3289 174.8 27.7008 177.639 18.6154C179.721 22.9688 183.507 29.4043 186.914 35.8398C189.563 26.7543 180.289 15.5869 182.182 5.1765C184.831 9.34065 188.239 15.5869 191.835 21.076C192.403 11.4227 189.753 -4.28748 184.453 -13.9407C181.235 -19.9977 169.689 -37.4114 143.001 -38.3578C153.79 -41.7648 167.796 -38.9256 180.667 -28.1367C193.538 -17.1585 197.324 -0.501892 209.059 3.28369C204.327 6.88 199.027 5.55505 194.674 0.633789C194.674 5.93361 197.892 10.0978 203.002 11.8013C199.027 14.6405 196.378 19.9403 195.431 23.3473C191.267 36.4076 183.507 53.2535 170.257 70.8565Z" fill="white"/>
<path d="M155.303 95.0853C154.167 90.164 150.571 69.9111 158.331 59.6901C157.574 73.1289 159.467 86.1892 155.303 95.0853Z" fill="white"/>
<path d="M153.602 137.863C160.037 135.592 166.662 138.809 171.205 144.298C171.016 140.513 169.312 137.295 166.662 134.645C166.662 134.645 169.312 132.374 170.826 128.21C173.287 131.995 173.287 138.62 173.287 138.62C173.287 138.62 178.019 135.97 180.669 132.374C181.615 138.809 179.912 143.163 179.912 143.163C179.912 143.163 185.401 143.352 191.268 139.756C191.079 143.92 188.24 147.327 185.401 148.084C185.969 158.305 181.047 160.766 167.041 162.469C138.649 165.687 135.052 180.451 124.642 177.612C134.106 172.69 137.702 167.012 150.763 161.523C160.984 157.169 179.722 159.63 175.748 147.895C172.341 156.223 156.252 150.734 137.892 159.441C142.245 144.109 147.166 140.134 153.602 137.863Z" fill="white"/>
<path d="M104.766 157.925C102.495 153.004 103.063 147.136 104.577 143.161C111.769 124.612 115.366 108.523 117.259 93.0024C119.151 79.3743 121.423 57.6071 131.644 52.3073C131.644 52.3073 131.265 62.1499 133.726 68.7747C130.13 67.639 128.426 61.7713 128.426 61.7713C128.426 61.7713 125.208 69.5318 128.426 81.8349C125.776 80.8885 124.262 78.4279 124.262 78.4279C124.262 78.4279 121.991 88.0812 124.64 98.4915C122.369 97.9237 120.666 95.4631 120.666 95.4631C120.666 95.4631 118.016 108.713 121.044 118.177C118.205 117.419 116.501 114.77 116.501 114.77C116.501 114.77 114.609 126.694 116.691 136.158C114.041 135.401 112.148 132.562 112.148 132.562C111.202 136.915 110.823 144.297 114.609 151.868C111.959 151.49 110.255 149.408 108.93 148.083C105.902 156.033 115.555 167.389 119.151 174.96C112.905 171.364 106.28 161.332 104.766 157.925Z" fill="white"/>
<path d="M94.1675 46.4418C98.5209 52.3095 109.121 55.1486 109.121 55.1486C104.956 55.7165 95.1139 56.6629 80.5394 48.5238C82.0536 52.8773 89.057 61.2056 90.3819 62.7198C81.1072 61.5841 67.1005 47.0096 67.1005 47.0096C67.1005 47.0096 69.5612 54.9594 73.9146 62.7198C67.8577 59.1235 58.3937 47.7667 50.2547 38.6813C40.7907 27.8924 30.1911 17.2928 26.4055 6.88239C33.4088 14.2643 57.0687 39.4384 62.3686 40.7634C57.4473 33.3815 45.1441 18.4284 42.4942 8.20734C56.1223 24.6747 67.4791 36.41 74.2932 40.5741C70.6969 34.8957 61.0436 22.0247 56.8795 9.15373C68.047 22.9711 82.2429 35.8421 85.6499 36.0314C81.1072 31.4887 72.0218 18.9963 68.0469 8.77519C79.593 20.3212 89.2462 28.0817 94.5461 29.9745C88.1106 22.214 83.7571 17.482 79.2144 8.01807C87.1642 15.4 95.4925 21.4569 102.117 22.5926C102.117 22.5926 92.0854 12.9393 88.4891 5.55742C98.1424 13.1286 106.471 15.9678 107.985 15.7785C105.524 13.6964 100.224 9.15373 97.0067 3.47534C108.931 10.8572 115.556 10.8573 119.91 10.8573C131.834 10.8573 141.109 5.93599 147.923 4.98958C141.487 14.075 132.781 18.2392 128.995 20.3212C135.998 21.6462 145.084 19.5641 145.084 19.5641C139.973 26.1889 133.916 29.9745 122.37 33.3815C128.427 35.6529 139.405 35.085 139.405 35.085C133.538 40.3849 124.642 42.4669 109.499 42.0884C115.935 46.8204 127.291 48.3346 127.291 48.3346C121.424 50.4167 109.31 50.2274 94.1675 46.4418Z" fill="white"/>
<path d="M90.569 115.149C92.2725 121.395 87.9191 126.127 79.78 130.481C66.3412 137.484 56.8772 141.08 51.5774 139.566C59.3378 137.484 88.4869 124.802 85.837 117.042C84.1335 121.963 69.1804 128.588 60.8521 129.913C61.7985 127.641 66.5305 118.556 68.8018 115.717C71.8303 111.931 75.9944 110.228 82.2407 114.392C81.8621 111.742 79.9693 109.849 78.0765 108.524C78.0765 108.524 80.5371 105.496 82.2407 101.71C84.3227 105.496 84.3228 110.606 84.3228 110.606C84.3228 110.606 88.6761 108.714 92.2725 104.739C93.2189 110.228 91.8939 113.067 90.569 115.149Z" fill="white"/>
<path d="M38.8982 116.663C41.3589 107.767 50.4443 76.536 52.1478 64.4221C53.8513 68.5862 54.987 72.3718 52.7156 81.2679C50.255 90.1641 46.4694 104.171 44.0088 113.256C40.6017 125.749 42.116 131.048 46.2801 138.809C40.0339 135.78 36.4376 125.37 38.8982 116.663Z" fill="white"/>
<path d="M-65.9636 152.058C-66.91 151.301 -68.6135 148.083 -68.9921 146.758C-66.5315 145.244 -65.0172 143.919 -65.0172 143.919C-65.0172 143.919 -68.4243 142.215 -69.9385 138.24C-67.4779 138.051 -64.2601 137.673 -61.7995 136.537C-61.7995 139.187 -62.178 141.837 -62.7459 144.297C-63.3137 147.326 -64.2601 149.219 -65.9636 152.058Z" fill="white"/>
<path d="M-61.2303 131.995C-63.6909 129.724 -65.0159 127.263 -65.5837 125.56C-63.8802 125.181 -61.6089 124.803 -59.5268 123.856C-60.2839 126.695 -60.8517 129.345 -61.2303 131.995Z" fill="white"/>
<path d="M-68.236 157.358C-68.4253 158.304 -68.6145 159.44 -68.9931 161.332C-69.3717 163.225 -71.0752 163.982 -73.5358 163.604C-75.9964 163.225 -78.2678 162.468 -80.1606 160.575C-78.0785 160.197 -72.7787 158.872 -68.236 157.358Z" fill="white"/>
<path d="M-101.17 143.163C-98.7093 141.46 -96.438 139.378 -94.3559 137.106C-92.6524 139.378 -90.5703 142.028 -89.056 144.11C-93.5988 145.056 -97.9522 144.11 -101.17 143.163Z" fill="white"/>
<path d="M-140.539 -32.6769C-142.432 -35.1375 -143.379 -37.0303 -141.864 -38.3553C-140.539 -39.6802 -138.268 -38.7338 -136.375 -37.0303C-125.586 -27.1878 -109.119 -6.93488 -109.119 1.39342C-118.583 -9.58479 -136.754 -27.7556 -140.539 -32.6769Z" fill="white"/>
<path d="M-116.31 -46.1184C-114.039 -48.7683 -108.55 -47.8219 -104.197 -45.5506C-99.6538 -43.2792 -82.0508 -32.6796 -81.2937 -32.301C-73.7225 -27.1904 -68.0442 -23.0263 -64.0693 -17.1586C-60.0944 -11.291 -57.823 -5.80186 -56.1195 0.633652C-53.6589 -6.18041 -57.4445 -20.3764 -66.9085 -30.5975C-58.3909 -28.5154 -49.3055 -12.8052 -48.1698 -1.06987C-45.7092 -8.07321 -47.2234 -21.8906 -57.6338 -32.6795C-49.8733 -30.5975 -41.9236 -19.0514 -40.5986 -2.96268C-37.1916 -9.20889 -39.4629 -25.8655 -49.1162 -35.708C-41.7343 -33.2474 -34.5417 -22.837 -33.406 -10.3446C-33.0274 -6.55897 -34.1631 -2.77339 -36.4345 0.255081C-40.2201 5.17635 -46.0877 9.3405 -52.3339 11.8011C-49.3055 19.9402 -39.4629 21.0758 -30.1882 18.6152C-38.7058 26.9435 -56.6874 24.4829 -61.4194 8.20482C-64.4478 -2.39482 -65.3942 -9.39816 -69.9369 -15.0766C-74.2904 -20.9442 -78.2652 -23.4048 -84.7007 -27.9475C-90.5684 -32.1117 -98.8967 -37.2223 -104.386 -40.2507C-109.118 -42.9006 -113.282 -39.4936 -107.793 -33.0581C-107.604 -37.033 -104.575 -37.2222 -101.357 -34.9509C-98.1396 -32.8688 -90.1898 -27.1904 -86.4042 -24.7298C-86.4042 -24.7298 -90.3791 -23.5941 -93.4076 -23.2156C-92.0826 -22.0799 -85.8364 -20.1871 -80.158 -19.9978C-84.7007 -17.5372 -91.3255 -16.0229 -91.3255 -16.0229C-85.8364 -13.1838 -75.0475 -14.3194 -75.0475 -14.3194C-79.0224 -11.1017 -88.8649 -9.01961 -88.8649 -9.01961C-83.3758 -6.18042 -71.8297 -8.07322 -71.8297 -8.07322C-74.6689 -4.47691 -84.7007 -2.39484 -84.7007 -2.39484C-80.5366 -0.123474 -73.5332 -0.502029 -68.9905 -2.20555C-70.8833 6.31203 -85.6471 8.39412 -96.0575 -6.55897C-100.032 -12.4266 -111.957 -31.5439 -114.607 -36.2759C-117.257 -40.8186 -117.825 -44.2256 -116.31 -46.1184Z" fill="white"/>
<path d="M-41.3559 -60.3136C-37.1918 -51.0389 -44.9522 -41.9535 -50.4414 -43.2785C-47.6022 -47.6319 -43.438 -54.6352 -41.3559 -60.3136Z" fill="white"/>
<path d="M-28.6744 -62.207C-24.3209 -50.8502 -35.2991 -37.2221 -42.8703 -39.4935C-35.867 -46.8754 -31.3243 -55.7715 -28.6744 -62.207Z" fill="white"/>
<path d="M-7.0965 -60.3128C-6.1501 -65.6126 -4.25729 -74.5088 -1.22882 -80.9443C-1.22882 -80.9443 1.4211 -72.8053 -1.03954 -58.2307C-2.3645 -49.9024 -6.9072 -41.5742 -12.5856 -38.1671C-9.17856 -45.7383 -8.42145 -52.3631 -7.0965 -60.3128Z" fill="white"/>
<path d="M13.3443 -92.301C13.3443 -92.301 12.0193 -75.8337 10.6944 -64.6662C8.99084 -50.8488 2.74463 -33.0565 -5.58366 -30.5959C2.55534 -45.1704 3.69102 -61.4484 5.01598 -69.7767C6.15166 -78.105 9.55869 -86.8119 13.3443 -92.301Z" fill="white"/>
<path d="M30.758 -103.279C30.758 -103.279 25.6474 -88.7045 23.7547 -80.3762C21.8619 -72.4264 19.2119 -64.4767 15.9942 -58.2305C14.8585 -62.5839 15.0478 -75.2656 17.3191 -81.7011C19.5905 -87.9473 24.3225 -96.8435 30.758 -103.279Z" fill="white"/>
<path d="M50.632 -112.932C50.632 -112.932 42.493 -97.4107 38.8967 -91.1645C35.6789 -85.2968 34.1647 -83.7826 29.8112 -76.4007C28.6756 -80.5648 30.0005 -90.4074 33.2183 -95.1394C36.6253 -99.8713 45.3322 -108.578 50.632 -112.932Z" fill="white"/>
<path d="M165.334 -127.128C162.306 -125.803 156.627 -121.071 146.217 -123.153C153.599 -128.832 159.656 -128.075 165.334 -127.128Z" fill="white"/>
<path d="M184.264 -122.963C179.91 -122.585 172.15 -117.474 161.929 -121.449C167.039 -125.235 176.693 -125.235 184.264 -122.963Z" fill="white"/>
<path d="M205.843 -115.582C201.868 -115.772 192.215 -112.554 179.533 -118.232C186.158 -121.45 198.84 -118.8 205.843 -115.582Z" fill="white"/>
<path d="M220.795 -109.148C227.231 -106.498 237.641 -102.523 241.048 -101.387C234.802 -101.198 225.338 -102.712 218.524 -104.794C211.71 -106.876 208.303 -108.201 201.489 -111.987C207.546 -112.744 214.36 -111.987 220.795 -109.148Z" fill="white"/>
<path d="M512.854 86.1892C506.04 81.268 499.605 76.9145 492.791 71.4254C498.658 72.7504 508.312 76.536 515.315 80.8894C522.318 85.0535 532.35 96.4103 535.757 100.007C529.322 96.9782 521.94 92.814 512.854 86.1892Z" fill="white"/>
<path d="M525.724 78.0493C517.963 76.9137 507.742 71.9924 502.064 68.9639C495.061 65.1783 486.354 59.4999 480.865 52.3073C489.004 55.5251 497.143 57.6071 505.282 62.7177C513.988 68.0175 522.506 75.2102 525.724 78.0493Z" fill="white"/>
<path d="M426.921 -8.82829C420.485 -10.3425 414.996 -11.6675 404.964 -12.4246C412.725 -16.5888 422.567 -14.1281 426.921 -8.82829Z" fill="white"/>
<path d="M438.089 4.04245C430.518 1.96037 426.164 1.20325 416.133 -0.500259C422.947 -4.47514 433.736 -1.44666 438.089 4.04245Z" fill="white"/>
<path d="M450.392 16.1554C443.389 13.6947 437.899 13.1269 428.436 11.6127C434.114 7.44852 445.471 10.0984 450.392 16.1554Z" fill="white"/>
<path d="M463.072 28.8377C455.69 26.9449 450.58 25.6199 441.116 24.295C446.416 20.1308 457.205 22.5915 463.072 28.8377Z" fill="white"/>
<path d="M452.85 36.7883C458.717 34.1384 469.696 38.1133 473.67 44.738C467.046 41.8988 461.178 39.2489 452.85 36.7883Z" fill="white"/>
<path d="M462.883 53.4452C470.644 50.9846 478.783 54.7702 481.622 60.4486C476.701 57.7987 471.211 55.9059 462.883 53.4452Z" fill="white"/>
<path d="M490.516 50.2265C484.46 46.8195 476.32 39.6268 471.778 35.4627C478.592 36.5984 484.838 37.9233 492.22 41.8982C499.413 45.873 507.362 51.93 513.419 57.7977C506.794 56.2834 496.573 53.6335 490.516 50.2265Z" fill="white"/>
<path d="M500.927 36.597C500.927 36.597 488.245 35.4613 478.592 31.4864C472.346 29.0258 462.125 21.4546 460.421 19.1832C465.153 19.7511 476.321 21.8332 481.053 24.2938C487.299 27.7008 500.738 36.4077 500.927 36.597Z" fill="white"/>
<path d="M460.612 12.5586C452.284 8.77303 445.47 3.09465 442.82 1.20184C449.066 1.76968 460.423 4.79816 467.805 8.77303C475.187 12.7479 484.651 19.3727 490.329 24.8618C482.001 19.7512 469.509 16.5335 460.612 12.5586Z" fill="white"/>
<path d="M448.496 -2.39333C439.789 -4.66469 432.029 -10.5324 427.297 -13.7501C433.543 -13.7501 443.196 -11.668 451.903 -8.26099C460.61 -4.85397 477.835 4.23146 484.27 10.667C470.831 4.79929 459.474 0.256592 448.496 -2.39333Z" fill="white"/>
<path d="M429.003 -18.2916C421.432 -19.0487 407.803 -21.1308 407.803 -21.1308C407.803 -21.1308 414.05 -25.1057 427.11 -23.7807C437.52 -22.645 455.691 -16.3988 459.666 -14.1274C447.741 -15.4524 436.574 -17.5345 429.003 -18.2916Z" fill="white"/>
<path d="M411.966 -29.0815C401.556 -27.1887 399.095 -26.6208 393.038 -25.4852C395.688 -29.0815 404.017 -32.8671 411.209 -33.8135C418.402 -34.7599 428.055 -34.7599 432.787 -33.4349C425.594 -31.7314 422.377 -30.9743 411.966 -29.0815Z" fill="white"/>
<path d="M393.797 -34.5701C388.497 -33.0559 382.818 -31.9202 377.519 -31.7309C381.683 -34.9487 387.361 -38.1664 392.283 -39.4914C397.204 -40.6271 401.179 -41.1949 410.075 -40.6271C410.075 -40.4378 400.8 -36.4629 393.797 -34.5701Z" fill="white"/>
<path d="M375.627 -41.9528C379.98 -44.0349 388.876 -46.1169 391.148 -46.3062C386.794 -42.5206 381.495 -38.735 375.816 -36.0851C370.138 -33.4352 367.299 -33.0566 363.134 -32.1102C364.838 -34.7601 371.273 -39.8707 375.627 -41.9528Z" fill="white"/>
<path d="M339.284 -35.3277C329.82 -35.3277 316.759 -37.7884 310.513 -44.981C316.002 -42.5204 328.495 -39.8704 338.526 -39.8704C352.533 -39.8704 365.783 -44.0346 374.49 -47.8202C370.893 -41.574 357.833 -35.3277 339.284 -35.3277Z" fill="white"/>
<path d="M346.287 11.2358C342.123 8.96445 337.012 3.47534 337.012 3.47534C337.012 3.47534 344.773 5.36815 348.369 7.45021C351.965 9.53229 354.994 14.075 354.994 14.075C354.994 14.075 349.315 12.9393 346.287 11.2358Z" fill="white"/>
<path d="M370.325 50.9823C374.868 56.6607 376.761 60.8248 377.897 65.5568C374.111 62.1498 370.515 58.7428 366.54 54.7679C362.565 50.793 358.022 45.3039 352.155 38.1113C361.051 41.7076 365.972 45.1146 370.325 50.9823Z" fill="white"/>
<path d="M367.108 68.3965C365.026 65.9359 355.751 55.7148 351.208 49.2793C356.129 51.5507 365.783 57.9862 371.083 63.8539C376.382 69.7215 379.222 78.6176 380.547 84.1068C377.14 80.889 371.461 73.5071 367.108 68.3965Z" fill="white"/>
<path d="M371.27 121.017C367.485 118.557 360.86 111.175 357.642 106.064C354.803 101.711 350.639 91.3003 349.692 84.6755C353.478 88.4611 357.074 94.1395 361.238 100.386C363.321 103.603 370.135 117.232 371.27 121.017Z" fill="white"/>
<path d="M367.864 139.376C364.457 138.43 360.104 135.969 356.318 133.319C352.533 130.669 348.368 126.695 346.665 123.288C350.64 124.423 354.804 126.316 358.779 129.534C362.754 132.751 366.35 137.105 367.864 139.376Z" fill="white"/>
<path d="M341.743 86.9466C338.714 80.5111 333.793 74.2649 329.818 70.1008C335.496 70.6686 343.068 78.4291 341.743 86.9466Z" fill="white"/>
<path d="M330.199 54.3907C337.013 54.9586 344.395 62.3405 344.016 70.4795C340.042 64.2333 336.634 60.8263 330.199 54.3907Z" fill="white"/>
<path d="M344.773 54.3907C340.609 50.9837 336.634 47.5766 330.199 42.8446C336.067 42.6553 343.638 47.9552 344.773 54.3907Z" fill="white"/>
<path d="M342.501 40.9512C339.661 37.7335 337.579 36.03 332.469 31.298C338.147 31.4873 342.69 36.03 342.501 40.9512Z" fill="white"/>
<path d="M330.199 85.4314C333.795 87.5135 338.716 93.949 339.095 98.3024C334.742 95.8418 331.145 90.3527 330.199 85.4314Z" fill="white"/>
<path d="M334.173 105.305C337.769 107.388 339.851 110.795 340.041 114.391C336.066 112.877 334.551 109.848 334.173 105.305Z" fill="white"/>
<path d="M217.008 104.55C218.333 98.4932 219.658 93.572 220.226 86.5686C220.794 80.1331 220.226 75.4011 219.28 71.8048C223.444 73.6976 225.715 81.6474 225.147 87.1365C224.579 92.8149 222.119 99.0611 217.008 104.55Z" fill="white"/>
<path d="M138.08 -43.2779C145.462 -47.0635 158.901 -48.1992 166.661 -46.685C174.422 -45.36 181.425 -41.7637 185.968 -36.4639C185.968 -36.4639 179.154 -37.7888 166.093 -41.5744C158.712 -43.6565 151.708 -44.2243 138.08 -43.2779Z" fill="white"/>
<path d="M164.956 -19.0498C161.359 -26.0531 155.87 -29.4601 141.485 -30.4065C145.46 -32.2993 151.327 -33.0564 157.384 -31.1636C162.306 -29.8387 165.902 -25.6746 164.956 -19.0498Z" fill="white"/>
<path d="M172.908 15.5871C171.015 7.82661 168.365 2.71606 162.686 -3.53015C168.743 -4.09799 177.261 6.31238 172.908 15.5871Z" fill="white"/>
<path d="M160.036 10.2886C166.85 11.0458 171.771 21.8347 167.607 29.9737C166.093 20.699 163.254 15.0206 160.036 10.2886Z" fill="white"/>
<path d="M160.224 44.9269C160.224 36.7879 157.764 27.8917 155.492 24.4847C162.117 25.4311 165.335 37.9235 160.224 44.9269Z" fill="white"/>
<path d="M142.624 126.506C139.406 119.502 135.999 108.145 138.46 98.4921C142.435 104.171 145.652 117.988 142.624 126.506Z" fill="white"/>
<path d="M74.6708 -51.4155C69.1817 -55.3904 69.7496 -62.7723 73.1566 -65.6115C73.5352 -60.8795 74.103 -55.5797 74.6708 -51.4155Z" fill="white"/>
<path d="M28.4868 -21.1317C32.2724 -24.1602 36.2472 -27.1887 39.8435 -31.3528C40.6006 -26.2423 34.9223 -19.8067 28.4868 -21.1317Z" fill="white"/>
<path d="M27.3518 -39.4911C30.7588 -43.6553 32.6516 -46.873 34.923 -52.3621C37.3836 -46.3052 32.4624 -39.3018 27.3518 -39.4911Z" fill="white"/>
<path d="M59.5293 63.2865C52.3367 56.0939 40.0336 40.573 36.0587 35.6517C29.4339 27.5127 15.2379 14.8309 6.53108 8.96327C16.7522 10.2882 34.1659 25.052 40.6014 32.8125C48.9297 43.0336 57.8258 55.1475 59.5293 63.2865Z" fill="white"/>
<path d="M71.4538 100.197C65.7754 107.957 60.6648 117.611 57.0685 125.182C55.365 118.557 60.097 110.797 60.097 110.797L55.7435 110.607C59.7184 105.307 65.2075 101.9 71.4538 100.197Z" fill="white"/>
<path d="M-111.58 97.9245C-107.416 91.2997 -96.4379 93.3818 -89.2453 94.1389C-93.2202 98.6816 -104.766 95.2745 -111.58 97.9245Z" fill="white"/>
<path d="M-120.286 107.767C-115.554 100.385 -105.522 100.196 -95.6799 100.953C-98.5191 105.306 -107.605 102.846 -120.286 107.767Z" fill="white"/>
<path d="M-16.3709 -35.3267C-17.1281 -27.7556 -25.6456 -23.7807 -31.5133 -27.377C-25.8349 -29.2698 -20.1565 -32.2983 -16.3709 -35.3267Z" fill="white"/>
<path d="M-2.17523 34.3259C4.071 29.2153 17.1313 30.5403 22.9989 39.2471C14.2921 36.2187 5.58524 34.7044 -2.17523 34.3259Z" fill="white"/>
<path d="M-13.5319 24.1066C-6.52858 18.9961 4.07106 22.4031 9.18161 27.7029C1.42116 25.9994 -6.71786 24.8637 -13.5319 24.1066Z" fill="white"/>
<path d="M-23.9423 1.01421C-16.9389 -2.77138 -8.79993 -1.06787 -4.63577 4.42123C-10.1249 2.907 -14.6676 1.77133 -23.9423 1.01421Z" fill="white"/>
<path d="M-25.8349 -19.0488C-18.2638 -20.563 -14.0996 -21.3201 -8.04269 -23.9701C-10.1248 -16.7774 -20.9137 -15.4525 -25.8349 -19.0488Z" fill="white"/>
<path d="M-80.9154 71.0472C-71.83 70.4794 -68.8015 66.126 -67.2873 63.2868C-66.7194 70.1008 -72.7764 75.0221 -80.3476 75.0221C-86.9723 75.0221 -92.6507 74.0757 -95.8685 74.4543C-92.6507 70.6687 -86.9723 71.4258 -80.9154 71.0472Z" fill="white"/>
<path d="M-97.9518 20.3196C-102.873 15.5876 -107.226 10.2878 -105.902 2.90588C-102.684 9.53067 -99.6553 12.1806 -94.5447 16.9126C-88.8664 22.2124 -86.2164 27.5122 -87.3521 31.8657C-90.3806 26.3766 -93.2198 25.0516 -97.9518 20.3196Z" fill="white"/>
<path d="M-91.7077 13.1275C-97.7647 8.39552 -102.875 3.66354 -101.55 -4.66475C-97.9539 2.90643 -93.9791 5.93489 -90.9506 8.39552C-84.7044 13.1275 -80.3509 18.2381 -81.4866 25.2414C-84.1365 19.9416 -86.4079 17.4809 -91.7077 13.1275Z" fill="white"/>
<path d="M-104.386 89.4072C-100.222 83.1609 -82.9976 87.3251 -81.8619 87.5144C-85.8368 91.3 -96.6257 88.0822 -104.386 89.4072Z" fill="white"/>
<path d="M-82.0534 83.349C-87.164 83.349 -93.4102 81.0777 -100.035 82.0241C-96.628 76.7242 -88.2997 78.9956 -81.8642 78.9956C-75.6179 78.9956 -72.7787 77.4813 -68.6146 75.0207C-69.9396 79.1848 -75.6179 83.349 -82.0534 83.349Z" fill="white"/>
<path d="M13.9135 44.7366C21.2954 41.1403 30.5701 45.683 34.9235 54.9577C30.1915 51.74 22.8096 47.3865 13.9135 44.7366Z" fill="white"/>
<path d="M45.331 62.5286C39.6526 52.1183 27.9173 39.2473 21.1032 32.2439C11.2607 22.0228 -2.93526 15.7766 -12.7778 13.8838C0.282486 12.1803 12.9642 18.4265 24.321 28.6476C33.0278 36.7866 46.2774 53.0647 45.331 62.5286Z" fill="white"/>
<path d="M2.93402 -15.4525C7.09818 -16.9667 17.8871 -24.1594 21.6727 -28.7021C21.6727 -20.563 10.1266 -13.5597 2.93402 -15.4525Z" fill="white"/>
<path d="M5.96164 -7.50414C13.3435 -7.50414 18.8326 -8.45055 24.1325 -9.96479C21.6718 -4.47568 11.0722 -3.34 5.96164 -7.50414Z" fill="white"/>
<path d="M-4.06926 -9.58692C-10.3155 -6.93701 -17.8867 -6.937 -23.565 -9.39763C-17.8867 -11.4797 -9.93692 -11.669 -4.06926 -9.58692Z" fill="white"/>
<path d="M15.8063 -48.7669C19.2133 -37.4101 8.23508 -22.6463 -1.2289 -22.6463C4.44949 -28.1354 11.4528 -36.8423 15.8063 -48.7669Z" fill="white"/>
<path d="M26.404 -68.2622C30.3789 -64.4766 28.8646 -54.8234 23.9434 -52.552C25.2683 -58.0411 26.0254 -63.1517 26.404 -68.2622Z" fill="white"/>
<path d="M43.817 -81.7002C40.9778 -75.8325 38.1386 -69.397 36.2458 -64.4758C34.1638 -71.4791 39.085 -79.8074 43.817 -81.7002Z" fill="white"/>
<path d="M119.34 -128.452C124.64 -130.156 129.94 -131.859 136.375 -132.806C131.454 -129.777 125.397 -125.234 120.665 -123.531C115.933 -121.827 107.226 -121.449 107.226 -121.449C107.226 -121.449 113.283 -126.37 119.34 -128.452Z" fill="white"/>
<path d="M158.334 -51.0381C148.87 -51.0381 136.756 -48.7667 128.428 -46.6847C131.267 -49.9024 145.463 -55.013 158.145 -55.3915C168.366 -55.7701 176.315 -53.4987 180.669 -49.5238C172.151 -49.3346 166.852 -51.0381 158.334 -51.0381Z" fill="white"/>
<path d="M133.158 -6.17818C126.154 -2.20331 115.365 -0.310516 111.012 -5.61034C121.233 -5.9889 124.451 -7.50314 130.129 -10.5316C135.05 -12.9922 145.082 -18.6706 151.896 -15.0743C147.732 -13.9386 140.918 -10.5316 133.158 -6.17818Z" fill="white"/>
<path d="M105.335 -76.4017C110.445 -80.7552 117.449 -82.8372 121.045 -82.648C116.124 -78.2945 113.095 -77.1589 108.174 -73.7518C103.631 -70.5341 101.171 -68.2627 95.4923 -62.7736C96.8173 -66.7485 100.224 -72.0483 105.335 -76.4017Z" fill="white"/>
<path d="M95.6817 -73.7516C93.7889 -71.1017 91.139 -67.1269 88.8676 -62.0163C88.8676 -65.8019 90.5712 -72.616 92.6532 -75.8337C95.1139 -79.9979 98.3316 -81.8907 102.496 -83.2156C100.792 -79.8086 98.7102 -78.1051 95.6817 -73.7516Z" fill="white"/>
<path d="M118.396 -73.374C126.156 -77.5382 133.728 -79.0524 137.702 -79.2417C133.16 -74.8882 124.264 -71.4812 119.721 -69.5884C114.989 -67.5063 110.257 -65.235 102.875 -59.9352C105.336 -64.6672 110.635 -69.2099 118.396 -73.374Z" fill="white"/>
<path d="M129.941 -67.5052C137.513 -70.3444 153.98 -73.5621 159.28 -72.0479C151.141 -67.6945 138.459 -65.8017 130.509 -63.1517C122.559 -60.6911 119.72 -59.3662 108.742 -54.8234C113.095 -59.1769 122.37 -64.666 129.941 -67.5052Z" fill="white"/>
<path d="M145.652 -62.963C160.605 -65.8022 169.88 -63.7201 174.423 -61.0702C164.391 -59.3667 155.116 -59.9346 146.031 -58.231C136.756 -56.5275 129.942 -54.4454 118.017 -49.9027C122.182 -54.824 137.324 -61.2595 145.652 -62.963Z" fill="white"/>
<path d="M84.5115 -77.159C84.3223 -73.9412 83.7544 -71.4806 82.9973 -67.3164C82.6187 -65.0451 81.8616 -61.4488 81.2937 -57.6632C79.5902 -60.6916 79.0224 -65.9915 79.401 -68.6414C79.9688 -72.427 81.6723 -74.8876 84.5115 -77.159Z" fill="white"/>
<path d="M152.842 -23.4035C149.056 -22.4571 142.999 -21.3214 133.535 -17.5359C127.857 -15.4538 125.396 -14.1288 118.772 -11.4789C121.989 -15.8323 125.586 -20.1858 133.346 -22.8357C140.728 -25.4856 150.76 -24.3499 152.842 -23.4035Z" fill="white"/>
<path d="M130.32 -0.500443C139.216 -4.47531 144.326 -8.45018 150.194 -5.98955C144.137 -3.7182 138.648 1.39235 132.591 4.23154C125.02 7.82785 111.013 7.82785 104.956 0.635239C117.638 4.04227 127.102 1.01379 130.32 -0.500443Z" fill="white"/>
<path d="M126.532 140.322C129.56 144.486 132.778 154.14 130.317 160.197C126.532 155.465 124.26 148.083 126.532 140.322Z" fill="white"/>
<path d="M136.753 143.161C133.346 138.997 129.939 129.912 131.264 119.501C136.185 124.233 138.646 134.833 136.753 143.161Z" fill="white"/>
<path d="M152.842 43.2241C157.006 46.0633 156.438 57.2308 150.949 59.5021C152.274 53.4452 153.031 49.2811 152.842 43.2241Z" fill="white"/>
<path d="M176.125 0.635376C174.8 -3.90732 172.339 -10.3428 169.5 -15.2641C174.232 -14.6963 179.153 -6.74651 176.125 0.635376Z" fill="white"/>
<path d="M204.328 17.86C206.789 31.8667 211.899 45.1162 217.956 49.0911C214.928 40.0057 213.792 28.8382 215.496 18.9957C219.66 33.3809 222.877 46.0627 231.963 53.066C231.963 53.066 224.77 34.8952 228.745 22.2134C232.152 37.5451 235.37 44.7377 239.913 50.9839C244.645 57.4194 253.541 64.612 256.191 72.1832C251.459 68.5869 244.834 64.2335 239.723 62.53C239.723 62.53 241.995 67.8298 241.805 71.2368C236.127 65.937 227.231 62.7192 227.231 62.7192C227.231 62.7192 229.313 66.6941 228.745 70.8582C221.931 63.0978 212.467 64.612 206.221 48.334C203.192 39.8164 201.867 28.0811 204.328 17.86Z" fill="white"/>
<path d="M240.482 25.4314C245.592 41.3308 251.271 45.6843 254.489 48.902C261.87 55.7161 264.899 62.5302 267.17 68.7764C261.303 66.3158 254.867 61.2052 249.189 55.1482C242.185 47.7663 238.021 34.7061 240.482 25.4314Z" fill="white"/>
<path d="M263.383 46.6312C260.354 45.1169 256.758 42.0885 255.433 39.2493C253.351 34.7066 253.351 29.2175 253.73 27.1354C255.622 29.9746 257.326 32.4352 259.408 36.5994C260.544 39.06 262.247 43.2242 263.383 46.6312Z" fill="white"/>
<path d="M240.858 -96.8427C246.915 -95.7071 254.486 -92.1107 259.597 -90.7858C255.433 -90.0287 246.347 -90.5965 240.48 -92.1107C234.612 -93.625 230.259 -94.7607 224.391 -98.1677C227.419 -98.5462 234.801 -97.9784 240.858 -96.8427Z" fill="white"/>
<path d="M289.123 -52.7427C280.984 -55.9605 273.981 -61.2603 273.981 -61.2603C273.981 -61.2603 284.58 -61.071 289.312 -59.3675C294.233 -57.664 301.426 -52.932 310.322 -50.4714C303.697 -48.2 293.666 -51.0392 289.123 -52.7427Z" fill="white"/>
<path d="M273.037 -67.3151C266.79 -69.2079 261.869 -71.4792 256.38 -75.0755C261.112 -74.8862 268.115 -74.697 273.226 -73.372C278.337 -72.047 283.068 -68.4507 292.154 -65.4223C288.368 -64.2866 279.283 -65.4223 273.037 -67.3151Z" fill="white"/>
<path d="M259.406 -79.8082C252.971 -80.5654 246.914 -83.2153 240.857 -85.8652C244.832 -86.0545 249.942 -86.0545 256.378 -85.2974C262.813 -84.5402 269.817 -81.701 274.927 -79.9975C271.142 -79.0511 264.706 -79.2404 259.406 -79.8082Z" fill="white"/>
<path d="M129.563 -123.533C134.484 -126.751 138.08 -129.59 148.112 -129.212C142.055 -123.912 138.459 -122.397 129.563 -123.533Z" fill="white"/>
<path d="M115.745 -132.617C106.849 -126.749 102.685 -122.585 98.5207 -120.125C94.3565 -117.853 86.9746 -115.582 86.9746 -115.582C86.9746 -115.582 90.9495 -122.396 95.8708 -125.614C99.6564 -128.264 111.96 -131.86 115.745 -132.617Z" fill="white"/>
<path d="M74.8603 -119.178C78.6459 -122.585 82.81 -124.668 91.7062 -128.832C87.542 -124.1 83.7565 -118.8 79.9709 -115.014C75.4282 -110.472 68.2355 -104.983 68.2355 -104.983C68.2355 -104.983 70.1283 -114.825 74.8603 -119.178Z" fill="white"/>
<path d="M70.1274 -121.072C70.1274 -120.882 63.8812 -108.201 59.717 -102.522C55.5529 -96.844 50.4423 -93.8155 46.6567 -90.0299C47.4139 -95.7083 49.4959 -102.333 53.2815 -107.065C57.0671 -111.608 63.124 -116.529 70.1274 -121.072Z" fill="white"/>
<path d="M-18.8319 -42.8993C-23.7532 -37.5995 -31.7029 -34.1925 -37.192 -34.3817C-34.3528 -36.4638 -27.9173 -40.8172 -23.5639 -46.6849C-19.2104 -52.5526 -16.7498 -59.9345 -15.6141 -67.6949C-11.8286 -60.313 -12.7749 -49.3348 -18.8319 -42.8993Z" fill="white"/>
<path d="M-59.3399 -45.3592C-56.1221 -49.3341 -52.9044 -55.5803 -51.5794 -60.6909C-47.9831 -55.5803 -51.3901 -45.1699 -59.3399 -45.3592Z" fill="white"/>
<path d="M-69.3694 -46.4944C-66.5302 -50.28 -64.2589 -54.4441 -63.5018 -58.9868C-59.9054 -55.5798 -62.7446 -45.7373 -69.3694 -46.4944Z" fill="white"/>
<path d="M-109.307 38.4909C-109.307 38.4909 -113.661 16.5345 -112.714 8.96327C-106.279 21.0772 -92.6506 26.9448 -93.7862 36.9766C-93.7862 36.9766 -98.1397 34.7053 -103.25 29.0269C-103.25 29.0269 -102.115 37.923 -97.7611 44.1693C-90.7578 42.655 -84.5116 43.2229 -79.0224 47.387C-82.0509 49.2798 -98.7075 44.3585 -103.061 55.1475C-112.146 50.0369 -118.582 39.4373 -118.582 29.0269L-109.307 38.4909Z" fill="white"/>
<path d="M-104.008 60.827C-114.04 61.3948 -119.151 54.77 -121.233 45.1168C-116.501 50.7952 -110.065 56.6628 -104.008 60.827Z" fill="white"/>
<path d="M61.9877 96.0316C68.9911 89.7854 76.373 89.4068 79.78 87.1355C77.1301 93.0031 68.9911 97.1673 61.9877 96.0316Z" fill="white"/>
<path d="M71.4518 82.7826C74.291 78.4292 82.6193 75.9685 86.9727 72.7508C85.4585 79.7541 76.9409 83.1612 71.4518 82.7826Z" fill="white"/>
<path d="M148.302 110.796C146.031 103.414 143.949 87.5145 147.924 77.1041C150.574 87.1359 152.277 101.9 148.302 110.796Z" fill="white"/>
<path d="M161.74 83.5397C162.308 72.9401 160.794 57.6085 167.04 44.9267C168.176 54.58 168.554 73.8865 161.74 83.5397Z" fill="white"/>
<path d="M197.701 33.9487C199.215 43.9805 202.812 54.7695 209.815 62.3406C203.001 60.8264 198.837 55.5266 197.133 50.6053C195.998 46.6304 194.483 40.3842 197.701 33.9487Z" fill="white"/>
<path d="M224.391 133.509C225.148 124.992 228.744 117.61 233.097 112.121C232.53 121.774 230.448 129.345 229.69 135.592C228.365 145.434 228.933 151.87 227.987 158.494C225.148 149.977 223.823 139.756 224.391 133.509Z" fill="white"/>
<path d="M251.269 163.037C245.78 159.062 244.455 152.059 246.158 147.138C248.24 151.68 252.215 156.791 256.001 159.63C260.543 163.037 263.761 164.362 270.954 167.012C265.843 167.958 256.19 166.444 251.269 163.037Z" fill="white"/>
<path d="M269.061 161.713C263.383 160.388 259.786 157.17 258.461 152.06C267.736 158.117 276.254 159.063 285.15 159.063C282.878 160.767 276.064 163.417 269.061 161.713Z" fill="white"/>
<path d="M389.254 160.387C386.036 160.955 380.169 160.955 375.058 160.009C369.948 159.062 365.783 157.548 362.376 154.709C362.376 154.709 369.948 153.952 374.869 154.898C379.79 156.034 384.143 158.305 389.254 160.387Z" fill="white"/>
<path d="M349.692 136.537C353.478 137.673 357.642 139.187 362.563 141.647C365.213 143.162 374.488 149.029 376.381 151.49C372.027 150.544 366.538 149.219 363.131 147.515C358.399 145.244 354.424 141.458 349.692 136.537Z" fill="white"/>
<path d="M356.319 121.395C350.262 114.959 346.476 104.17 346.476 99.6275C350.83 103.981 354.426 108.902 359.915 115.338C365.404 121.773 377.14 135.78 378.843 138.43C371.461 135.591 362.186 127.83 356.319 121.395Z" fill="white"/>
<path d="M363.889 97.5466C359.347 89.5968 353.1 79.3757 351.397 73.3188C356.697 77.483 366.161 88.8397 368.432 92.8146C373.164 100.575 377.896 114.014 379.221 121.585C375.435 118.367 368.432 105.875 363.889 97.5466Z" fill="white"/>
<path d="M365.215 81.0801C359.915 74.6446 356.319 69.1555 351.208 62.1522C355.372 64.2343 366.54 72.9411 370.515 78.4302C374.49 83.73 379.222 94.3297 380.736 101.333C376.382 96.4118 370.515 87.5156 365.215 81.0801Z" fill="white"/>
<path d="M362.944 39.6271C360.673 38.3021 353.48 32.813 349.127 26.9454C353.48 28.4596 360.105 31.1095 365.405 35.4629C370.705 39.8164 373.166 43.2234 374.301 45.8733C370.137 44.5484 366.162 41.5199 362.944 39.6271Z" fill="white"/>
<path d="M354.235 24.6746C349.692 21.8354 345.15 18.0498 341.175 14.832C345.717 15.7784 351.585 17.6712 356.885 21.0783C361.995 24.4853 365.592 27.703 367.295 30.353C362.942 29.028 358.778 27.5138 354.235 24.6746Z" fill="white"/>
<path d="M490.14 128.777C490.14 128.777 509.257 140.891 516.828 142.216C516.828 142.216 501.497 132.184 496.386 119.692C496.386 119.692 512.854 132.563 523.075 135.591C523.075 135.591 507.743 122.531 503.39 112.121C503.39 112.121 523.832 128.967 531.024 130.291C531.024 130.291 516.071 118.178 511.907 105.496C511.907 105.496 528.753 120.638 537.649 122.72C537.649 122.72 520.614 108.903 517.775 99.0604C517.775 99.0604 507.364 92.2463 503.011 88.0822C511.529 90.1642 517.207 93.9498 522.318 97.9247C522.318 97.9247 533.296 110.606 548.438 116.663L544.652 119.313C544.652 119.313 552.413 126.506 561.688 129.913L556.198 133.698C556.198 133.698 566.987 138.809 578.534 138.998C568.88 151.491 542.949 149.409 542.949 149.409L545.031 153.762C535.756 153.384 524.778 146.191 524.778 146.191L527.428 153.951C512.286 151.491 493.358 138.241 490.14 128.777Z" fill="white"/>
<path d="M8.04446 63.2856C8.04446 63.2856 15.6157 61.2035 23.1868 61.2035C21.1048 57.0394 16.9406 50.7931 9.55872 49.4682C10.1266 51.1717 11.2622 55.1466 9.93727 57.9857C2.93393 45.6826 -4.63724 46.0612 -4.63724 46.0612C-1.60876 50.4146 -1.04094 55.1466 -1.41949 58.5536C-3.69084 54.3894 -12.9655 44.7362 -23.1866 47.3861C-15.994 50.6039 -13.7227 54.5787 -13.1548 59.6893C-18.4547 55.1466 -33.597 49.6575 -40.2218 57.2286C-31.7042 56.2822 -26.7829 59.6893 -24.8901 62.907C-32.4613 63.0963 -33.7863 66.1248 -38.1397 68.3961C-49.1179 74.0745 -59.339 70.2889 -63.3139 76.7244C-60.664 76.3459 -45.1431 77.8601 -38.5183 75.2102C-42.1146 79.9422 -50.0643 79.5636 -54.9856 79.7529C-59.7176 79.9422 -66.5316 80.3207 -71.0743 84.1063C-64.2603 84.2956 -56.4998 85.4313 -50.6322 85.4313C-55.932 90.9204 -75.2385 85.242 -80.5383 90.9204C-76.1849 91.2989 -71.6422 92.8132 -67.6673 93.381C-72.5886 96.9773 -83.3775 92.6239 -88.1095 97.7344C-86.0274 97.9237 -82.6204 99.6272 -79.7812 100.574C-83.9453 102.656 -90.7594 100.384 -94.545 104.738C-92.8415 104.927 -89.6237 105.873 -87.7309 107.956C-91.5165 108.334 -97.3842 109.091 -99.4662 112.688C-92.4629 114.77 -93.7879 124.991 -101.548 129.533C-96.8163 121.773 -98.1413 116.662 -104.009 116.095C-111.391 115.337 -123.694 118.934 -132.59 124.801C-125.019 112.12 -103.82 113.255 -101.17 108.145C-111.769 108.145 -122.937 111.552 -127.29 115.716C-125.776 108.902 -121.801 103.413 -119.151 99.438C-116.312 95.4631 -109.12 86.3777 -106.47 78.9958C-111.202 75.9673 -111.959 72.371 -111.959 72.371C-104.577 70.8568 -103.063 66.8819 -103.063 66.8819C-110.823 65.9355 -115.744 64.232 -122.369 59.6893C-120.476 65.7462 -109.877 72.9388 -120.855 89.7847C-128.237 101.141 -131.644 108.334 -135.429 118.555C-138.458 126.505 -143.947 130.858 -147.165 133.698C-148.3 134.833 -148.3 136.726 -146.975 137.672C-144.704 139.565 -141.108 141.647 -137.511 143.351C-136.565 140.701 -134.862 136.915 -139.026 131.615C-135.429 131.805 -132.022 135.212 -132.59 140.322C-133.158 144.297 -131.644 146.001 -128.994 146.379C-122.748 147.515 -104.388 142.972 -95.4914 128.966C-89.0559 118.934 -78.8348 111.552 -66.1531 108.334C-59.1497 106.631 -55.3641 107.577 -53.4714 109.848C-51.3893 112.498 -52.7142 116.284 -54.0392 118.934C-57.0677 125.748 -57.8248 131.994 -58.2033 138.43C-58.7712 149.218 -63.6924 166.443 -71.2636 167.2C-67.8566 169.282 -64.071 166.821 -61.6104 162.847C-59.339 159.25 -55.7427 151.301 -54.607 137.862C-54.0392 129.533 -53.0928 125.559 -50.0643 118.555C-47.793 113.445 -47.6037 109.091 -49.4965 106.252C-51.2 103.981 -53.6606 101.709 -59.9068 101.899C-55.7427 99.438 -48.9286 100.763 -46.468 104.17C-43.6288 107.956 -43.6288 113.823 -46.468 120.259C-49.3072 126.505 -49.875 129.723 -50.6322 138.24C-52.3357 157.357 -56.3105 164.55 -61.4211 169.661C-54.2285 169.471 -49.4965 163.604 -47.793 156.411C-45.3323 146.569 -41.9253 133.887 -40.4111 129.533C-38.8968 124.801 -36.4362 121.962 -33.9756 120.069C-28.2972 115.716 -29.8114 111.173 -24.133 106.82C-32.272 106.063 -33.2184 116.473 -40.6003 117.987C-34.1648 111.173 -34.5434 102.656 -25.8365 98.6808C-17.1297 94.706 -8.23355 97.1666 -4.82652 99.8165C-6.15147 93.1917 -15.0476 89.0276 -25.8365 90.3525C-19.9689 84.6741 -3.88013 88.2705 5.39458 93.5703C3.3125 87.7026 -2.55516 82.4028 -16.1833 80.51C-7.47643 77.103 5.9624 81.0779 14.1014 84.6742C11.4515 78.9958 1.41969 73.8852 -7.28717 72.371C0.473297 69.7211 12.0193 70.2889 18.8334 72.5603C16.7513 67.8283 8.04446 63.2856 8.04446 63.2856ZM-39.8432 106.631C-40.6003 99.438 -36.0576 94.3274 -30.3792 94.1381C-33.7863 96.9773 -37.1933 102.088 -39.8432 106.631Z" fill="white"/>
<path d="M257.703 6.3147C267.167 6.69325 273.035 18.05 270.196 28.6497C268.492 20.3214 265.842 12.7502 257.703 6.3147Z" fill="white"/>
</g>
<defs>
<clipPath id="clip0_211_1972">
<rect width="200" height="200" fill="white"/>
</clipPath>
</defs>
</svg>
